M48
; DRILL file {KiCad 5.1.4-e60b266~84~ubuntu18.04.1} date dom 11 ago 2019 22:19:45 CEST
; FORMAT={-:-/ absolute / inch / decimal}
; #@! TF.CreationDate,2019-08-11T22:19:45+02:00
; #@! TF.GenerationSoftware,Kicad,Pcbnew,5.1.4-e60b266~84~ubuntu18.04.1
; #@! TF.FileFunction,Plated,1,2,PTH
FMAT,2
INCH
T1C0.0157
T2C0.0180
T3C0.0250
T4C0.0354
T5C0.0394
T6C0.0472
T7C0.0866
%
G90
G05
T1
X7.805Y-3.48
X8.07Y-3.765
X8.11Y-3.36
X8.11Y-3.4
X8.12Y-3.745
X8.125Y-3.69
X8.15Y-3.36
X8.15Y-3.4
X8.19Y-3.36
X8.29Y-3.3898
X8.3Y-3.83
X8.3Y-4.8
X8.3Y-4.85
X8.3Y-4.8972
X8.352Y-3.716
X8.37Y-3.96
X8.37Y-5.06
X8.39Y-3.485
X8.39Y-5.02
X8.3977Y-3.7994
X8.41Y-5.06
X8.469Y-3.689
X8.5403Y-3.5279
X8.5781Y-3.4052
X8.5948Y-3.6864
X8.597Y-4.809
X8.5973Y-3.6549
X8.626Y-4.0
X8.6445Y-3.5578
X8.6445Y-3.5894
X8.6445Y-3.6668
X8.6561Y-3.8689
X8.6575Y-4.0
X8.7Y-4.15
X8.7Y-4.19
X8.725Y-3.9814
X8.74Y-4.15
X8.74Y-4.19
X8.7738Y-4.0079
X8.7974Y-4.6071
X8.8016Y-3.3853
X8.8017Y-3.993
X8.829Y-4.025
X8.89Y-4.35
X8.89Y-4.39
X8.93Y-4.31
X8.93Y-4.35
X8.94Y-3.57
X8.97Y-4.27
X8.97Y-4.31
X9.0Y-4.44
X9.0Y-4.991
X9.02Y-3.35
X9.0281Y-3.4846
X9.04Y-4.4
X9.04Y-4.44
X9.08Y-4.36
X9.08Y-4.4
X9.08Y-4.44
X9.09Y-3.79
X9.09Y-3.83
X9.09Y-3.87
X9.13Y-3.83
X9.2721Y-3.8081
X9.3046Y-3.4207
X9.31Y-3.72
X9.45Y-3.6301
X9.57Y-3.48
X9.575Y-3.365
X9.61Y-3.48
X9.61Y-3.515
X9.65Y-3.48
X9.65Y-3.515
T2
X7.815Y-3.628
X8.3529Y-3.874
X8.5492Y-4.4495
X8.805Y-3.8
X8.8149Y-3.5302
X8.8272Y-3.7162
X9.33Y-3.39
X9.5772Y-3.826
T3
X8.325Y-4.3
X8.325Y-4.375
X8.5489Y-4.6288
X8.5515Y-4.869
X8.62Y-4.217
T4
X7.975Y-3.575
X8.075Y-3.575
X9.525Y-3.575
X9.625Y-3.575
X9.425Y-4.075
X9.425Y-4.175
X7.975Y-3.875
X7.975Y-3.975
X9.425Y-3.875
X9.425Y-3.975
X7.775Y-3.575
X7.875Y-3.575
X7.975Y-4.075
X7.975Y-4.175
X9.325Y-3.575
X9.425Y-3.575
T5
X8.09Y-3.9
X8.09Y-4.0
X8.2Y-3.9
X8.2Y-4.0
X9.2Y-3.9
X9.2Y-4.0
X8.45Y-3.36
X8.55Y-3.36
X8.65Y-3.36
X8.75Y-3.36
X8.85Y-3.36
X8.95Y-3.36
X8.6Y-5.04
X8.7Y-5.04
X8.8Y-5.04
T6
X9.17Y-3.5439
X9.17Y-3.7361
T7
X8.7Y-4.9
X9.275Y-4.125
X8.125Y-4.125
X8.7Y-4.5
T0
M30
