G04 #@! TF.GenerationSoftware,KiCad,Pcbnew,5.1.4-e60b266~84~ubuntu18.04.1*
G04 #@! TF.CreationDate,2019-08-11T22:19:42+02:00*
G04 #@! TF.ProjectId,rat_board,7261745f-626f-4617-9264-2e6b69636164,rev?*
G04 #@! TF.SameCoordinates,Original*
G04 #@! TF.FileFunction,Soldermask,Top*
G04 #@! TF.FilePolarity,Negative*
%FSLAX46Y46*%
G04 Gerber Fmt 4.6, Leading zero omitted, Abs format (unit mm)*
G04 Created by KiCad (PCBNEW 5.1.4-e60b266~84~ubuntu18.04.1) date 2019-08-11 22:19:42*
%MOMM*%
%LPD*%
G04 APERTURE LIST*
%ADD10O,2.100000X2.100000*%
%ADD11R,2.100000X2.100000*%
%ADD12C,2.100000*%
%ADD13R,1.600000X1.300000*%
%ADD14C,4.200000*%
%ADD15R,2.200000X2.200000*%
%ADD16C,2.200000*%
%ADD17O,2.899360X2.398980*%
%ADD18R,1.300000X1.600000*%
%ADD19R,1.200000X1.200000*%
%ADD20R,1.700000X0.650000*%
%ADD21R,0.650000X1.700000*%
%ADD22R,1.300000X2.100000*%
G04 APERTURE END LIST*
D10*
X227330000Y-85344000D03*
X224790000Y-85344000D03*
X222250000Y-85344000D03*
X219710000Y-85344000D03*
X217170000Y-85344000D03*
D11*
X214630000Y-85344000D03*
D10*
X218440000Y-128016000D03*
D11*
X220980000Y-128016000D03*
D12*
X223520000Y-128016000D03*
D10*
X205486000Y-99060000D03*
D11*
X205486000Y-101600000D03*
D12*
X208280000Y-101600000D03*
D10*
X208280000Y-99060000D03*
D12*
X233680000Y-101600000D03*
X233680000Y-99060000D03*
D13*
X210650000Y-88392000D03*
X208450000Y-88392000D03*
D14*
X235585000Y-104775000D03*
X206375000Y-104775000D03*
X220980000Y-124460000D03*
X220980000Y-114300000D03*
D13*
X225976000Y-89916000D03*
X228176000Y-89916000D03*
X225976000Y-88265000D03*
X228176000Y-88265000D03*
X225976000Y-95123000D03*
X228176000Y-95123000D03*
X210650000Y-86995000D03*
X208450000Y-86995000D03*
X210650000Y-95123000D03*
X208450000Y-95123000D03*
X225976000Y-97282000D03*
X228176000Y-97282000D03*
X228176000Y-93726000D03*
X225976000Y-93726000D03*
X228176000Y-91313000D03*
X225976000Y-91313000D03*
D15*
X205105000Y-90805000D03*
D16*
X202565000Y-90805000D03*
D13*
X225976000Y-99314000D03*
X228176000Y-99314000D03*
D17*
X232918000Y-94896940D03*
X232918000Y-90015060D03*
D18*
X242316000Y-93388000D03*
X242316000Y-95588000D03*
X199644000Y-95588000D03*
X199644000Y-93388000D03*
X240284000Y-95588000D03*
X240284000Y-93388000D03*
X201676000Y-93388000D03*
X201676000Y-95588000D03*
X244348000Y-93388000D03*
X244348000Y-95588000D03*
X197612000Y-95588000D03*
X197612000Y-93388000D03*
X238252000Y-93388000D03*
X238252000Y-95588000D03*
X203708000Y-95588000D03*
X203708000Y-93388000D03*
D16*
X239395000Y-106045000D03*
D15*
X239395000Y-103505000D03*
D16*
X200025000Y-90805000D03*
D15*
X197485000Y-90805000D03*
D16*
X244475000Y-90805000D03*
D15*
X241935000Y-90805000D03*
D16*
X202565000Y-103505000D03*
D15*
X202565000Y-106045000D03*
X239395000Y-100965000D03*
D16*
X239395000Y-98425000D03*
D15*
X239395000Y-90805000D03*
D16*
X236855000Y-90805000D03*
D15*
X202565000Y-98425000D03*
D16*
X202565000Y-100965000D03*
D19*
X212090000Y-86525000D03*
X212090000Y-84925000D03*
X230124000Y-86525000D03*
X230124000Y-84925000D03*
D20*
X222536000Y-94698000D03*
X222536000Y-94198000D03*
X222536000Y-93698000D03*
X222536000Y-93198000D03*
X222536000Y-92698000D03*
X222536000Y-92198000D03*
X222536000Y-91698000D03*
X222536000Y-91198000D03*
X222536000Y-90698000D03*
X222536000Y-90198000D03*
X222536000Y-89698000D03*
X222536000Y-89198000D03*
D21*
X220936000Y-87598000D03*
X220436000Y-87598000D03*
X219936000Y-87598000D03*
X219436000Y-87598000D03*
X218936000Y-87598000D03*
X218436000Y-87598000D03*
X217936000Y-87598000D03*
X217436000Y-87598000D03*
X216936000Y-87598000D03*
X216436000Y-87598000D03*
X215936000Y-87598000D03*
X215436000Y-87598000D03*
D20*
X213836000Y-89198000D03*
X213836000Y-89698000D03*
X213836000Y-90198000D03*
X213836000Y-90698000D03*
X213836000Y-91198000D03*
X213836000Y-91698000D03*
X213836000Y-92198000D03*
X213836000Y-92698000D03*
X213836000Y-93198000D03*
X213836000Y-93698000D03*
X213836000Y-94198000D03*
X213836000Y-94698000D03*
D21*
X215436000Y-96298000D03*
X215936000Y-96298000D03*
X216436000Y-96298000D03*
X216936000Y-96298000D03*
X217436000Y-96298000D03*
X217936000Y-96298000D03*
X218436000Y-96298000D03*
X218936000Y-96298000D03*
X219436000Y-96298000D03*
X219936000Y-96298000D03*
X220436000Y-96298000D03*
X220936000Y-96298000D03*
D13*
X234780000Y-85725000D03*
X232580000Y-85725000D03*
X210650000Y-91186000D03*
X208450000Y-91186000D03*
D18*
X236728000Y-101176000D03*
X236728000Y-98976000D03*
D13*
X210650000Y-93726000D03*
X208450000Y-93726000D03*
X208450000Y-89789000D03*
X210650000Y-89789000D03*
D22*
X215060000Y-126365000D03*
X211660000Y-126365000D03*
X226900000Y-126365000D03*
X230300000Y-126365000D03*
M02*
