G04 #@! TF.GenerationSoftware,KiCad,Pcbnew,5.1.4-e60b266~84~ubuntu18.04.1*
G04 #@! TF.CreationDate,2019-08-11T22:19:42+02:00*
G04 #@! TF.ProjectId,rat_board,7261745f-626f-4617-9264-2e6b69636164,rev?*
G04 #@! TF.SameCoordinates,Original*
G04 #@! TF.FileFunction,Legend,Top*
G04 #@! TF.FilePolarity,Positive*
%FSLAX46Y46*%
G04 Gerber Fmt 4.6, Leading zero omitted, Abs format (unit mm)*
G04 Created by KiCad (PCBNEW 5.1.4-e60b266~84~ubuntu18.04.1) date 2019-08-11 22:19:42*
%MOMM*%
%LPD*%
G04 APERTURE LIST*
%ADD10C,0.150000*%
%ADD11C,0.120000*%
%ADD12C,0.100000*%
G04 APERTURE END LIST*
D10*
X243117809Y-102687380D02*
X243117809Y-101687380D01*
X244165428Y-102687380D02*
X243832095Y-102211190D01*
X243594000Y-102687380D02*
X243594000Y-101687380D01*
X243974952Y-101687380D01*
X244070190Y-101735000D01*
X244117809Y-101782619D01*
X244165428Y-101877857D01*
X244165428Y-102020714D01*
X244117809Y-102115952D01*
X244070190Y-102163571D01*
X243974952Y-102211190D01*
X243594000Y-102211190D01*
X245022571Y-101687380D02*
X244832095Y-101687380D01*
X244736857Y-101735000D01*
X244689238Y-101782619D01*
X244594000Y-101925476D01*
X244546380Y-102115952D01*
X244546380Y-102496904D01*
X244594000Y-102592142D01*
X244641619Y-102639761D01*
X244736857Y-102687380D01*
X244927333Y-102687380D01*
X245022571Y-102639761D01*
X245070190Y-102592142D01*
X245117809Y-102496904D01*
X245117809Y-102258809D01*
X245070190Y-102163571D01*
X245022571Y-102115952D01*
X244927333Y-102068333D01*
X244736857Y-102068333D01*
X244641619Y-102115952D01*
X244594000Y-102163571D01*
X244546380Y-102258809D01*
X241117380Y-87082190D02*
X240117380Y-87082190D01*
X241117380Y-86034571D02*
X240641190Y-86367904D01*
X241117380Y-86606000D02*
X240117380Y-86606000D01*
X240117380Y-86225047D01*
X240165000Y-86129809D01*
X240212619Y-86082190D01*
X240307857Y-86034571D01*
X240450714Y-86034571D01*
X240545952Y-86082190D01*
X240593571Y-86129809D01*
X240641190Y-86225047D01*
X240641190Y-86606000D01*
X240117380Y-85177428D02*
X240117380Y-85367904D01*
X240165000Y-85463142D01*
X240212619Y-85510761D01*
X240355476Y-85606000D01*
X240545952Y-85653619D01*
X240926904Y-85653619D01*
X241022142Y-85606000D01*
X241069761Y-85558380D01*
X241117380Y-85463142D01*
X241117380Y-85272666D01*
X241069761Y-85177428D01*
X241022142Y-85129809D01*
X240926904Y-85082190D01*
X240688809Y-85082190D01*
X240593571Y-85129809D01*
X240545952Y-85177428D01*
X240498333Y-85272666D01*
X240498333Y-85463142D01*
X240545952Y-85558380D01*
X240593571Y-85606000D01*
X240688809Y-85653619D01*
X201747380Y-87082190D02*
X200747380Y-87082190D01*
X201747380Y-86034571D02*
X201271190Y-86367904D01*
X201747380Y-86606000D02*
X200747380Y-86606000D01*
X200747380Y-86225047D01*
X200795000Y-86129809D01*
X200842619Y-86082190D01*
X200937857Y-86034571D01*
X201080714Y-86034571D01*
X201175952Y-86082190D01*
X201223571Y-86129809D01*
X201271190Y-86225047D01*
X201271190Y-86606000D01*
X200842619Y-85653619D02*
X200795000Y-85606000D01*
X200747380Y-85510761D01*
X200747380Y-85272666D01*
X200795000Y-85177428D01*
X200842619Y-85129809D01*
X200937857Y-85082190D01*
X201033095Y-85082190D01*
X201175952Y-85129809D01*
X201747380Y-85701238D01*
X201747380Y-85082190D01*
X196889809Y-102687380D02*
X196889809Y-101687380D01*
X197937428Y-102687380D02*
X197604095Y-102211190D01*
X197366000Y-102687380D02*
X197366000Y-101687380D01*
X197746952Y-101687380D01*
X197842190Y-101735000D01*
X197889809Y-101782619D01*
X197937428Y-101877857D01*
X197937428Y-102020714D01*
X197889809Y-102115952D01*
X197842190Y-102163571D01*
X197746952Y-102211190D01*
X197366000Y-102211190D01*
X198270761Y-101687380D02*
X198889809Y-101687380D01*
X198556476Y-102068333D01*
X198699333Y-102068333D01*
X198794571Y-102115952D01*
X198842190Y-102163571D01*
X198889809Y-102258809D01*
X198889809Y-102496904D01*
X198842190Y-102592142D01*
X198794571Y-102639761D01*
X198699333Y-102687380D01*
X198413619Y-102687380D01*
X198318380Y-102639761D01*
X198270761Y-102592142D01*
D11*
X213300000Y-86674000D02*
X213300000Y-84328000D01*
X213300000Y-86674000D02*
X228660000Y-86674000D01*
X228660000Y-86674000D02*
X228660000Y-84328000D01*
X224850000Y-126686000D02*
X224853500Y-129032000D01*
X224850000Y-126686000D02*
X217110000Y-126686000D01*
X217110000Y-126686000D02*
X217110000Y-129032000D01*
X206816000Y-102930000D02*
X204156000Y-102933500D01*
X204156000Y-102933500D02*
X204156000Y-97730000D01*
X206816000Y-102930000D02*
X206816000Y-97730000D01*
X206816000Y-97730000D02*
X204156000Y-97730000D01*
X209610000Y-97730000D02*
X206950000Y-97730000D01*
X209610000Y-102930000D02*
X209610000Y-97730000D01*
X206950000Y-102933500D02*
X206950000Y-97730000D01*
X209610000Y-102930000D02*
X206950000Y-102933500D01*
X232350000Y-97730000D02*
X235013500Y-97730000D01*
X235013500Y-97730000D02*
X235010000Y-102930000D01*
X232350000Y-97730000D02*
X232350000Y-102930000D01*
X232350000Y-102930000D02*
X235010000Y-102930000D01*
X209050000Y-87712000D02*
X210050000Y-87712000D01*
X210050000Y-89072000D02*
X209050000Y-89072000D01*
X227576000Y-90596000D02*
X226576000Y-90596000D01*
X226576000Y-89236000D02*
X227576000Y-89236000D01*
X227576000Y-88945000D02*
X226576000Y-88945000D01*
X226576000Y-87585000D02*
X227576000Y-87585000D01*
X227576000Y-95803000D02*
X226576000Y-95803000D01*
X226576000Y-94443000D02*
X227576000Y-94443000D01*
X209050000Y-86315000D02*
X210050000Y-86315000D01*
X210050000Y-87675000D02*
X209050000Y-87675000D01*
X209050000Y-94443000D02*
X210050000Y-94443000D01*
X210050000Y-95803000D02*
X209050000Y-95803000D01*
X227576000Y-97962000D02*
X226576000Y-97962000D01*
X226576000Y-96602000D02*
X227576000Y-96602000D01*
X226576000Y-93046000D02*
X227576000Y-93046000D01*
X227576000Y-94406000D02*
X226576000Y-94406000D01*
X226576000Y-90633000D02*
X227576000Y-90633000D01*
X227576000Y-91993000D02*
X226576000Y-91993000D01*
X202275000Y-85735000D02*
G75*
G02X205395000Y-85735000I1560000J0D01*
G01*
X205395000Y-89595000D02*
X205395000Y-85735000D01*
X202275000Y-89595000D02*
X202275000Y-85735000D01*
X205395000Y-89595000D02*
X202275000Y-89595000D01*
X201875000Y-89595000D02*
X201875000Y-88475000D01*
X201875000Y-88475000D02*
X202275000Y-88475000D01*
X202275000Y-88475000D02*
X202275000Y-89595000D01*
X202275000Y-89595000D02*
X201875000Y-89595000D01*
X205105000Y-89725000D02*
X205105000Y-89595000D01*
X205105000Y-89595000D02*
X205105000Y-89595000D01*
X205105000Y-89595000D02*
X205105000Y-89725000D01*
X205105000Y-89725000D02*
X205105000Y-89725000D01*
X202565000Y-89725000D02*
X202565000Y-89595000D01*
X202565000Y-89595000D02*
X202565000Y-89595000D01*
X202565000Y-89595000D02*
X202565000Y-89725000D01*
X202565000Y-89725000D02*
X202565000Y-89725000D01*
X227576000Y-99994000D02*
X226576000Y-99994000D01*
X226576000Y-98634000D02*
X227576000Y-98634000D01*
D10*
X231917240Y-87757000D02*
X232318560Y-87556340D01*
X232318560Y-87556340D02*
X232918000Y-87454740D01*
X232918000Y-87454740D02*
X233418380Y-87556340D01*
X233418380Y-87556340D02*
X234116880Y-87955120D01*
X234116880Y-87955120D02*
X234518200Y-88557100D01*
X234518200Y-88557100D02*
X234718860Y-89156540D01*
X234718860Y-89156540D02*
X234718860Y-95755460D01*
X234718860Y-95755460D02*
X234518200Y-96456500D01*
X234518200Y-96456500D02*
X234218480Y-96855280D01*
X234218480Y-96855280D02*
X233718100Y-97256600D01*
X233718100Y-97256600D02*
X233118660Y-97457260D01*
X233118660Y-97457260D02*
X232618280Y-97457260D01*
X232618280Y-97457260D02*
X232117900Y-97256600D01*
X232117900Y-97256600D02*
X231518460Y-96756220D01*
X231518460Y-96756220D02*
X231218740Y-96255840D01*
X231218740Y-96255840D02*
X231117140Y-95755460D01*
X231117140Y-95656400D02*
X231117140Y-89054940D01*
X231117140Y-89054940D02*
X231218740Y-88656160D01*
X231218740Y-88656160D02*
X231518460Y-88155780D01*
X231518460Y-88155780D02*
X232018840Y-87655400D01*
X230588820Y-95646240D02*
X230637080Y-96105980D01*
X230637080Y-96105980D02*
X230748840Y-96504760D01*
X230748840Y-96504760D02*
X230967280Y-96936560D01*
X230967280Y-96936560D02*
X231198420Y-97226120D01*
X231198420Y-97226120D02*
X231548940Y-97556320D01*
X231548940Y-97556320D02*
X232087420Y-97845880D01*
X232087420Y-97845880D02*
X232686860Y-97975420D01*
X232686860Y-97975420D02*
X233197400Y-97975420D01*
X233197400Y-97975420D02*
X233898440Y-97805240D01*
X233898440Y-97805240D02*
X234487720Y-97406460D01*
X234487720Y-97406460D02*
X234858560Y-96946720D01*
X234858560Y-96946720D02*
X235066840Y-96525080D01*
X235066840Y-96525080D02*
X235226860Y-96075500D01*
X235226860Y-96075500D02*
X235257340Y-95636080D01*
X235038900Y-88295480D02*
X234817920Y-87917020D01*
X234817920Y-87917020D02*
X234538520Y-87596980D01*
X234538520Y-87596980D02*
X234208320Y-87345520D01*
X234208320Y-87345520D02*
X233657140Y-87045800D01*
X233657140Y-87045800D02*
X233187240Y-86936580D01*
X233187240Y-86936580D02*
X232727500Y-86916260D01*
X232727500Y-86916260D02*
X232267760Y-87005160D01*
X232267760Y-87005160D02*
X231818180Y-87195660D01*
X231818180Y-87195660D02*
X231348280Y-87556340D01*
X231348280Y-87556340D02*
X231028240Y-87906860D01*
X231028240Y-87906860D02*
X230797100Y-88295480D01*
X230797100Y-88295480D02*
X230657400Y-88724740D01*
X230657400Y-88724740D02*
X230588820Y-89166700D01*
X235247180Y-95656400D02*
X235247180Y-89204800D01*
X235247180Y-89204800D02*
X235209080Y-88785700D01*
X235209080Y-88785700D02*
X235038900Y-88295480D01*
X230588820Y-95656400D02*
X230588820Y-89204800D01*
D11*
X241636000Y-94988000D02*
X241636000Y-93988000D01*
X242996000Y-93988000D02*
X242996000Y-94988000D01*
X200324000Y-93988000D02*
X200324000Y-94988000D01*
X198964000Y-94988000D02*
X198964000Y-93988000D01*
X240964000Y-93988000D02*
X240964000Y-94988000D01*
X239604000Y-94988000D02*
X239604000Y-93988000D01*
X200996000Y-94988000D02*
X200996000Y-93988000D01*
X202356000Y-93988000D02*
X202356000Y-94988000D01*
X243668000Y-94988000D02*
X243668000Y-93988000D01*
X245028000Y-93988000D02*
X245028000Y-94988000D01*
X198292000Y-93988000D02*
X198292000Y-94988000D01*
X196932000Y-94988000D02*
X196932000Y-93988000D01*
X237572000Y-94988000D02*
X237572000Y-93988000D01*
X238932000Y-93988000D02*
X238932000Y-94988000D01*
X204388000Y-93988000D02*
X204388000Y-94988000D01*
X203028000Y-94988000D02*
X203028000Y-93988000D01*
X244465000Y-103215000D02*
G75*
G02X244465000Y-106335000I0J-1560000D01*
G01*
X240605000Y-106335000D02*
X244465000Y-106335000D01*
X240605000Y-103215000D02*
X244465000Y-103215000D01*
X240605000Y-106335000D02*
X240605000Y-103215000D01*
X240605000Y-102815000D02*
X241725000Y-102815000D01*
X241725000Y-102815000D02*
X241725000Y-103215000D01*
X241725000Y-103215000D02*
X240605000Y-103215000D01*
X240605000Y-103215000D02*
X240605000Y-102815000D01*
X240475000Y-106045000D02*
X240605000Y-106045000D01*
X240605000Y-106045000D02*
X240605000Y-106045000D01*
X240605000Y-106045000D02*
X240475000Y-106045000D01*
X240475000Y-106045000D02*
X240475000Y-106045000D01*
X240475000Y-103505000D02*
X240605000Y-103505000D01*
X240605000Y-103505000D02*
X240605000Y-103505000D01*
X240605000Y-103505000D02*
X240475000Y-103505000D01*
X240475000Y-103505000D02*
X240475000Y-103505000D01*
X197195000Y-85735000D02*
G75*
G02X200315000Y-85735000I1560000J0D01*
G01*
X200315000Y-89595000D02*
X200315000Y-85735000D01*
X197195000Y-89595000D02*
X197195000Y-85735000D01*
X200315000Y-89595000D02*
X197195000Y-89595000D01*
X196795000Y-89595000D02*
X196795000Y-88475000D01*
X196795000Y-88475000D02*
X197195000Y-88475000D01*
X197195000Y-88475000D02*
X197195000Y-89595000D01*
X197195000Y-89595000D02*
X196795000Y-89595000D01*
X200025000Y-89725000D02*
X200025000Y-89595000D01*
X200025000Y-89595000D02*
X200025000Y-89595000D01*
X200025000Y-89595000D02*
X200025000Y-89725000D01*
X200025000Y-89725000D02*
X200025000Y-89725000D01*
X197485000Y-89725000D02*
X197485000Y-89595000D01*
X197485000Y-89595000D02*
X197485000Y-89595000D01*
X197485000Y-89595000D02*
X197485000Y-89725000D01*
X197485000Y-89725000D02*
X197485000Y-89725000D01*
X241645000Y-85735000D02*
G75*
G02X244765000Y-85735000I1560000J0D01*
G01*
X244765000Y-89595000D02*
X244765000Y-85735000D01*
X241645000Y-89595000D02*
X241645000Y-85735000D01*
X244765000Y-89595000D02*
X241645000Y-89595000D01*
X241245000Y-89595000D02*
X241245000Y-88475000D01*
X241245000Y-88475000D02*
X241645000Y-88475000D01*
X241645000Y-88475000D02*
X241645000Y-89595000D01*
X241645000Y-89595000D02*
X241245000Y-89595000D01*
X244475000Y-89725000D02*
X244475000Y-89595000D01*
X244475000Y-89595000D02*
X244475000Y-89595000D01*
X244475000Y-89595000D02*
X244475000Y-89725000D01*
X244475000Y-89725000D02*
X244475000Y-89725000D01*
X241935000Y-89725000D02*
X241935000Y-89595000D01*
X241935000Y-89595000D02*
X241935000Y-89595000D01*
X241935000Y-89595000D02*
X241935000Y-89725000D01*
X241935000Y-89725000D02*
X241935000Y-89725000D01*
X197495000Y-106335000D02*
G75*
G02X197495000Y-103215000I0J1560000D01*
G01*
X201355000Y-103215000D02*
X197495000Y-103215000D01*
X201355000Y-106335000D02*
X197495000Y-106335000D01*
X201355000Y-103215000D02*
X201355000Y-106335000D01*
X201355000Y-106735000D02*
X200235000Y-106735000D01*
X200235000Y-106735000D02*
X200235000Y-106335000D01*
X200235000Y-106335000D02*
X201355000Y-106335000D01*
X201355000Y-106335000D02*
X201355000Y-106735000D01*
X201485000Y-103505000D02*
X201355000Y-103505000D01*
X201355000Y-103505000D02*
X201355000Y-103505000D01*
X201355000Y-103505000D02*
X201485000Y-103505000D01*
X201485000Y-103505000D02*
X201485000Y-103505000D01*
X201485000Y-106045000D02*
X201355000Y-106045000D01*
X201355000Y-106045000D02*
X201355000Y-106045000D01*
X201355000Y-106045000D02*
X201485000Y-106045000D01*
X201485000Y-106045000D02*
X201485000Y-106045000D01*
X244465000Y-98135000D02*
G75*
G02X244465000Y-101255000I0J-1560000D01*
G01*
X240605000Y-101255000D02*
X244465000Y-101255000D01*
X240605000Y-98135000D02*
X244465000Y-98135000D01*
X240605000Y-101255000D02*
X240605000Y-98135000D01*
X240605000Y-97735000D02*
X241725000Y-97735000D01*
X241725000Y-97735000D02*
X241725000Y-98135000D01*
X241725000Y-98135000D02*
X240605000Y-98135000D01*
X240605000Y-98135000D02*
X240605000Y-97735000D01*
X240475000Y-100965000D02*
X240605000Y-100965000D01*
X240605000Y-100965000D02*
X240605000Y-100965000D01*
X240605000Y-100965000D02*
X240475000Y-100965000D01*
X240475000Y-100965000D02*
X240475000Y-100965000D01*
X240475000Y-98425000D02*
X240605000Y-98425000D01*
X240605000Y-98425000D02*
X240605000Y-98425000D01*
X240605000Y-98425000D02*
X240475000Y-98425000D01*
X240475000Y-98425000D02*
X240475000Y-98425000D01*
X236565000Y-85735000D02*
G75*
G02X239685000Y-85735000I1560000J0D01*
G01*
X239685000Y-89595000D02*
X239685000Y-85735000D01*
X236565000Y-89595000D02*
X236565000Y-85735000D01*
X239685000Y-89595000D02*
X236565000Y-89595000D01*
X236165000Y-89595000D02*
X236165000Y-88475000D01*
X236165000Y-88475000D02*
X236565000Y-88475000D01*
X236565000Y-88475000D02*
X236565000Y-89595000D01*
X236565000Y-89595000D02*
X236165000Y-89595000D01*
X239395000Y-89725000D02*
X239395000Y-89595000D01*
X239395000Y-89595000D02*
X239395000Y-89595000D01*
X239395000Y-89595000D02*
X239395000Y-89725000D01*
X239395000Y-89725000D02*
X239395000Y-89725000D01*
X236855000Y-89725000D02*
X236855000Y-89595000D01*
X236855000Y-89595000D02*
X236855000Y-89595000D01*
X236855000Y-89595000D02*
X236855000Y-89725000D01*
X236855000Y-89725000D02*
X236855000Y-89725000D01*
X197495000Y-101255000D02*
G75*
G02X197495000Y-98135000I0J1560000D01*
G01*
X201355000Y-98135000D02*
X197495000Y-98135000D01*
X201355000Y-101255000D02*
X197495000Y-101255000D01*
X201355000Y-98135000D02*
X201355000Y-101255000D01*
X201355000Y-101655000D02*
X200235000Y-101655000D01*
X200235000Y-101655000D02*
X200235000Y-101255000D01*
X200235000Y-101255000D02*
X201355000Y-101255000D01*
X201355000Y-101255000D02*
X201355000Y-101655000D01*
X201485000Y-98425000D02*
X201355000Y-98425000D01*
X201355000Y-98425000D02*
X201355000Y-98425000D01*
X201355000Y-98425000D02*
X201485000Y-98425000D01*
X201485000Y-98425000D02*
X201485000Y-98425000D01*
X201485000Y-100965000D02*
X201355000Y-100965000D01*
X201355000Y-100965000D02*
X201355000Y-100965000D01*
X201355000Y-100965000D02*
X201485000Y-100965000D01*
X201485000Y-100965000D02*
X201485000Y-100965000D01*
X212590000Y-84425000D02*
X211590000Y-84425000D01*
X211590000Y-84425000D02*
X211590000Y-86525000D01*
X212590000Y-84425000D02*
X212590000Y-86525000D01*
X230624000Y-84425000D02*
X229624000Y-84425000D01*
X229624000Y-84425000D02*
X229624000Y-86525000D01*
X230624000Y-84425000D02*
X230624000Y-86525000D01*
D10*
X221811000Y-95573000D02*
X221811000Y-95123000D01*
X214561000Y-95573000D02*
X214561000Y-95048000D01*
X214561000Y-88323000D02*
X214561000Y-88848000D01*
X221811000Y-88323000D02*
X221811000Y-88848000D01*
X221811000Y-95573000D02*
X221286000Y-95573000D01*
X221811000Y-88323000D02*
X221286000Y-88323000D01*
X214561000Y-88323000D02*
X215086000Y-88323000D01*
X214561000Y-95573000D02*
X215086000Y-95573000D01*
X221811000Y-95123000D02*
X223186000Y-95123000D01*
D11*
X233180000Y-85045000D02*
X234180000Y-85045000D01*
X234180000Y-86405000D02*
X233180000Y-86405000D01*
X209050000Y-90506000D02*
X210050000Y-90506000D01*
X210050000Y-91866000D02*
X209050000Y-91866000D01*
X237408000Y-99576000D02*
X237408000Y-100576000D01*
X236048000Y-100576000D02*
X236048000Y-99576000D01*
X209050000Y-93046000D02*
X210050000Y-93046000D01*
X210050000Y-94406000D02*
X209050000Y-94406000D01*
X210050000Y-90469000D02*
X209050000Y-90469000D01*
X209050000Y-89109000D02*
X210050000Y-89109000D01*
X215010000Y-124965000D02*
X215010000Y-125265000D01*
X211710000Y-124965000D02*
X215010000Y-124965000D01*
X211710000Y-125265000D02*
X211710000Y-124965000D01*
X215010000Y-127765000D02*
X215010000Y-127465000D01*
X211710000Y-127765000D02*
X215010000Y-127765000D01*
X211710000Y-127465000D02*
X211710000Y-127765000D01*
X226950000Y-127465000D02*
X226950000Y-127765000D01*
X226950000Y-127765000D02*
X230250000Y-127765000D01*
X230250000Y-127765000D02*
X230250000Y-127465000D01*
X226950000Y-125265000D02*
X226950000Y-124965000D01*
X226950000Y-124965000D02*
X230250000Y-124965000D01*
X230250000Y-124965000D02*
X230250000Y-125265000D01*
D10*
X232941904Y-97182380D02*
X232941904Y-96182380D01*
X233322857Y-96182380D01*
X233418095Y-96230000D01*
X233465714Y-96277619D01*
X233513333Y-96372857D01*
X233513333Y-96515714D01*
X233465714Y-96610952D01*
X233418095Y-96658571D01*
X233322857Y-96706190D01*
X232941904Y-96706190D01*
X233894285Y-96277619D02*
X233941904Y-96230000D01*
X234037142Y-96182380D01*
X234275238Y-96182380D01*
X234370476Y-96230000D01*
X234418095Y-96277619D01*
X234465714Y-96372857D01*
X234465714Y-96468095D01*
X234418095Y-96610952D01*
X233846666Y-97182380D01*
X234465714Y-97182380D01*
D12*
X207236190Y-88475333D02*
X206998095Y-88642000D01*
X207236190Y-88761047D02*
X206736190Y-88761047D01*
X206736190Y-88570571D01*
X206760000Y-88522952D01*
X206783809Y-88499142D01*
X206831428Y-88475333D01*
X206902857Y-88475333D01*
X206950476Y-88499142D01*
X206974285Y-88522952D01*
X206998095Y-88570571D01*
X206998095Y-88761047D01*
X206736190Y-88308666D02*
X206736190Y-87975333D01*
X207236190Y-88189619D01*
X229794571Y-89999333D02*
X229818380Y-90023142D01*
X229842190Y-90094571D01*
X229842190Y-90142190D01*
X229818380Y-90213619D01*
X229770761Y-90261238D01*
X229723142Y-90285047D01*
X229627904Y-90308857D01*
X229556476Y-90308857D01*
X229461238Y-90285047D01*
X229413619Y-90261238D01*
X229366000Y-90213619D01*
X229342190Y-90142190D01*
X229342190Y-90094571D01*
X229366000Y-90023142D01*
X229389809Y-89999333D01*
X229842190Y-89523142D02*
X229842190Y-89808857D01*
X229842190Y-89666000D02*
X229342190Y-89666000D01*
X229413619Y-89713619D01*
X229461238Y-89761238D01*
X229485047Y-89808857D01*
X229794571Y-88348333D02*
X229818380Y-88372142D01*
X229842190Y-88443571D01*
X229842190Y-88491190D01*
X229818380Y-88562619D01*
X229770761Y-88610238D01*
X229723142Y-88634047D01*
X229627904Y-88657857D01*
X229556476Y-88657857D01*
X229461238Y-88634047D01*
X229413619Y-88610238D01*
X229366000Y-88562619D01*
X229342190Y-88491190D01*
X229342190Y-88443571D01*
X229366000Y-88372142D01*
X229389809Y-88348333D01*
X229389809Y-88157857D02*
X229366000Y-88134047D01*
X229342190Y-88086428D01*
X229342190Y-87967380D01*
X229366000Y-87919761D01*
X229389809Y-87895952D01*
X229437428Y-87872142D01*
X229485047Y-87872142D01*
X229556476Y-87895952D01*
X229842190Y-88181666D01*
X229842190Y-87872142D01*
X229794571Y-95206333D02*
X229818380Y-95230142D01*
X229842190Y-95301571D01*
X229842190Y-95349190D01*
X229818380Y-95420619D01*
X229770761Y-95468238D01*
X229723142Y-95492047D01*
X229627904Y-95515857D01*
X229556476Y-95515857D01*
X229461238Y-95492047D01*
X229413619Y-95468238D01*
X229366000Y-95420619D01*
X229342190Y-95349190D01*
X229342190Y-95301571D01*
X229366000Y-95230142D01*
X229389809Y-95206333D01*
X229342190Y-95039666D02*
X229342190Y-94730142D01*
X229532666Y-94896809D01*
X229532666Y-94825380D01*
X229556476Y-94777761D01*
X229580285Y-94753952D01*
X229627904Y-94730142D01*
X229746952Y-94730142D01*
X229794571Y-94753952D01*
X229818380Y-94777761D01*
X229842190Y-94825380D01*
X229842190Y-94968238D01*
X229818380Y-95015857D01*
X229794571Y-95039666D01*
X207188571Y-87078333D02*
X207212380Y-87102142D01*
X207236190Y-87173571D01*
X207236190Y-87221190D01*
X207212380Y-87292619D01*
X207164761Y-87340238D01*
X207117142Y-87364047D01*
X207021904Y-87387857D01*
X206950476Y-87387857D01*
X206855238Y-87364047D01*
X206807619Y-87340238D01*
X206760000Y-87292619D01*
X206736190Y-87221190D01*
X206736190Y-87173571D01*
X206760000Y-87102142D01*
X206783809Y-87078333D01*
X206902857Y-86649761D02*
X207236190Y-86649761D01*
X206712380Y-86768809D02*
X207069523Y-86887857D01*
X207069523Y-86578333D01*
X207188571Y-95206333D02*
X207212380Y-95230142D01*
X207236190Y-95301571D01*
X207236190Y-95349190D01*
X207212380Y-95420619D01*
X207164761Y-95468238D01*
X207117142Y-95492047D01*
X207021904Y-95515857D01*
X206950476Y-95515857D01*
X206855238Y-95492047D01*
X206807619Y-95468238D01*
X206760000Y-95420619D01*
X206736190Y-95349190D01*
X206736190Y-95301571D01*
X206760000Y-95230142D01*
X206783809Y-95206333D01*
X206736190Y-94753952D02*
X206736190Y-94992047D01*
X206974285Y-95015857D01*
X206950476Y-94992047D01*
X206926666Y-94944428D01*
X206926666Y-94825380D01*
X206950476Y-94777761D01*
X206974285Y-94753952D01*
X207021904Y-94730142D01*
X207140952Y-94730142D01*
X207188571Y-94753952D01*
X207212380Y-94777761D01*
X207236190Y-94825380D01*
X207236190Y-94944428D01*
X207212380Y-94992047D01*
X207188571Y-95015857D01*
X229794571Y-97365333D02*
X229818380Y-97389142D01*
X229842190Y-97460571D01*
X229842190Y-97508190D01*
X229818380Y-97579619D01*
X229770761Y-97627238D01*
X229723142Y-97651047D01*
X229627904Y-97674857D01*
X229556476Y-97674857D01*
X229461238Y-97651047D01*
X229413619Y-97627238D01*
X229366000Y-97579619D01*
X229342190Y-97508190D01*
X229342190Y-97460571D01*
X229366000Y-97389142D01*
X229389809Y-97365333D01*
X229342190Y-96936761D02*
X229342190Y-97032000D01*
X229366000Y-97079619D01*
X229389809Y-97103428D01*
X229461238Y-97151047D01*
X229556476Y-97174857D01*
X229746952Y-97174857D01*
X229794571Y-97151047D01*
X229818380Y-97127238D01*
X229842190Y-97079619D01*
X229842190Y-96984380D01*
X229818380Y-96936761D01*
X229794571Y-96912952D01*
X229746952Y-96889142D01*
X229627904Y-96889142D01*
X229580285Y-96912952D01*
X229556476Y-96936761D01*
X229532666Y-96984380D01*
X229532666Y-97079619D01*
X229556476Y-97127238D01*
X229580285Y-97151047D01*
X229627904Y-97174857D01*
X229794571Y-93809333D02*
X229818380Y-93833142D01*
X229842190Y-93904571D01*
X229842190Y-93952190D01*
X229818380Y-94023619D01*
X229770761Y-94071238D01*
X229723142Y-94095047D01*
X229627904Y-94118857D01*
X229556476Y-94118857D01*
X229461238Y-94095047D01*
X229413619Y-94071238D01*
X229366000Y-94023619D01*
X229342190Y-93952190D01*
X229342190Y-93904571D01*
X229366000Y-93833142D01*
X229389809Y-93809333D01*
X229342190Y-93642666D02*
X229342190Y-93309333D01*
X229842190Y-93523619D01*
X229794571Y-91396333D02*
X229818380Y-91420142D01*
X229842190Y-91491571D01*
X229842190Y-91539190D01*
X229818380Y-91610619D01*
X229770761Y-91658238D01*
X229723142Y-91682047D01*
X229627904Y-91705857D01*
X229556476Y-91705857D01*
X229461238Y-91682047D01*
X229413619Y-91658238D01*
X229366000Y-91610619D01*
X229342190Y-91539190D01*
X229342190Y-91491571D01*
X229366000Y-91420142D01*
X229389809Y-91396333D01*
X229556476Y-91110619D02*
X229532666Y-91158238D01*
X229508857Y-91182047D01*
X229461238Y-91205857D01*
X229437428Y-91205857D01*
X229389809Y-91182047D01*
X229366000Y-91158238D01*
X229342190Y-91110619D01*
X229342190Y-91015380D01*
X229366000Y-90967761D01*
X229389809Y-90943952D01*
X229437428Y-90920142D01*
X229461238Y-90920142D01*
X229508857Y-90943952D01*
X229532666Y-90967761D01*
X229556476Y-91015380D01*
X229556476Y-91110619D01*
X229580285Y-91158238D01*
X229604095Y-91182047D01*
X229651714Y-91205857D01*
X229746952Y-91205857D01*
X229794571Y-91182047D01*
X229818380Y-91158238D01*
X229842190Y-91110619D01*
X229842190Y-91015380D01*
X229818380Y-90967761D01*
X229794571Y-90943952D01*
X229746952Y-90920142D01*
X229651714Y-90920142D01*
X229604095Y-90943952D01*
X229580285Y-90967761D01*
X229556476Y-91015380D01*
X229842190Y-99635428D02*
X229604095Y-99802095D01*
X229842190Y-99921142D02*
X229342190Y-99921142D01*
X229342190Y-99730666D01*
X229366000Y-99683047D01*
X229389809Y-99659238D01*
X229437428Y-99635428D01*
X229508857Y-99635428D01*
X229556476Y-99659238D01*
X229580285Y-99683047D01*
X229604095Y-99730666D01*
X229604095Y-99921142D01*
X229842190Y-99159238D02*
X229842190Y-99444952D01*
X229842190Y-99302095D02*
X229342190Y-99302095D01*
X229413619Y-99349714D01*
X229461238Y-99397333D01*
X229485047Y-99444952D01*
X229342190Y-98849714D02*
X229342190Y-98802095D01*
X229366000Y-98754476D01*
X229389809Y-98730666D01*
X229437428Y-98706857D01*
X229532666Y-98683047D01*
X229651714Y-98683047D01*
X229746952Y-98706857D01*
X229794571Y-98730666D01*
X229818380Y-98754476D01*
X229842190Y-98802095D01*
X229842190Y-98849714D01*
X229818380Y-98897333D01*
X229794571Y-98921142D01*
X229746952Y-98944952D01*
X229651714Y-98968761D01*
X229532666Y-98968761D01*
X229437428Y-98944952D01*
X229389809Y-98921142D01*
X229366000Y-98897333D01*
X229342190Y-98849714D01*
X241994571Y-92174190D02*
X241827904Y-91936095D01*
X241708857Y-92174190D02*
X241708857Y-91674190D01*
X241899333Y-91674190D01*
X241946952Y-91698000D01*
X241970761Y-91721809D01*
X241994571Y-91769428D01*
X241994571Y-91840857D01*
X241970761Y-91888476D01*
X241946952Y-91912285D01*
X241899333Y-91936095D01*
X241708857Y-91936095D01*
X242185047Y-91721809D02*
X242208857Y-91698000D01*
X242256476Y-91674190D01*
X242375523Y-91674190D01*
X242423142Y-91698000D01*
X242446952Y-91721809D01*
X242470761Y-91769428D01*
X242470761Y-91817047D01*
X242446952Y-91888476D01*
X242161238Y-92174190D01*
X242470761Y-92174190D01*
X242780285Y-91674190D02*
X242827904Y-91674190D01*
X242875523Y-91698000D01*
X242899333Y-91721809D01*
X242923142Y-91769428D01*
X242946952Y-91864666D01*
X242946952Y-91983714D01*
X242923142Y-92078952D01*
X242899333Y-92126571D01*
X242875523Y-92150380D01*
X242827904Y-92174190D01*
X242780285Y-92174190D01*
X242732666Y-92150380D01*
X242708857Y-92126571D01*
X242685047Y-92078952D01*
X242661238Y-91983714D01*
X242661238Y-91864666D01*
X242685047Y-91769428D01*
X242708857Y-91721809D01*
X242732666Y-91698000D01*
X242780285Y-91674190D01*
X199322571Y-97127190D02*
X199155904Y-96889095D01*
X199036857Y-97127190D02*
X199036857Y-96627190D01*
X199227333Y-96627190D01*
X199274952Y-96651000D01*
X199298761Y-96674809D01*
X199322571Y-96722428D01*
X199322571Y-96793857D01*
X199298761Y-96841476D01*
X199274952Y-96865285D01*
X199227333Y-96889095D01*
X199036857Y-96889095D01*
X199798761Y-97127190D02*
X199513047Y-97127190D01*
X199655904Y-97127190D02*
X199655904Y-96627190D01*
X199608285Y-96698619D01*
X199560666Y-96746238D01*
X199513047Y-96770047D01*
X200036857Y-97127190D02*
X200132095Y-97127190D01*
X200179714Y-97103380D01*
X200203523Y-97079571D01*
X200251142Y-97008142D01*
X200274952Y-96912904D01*
X200274952Y-96722428D01*
X200251142Y-96674809D01*
X200227333Y-96651000D01*
X200179714Y-96627190D01*
X200084476Y-96627190D01*
X200036857Y-96651000D01*
X200013047Y-96674809D01*
X199989238Y-96722428D01*
X199989238Y-96841476D01*
X200013047Y-96889095D01*
X200036857Y-96912904D01*
X200084476Y-96936714D01*
X200179714Y-96936714D01*
X200227333Y-96912904D01*
X200251142Y-96889095D01*
X200274952Y-96841476D01*
X239962571Y-97254190D02*
X239795904Y-97016095D01*
X239676857Y-97254190D02*
X239676857Y-96754190D01*
X239867333Y-96754190D01*
X239914952Y-96778000D01*
X239938761Y-96801809D01*
X239962571Y-96849428D01*
X239962571Y-96920857D01*
X239938761Y-96968476D01*
X239914952Y-96992285D01*
X239867333Y-97016095D01*
X239676857Y-97016095D01*
X240438761Y-97254190D02*
X240153047Y-97254190D01*
X240295904Y-97254190D02*
X240295904Y-96754190D01*
X240248285Y-96825619D01*
X240200666Y-96873238D01*
X240153047Y-96897047D01*
X240724476Y-96968476D02*
X240676857Y-96944666D01*
X240653047Y-96920857D01*
X240629238Y-96873238D01*
X240629238Y-96849428D01*
X240653047Y-96801809D01*
X240676857Y-96778000D01*
X240724476Y-96754190D01*
X240819714Y-96754190D01*
X240867333Y-96778000D01*
X240891142Y-96801809D01*
X240914952Y-96849428D01*
X240914952Y-96873238D01*
X240891142Y-96920857D01*
X240867333Y-96944666D01*
X240819714Y-96968476D01*
X240724476Y-96968476D01*
X240676857Y-96992285D01*
X240653047Y-97016095D01*
X240629238Y-97063714D01*
X240629238Y-97158952D01*
X240653047Y-97206571D01*
X240676857Y-97230380D01*
X240724476Y-97254190D01*
X240819714Y-97254190D01*
X240867333Y-97230380D01*
X240891142Y-97206571D01*
X240914952Y-97158952D01*
X240914952Y-97063714D01*
X240891142Y-97016095D01*
X240867333Y-96992285D01*
X240819714Y-96968476D01*
X201608571Y-97127190D02*
X201441904Y-96889095D01*
X201322857Y-97127190D02*
X201322857Y-96627190D01*
X201513333Y-96627190D01*
X201560952Y-96651000D01*
X201584761Y-96674809D01*
X201608571Y-96722428D01*
X201608571Y-96793857D01*
X201584761Y-96841476D01*
X201560952Y-96865285D01*
X201513333Y-96889095D01*
X201322857Y-96889095D01*
X202084761Y-97127190D02*
X201799047Y-97127190D01*
X201941904Y-97127190D02*
X201941904Y-96627190D01*
X201894285Y-96698619D01*
X201846666Y-96746238D01*
X201799047Y-96770047D01*
X202251428Y-96627190D02*
X202584761Y-96627190D01*
X202370476Y-97127190D01*
X244026571Y-97254190D02*
X243859904Y-97016095D01*
X243740857Y-97254190D02*
X243740857Y-96754190D01*
X243931333Y-96754190D01*
X243978952Y-96778000D01*
X244002761Y-96801809D01*
X244026571Y-96849428D01*
X244026571Y-96920857D01*
X244002761Y-96968476D01*
X243978952Y-96992285D01*
X243931333Y-97016095D01*
X243740857Y-97016095D01*
X244502761Y-97254190D02*
X244217047Y-97254190D01*
X244359904Y-97254190D02*
X244359904Y-96754190D01*
X244312285Y-96825619D01*
X244264666Y-96873238D01*
X244217047Y-96897047D01*
X244931333Y-96754190D02*
X244836095Y-96754190D01*
X244788476Y-96778000D01*
X244764666Y-96801809D01*
X244717047Y-96873238D01*
X244693238Y-96968476D01*
X244693238Y-97158952D01*
X244717047Y-97206571D01*
X244740857Y-97230380D01*
X244788476Y-97254190D01*
X244883714Y-97254190D01*
X244931333Y-97230380D01*
X244955142Y-97206571D01*
X244978952Y-97158952D01*
X244978952Y-97039904D01*
X244955142Y-96992285D01*
X244931333Y-96968476D01*
X244883714Y-96944666D01*
X244788476Y-96944666D01*
X244740857Y-96968476D01*
X244717047Y-96992285D01*
X244693238Y-97039904D01*
X197163571Y-97127190D02*
X196996904Y-96889095D01*
X196877857Y-97127190D02*
X196877857Y-96627190D01*
X197068333Y-96627190D01*
X197115952Y-96651000D01*
X197139761Y-96674809D01*
X197163571Y-96722428D01*
X197163571Y-96793857D01*
X197139761Y-96841476D01*
X197115952Y-96865285D01*
X197068333Y-96889095D01*
X196877857Y-96889095D01*
X197639761Y-97127190D02*
X197354047Y-97127190D01*
X197496904Y-97127190D02*
X197496904Y-96627190D01*
X197449285Y-96698619D01*
X197401666Y-96746238D01*
X197354047Y-96770047D01*
X198092142Y-96627190D02*
X197854047Y-96627190D01*
X197830238Y-96865285D01*
X197854047Y-96841476D01*
X197901666Y-96817666D01*
X198020714Y-96817666D01*
X198068333Y-96841476D01*
X198092142Y-96865285D01*
X198115952Y-96912904D01*
X198115952Y-97031952D01*
X198092142Y-97079571D01*
X198068333Y-97103380D01*
X198020714Y-97127190D01*
X197901666Y-97127190D01*
X197854047Y-97103380D01*
X197830238Y-97079571D01*
X237930571Y-97254190D02*
X237763904Y-97016095D01*
X237644857Y-97254190D02*
X237644857Y-96754190D01*
X237835333Y-96754190D01*
X237882952Y-96778000D01*
X237906761Y-96801809D01*
X237930571Y-96849428D01*
X237930571Y-96920857D01*
X237906761Y-96968476D01*
X237882952Y-96992285D01*
X237835333Y-97016095D01*
X237644857Y-97016095D01*
X238406761Y-97254190D02*
X238121047Y-97254190D01*
X238263904Y-97254190D02*
X238263904Y-96754190D01*
X238216285Y-96825619D01*
X238168666Y-96873238D01*
X238121047Y-96897047D01*
X238835333Y-96920857D02*
X238835333Y-97254190D01*
X238716285Y-96730380D02*
X238597238Y-97087523D01*
X238906761Y-97087523D01*
X203513571Y-97127190D02*
X203346904Y-96889095D01*
X203227857Y-97127190D02*
X203227857Y-96627190D01*
X203418333Y-96627190D01*
X203465952Y-96651000D01*
X203489761Y-96674809D01*
X203513571Y-96722428D01*
X203513571Y-96793857D01*
X203489761Y-96841476D01*
X203465952Y-96865285D01*
X203418333Y-96889095D01*
X203227857Y-96889095D01*
X203989761Y-97127190D02*
X203704047Y-97127190D01*
X203846904Y-97127190D02*
X203846904Y-96627190D01*
X203799285Y-96698619D01*
X203751666Y-96746238D01*
X203704047Y-96770047D01*
X204180238Y-96674809D02*
X204204047Y-96651000D01*
X204251666Y-96627190D01*
X204370714Y-96627190D01*
X204418333Y-96651000D01*
X204442142Y-96674809D01*
X204465952Y-96722428D01*
X204465952Y-96770047D01*
X204442142Y-96841476D01*
X204156428Y-97127190D01*
X204465952Y-97127190D01*
X210450952Y-85062190D02*
X210450952Y-84562190D01*
X210570000Y-84562190D01*
X210641428Y-84586000D01*
X210689047Y-84633619D01*
X210712857Y-84681238D01*
X210736666Y-84776476D01*
X210736666Y-84847904D01*
X210712857Y-84943142D01*
X210689047Y-84990761D01*
X210641428Y-85038380D01*
X210570000Y-85062190D01*
X210450952Y-85062190D01*
X210927142Y-84609809D02*
X210950952Y-84586000D01*
X210998571Y-84562190D01*
X211117619Y-84562190D01*
X211165238Y-84586000D01*
X211189047Y-84609809D01*
X211212857Y-84657428D01*
X211212857Y-84705047D01*
X211189047Y-84776476D01*
X210903333Y-85062190D01*
X211212857Y-85062190D01*
X231024952Y-85062190D02*
X231024952Y-84562190D01*
X231144000Y-84562190D01*
X231215428Y-84586000D01*
X231263047Y-84633619D01*
X231286857Y-84681238D01*
X231310666Y-84776476D01*
X231310666Y-84847904D01*
X231286857Y-84943142D01*
X231263047Y-84990761D01*
X231215428Y-85038380D01*
X231144000Y-85062190D01*
X231024952Y-85062190D01*
X231786857Y-85062190D02*
X231501142Y-85062190D01*
X231644000Y-85062190D02*
X231644000Y-84562190D01*
X231596380Y-84633619D01*
X231548761Y-84681238D01*
X231501142Y-84705047D01*
X233596666Y-84681190D02*
X233430000Y-84443095D01*
X233310952Y-84681190D02*
X233310952Y-84181190D01*
X233501428Y-84181190D01*
X233549047Y-84205000D01*
X233572857Y-84228809D01*
X233596666Y-84276428D01*
X233596666Y-84347857D01*
X233572857Y-84395476D01*
X233549047Y-84419285D01*
X233501428Y-84443095D01*
X233310952Y-84443095D01*
X234072857Y-84681190D02*
X233787142Y-84681190D01*
X233930000Y-84681190D02*
X233930000Y-84181190D01*
X233882380Y-84252619D01*
X233834761Y-84300238D01*
X233787142Y-84324047D01*
X207236190Y-91269333D02*
X206998095Y-91436000D01*
X207236190Y-91555047D02*
X206736190Y-91555047D01*
X206736190Y-91364571D01*
X206760000Y-91316952D01*
X206783809Y-91293142D01*
X206831428Y-91269333D01*
X206902857Y-91269333D01*
X206950476Y-91293142D01*
X206974285Y-91316952D01*
X206998095Y-91364571D01*
X206998095Y-91555047D01*
X206783809Y-91078857D02*
X206760000Y-91055047D01*
X206736190Y-91007428D01*
X206736190Y-90888380D01*
X206760000Y-90840761D01*
X206783809Y-90816952D01*
X206831428Y-90793142D01*
X206879047Y-90793142D01*
X206950476Y-90816952D01*
X207236190Y-91102666D01*
X207236190Y-90793142D01*
X236644666Y-102715190D02*
X236478000Y-102477095D01*
X236358952Y-102715190D02*
X236358952Y-102215190D01*
X236549428Y-102215190D01*
X236597047Y-102239000D01*
X236620857Y-102262809D01*
X236644666Y-102310428D01*
X236644666Y-102381857D01*
X236620857Y-102429476D01*
X236597047Y-102453285D01*
X236549428Y-102477095D01*
X236358952Y-102477095D01*
X237073238Y-102215190D02*
X236978000Y-102215190D01*
X236930380Y-102239000D01*
X236906571Y-102262809D01*
X236858952Y-102334238D01*
X236835142Y-102429476D01*
X236835142Y-102619952D01*
X236858952Y-102667571D01*
X236882761Y-102691380D01*
X236930380Y-102715190D01*
X237025619Y-102715190D01*
X237073238Y-102691380D01*
X237097047Y-102667571D01*
X237120857Y-102619952D01*
X237120857Y-102500904D01*
X237097047Y-102453285D01*
X237073238Y-102429476D01*
X237025619Y-102405666D01*
X236930380Y-102405666D01*
X236882761Y-102429476D01*
X236858952Y-102453285D01*
X236835142Y-102500904D01*
X207236190Y-93809333D02*
X206998095Y-93976000D01*
X207236190Y-94095047D02*
X206736190Y-94095047D01*
X206736190Y-93904571D01*
X206760000Y-93856952D01*
X206783809Y-93833142D01*
X206831428Y-93809333D01*
X206902857Y-93809333D01*
X206950476Y-93833142D01*
X206974285Y-93856952D01*
X206998095Y-93904571D01*
X206998095Y-94095047D01*
X206950476Y-93523619D02*
X206926666Y-93571238D01*
X206902857Y-93595047D01*
X206855238Y-93618857D01*
X206831428Y-93618857D01*
X206783809Y-93595047D01*
X206760000Y-93571238D01*
X206736190Y-93523619D01*
X206736190Y-93428380D01*
X206760000Y-93380761D01*
X206783809Y-93356952D01*
X206831428Y-93333142D01*
X206855238Y-93333142D01*
X206902857Y-93356952D01*
X206926666Y-93380761D01*
X206950476Y-93428380D01*
X206950476Y-93523619D01*
X206974285Y-93571238D01*
X206998095Y-93595047D01*
X207045714Y-93618857D01*
X207140952Y-93618857D01*
X207188571Y-93595047D01*
X207212380Y-93571238D01*
X207236190Y-93523619D01*
X207236190Y-93428380D01*
X207212380Y-93380761D01*
X207188571Y-93356952D01*
X207140952Y-93333142D01*
X207045714Y-93333142D01*
X206998095Y-93356952D01*
X206974285Y-93380761D01*
X206950476Y-93428380D01*
X207236190Y-89872333D02*
X206998095Y-90039000D01*
X207236190Y-90158047D02*
X206736190Y-90158047D01*
X206736190Y-89967571D01*
X206760000Y-89919952D01*
X206783809Y-89896142D01*
X206831428Y-89872333D01*
X206902857Y-89872333D01*
X206950476Y-89896142D01*
X206974285Y-89919952D01*
X206998095Y-89967571D01*
X206998095Y-90158047D01*
X207236190Y-89634238D02*
X207236190Y-89539000D01*
X207212380Y-89491380D01*
X207188571Y-89467571D01*
X207117142Y-89419952D01*
X207021904Y-89396142D01*
X206831428Y-89396142D01*
X206783809Y-89419952D01*
X206760000Y-89443761D01*
X206736190Y-89491380D01*
X206736190Y-89586619D01*
X206760000Y-89634238D01*
X206783809Y-89658047D01*
X206831428Y-89681857D01*
X206950476Y-89681857D01*
X206998095Y-89658047D01*
X207021904Y-89634238D01*
X207045714Y-89586619D01*
X207045714Y-89491380D01*
X207021904Y-89443761D01*
X206998095Y-89419952D01*
X206950476Y-89396142D01*
M02*
