G04 #@! TF.GenerationSoftware,KiCad,Pcbnew,5.1.4-e60b266~84~ubuntu18.04.1*
G04 #@! TF.CreationDate,2019-08-11T22:19:42+02:00*
G04 #@! TF.ProjectId,rat_board,7261745f-626f-4617-9264-2e6b69636164,rev?*
G04 #@! TF.SameCoordinates,Original*
G04 #@! TF.FileFunction,Profile,NP*
%FSLAX46Y46*%
G04 Gerber Fmt 4.6, Leading zero omitted, Abs format (unit mm)*
G04 Created by KiCad (PCBNEW 5.1.4-e60b266~84~ubuntu18.04.1) date 2019-08-11 22:19:42*
%MOMM*%
%LPD*%
G04 APERTURE LIST*
%ADD10C,0.100000*%
G04 APERTURE END LIST*
D10*
X231980000Y-107510000D02*
G75*
G02X232380000Y-107110000I400000J0D01*
G01*
X245580000Y-107110000D02*
X232380000Y-107110000D01*
X231980000Y-107510000D02*
X231980000Y-113210000D01*
X245980000Y-106710000D02*
G75*
G02X245580000Y-107110000I-400000J0D01*
G01*
X231980000Y-113210000D02*
G75*
G02X231580000Y-113610000I-400000J0D01*
G01*
X245980000Y-84510000D02*
X245980000Y-106710000D01*
X231580000Y-113610000D02*
X226980000Y-113610000D01*
X245580000Y-84110000D02*
G75*
G02X245980000Y-84510000I0J-400000D01*
G01*
X226980000Y-113610000D02*
X226980000Y-124110000D01*
X196380000Y-84110000D02*
X245580000Y-84110000D01*
X226980000Y-124110000D02*
X231580000Y-124110000D01*
X195980000Y-84510000D02*
G75*
G02X196380000Y-84110000I400000J0D01*
G01*
X231580000Y-124110000D02*
G75*
G02X231980000Y-124510000I0J-400000D01*
G01*
X195980000Y-106710000D02*
X195980000Y-84510000D01*
X231980000Y-124510000D02*
X231980000Y-128710000D01*
X196380000Y-107110000D02*
G75*
G02X195980000Y-106710000I0J400000D01*
G01*
X231980000Y-128710000D02*
G75*
G02X231580000Y-129110000I-400000J0D01*
G01*
X209580000Y-107110000D02*
X196380000Y-107110000D01*
X210380000Y-129110000D02*
X231580000Y-129110000D01*
X209580000Y-107110000D02*
G75*
G02X209980000Y-107510000I0J-400000D01*
G01*
X210380000Y-129110000D02*
G75*
G02X209980000Y-128710000I0J400000D01*
G01*
X209980000Y-128710000D02*
X209980000Y-107510000D01*
M02*
