G04 #@! TF.GenerationSoftware,KiCad,Pcbnew,5.1.4-e60b266~84~ubuntu18.04.1*
G04 #@! TF.CreationDate,2019-08-11T22:19:42+02:00*
G04 #@! TF.ProjectId,rat_board,7261745f-626f-4617-9264-2e6b69636164,rev?*
G04 #@! TF.SameCoordinates,Original*
G04 #@! TF.FileFunction,Legend,Bot*
G04 #@! TF.FilePolarity,Positive*
%FSLAX46Y46*%
G04 Gerber Fmt 4.6, Leading zero omitted, Abs format (unit mm)*
G04 Created by KiCad (PCBNEW 5.1.4-e60b266~84~ubuntu18.04.1) date 2019-08-11 22:19:42*
%MOMM*%
%LPD*%
G04 APERTURE LIST*
%ADD10C,0.140000*%
%ADD11C,0.100000*%
%ADD12C,0.150000*%
%ADD13C,0.010000*%
%ADD14C,0.120000*%
G04 APERTURE END LIST*
D10*
X197123095Y-105523571D02*
X197923095Y-105523571D01*
X197351666Y-105256904D01*
X197923095Y-104990238D01*
X197123095Y-104990238D01*
X197123095Y-104609285D02*
X197923095Y-104609285D01*
X197199285Y-103771190D02*
X197161190Y-103809285D01*
X197123095Y-103923571D01*
X197123095Y-103999761D01*
X197161190Y-104114047D01*
X197237380Y-104190238D01*
X197313571Y-104228333D01*
X197465952Y-104266428D01*
X197580238Y-104266428D01*
X197732619Y-104228333D01*
X197808809Y-104190238D01*
X197885000Y-104114047D01*
X197923095Y-103999761D01*
X197923095Y-103923571D01*
X197885000Y-103809285D01*
X197846904Y-103771190D01*
X197123095Y-102971190D02*
X197504047Y-103237857D01*
X197123095Y-103428333D02*
X197923095Y-103428333D01*
X197923095Y-103123571D01*
X197885000Y-103047380D01*
X197846904Y-103009285D01*
X197770714Y-102971190D01*
X197656428Y-102971190D01*
X197580238Y-103009285D01*
X197542142Y-103047380D01*
X197504047Y-103123571D01*
X197504047Y-103428333D01*
X197923095Y-102475952D02*
X197923095Y-102323571D01*
X197885000Y-102247380D01*
X197808809Y-102171190D01*
X197656428Y-102133095D01*
X197389761Y-102133095D01*
X197237380Y-102171190D01*
X197161190Y-102247380D01*
X197123095Y-102323571D01*
X197123095Y-102475952D01*
X197161190Y-102552142D01*
X197237380Y-102628333D01*
X197389761Y-102666428D01*
X197656428Y-102666428D01*
X197808809Y-102628333D01*
X197885000Y-102552142D01*
X197923095Y-102475952D01*
X197123095Y-101790238D02*
X197923095Y-101790238D01*
X197923095Y-101485476D01*
X197885000Y-101409285D01*
X197846904Y-101371190D01*
X197770714Y-101333095D01*
X197656428Y-101333095D01*
X197580238Y-101371190D01*
X197542142Y-101409285D01*
X197504047Y-101485476D01*
X197504047Y-101790238D01*
X197351666Y-101028333D02*
X197351666Y-100647380D01*
X197123095Y-101104523D02*
X197923095Y-100837857D01*
X197123095Y-100571190D01*
X197123095Y-100304523D02*
X197923095Y-100304523D01*
X197123095Y-99847380D01*
X197923095Y-99847380D01*
X197123095Y-99466428D02*
X197923095Y-99466428D01*
X197923095Y-99275952D01*
X197885000Y-99161666D01*
X197808809Y-99085476D01*
X197732619Y-99047380D01*
X197580238Y-99009285D01*
X197465952Y-99009285D01*
X197313571Y-99047380D01*
X197237380Y-99085476D01*
X197161190Y-99161666D01*
X197123095Y-99275952D01*
X197123095Y-99466428D01*
X197351666Y-98704523D02*
X197351666Y-98323571D01*
X197123095Y-98780714D02*
X197923095Y-98514047D01*
X197123095Y-98247380D01*
X197923095Y-97218809D02*
X197923095Y-97142619D01*
X197885000Y-97066428D01*
X197846904Y-97028333D01*
X197770714Y-96990238D01*
X197618333Y-96952142D01*
X197427857Y-96952142D01*
X197275476Y-96990238D01*
X197199285Y-97028333D01*
X197161190Y-97066428D01*
X197123095Y-97142619D01*
X197123095Y-97218809D01*
X197161190Y-97295000D01*
X197199285Y-97333095D01*
X197275476Y-97371190D01*
X197427857Y-97409285D01*
X197618333Y-97409285D01*
X197770714Y-97371190D01*
X197846904Y-97333095D01*
X197885000Y-97295000D01*
X197923095Y-97218809D01*
X197580238Y-96495000D02*
X197618333Y-96571190D01*
X197656428Y-96609285D01*
X197732619Y-96647380D01*
X197770714Y-96647380D01*
X197846904Y-96609285D01*
X197885000Y-96571190D01*
X197923095Y-96495000D01*
X197923095Y-96342619D01*
X197885000Y-96266428D01*
X197846904Y-96228333D01*
X197770714Y-96190238D01*
X197732619Y-96190238D01*
X197656428Y-96228333D01*
X197618333Y-96266428D01*
X197580238Y-96342619D01*
X197580238Y-96495000D01*
X197542142Y-96571190D01*
X197504047Y-96609285D01*
X197427857Y-96647380D01*
X197275476Y-96647380D01*
X197199285Y-96609285D01*
X197161190Y-96571190D01*
X197123095Y-96495000D01*
X197123095Y-96342619D01*
X197161190Y-96266428D01*
X197199285Y-96228333D01*
X197275476Y-96190238D01*
X197427857Y-96190238D01*
X197504047Y-96228333D01*
X197542142Y-96266428D01*
X197580238Y-96342619D01*
X197961190Y-95275952D02*
X196932619Y-95961666D01*
X197123095Y-94590238D02*
X197123095Y-95047380D01*
X197123095Y-94818809D02*
X197923095Y-94818809D01*
X197808809Y-94895000D01*
X197732619Y-94971190D01*
X197694523Y-95047380D01*
X197123095Y-94209285D02*
X197123095Y-94056904D01*
X197161190Y-93980714D01*
X197199285Y-93942619D01*
X197313571Y-93866428D01*
X197465952Y-93828333D01*
X197770714Y-93828333D01*
X197846904Y-93866428D01*
X197885000Y-93904523D01*
X197923095Y-93980714D01*
X197923095Y-94133095D01*
X197885000Y-94209285D01*
X197846904Y-94247380D01*
X197770714Y-94285476D01*
X197580238Y-94285476D01*
X197504047Y-94247380D01*
X197465952Y-94209285D01*
X197427857Y-94133095D01*
X197427857Y-93980714D01*
X197465952Y-93904523D01*
X197504047Y-93866428D01*
X197580238Y-93828333D01*
D11*
X227685738Y-87348190D02*
X227852404Y-87110095D01*
X227971452Y-87348190D02*
X227971452Y-86848190D01*
X227780976Y-86848190D01*
X227733357Y-86872000D01*
X227709547Y-86895809D01*
X227685738Y-86943428D01*
X227685738Y-87014857D01*
X227709547Y-87062476D01*
X227733357Y-87086285D01*
X227780976Y-87110095D01*
X227971452Y-87110095D01*
X227519071Y-86848190D02*
X227185738Y-87348190D01*
X227185738Y-86848190D02*
X227519071Y-87348190D01*
X227042880Y-86848190D02*
X226733357Y-86848190D01*
X226900023Y-87038666D01*
X226828595Y-87038666D01*
X226780976Y-87062476D01*
X226757166Y-87086285D01*
X226733357Y-87133904D01*
X226733357Y-87252952D01*
X226757166Y-87300571D01*
X226780976Y-87324380D01*
X226828595Y-87348190D01*
X226971452Y-87348190D01*
X227019071Y-87324380D01*
X227042880Y-87300571D01*
X225447642Y-86848190D02*
X225161928Y-86848190D01*
X225304785Y-87348190D02*
X225304785Y-86848190D01*
X225042880Y-86848190D02*
X224709547Y-87348190D01*
X224709547Y-86848190D02*
X225042880Y-87348190D01*
X224566690Y-86848190D02*
X224257166Y-86848190D01*
X224423833Y-87038666D01*
X224352404Y-87038666D01*
X224304785Y-87062476D01*
X224280976Y-87086285D01*
X224257166Y-87133904D01*
X224257166Y-87252952D01*
X224280976Y-87300571D01*
X224304785Y-87324380D01*
X224352404Y-87348190D01*
X224495261Y-87348190D01*
X224542880Y-87324380D01*
X224566690Y-87300571D01*
X222947642Y-86848190D02*
X222638119Y-86848190D01*
X222804785Y-87038666D01*
X222733357Y-87038666D01*
X222685738Y-87062476D01*
X222661928Y-87086285D01*
X222638119Y-87133904D01*
X222638119Y-87252952D01*
X222661928Y-87300571D01*
X222685738Y-87324380D01*
X222733357Y-87348190D01*
X222876214Y-87348190D01*
X222923833Y-87324380D01*
X222947642Y-87300571D01*
X222495261Y-86848190D02*
X222328595Y-87348190D01*
X222161928Y-86848190D01*
X222042880Y-86848190D02*
X221733357Y-86848190D01*
X221900023Y-87038666D01*
X221828595Y-87038666D01*
X221780976Y-87062476D01*
X221757166Y-87086285D01*
X221733357Y-87133904D01*
X221733357Y-87252952D01*
X221757166Y-87300571D01*
X221780976Y-87324380D01*
X221828595Y-87348190D01*
X221971452Y-87348190D01*
X222019071Y-87324380D01*
X222042880Y-87300571D01*
X221161928Y-87324380D02*
X221090500Y-87348190D01*
X220971452Y-87348190D01*
X220923833Y-87324380D01*
X220900023Y-87300571D01*
X220876214Y-87252952D01*
X220876214Y-87205333D01*
X220900023Y-87157714D01*
X220923833Y-87133904D01*
X220971452Y-87110095D01*
X221066690Y-87086285D01*
X221114309Y-87062476D01*
X221138119Y-87038666D01*
X221161928Y-86991047D01*
X221161928Y-86943428D01*
X221138119Y-86895809D01*
X221114309Y-86872000D01*
X221066690Y-86848190D01*
X220947642Y-86848190D01*
X220876214Y-86872000D01*
X220709547Y-86848190D02*
X220590500Y-87348190D01*
X220495261Y-86991047D01*
X220400023Y-87348190D01*
X220280976Y-86848190D01*
X220090500Y-87348190D02*
X220090500Y-86848190D01*
X219971452Y-86848190D01*
X219900023Y-86872000D01*
X219852404Y-86919619D01*
X219828595Y-86967238D01*
X219804785Y-87062476D01*
X219804785Y-87133904D01*
X219828595Y-87229142D01*
X219852404Y-87276761D01*
X219900023Y-87324380D01*
X219971452Y-87348190D01*
X220090500Y-87348190D01*
X219590500Y-87348190D02*
X219590500Y-86848190D01*
X219257166Y-86848190D02*
X219161928Y-86848190D01*
X219114309Y-86872000D01*
X219066690Y-86919619D01*
X219042880Y-87014857D01*
X219042880Y-87181523D01*
X219066690Y-87276761D01*
X219114309Y-87324380D01*
X219161928Y-87348190D01*
X219257166Y-87348190D01*
X219304785Y-87324380D01*
X219352404Y-87276761D01*
X219376214Y-87181523D01*
X219376214Y-87014857D01*
X219352404Y-86919619D01*
X219304785Y-86872000D01*
X219257166Y-86848190D01*
X218471452Y-87324380D02*
X218400023Y-87348190D01*
X218280976Y-87348190D01*
X218233357Y-87324380D01*
X218209547Y-87300571D01*
X218185738Y-87252952D01*
X218185738Y-87205333D01*
X218209547Y-87157714D01*
X218233357Y-87133904D01*
X218280976Y-87110095D01*
X218376214Y-87086285D01*
X218423833Y-87062476D01*
X218447642Y-87038666D01*
X218471452Y-86991047D01*
X218471452Y-86943428D01*
X218447642Y-86895809D01*
X218423833Y-86872000D01*
X218376214Y-86848190D01*
X218257166Y-86848190D01*
X218185738Y-86872000D01*
X218019071Y-86848190D02*
X217900023Y-87348190D01*
X217804785Y-86991047D01*
X217709547Y-87348190D01*
X217590500Y-86848190D01*
X217400023Y-87348190D02*
X217400023Y-86848190D01*
X217280976Y-86848190D01*
X217209547Y-86872000D01*
X217161928Y-86919619D01*
X217138119Y-86967238D01*
X217114309Y-87062476D01*
X217114309Y-87133904D01*
X217138119Y-87229142D01*
X217161928Y-87276761D01*
X217209547Y-87324380D01*
X217280976Y-87348190D01*
X217400023Y-87348190D01*
X216614309Y-87300571D02*
X216638119Y-87324380D01*
X216709547Y-87348190D01*
X216757166Y-87348190D01*
X216828595Y-87324380D01*
X216876214Y-87276761D01*
X216900023Y-87229142D01*
X216923833Y-87133904D01*
X216923833Y-87062476D01*
X216900023Y-86967238D01*
X216876214Y-86919619D01*
X216828595Y-86872000D01*
X216757166Y-86848190D01*
X216709547Y-86848190D01*
X216638119Y-86872000D01*
X216614309Y-86895809D01*
X216161928Y-87348190D02*
X216400023Y-87348190D01*
X216400023Y-86848190D01*
X215995261Y-87348190D02*
X215995261Y-86848190D01*
X215709547Y-87348190D02*
X215923833Y-87062476D01*
X215709547Y-86848190D02*
X215995261Y-87133904D01*
X214852404Y-86872000D02*
X214900023Y-86848190D01*
X214971452Y-86848190D01*
X215042880Y-86872000D01*
X215090500Y-86919619D01*
X215114309Y-86967238D01*
X215138119Y-87062476D01*
X215138119Y-87133904D01*
X215114309Y-87229142D01*
X215090500Y-87276761D01*
X215042880Y-87324380D01*
X214971452Y-87348190D01*
X214923833Y-87348190D01*
X214852404Y-87324380D01*
X214828595Y-87300571D01*
X214828595Y-87133904D01*
X214923833Y-87133904D01*
X214614309Y-87348190D02*
X214614309Y-86848190D01*
X214328595Y-87348190D01*
X214328595Y-86848190D01*
X214090500Y-87348190D02*
X214090500Y-86848190D01*
X213971452Y-86848190D01*
X213900023Y-86872000D01*
X213852404Y-86919619D01*
X213828595Y-86967238D01*
X213804785Y-87062476D01*
X213804785Y-87133904D01*
X213828595Y-87229142D01*
X213852404Y-87276761D01*
X213900023Y-87324380D01*
X213971452Y-87348190D01*
X214090500Y-87348190D01*
D12*
X241641190Y-89352380D02*
X241641190Y-88352380D01*
X240593571Y-89352380D02*
X240926904Y-88876190D01*
X241165000Y-89352380D02*
X241165000Y-88352380D01*
X240784047Y-88352380D01*
X240688809Y-88400000D01*
X240641190Y-88447619D01*
X240593571Y-88542857D01*
X240593571Y-88685714D01*
X240641190Y-88780952D01*
X240688809Y-88828571D01*
X240784047Y-88876190D01*
X241165000Y-88876190D01*
X239641190Y-89352380D02*
X240212619Y-89352380D01*
X239926904Y-89352380D02*
X239926904Y-88352380D01*
X240022142Y-88495238D01*
X240117380Y-88590476D01*
X240212619Y-88638095D01*
X202271190Y-89352380D02*
X202271190Y-88352380D01*
X201223571Y-89352380D02*
X201556904Y-88876190D01*
X201795000Y-89352380D02*
X201795000Y-88352380D01*
X201414047Y-88352380D01*
X201318809Y-88400000D01*
X201271190Y-88447619D01*
X201223571Y-88542857D01*
X201223571Y-88685714D01*
X201271190Y-88780952D01*
X201318809Y-88828571D01*
X201414047Y-88876190D01*
X201795000Y-88876190D01*
X200604523Y-88352380D02*
X200509285Y-88352380D01*
X200414047Y-88400000D01*
X200366428Y-88447619D01*
X200318809Y-88542857D01*
X200271190Y-88733333D01*
X200271190Y-88971428D01*
X200318809Y-89161904D01*
X200366428Y-89257142D01*
X200414047Y-89304761D01*
X200509285Y-89352380D01*
X200604523Y-89352380D01*
X200699761Y-89304761D01*
X200747380Y-89257142D01*
X200795000Y-89161904D01*
X200842619Y-88971428D01*
X200842619Y-88733333D01*
X200795000Y-88542857D01*
X200747380Y-88447619D01*
X200699761Y-88400000D01*
X200604523Y-88352380D01*
X218781190Y-126182380D02*
X218781190Y-125182380D01*
X217733571Y-126182380D02*
X218066904Y-125706190D01*
X218305000Y-126182380D02*
X218305000Y-125182380D01*
X217924047Y-125182380D01*
X217828809Y-125230000D01*
X217781190Y-125277619D01*
X217733571Y-125372857D01*
X217733571Y-125515714D01*
X217781190Y-125610952D01*
X217828809Y-125658571D01*
X217924047Y-125706190D01*
X218305000Y-125706190D01*
X216828809Y-125182380D02*
X217305000Y-125182380D01*
X217352619Y-125658571D01*
X217305000Y-125610952D01*
X217209761Y-125563333D01*
X216971666Y-125563333D01*
X216876428Y-125610952D01*
X216828809Y-125658571D01*
X216781190Y-125753809D01*
X216781190Y-125991904D01*
X216828809Y-126087142D01*
X216876428Y-126134761D01*
X216971666Y-126182380D01*
X217209761Y-126182380D01*
X217305000Y-126134761D01*
X217352619Y-126087142D01*
X225131190Y-126182380D02*
X225131190Y-125182380D01*
X224083571Y-126182380D02*
X224416904Y-125706190D01*
X224655000Y-126182380D02*
X224655000Y-125182380D01*
X224274047Y-125182380D01*
X224178809Y-125230000D01*
X224131190Y-125277619D01*
X224083571Y-125372857D01*
X224083571Y-125515714D01*
X224131190Y-125610952D01*
X224178809Y-125658571D01*
X224274047Y-125706190D01*
X224655000Y-125706190D01*
X223226428Y-125515714D02*
X223226428Y-126182380D01*
X223464523Y-125134761D02*
X223702619Y-125849047D01*
X223083571Y-125849047D01*
X200533000Y-87757000D02*
X200152000Y-88138000D01*
X200116000Y-88160000D02*
X197686000Y-88160000D01*
X197686000Y-88160000D02*
X197686000Y-84560000D01*
X197686000Y-84560000D02*
X200586000Y-84560000D01*
X200586000Y-84560000D02*
X200586000Y-87710000D01*
D13*
G36*
X243101090Y-102017348D02*
G01*
X243022546Y-102017778D01*
X242965702Y-102018942D01*
X242926895Y-102021207D01*
X242902462Y-102024940D01*
X242888738Y-102030506D01*
X242882060Y-102038273D01*
X242878764Y-102048605D01*
X242878444Y-102049943D01*
X242873438Y-102074079D01*
X242864171Y-102121701D01*
X242851608Y-102187741D01*
X242836713Y-102267128D01*
X242820449Y-102354796D01*
X242819881Y-102357875D01*
X242803590Y-102443789D01*
X242788348Y-102519696D01*
X242775139Y-102581045D01*
X242764946Y-102623282D01*
X242758752Y-102641855D01*
X242758457Y-102642184D01*
X242740212Y-102651253D01*
X242702595Y-102666367D01*
X242653729Y-102684262D01*
X242653457Y-102684358D01*
X242591907Y-102707493D01*
X242519343Y-102736965D01*
X242450943Y-102766597D01*
X242447706Y-102768062D01*
X242336298Y-102818626D01*
X242089601Y-102650160D01*
X242013923Y-102598803D01*
X241945369Y-102552889D01*
X241887912Y-102515030D01*
X241845524Y-102487837D01*
X241822175Y-102473921D01*
X241819958Y-102472889D01*
X241802990Y-102477484D01*
X241771299Y-102499655D01*
X241723648Y-102540447D01*
X241658802Y-102600905D01*
X241592603Y-102665227D01*
X241528786Y-102728612D01*
X241471671Y-102786451D01*
X241424695Y-102835175D01*
X241391297Y-102871210D01*
X241374915Y-102890984D01*
X241374306Y-102892002D01*
X241372495Y-102905572D01*
X241379317Y-102927733D01*
X241396460Y-102961478D01*
X241425607Y-103009800D01*
X241468445Y-103075692D01*
X241525552Y-103160517D01*
X241576234Y-103235177D01*
X241621539Y-103302140D01*
X241658850Y-103357516D01*
X241685548Y-103397420D01*
X241699015Y-103417962D01*
X241699863Y-103419356D01*
X241698219Y-103439038D01*
X241685755Y-103477293D01*
X241664952Y-103526889D01*
X241657538Y-103542728D01*
X241625186Y-103613290D01*
X241590672Y-103693353D01*
X241562635Y-103762629D01*
X241542432Y-103814045D01*
X241526385Y-103853119D01*
X241517112Y-103873541D01*
X241515959Y-103875114D01*
X241498904Y-103877721D01*
X241458702Y-103884863D01*
X241400698Y-103895523D01*
X241330237Y-103908685D01*
X241252665Y-103923333D01*
X241173328Y-103938449D01*
X241097569Y-103953018D01*
X241030736Y-103966022D01*
X240978172Y-103976445D01*
X240945224Y-103983270D01*
X240937143Y-103985199D01*
X240928795Y-103989962D01*
X240922494Y-104000718D01*
X240917955Y-104021098D01*
X240914896Y-104054734D01*
X240913033Y-104105255D01*
X240912082Y-104176292D01*
X240911760Y-104271476D01*
X240911743Y-104310492D01*
X240911743Y-104627799D01*
X240987943Y-104642839D01*
X241030337Y-104650995D01*
X241093600Y-104662899D01*
X241170038Y-104677116D01*
X241251957Y-104692210D01*
X241274600Y-104696355D01*
X241350194Y-104711053D01*
X241416047Y-104725505D01*
X241466634Y-104738375D01*
X241496426Y-104748322D01*
X241501388Y-104751287D01*
X241513574Y-104772283D01*
X241531047Y-104812967D01*
X241550423Y-104865322D01*
X241554266Y-104876600D01*
X241579661Y-104946523D01*
X241611183Y-105025418D01*
X241642031Y-105096266D01*
X241642183Y-105096595D01*
X241693553Y-105207733D01*
X241524601Y-105456253D01*
X241355648Y-105704772D01*
X241572571Y-105922058D01*
X241638181Y-105986726D01*
X241698021Y-106043733D01*
X241748733Y-106090033D01*
X241786954Y-106122584D01*
X241809325Y-106138343D01*
X241812534Y-106139343D01*
X241831374Y-106131469D01*
X241869820Y-106109578D01*
X241923670Y-106076267D01*
X241988724Y-106034131D01*
X242059060Y-105986943D01*
X242130445Y-105938810D01*
X242194092Y-105896928D01*
X242245959Y-105863871D01*
X242282005Y-105842218D01*
X242298133Y-105834543D01*
X242317811Y-105841037D01*
X242355125Y-105858150D01*
X242402379Y-105882326D01*
X242407388Y-105885013D01*
X242471023Y-105916927D01*
X242514659Y-105932579D01*
X242541798Y-105932745D01*
X242555943Y-105918204D01*
X242556025Y-105918000D01*
X242563095Y-105900779D01*
X242579958Y-105859899D01*
X242605305Y-105798525D01*
X242637829Y-105719819D01*
X242676222Y-105626947D01*
X242719178Y-105523072D01*
X242760778Y-105422502D01*
X242806496Y-105311516D01*
X242848474Y-105208703D01*
X242885452Y-105117215D01*
X242916173Y-105040201D01*
X242939378Y-104980815D01*
X242953810Y-104942209D01*
X242958257Y-104927800D01*
X242947104Y-104911272D01*
X242917931Y-104884930D01*
X242879029Y-104855887D01*
X242768243Y-104764039D01*
X242681649Y-104658759D01*
X242620284Y-104542266D01*
X242585185Y-104416776D01*
X242577392Y-104284507D01*
X242583057Y-104223457D01*
X242613922Y-104096795D01*
X242667080Y-103984941D01*
X242739233Y-103889001D01*
X242827083Y-103810076D01*
X242927335Y-103749270D01*
X243036690Y-103707687D01*
X243151853Y-103686428D01*
X243269525Y-103686599D01*
X243386410Y-103709301D01*
X243499211Y-103755638D01*
X243604631Y-103826713D01*
X243648632Y-103866911D01*
X243733021Y-103970129D01*
X243791778Y-104082925D01*
X243825296Y-104202010D01*
X243833965Y-104324095D01*
X243818177Y-104445893D01*
X243778322Y-104564116D01*
X243714793Y-104675475D01*
X243627979Y-104776684D01*
X243530971Y-104855887D01*
X243490563Y-104886162D01*
X243462018Y-104912219D01*
X243451743Y-104927825D01*
X243457123Y-104944843D01*
X243472425Y-104985500D01*
X243496388Y-105046642D01*
X243527756Y-105125119D01*
X243565268Y-105217780D01*
X243607667Y-105321472D01*
X243649337Y-105422526D01*
X243695310Y-105533607D01*
X243737893Y-105636541D01*
X243775779Y-105728165D01*
X243807660Y-105805316D01*
X243832229Y-105864831D01*
X243848180Y-105903544D01*
X243854090Y-105918000D01*
X243868052Y-105932685D01*
X243895060Y-105932642D01*
X243938587Y-105917099D01*
X244002110Y-105885284D01*
X244002612Y-105885013D01*
X244050440Y-105860323D01*
X244089103Y-105842338D01*
X244110905Y-105834614D01*
X244111867Y-105834543D01*
X244128279Y-105842378D01*
X244164513Y-105864165D01*
X244216526Y-105897328D01*
X244280275Y-105939291D01*
X244350940Y-105986943D01*
X244422884Y-106035191D01*
X244487726Y-106077151D01*
X244541265Y-106110227D01*
X244579303Y-106131821D01*
X244597467Y-106139343D01*
X244614192Y-106129457D01*
X244647820Y-106101826D01*
X244694990Y-106059495D01*
X244752342Y-106005505D01*
X244816516Y-105942899D01*
X244837503Y-105921983D01*
X245054501Y-105704623D01*
X244889332Y-105462220D01*
X244839136Y-105387781D01*
X244795081Y-105320972D01*
X244759638Y-105265665D01*
X244735281Y-105225729D01*
X244724478Y-105205036D01*
X244724162Y-105203563D01*
X244729857Y-105184058D01*
X244745174Y-105144822D01*
X244767463Y-105092430D01*
X244783107Y-105057355D01*
X244812359Y-104990201D01*
X244839906Y-104922358D01*
X244861263Y-104865034D01*
X244867065Y-104847572D01*
X244883548Y-104800938D01*
X244899660Y-104764905D01*
X244908510Y-104751287D01*
X244928040Y-104742952D01*
X244970666Y-104731137D01*
X245030855Y-104717181D01*
X245103078Y-104702422D01*
X245135400Y-104696355D01*
X245217478Y-104681273D01*
X245296205Y-104666669D01*
X245363891Y-104653980D01*
X245412840Y-104644642D01*
X245422057Y-104642839D01*
X245498257Y-104627799D01*
X245498257Y-104310492D01*
X245498086Y-104206154D01*
X245497384Y-104127213D01*
X245495866Y-104070038D01*
X245493251Y-104030999D01*
X245489254Y-104006465D01*
X245483591Y-103992805D01*
X245475980Y-103986389D01*
X245472857Y-103985199D01*
X245454022Y-103980980D01*
X245412412Y-103972562D01*
X245353370Y-103960961D01*
X245282243Y-103947195D01*
X245204375Y-103932280D01*
X245125113Y-103917232D01*
X245049802Y-103903069D01*
X244983787Y-103890806D01*
X244932413Y-103881461D01*
X244901025Y-103876050D01*
X244894041Y-103875114D01*
X244887715Y-103862596D01*
X244873710Y-103829246D01*
X244854645Y-103781377D01*
X244847366Y-103762629D01*
X244818004Y-103690195D01*
X244783429Y-103610170D01*
X244752463Y-103542728D01*
X244729677Y-103491159D01*
X244714518Y-103448785D01*
X244709458Y-103422834D01*
X244710264Y-103419356D01*
X244720959Y-103402936D01*
X244745380Y-103366417D01*
X244780905Y-103313687D01*
X244824913Y-103248635D01*
X244874783Y-103175151D01*
X244884644Y-103160645D01*
X244942508Y-103074704D01*
X244985044Y-103009261D01*
X245013946Y-102961304D01*
X245030910Y-102927820D01*
X245037633Y-102905795D01*
X245035810Y-102892217D01*
X245035764Y-102892131D01*
X245021414Y-102874297D01*
X244989677Y-102839817D01*
X244943990Y-102792268D01*
X244887796Y-102735222D01*
X244824532Y-102672255D01*
X244817398Y-102665227D01*
X244737670Y-102588020D01*
X244676143Y-102531330D01*
X244631579Y-102494110D01*
X244602743Y-102475315D01*
X244590042Y-102472889D01*
X244571506Y-102483471D01*
X244533039Y-102507916D01*
X244478614Y-102543612D01*
X244412202Y-102587947D01*
X244337775Y-102638311D01*
X244320399Y-102650160D01*
X244073703Y-102818626D01*
X243962294Y-102768062D01*
X243894543Y-102738595D01*
X243821817Y-102708959D01*
X243759297Y-102685330D01*
X243756543Y-102684358D01*
X243707640Y-102666457D01*
X243669943Y-102651320D01*
X243651575Y-102642210D01*
X243651544Y-102642184D01*
X243645715Y-102625717D01*
X243635808Y-102585219D01*
X243622805Y-102525242D01*
X243607691Y-102450340D01*
X243591448Y-102365064D01*
X243590119Y-102357875D01*
X243573825Y-102270014D01*
X243558867Y-102190260D01*
X243546209Y-102123681D01*
X243536814Y-102075347D01*
X243531646Y-102050325D01*
X243531556Y-102049943D01*
X243528411Y-102039299D01*
X243522296Y-102031262D01*
X243509547Y-102025467D01*
X243486500Y-102021547D01*
X243449491Y-102019135D01*
X243394856Y-102017865D01*
X243318933Y-102017371D01*
X243218056Y-102017286D01*
X243205000Y-102017286D01*
X243101090Y-102017348D01*
X243101090Y-102017348D01*
G37*
X243101090Y-102017348D02*
X243022546Y-102017778D01*
X242965702Y-102018942D01*
X242926895Y-102021207D01*
X242902462Y-102024940D01*
X242888738Y-102030506D01*
X242882060Y-102038273D01*
X242878764Y-102048605D01*
X242878444Y-102049943D01*
X242873438Y-102074079D01*
X242864171Y-102121701D01*
X242851608Y-102187741D01*
X242836713Y-102267128D01*
X242820449Y-102354796D01*
X242819881Y-102357875D01*
X242803590Y-102443789D01*
X242788348Y-102519696D01*
X242775139Y-102581045D01*
X242764946Y-102623282D01*
X242758752Y-102641855D01*
X242758457Y-102642184D01*
X242740212Y-102651253D01*
X242702595Y-102666367D01*
X242653729Y-102684262D01*
X242653457Y-102684358D01*
X242591907Y-102707493D01*
X242519343Y-102736965D01*
X242450943Y-102766597D01*
X242447706Y-102768062D01*
X242336298Y-102818626D01*
X242089601Y-102650160D01*
X242013923Y-102598803D01*
X241945369Y-102552889D01*
X241887912Y-102515030D01*
X241845524Y-102487837D01*
X241822175Y-102473921D01*
X241819958Y-102472889D01*
X241802990Y-102477484D01*
X241771299Y-102499655D01*
X241723648Y-102540447D01*
X241658802Y-102600905D01*
X241592603Y-102665227D01*
X241528786Y-102728612D01*
X241471671Y-102786451D01*
X241424695Y-102835175D01*
X241391297Y-102871210D01*
X241374915Y-102890984D01*
X241374306Y-102892002D01*
X241372495Y-102905572D01*
X241379317Y-102927733D01*
X241396460Y-102961478D01*
X241425607Y-103009800D01*
X241468445Y-103075692D01*
X241525552Y-103160517D01*
X241576234Y-103235177D01*
X241621539Y-103302140D01*
X241658850Y-103357516D01*
X241685548Y-103397420D01*
X241699015Y-103417962D01*
X241699863Y-103419356D01*
X241698219Y-103439038D01*
X241685755Y-103477293D01*
X241664952Y-103526889D01*
X241657538Y-103542728D01*
X241625186Y-103613290D01*
X241590672Y-103693353D01*
X241562635Y-103762629D01*
X241542432Y-103814045D01*
X241526385Y-103853119D01*
X241517112Y-103873541D01*
X241515959Y-103875114D01*
X241498904Y-103877721D01*
X241458702Y-103884863D01*
X241400698Y-103895523D01*
X241330237Y-103908685D01*
X241252665Y-103923333D01*
X241173328Y-103938449D01*
X241097569Y-103953018D01*
X241030736Y-103966022D01*
X240978172Y-103976445D01*
X240945224Y-103983270D01*
X240937143Y-103985199D01*
X240928795Y-103989962D01*
X240922494Y-104000718D01*
X240917955Y-104021098D01*
X240914896Y-104054734D01*
X240913033Y-104105255D01*
X240912082Y-104176292D01*
X240911760Y-104271476D01*
X240911743Y-104310492D01*
X240911743Y-104627799D01*
X240987943Y-104642839D01*
X241030337Y-104650995D01*
X241093600Y-104662899D01*
X241170038Y-104677116D01*
X241251957Y-104692210D01*
X241274600Y-104696355D01*
X241350194Y-104711053D01*
X241416047Y-104725505D01*
X241466634Y-104738375D01*
X241496426Y-104748322D01*
X241501388Y-104751287D01*
X241513574Y-104772283D01*
X241531047Y-104812967D01*
X241550423Y-104865322D01*
X241554266Y-104876600D01*
X241579661Y-104946523D01*
X241611183Y-105025418D01*
X241642031Y-105096266D01*
X241642183Y-105096595D01*
X241693553Y-105207733D01*
X241524601Y-105456253D01*
X241355648Y-105704772D01*
X241572571Y-105922058D01*
X241638181Y-105986726D01*
X241698021Y-106043733D01*
X241748733Y-106090033D01*
X241786954Y-106122584D01*
X241809325Y-106138343D01*
X241812534Y-106139343D01*
X241831374Y-106131469D01*
X241869820Y-106109578D01*
X241923670Y-106076267D01*
X241988724Y-106034131D01*
X242059060Y-105986943D01*
X242130445Y-105938810D01*
X242194092Y-105896928D01*
X242245959Y-105863871D01*
X242282005Y-105842218D01*
X242298133Y-105834543D01*
X242317811Y-105841037D01*
X242355125Y-105858150D01*
X242402379Y-105882326D01*
X242407388Y-105885013D01*
X242471023Y-105916927D01*
X242514659Y-105932579D01*
X242541798Y-105932745D01*
X242555943Y-105918204D01*
X242556025Y-105918000D01*
X242563095Y-105900779D01*
X242579958Y-105859899D01*
X242605305Y-105798525D01*
X242637829Y-105719819D01*
X242676222Y-105626947D01*
X242719178Y-105523072D01*
X242760778Y-105422502D01*
X242806496Y-105311516D01*
X242848474Y-105208703D01*
X242885452Y-105117215D01*
X242916173Y-105040201D01*
X242939378Y-104980815D01*
X242953810Y-104942209D01*
X242958257Y-104927800D01*
X242947104Y-104911272D01*
X242917931Y-104884930D01*
X242879029Y-104855887D01*
X242768243Y-104764039D01*
X242681649Y-104658759D01*
X242620284Y-104542266D01*
X242585185Y-104416776D01*
X242577392Y-104284507D01*
X242583057Y-104223457D01*
X242613922Y-104096795D01*
X242667080Y-103984941D01*
X242739233Y-103889001D01*
X242827083Y-103810076D01*
X242927335Y-103749270D01*
X243036690Y-103707687D01*
X243151853Y-103686428D01*
X243269525Y-103686599D01*
X243386410Y-103709301D01*
X243499211Y-103755638D01*
X243604631Y-103826713D01*
X243648632Y-103866911D01*
X243733021Y-103970129D01*
X243791778Y-104082925D01*
X243825296Y-104202010D01*
X243833965Y-104324095D01*
X243818177Y-104445893D01*
X243778322Y-104564116D01*
X243714793Y-104675475D01*
X243627979Y-104776684D01*
X243530971Y-104855887D01*
X243490563Y-104886162D01*
X243462018Y-104912219D01*
X243451743Y-104927825D01*
X243457123Y-104944843D01*
X243472425Y-104985500D01*
X243496388Y-105046642D01*
X243527756Y-105125119D01*
X243565268Y-105217780D01*
X243607667Y-105321472D01*
X243649337Y-105422526D01*
X243695310Y-105533607D01*
X243737893Y-105636541D01*
X243775779Y-105728165D01*
X243807660Y-105805316D01*
X243832229Y-105864831D01*
X243848180Y-105903544D01*
X243854090Y-105918000D01*
X243868052Y-105932685D01*
X243895060Y-105932642D01*
X243938587Y-105917099D01*
X244002110Y-105885284D01*
X244002612Y-105885013D01*
X244050440Y-105860323D01*
X244089103Y-105842338D01*
X244110905Y-105834614D01*
X244111867Y-105834543D01*
X244128279Y-105842378D01*
X244164513Y-105864165D01*
X244216526Y-105897328D01*
X244280275Y-105939291D01*
X244350940Y-105986943D01*
X244422884Y-106035191D01*
X244487726Y-106077151D01*
X244541265Y-106110227D01*
X244579303Y-106131821D01*
X244597467Y-106139343D01*
X244614192Y-106129457D01*
X244647820Y-106101826D01*
X244694990Y-106059495D01*
X244752342Y-106005505D01*
X244816516Y-105942899D01*
X244837503Y-105921983D01*
X245054501Y-105704623D01*
X244889332Y-105462220D01*
X244839136Y-105387781D01*
X244795081Y-105320972D01*
X244759638Y-105265665D01*
X244735281Y-105225729D01*
X244724478Y-105205036D01*
X244724162Y-105203563D01*
X244729857Y-105184058D01*
X244745174Y-105144822D01*
X244767463Y-105092430D01*
X244783107Y-105057355D01*
X244812359Y-104990201D01*
X244839906Y-104922358D01*
X244861263Y-104865034D01*
X244867065Y-104847572D01*
X244883548Y-104800938D01*
X244899660Y-104764905D01*
X244908510Y-104751287D01*
X244928040Y-104742952D01*
X244970666Y-104731137D01*
X245030855Y-104717181D01*
X245103078Y-104702422D01*
X245135400Y-104696355D01*
X245217478Y-104681273D01*
X245296205Y-104666669D01*
X245363891Y-104653980D01*
X245412840Y-104644642D01*
X245422057Y-104642839D01*
X245498257Y-104627799D01*
X245498257Y-104310492D01*
X245498086Y-104206154D01*
X245497384Y-104127213D01*
X245495866Y-104070038D01*
X245493251Y-104030999D01*
X245489254Y-104006465D01*
X245483591Y-103992805D01*
X245475980Y-103986389D01*
X245472857Y-103985199D01*
X245454022Y-103980980D01*
X245412412Y-103972562D01*
X245353370Y-103960961D01*
X245282243Y-103947195D01*
X245204375Y-103932280D01*
X245125113Y-103917232D01*
X245049802Y-103903069D01*
X244983787Y-103890806D01*
X244932413Y-103881461D01*
X244901025Y-103876050D01*
X244894041Y-103875114D01*
X244887715Y-103862596D01*
X244873710Y-103829246D01*
X244854645Y-103781377D01*
X244847366Y-103762629D01*
X244818004Y-103690195D01*
X244783429Y-103610170D01*
X244752463Y-103542728D01*
X244729677Y-103491159D01*
X244714518Y-103448785D01*
X244709458Y-103422834D01*
X244710264Y-103419356D01*
X244720959Y-103402936D01*
X244745380Y-103366417D01*
X244780905Y-103313687D01*
X244824913Y-103248635D01*
X244874783Y-103175151D01*
X244884644Y-103160645D01*
X244942508Y-103074704D01*
X244985044Y-103009261D01*
X245013946Y-102961304D01*
X245030910Y-102927820D01*
X245037633Y-102905795D01*
X245035810Y-102892217D01*
X245035764Y-102892131D01*
X245021414Y-102874297D01*
X244989677Y-102839817D01*
X244943990Y-102792268D01*
X244887796Y-102735222D01*
X244824532Y-102672255D01*
X244817398Y-102665227D01*
X244737670Y-102588020D01*
X244676143Y-102531330D01*
X244631579Y-102494110D01*
X244602743Y-102475315D01*
X244590042Y-102472889D01*
X244571506Y-102483471D01*
X244533039Y-102507916D01*
X244478614Y-102543612D01*
X244412202Y-102587947D01*
X244337775Y-102638311D01*
X244320399Y-102650160D01*
X244073703Y-102818626D01*
X243962294Y-102768062D01*
X243894543Y-102738595D01*
X243821817Y-102708959D01*
X243759297Y-102685330D01*
X243756543Y-102684358D01*
X243707640Y-102666457D01*
X243669943Y-102651320D01*
X243651575Y-102642210D01*
X243651544Y-102642184D01*
X243645715Y-102625717D01*
X243635808Y-102585219D01*
X243622805Y-102525242D01*
X243607691Y-102450340D01*
X243591448Y-102365064D01*
X243590119Y-102357875D01*
X243573825Y-102270014D01*
X243558867Y-102190260D01*
X243546209Y-102123681D01*
X243536814Y-102075347D01*
X243531646Y-102050325D01*
X243531556Y-102049943D01*
X243528411Y-102039299D01*
X243522296Y-102031262D01*
X243509547Y-102025467D01*
X243486500Y-102021547D01*
X243449491Y-102019135D01*
X243394856Y-102017865D01*
X243318933Y-102017371D01*
X243218056Y-102017286D01*
X243205000Y-102017286D01*
X243101090Y-102017348D01*
G36*
X219589684Y-90891895D02*
G01*
X218279579Y-90891895D01*
X218279579Y-88218211D01*
X215498947Y-88218211D01*
X215498947Y-96212526D01*
X218279579Y-96212526D01*
X218279579Y-93699263D01*
X219589684Y-93699263D01*
X219589684Y-96212526D01*
X222397052Y-96212526D01*
X222397052Y-93700693D01*
X222791421Y-93693294D01*
X223185789Y-93685895D01*
X223185789Y-90905263D01*
X222791421Y-90897864D01*
X222397052Y-90890465D01*
X222397052Y-88218211D01*
X219589684Y-88218211D01*
X219589684Y-90891895D01*
X219589684Y-90891895D01*
G37*
X219589684Y-90891895D02*
X218279579Y-90891895D01*
X218279579Y-88218211D01*
X215498947Y-88218211D01*
X215498947Y-96212526D01*
X218279579Y-96212526D01*
X218279579Y-93699263D01*
X219589684Y-93699263D01*
X219589684Y-96212526D01*
X222397052Y-96212526D01*
X222397052Y-93700693D01*
X222791421Y-93693294D01*
X223185789Y-93685895D01*
X223185789Y-90905263D01*
X222791421Y-90897864D01*
X222397052Y-90890465D01*
X222397052Y-88218211D01*
X219589684Y-88218211D01*
X219589684Y-90891895D01*
G36*
X223680421Y-96212526D02*
G01*
X226461052Y-96212526D01*
X226461052Y-89559287D01*
X225733641Y-89559287D01*
X225724481Y-89721673D01*
X225677549Y-89878114D01*
X225593436Y-90020490D01*
X225472734Y-90140683D01*
X225316033Y-90230573D01*
X225291370Y-90240235D01*
X225152832Y-90268334D01*
X224995062Y-90263451D01*
X224839388Y-90227449D01*
X224759915Y-90193794D01*
X224614915Y-90092133D01*
X224508542Y-89961955D01*
X224440928Y-89811855D01*
X224412204Y-89650433D01*
X224422503Y-89486283D01*
X224471955Y-89328005D01*
X224560693Y-89184194D01*
X224688848Y-89063448D01*
X224742083Y-89028788D01*
X224819736Y-88987925D01*
X224891654Y-88965116D01*
X224979125Y-88955520D01*
X225070737Y-88954093D01*
X225199770Y-88959551D01*
X225295831Y-88977475D01*
X225378708Y-89011604D01*
X225380742Y-89012676D01*
X225528580Y-89117650D01*
X225636282Y-89249156D01*
X225704439Y-89399075D01*
X225733641Y-89559287D01*
X226461052Y-89559287D01*
X226461052Y-88218211D01*
X223680421Y-88218211D01*
X223680421Y-96212526D01*
X223680421Y-96212526D01*
G37*
X223680421Y-96212526D02*
X226461052Y-96212526D01*
X226461052Y-89559287D01*
X225733641Y-89559287D01*
X225724481Y-89721673D01*
X225677549Y-89878114D01*
X225593436Y-90020490D01*
X225472734Y-90140683D01*
X225316033Y-90230573D01*
X225291370Y-90240235D01*
X225152832Y-90268334D01*
X224995062Y-90263451D01*
X224839388Y-90227449D01*
X224759915Y-90193794D01*
X224614915Y-90092133D01*
X224508542Y-89961955D01*
X224440928Y-89811855D01*
X224412204Y-89650433D01*
X224422503Y-89486283D01*
X224471955Y-89328005D01*
X224560693Y-89184194D01*
X224688848Y-89063448D01*
X224742083Y-89028788D01*
X224819736Y-88987925D01*
X224891654Y-88965116D01*
X224979125Y-88955520D01*
X225070737Y-88954093D01*
X225199770Y-88959551D01*
X225295831Y-88977475D01*
X225378708Y-89011604D01*
X225380742Y-89012676D01*
X225528580Y-89117650D01*
X225636282Y-89249156D01*
X225704439Y-89399075D01*
X225733641Y-89559287D01*
X226461052Y-89559287D01*
X226461052Y-88218211D01*
X223680421Y-88218211D01*
X223680421Y-96212526D01*
D12*
X215773000Y-102870000D02*
X215773000Y-103124000D01*
X215773000Y-103124000D02*
X213487000Y-103124000D01*
X213487000Y-103124000D02*
X213487000Y-102870000D01*
X215773000Y-102870000D02*
X213487000Y-102870000D01*
X213487000Y-102870000D02*
X213487000Y-101219000D01*
X215773000Y-99441000D02*
X215773000Y-97790000D01*
X215773000Y-97790000D02*
X213487000Y-97790000D01*
X213487000Y-97790000D02*
X213487000Y-99441000D01*
X215773000Y-101219000D02*
X215773000Y-102870000D01*
D14*
X224110000Y-99195000D02*
X224110000Y-100195000D01*
X225470000Y-100195000D02*
X225470000Y-99195000D01*
X216490000Y-99195000D02*
X216490000Y-100195000D01*
X217850000Y-100195000D02*
X217850000Y-99195000D01*
X217940000Y-121965000D02*
X218940000Y-121965000D01*
X218940000Y-120605000D02*
X217940000Y-120605000D01*
X223850000Y-120605000D02*
X222850000Y-120605000D01*
X222850000Y-121965000D02*
X223850000Y-121965000D01*
X239186000Y-86860000D02*
X239186000Y-85860000D01*
X237826000Y-85860000D02*
X237826000Y-86860000D01*
X202520000Y-85860000D02*
X202520000Y-86860000D01*
X203880000Y-86860000D02*
X203880000Y-85860000D01*
D12*
X214757000Y-128143000D02*
X214376000Y-128524000D01*
X214340000Y-128546000D02*
X211910000Y-128546000D01*
X211910000Y-128546000D02*
X211910000Y-124946000D01*
X211910000Y-124946000D02*
X214810000Y-124946000D01*
X214810000Y-124946000D02*
X214810000Y-128096000D01*
X244221000Y-87757000D02*
X243840000Y-88138000D01*
X243804000Y-88160000D02*
X241374000Y-88160000D01*
X241374000Y-88160000D02*
X241374000Y-84560000D01*
X241374000Y-84560000D02*
X244274000Y-84560000D01*
X244274000Y-84560000D02*
X244274000Y-87710000D01*
X229997000Y-128143000D02*
X229616000Y-128524000D01*
X229580000Y-128546000D02*
X227150000Y-128546000D01*
X227150000Y-128546000D02*
X227150000Y-124946000D01*
X227150000Y-124946000D02*
X230050000Y-124946000D01*
X230050000Y-124946000D02*
X230050000Y-128096000D01*
X228473000Y-102870000D02*
X228473000Y-103124000D01*
X228473000Y-103124000D02*
X226187000Y-103124000D01*
X226187000Y-103124000D02*
X226187000Y-102870000D01*
X228473000Y-102870000D02*
X226187000Y-102870000D01*
X226187000Y-102870000D02*
X226187000Y-101219000D01*
X228473000Y-99441000D02*
X228473000Y-97790000D01*
X228473000Y-97790000D02*
X226187000Y-97790000D01*
X226187000Y-97790000D02*
X226187000Y-99441000D01*
X228473000Y-101219000D02*
X228473000Y-102870000D01*
D14*
X221480000Y-118954000D02*
X220480000Y-118954000D01*
X220480000Y-120314000D02*
X221480000Y-120314000D01*
D12*
X225305000Y-110190000D02*
X225080000Y-110190000D01*
X225305000Y-104440000D02*
X225005000Y-104440000D01*
X216655000Y-104440000D02*
X216955000Y-104440000D01*
X216655000Y-110190000D02*
X216955000Y-110190000D01*
X225305000Y-110190000D02*
X225305000Y-104440000D01*
X216655000Y-110190000D02*
X216655000Y-104440000D01*
X225080000Y-110190000D02*
X225080000Y-111790000D01*
D14*
X210331000Y-113375000D02*
X210331000Y-119385000D01*
X217151000Y-115625000D02*
X217151000Y-119385000D01*
X210331000Y-119385000D02*
X211591000Y-119385000D01*
X217151000Y-119385000D02*
X215891000Y-119385000D01*
X214384000Y-111424000D02*
X215384000Y-111424000D01*
X215384000Y-110064000D02*
X214384000Y-110064000D01*
X215427000Y-111461000D02*
X214427000Y-111461000D01*
X214427000Y-112821000D02*
X215427000Y-112821000D01*
D11*
X213030571Y-99246571D02*
X213054380Y-99222761D01*
X213078190Y-99151333D01*
X213078190Y-99103714D01*
X213054380Y-99032285D01*
X213006761Y-98984666D01*
X212959142Y-98960857D01*
X212863904Y-98937047D01*
X212792476Y-98937047D01*
X212697238Y-98960857D01*
X212649619Y-98984666D01*
X212602000Y-99032285D01*
X212578190Y-99103714D01*
X212578190Y-99151333D01*
X212602000Y-99222761D01*
X212625809Y-99246571D01*
X213078190Y-99722761D02*
X213078190Y-99437047D01*
X213078190Y-99579904D02*
X212578190Y-99579904D01*
X212649619Y-99532285D01*
X212697238Y-99484666D01*
X212721047Y-99437047D01*
X212744857Y-100151333D02*
X213078190Y-100151333D01*
X212554380Y-100032285D02*
X212911523Y-99913238D01*
X212911523Y-100222761D01*
X223698571Y-99246571D02*
X223722380Y-99222761D01*
X223746190Y-99151333D01*
X223746190Y-99103714D01*
X223722380Y-99032285D01*
X223674761Y-98984666D01*
X223627142Y-98960857D01*
X223531904Y-98937047D01*
X223460476Y-98937047D01*
X223365238Y-98960857D01*
X223317619Y-98984666D01*
X223270000Y-99032285D01*
X223246190Y-99103714D01*
X223246190Y-99151333D01*
X223270000Y-99222761D01*
X223293809Y-99246571D01*
X223746190Y-99722761D02*
X223746190Y-99437047D01*
X223746190Y-99579904D02*
X223246190Y-99579904D01*
X223317619Y-99532285D01*
X223365238Y-99484666D01*
X223389047Y-99437047D01*
X223746190Y-100198952D02*
X223746190Y-99913238D01*
X223746190Y-100056095D02*
X223246190Y-100056095D01*
X223317619Y-100008476D01*
X223365238Y-99960857D01*
X223389047Y-99913238D01*
X218872571Y-99246571D02*
X218896380Y-99222761D01*
X218920190Y-99151333D01*
X218920190Y-99103714D01*
X218896380Y-99032285D01*
X218848761Y-98984666D01*
X218801142Y-98960857D01*
X218705904Y-98937047D01*
X218634476Y-98937047D01*
X218539238Y-98960857D01*
X218491619Y-98984666D01*
X218444000Y-99032285D01*
X218420190Y-99103714D01*
X218420190Y-99151333D01*
X218444000Y-99222761D01*
X218467809Y-99246571D01*
X218920190Y-99722761D02*
X218920190Y-99437047D01*
X218920190Y-99579904D02*
X218420190Y-99579904D01*
X218491619Y-99532285D01*
X218539238Y-99484666D01*
X218563047Y-99437047D01*
X218420190Y-99889428D02*
X218420190Y-100198952D01*
X218610666Y-100032285D01*
X218610666Y-100103714D01*
X218634476Y-100151333D01*
X218658285Y-100175142D01*
X218705904Y-100198952D01*
X218824952Y-100198952D01*
X218872571Y-100175142D01*
X218896380Y-100151333D01*
X218920190Y-100103714D01*
X218920190Y-99960857D01*
X218896380Y-99913238D01*
X218872571Y-99889428D01*
X217745428Y-120368190D02*
X217912095Y-120130095D01*
X218031142Y-120368190D02*
X218031142Y-119868190D01*
X217840666Y-119868190D01*
X217793047Y-119892000D01*
X217769238Y-119915809D01*
X217745428Y-119963428D01*
X217745428Y-120034857D01*
X217769238Y-120082476D01*
X217793047Y-120106285D01*
X217840666Y-120130095D01*
X218031142Y-120130095D01*
X217269238Y-120368190D02*
X217554952Y-120368190D01*
X217412095Y-120368190D02*
X217412095Y-119868190D01*
X217459714Y-119939619D01*
X217507333Y-119987238D01*
X217554952Y-120011047D01*
X216793047Y-120368190D02*
X217078761Y-120368190D01*
X216935904Y-120368190D02*
X216935904Y-119868190D01*
X216983523Y-119939619D01*
X217031142Y-119987238D01*
X217078761Y-120011047D01*
X224619333Y-120368190D02*
X224786000Y-120130095D01*
X224905047Y-120368190D02*
X224905047Y-119868190D01*
X224714571Y-119868190D01*
X224666952Y-119892000D01*
X224643142Y-119915809D01*
X224619333Y-119963428D01*
X224619333Y-120034857D01*
X224643142Y-120082476D01*
X224666952Y-120106285D01*
X224714571Y-120130095D01*
X224905047Y-120130095D01*
X224166952Y-119868190D02*
X224405047Y-119868190D01*
X224428857Y-120106285D01*
X224405047Y-120082476D01*
X224357428Y-120058666D01*
X224238380Y-120058666D01*
X224190761Y-120082476D01*
X224166952Y-120106285D01*
X224143142Y-120153904D01*
X224143142Y-120272952D01*
X224166952Y-120320571D01*
X224190761Y-120344380D01*
X224238380Y-120368190D01*
X224357428Y-120368190D01*
X224405047Y-120344380D01*
X224428857Y-120320571D01*
X237525690Y-87356166D02*
X237287595Y-87189500D01*
X237525690Y-87070452D02*
X237025690Y-87070452D01*
X237025690Y-87260928D01*
X237049500Y-87308547D01*
X237073309Y-87332357D01*
X237120928Y-87356166D01*
X237192357Y-87356166D01*
X237239976Y-87332357D01*
X237263785Y-87308547D01*
X237287595Y-87260928D01*
X237287595Y-87070452D01*
X237192357Y-87784738D02*
X237525690Y-87784738D01*
X237001880Y-87665690D02*
X237359023Y-87546642D01*
X237359023Y-87856166D01*
X204876190Y-87292666D02*
X204638095Y-87126000D01*
X204876190Y-87006952D02*
X204376190Y-87006952D01*
X204376190Y-87197428D01*
X204400000Y-87245047D01*
X204423809Y-87268857D01*
X204471428Y-87292666D01*
X204542857Y-87292666D01*
X204590476Y-87268857D01*
X204614285Y-87245047D01*
X204638095Y-87197428D01*
X204638095Y-87006952D01*
X204376190Y-87459333D02*
X204376190Y-87768857D01*
X204566666Y-87602190D01*
X204566666Y-87673619D01*
X204590476Y-87721238D01*
X204614285Y-87745047D01*
X204661904Y-87768857D01*
X204780952Y-87768857D01*
X204828571Y-87745047D01*
X204852380Y-87721238D01*
X204876190Y-87673619D01*
X204876190Y-87530761D01*
X204852380Y-87483142D01*
X204828571Y-87459333D01*
X229286571Y-99246571D02*
X229310380Y-99222761D01*
X229334190Y-99151333D01*
X229334190Y-99103714D01*
X229310380Y-99032285D01*
X229262761Y-98984666D01*
X229215142Y-98960857D01*
X229119904Y-98937047D01*
X229048476Y-98937047D01*
X228953238Y-98960857D01*
X228905619Y-98984666D01*
X228858000Y-99032285D01*
X228834190Y-99103714D01*
X228834190Y-99151333D01*
X228858000Y-99222761D01*
X228881809Y-99246571D01*
X229334190Y-99722761D02*
X229334190Y-99437047D01*
X229334190Y-99579904D02*
X228834190Y-99579904D01*
X228905619Y-99532285D01*
X228953238Y-99484666D01*
X228977047Y-99437047D01*
X228881809Y-99913238D02*
X228858000Y-99937047D01*
X228834190Y-99984666D01*
X228834190Y-100103714D01*
X228858000Y-100151333D01*
X228881809Y-100175142D01*
X228929428Y-100198952D01*
X228977047Y-100198952D01*
X229048476Y-100175142D01*
X229334190Y-99889428D01*
X229334190Y-100198952D01*
X221301428Y-118590190D02*
X221468095Y-118352095D01*
X221587142Y-118590190D02*
X221587142Y-118090190D01*
X221396666Y-118090190D01*
X221349047Y-118114000D01*
X221325238Y-118137809D01*
X221301428Y-118185428D01*
X221301428Y-118256857D01*
X221325238Y-118304476D01*
X221349047Y-118328285D01*
X221396666Y-118352095D01*
X221587142Y-118352095D01*
X220825238Y-118590190D02*
X221110952Y-118590190D01*
X220968095Y-118590190D02*
X220968095Y-118090190D01*
X221015714Y-118161619D01*
X221063333Y-118209238D01*
X221110952Y-118233047D01*
X220658571Y-118090190D02*
X220349047Y-118090190D01*
X220515714Y-118280666D01*
X220444285Y-118280666D01*
X220396666Y-118304476D01*
X220372857Y-118328285D01*
X220349047Y-118375904D01*
X220349047Y-118494952D01*
X220372857Y-118542571D01*
X220396666Y-118566380D01*
X220444285Y-118590190D01*
X220587142Y-118590190D01*
X220634761Y-118566380D01*
X220658571Y-118542571D01*
X214967333Y-109652571D02*
X214991142Y-109676380D01*
X215062571Y-109700190D01*
X215110190Y-109700190D01*
X215181619Y-109676380D01*
X215229238Y-109628761D01*
X215253047Y-109581142D01*
X215276857Y-109485904D01*
X215276857Y-109414476D01*
X215253047Y-109319238D01*
X215229238Y-109271619D01*
X215181619Y-109224000D01*
X215110190Y-109200190D01*
X215062571Y-109200190D01*
X214991142Y-109224000D01*
X214967333Y-109247809D01*
X214729238Y-109700190D02*
X214634000Y-109700190D01*
X214586380Y-109676380D01*
X214562571Y-109652571D01*
X214514952Y-109581142D01*
X214491142Y-109485904D01*
X214491142Y-109295428D01*
X214514952Y-109247809D01*
X214538761Y-109224000D01*
X214586380Y-109200190D01*
X214681619Y-109200190D01*
X214729238Y-109224000D01*
X214753047Y-109247809D01*
X214776857Y-109295428D01*
X214776857Y-109414476D01*
X214753047Y-109462095D01*
X214729238Y-109485904D01*
X214681619Y-109509714D01*
X214586380Y-109509714D01*
X214538761Y-109485904D01*
X214514952Y-109462095D01*
X214491142Y-109414476D01*
X212411428Y-112573571D02*
X212435238Y-112597380D01*
X212506666Y-112621190D01*
X212554285Y-112621190D01*
X212625714Y-112597380D01*
X212673333Y-112549761D01*
X212697142Y-112502142D01*
X212720952Y-112406904D01*
X212720952Y-112335476D01*
X212697142Y-112240238D01*
X212673333Y-112192619D01*
X212625714Y-112145000D01*
X212554285Y-112121190D01*
X212506666Y-112121190D01*
X212435238Y-112145000D01*
X212411428Y-112168809D01*
X211935238Y-112621190D02*
X212220952Y-112621190D01*
X212078095Y-112621190D02*
X212078095Y-112121190D01*
X212125714Y-112192619D01*
X212173333Y-112240238D01*
X212220952Y-112264047D01*
X211625714Y-112121190D02*
X211578095Y-112121190D01*
X211530476Y-112145000D01*
X211506666Y-112168809D01*
X211482857Y-112216428D01*
X211459047Y-112311666D01*
X211459047Y-112430714D01*
X211482857Y-112525952D01*
X211506666Y-112573571D01*
X211530476Y-112597380D01*
X211578095Y-112621190D01*
X211625714Y-112621190D01*
X211673333Y-112597380D01*
X211697142Y-112573571D01*
X211720952Y-112525952D01*
X211744761Y-112430714D01*
X211744761Y-112311666D01*
X211720952Y-112216428D01*
X211697142Y-112168809D01*
X211673333Y-112145000D01*
X211625714Y-112121190D01*
M02*
