G04 #@! TF.GenerationSoftware,KiCad,Pcbnew,5.1.4-e60b266~84~ubuntu18.04.1*
G04 #@! TF.CreationDate,2019-08-11T22:19:42+02:00*
G04 #@! TF.ProjectId,rat_board,7261745f-626f-4617-9264-2e6b69636164,rev?*
G04 #@! TF.SameCoordinates,Original*
G04 #@! TF.FileFunction,Copper,L1,Top*
G04 #@! TF.FilePolarity,Positive*
%FSLAX46Y46*%
G04 Gerber Fmt 4.6, Leading zero omitted, Abs format (unit mm)*
G04 Created by KiCad (PCBNEW 5.1.4-e60b266~84~ubuntu18.04.1) date 2019-08-11 22:19:42*
%MOMM*%
%LPD*%
G04 APERTURE LIST*
%ADD10O,1.700000X1.700000*%
%ADD11R,1.700000X1.700000*%
%ADD12C,1.700000*%
%ADD13R,1.200000X0.900000*%
%ADD14C,3.800000*%
%ADD15R,1.800000X1.800000*%
%ADD16C,1.800000*%
%ADD17O,2.499360X1.998980*%
%ADD18R,0.900000X1.200000*%
%ADD19R,0.800000X0.800000*%
%ADD20R,1.300000X0.250000*%
%ADD21R,0.250000X1.300000*%
%ADD22R,0.900000X1.700000*%
%ADD23C,0.600000*%
%ADD24C,1.016000*%
%ADD25C,1.524000*%
%ADD26C,0.508000*%
%ADD27C,0.250000*%
%ADD28C,0.254000*%
%ADD29C,1.016000*%
%ADD30C,0.203200*%
G04 APERTURE END LIST*
D10*
X227330000Y-85344000D03*
X224790000Y-85344000D03*
X222250000Y-85344000D03*
X219710000Y-85344000D03*
X217170000Y-85344000D03*
D11*
X214630000Y-85344000D03*
D10*
X218440000Y-128016000D03*
D11*
X220980000Y-128016000D03*
D12*
X223520000Y-128016000D03*
D10*
X205486000Y-99060000D03*
D11*
X205486000Y-101600000D03*
D12*
X208280000Y-101600000D03*
D10*
X208280000Y-99060000D03*
D12*
X233680000Y-101600000D03*
X233680000Y-99060000D03*
D13*
X210650000Y-88392000D03*
X208450000Y-88392000D03*
D14*
X235585000Y-104775000D03*
X206375000Y-104775000D03*
X220980000Y-124460000D03*
X220980000Y-114300000D03*
D13*
X225976000Y-89916000D03*
X228176000Y-89916000D03*
X225976000Y-88265000D03*
X228176000Y-88265000D03*
X225976000Y-95123000D03*
X228176000Y-95123000D03*
X210650000Y-86995000D03*
X208450000Y-86995000D03*
X210650000Y-95123000D03*
X208450000Y-95123000D03*
X225976000Y-97282000D03*
X228176000Y-97282000D03*
X228176000Y-93726000D03*
X225976000Y-93726000D03*
X228176000Y-91313000D03*
X225976000Y-91313000D03*
D15*
X205105000Y-90805000D03*
D16*
X202565000Y-90805000D03*
D13*
X225976000Y-99314000D03*
X228176000Y-99314000D03*
D17*
X232918000Y-94896940D03*
X232918000Y-90015060D03*
D18*
X242316000Y-93388000D03*
X242316000Y-95588000D03*
X199644000Y-95588000D03*
X199644000Y-93388000D03*
X240284000Y-95588000D03*
X240284000Y-93388000D03*
X201676000Y-93388000D03*
X201676000Y-95588000D03*
X244348000Y-93388000D03*
X244348000Y-95588000D03*
X197612000Y-95588000D03*
X197612000Y-93388000D03*
X238252000Y-93388000D03*
X238252000Y-95588000D03*
X203708000Y-95588000D03*
X203708000Y-93388000D03*
D16*
X239395000Y-106045000D03*
D15*
X239395000Y-103505000D03*
D16*
X200025000Y-90805000D03*
D15*
X197485000Y-90805000D03*
D16*
X244475000Y-90805000D03*
D15*
X241935000Y-90805000D03*
D16*
X202565000Y-103505000D03*
D15*
X202565000Y-106045000D03*
X239395000Y-100965000D03*
D16*
X239395000Y-98425000D03*
D15*
X239395000Y-90805000D03*
D16*
X236855000Y-90805000D03*
D15*
X202565000Y-98425000D03*
D16*
X202565000Y-100965000D03*
D19*
X212090000Y-86525000D03*
X212090000Y-84925000D03*
X230124000Y-86525000D03*
X230124000Y-84925000D03*
D20*
X222536000Y-94698000D03*
X222536000Y-94198000D03*
X222536000Y-93698000D03*
X222536000Y-93198000D03*
X222536000Y-92698000D03*
X222536000Y-92198000D03*
X222536000Y-91698000D03*
X222536000Y-91198000D03*
X222536000Y-90698000D03*
X222536000Y-90198000D03*
X222536000Y-89698000D03*
X222536000Y-89198000D03*
D21*
X220936000Y-87598000D03*
X220436000Y-87598000D03*
X219936000Y-87598000D03*
X219436000Y-87598000D03*
X218936000Y-87598000D03*
X218436000Y-87598000D03*
X217936000Y-87598000D03*
X217436000Y-87598000D03*
X216936000Y-87598000D03*
X216436000Y-87598000D03*
X215936000Y-87598000D03*
X215436000Y-87598000D03*
D20*
X213836000Y-89198000D03*
X213836000Y-89698000D03*
X213836000Y-90198000D03*
X213836000Y-90698000D03*
X213836000Y-91198000D03*
X213836000Y-91698000D03*
X213836000Y-92198000D03*
X213836000Y-92698000D03*
X213836000Y-93198000D03*
X213836000Y-93698000D03*
X213836000Y-94198000D03*
X213836000Y-94698000D03*
D21*
X215436000Y-96298000D03*
X215936000Y-96298000D03*
X216436000Y-96298000D03*
X216936000Y-96298000D03*
X217436000Y-96298000D03*
X217936000Y-96298000D03*
X218436000Y-96298000D03*
X218936000Y-96298000D03*
X219436000Y-96298000D03*
X219936000Y-96298000D03*
X220436000Y-96298000D03*
X220936000Y-96298000D03*
D13*
X234780000Y-85725000D03*
X232580000Y-85725000D03*
X210650000Y-91186000D03*
X208450000Y-91186000D03*
D18*
X236728000Y-101176000D03*
X236728000Y-98976000D03*
D13*
X210650000Y-93726000D03*
X208450000Y-93726000D03*
X208450000Y-89789000D03*
X210650000Y-89789000D03*
D22*
X215060000Y-126365000D03*
X211660000Y-126365000D03*
X226900000Y-126365000D03*
X230300000Y-126365000D03*
D23*
X212598000Y-128524000D03*
X213614000Y-128524000D03*
X213106000Y-127508000D03*
X205994000Y-85344000D03*
X205994000Y-86360000D03*
X207010000Y-86360000D03*
X207010000Y-85344000D03*
X208026000Y-85344000D03*
X230632000Y-110744000D03*
X230632000Y-111760000D03*
X229616000Y-111760000D03*
X230632000Y-112776000D03*
X229616000Y-112776000D03*
X228600000Y-112776000D03*
D24*
X198501000Y-92151200D03*
D23*
X212140800Y-94386400D03*
D24*
X212164210Y-98399600D03*
D23*
X228600000Y-126771400D03*
D24*
X217149936Y-113017291D03*
X224209884Y-94390484D03*
X223647000Y-96520000D03*
X243260880Y-97180400D03*
D23*
X235511340Y-96725740D03*
X210565970Y-86101210D03*
D24*
X223897212Y-89667348D03*
X236982000Y-86106000D03*
D23*
X206248000Y-95123000D03*
X243205000Y-85471000D03*
X220980000Y-105410000D03*
X210820000Y-123190000D03*
X210820000Y-121920000D03*
X210820000Y-124389589D03*
X221995990Y-105410000D03*
X220980000Y-106426000D03*
X221996000Y-106426000D03*
X210820000Y-97282000D03*
X245110000Y-88392000D03*
X245110000Y-89281000D03*
X244094000Y-89281000D03*
X244094000Y-88392000D03*
X243078000Y-88392000D03*
X227076000Y-90678000D03*
X226822000Y-110490000D03*
X226822000Y-109474000D03*
X227838000Y-109474000D03*
X225806000Y-110490000D03*
X225806000Y-111506000D03*
X227838000Y-108458000D03*
X230886000Y-98298000D03*
X230886000Y-97282000D03*
X231902000Y-97282000D03*
X230886000Y-96266000D03*
X229108000Y-85090000D03*
X229314453Y-88509589D03*
D25*
X211455000Y-111125000D03*
X211455000Y-109220000D03*
X217143252Y-117570990D03*
D23*
X236337034Y-86884824D03*
X223454579Y-117019865D03*
X213300630Y-96503669D03*
X215112886Y-93700310D03*
X212598000Y-100584000D03*
X206375000Y-93726000D03*
X213106000Y-88519000D03*
X216923682Y-89608687D03*
X219864365Y-98270627D03*
X219100703Y-101600070D03*
X219900714Y-101599515D03*
X221615000Y-101128480D03*
X223563955Y-101423210D03*
X222854827Y-101800421D03*
X224257764Y-102235000D03*
X219569956Y-91170256D03*
X223560995Y-85987129D03*
X219569914Y-90367045D03*
X218370603Y-92834254D03*
X217884783Y-86493018D03*
X218363798Y-122148600D03*
X198247000Y-88392000D03*
X204978000Y-95631000D03*
X236474000Y-94488000D03*
X218308210Y-93635028D03*
X240030000Y-92205002D03*
X219569956Y-93137879D03*
D25*
X218948000Y-107111800D03*
X217208376Y-123672600D03*
D26*
X197782580Y-92151200D02*
X197459600Y-92474180D01*
X198501000Y-92151200D02*
X197782580Y-92151200D01*
X197459600Y-93235600D02*
X197612000Y-93388000D01*
X197459600Y-92474180D02*
X197459600Y-93235600D01*
X197612000Y-93388000D02*
X199644000Y-93388000D01*
D27*
X212936000Y-94698000D02*
X213836000Y-94698000D01*
X212180800Y-95453200D02*
X212936000Y-94698000D01*
X210650000Y-95123000D02*
X210980200Y-95453200D01*
X210980200Y-95453200D02*
X212180800Y-95453200D01*
X211861400Y-94665800D02*
X212140800Y-94386400D01*
X211201000Y-94665800D02*
X211861400Y-94665800D01*
X210650000Y-95123000D02*
X210743800Y-95123000D01*
X210743800Y-95123000D02*
X211201000Y-94665800D01*
X214928200Y-87598000D02*
X215436000Y-87598000D01*
X214579200Y-87249000D02*
X214928200Y-87598000D01*
D28*
X227306400Y-126771400D02*
X226900000Y-126365000D01*
X228600000Y-126771400D02*
X227306400Y-126771400D01*
D26*
X217149936Y-103385326D02*
X217149936Y-112298871D01*
X217149936Y-112298871D02*
X217149936Y-113017291D01*
X212164210Y-98399600D02*
X217149936Y-103385326D01*
D27*
X225126000Y-97282000D02*
X225976000Y-97282000D01*
X220936000Y-96298000D02*
X221433740Y-96298000D01*
X222417740Y-97282000D02*
X225126000Y-97282000D01*
X221433740Y-96298000D02*
X222417740Y-97282000D01*
X225976000Y-95123000D02*
X225704400Y-95123000D01*
X224971884Y-94390484D02*
X224209884Y-94390484D01*
X225704400Y-95123000D02*
X224971884Y-94390484D01*
X210908201Y-87253201D02*
X210650000Y-86995000D01*
X214579200Y-87249000D02*
X214574999Y-87253201D01*
X214574999Y-87253201D02*
X210908201Y-87253201D01*
X225126000Y-95123000D02*
X224701000Y-94698000D01*
X223436000Y-94698000D02*
X222536000Y-94698000D01*
X224701000Y-94698000D02*
X223436000Y-94698000D01*
X225976000Y-95123000D02*
X225126000Y-95123000D01*
X224450365Y-96520000D02*
X223647000Y-96520000D01*
X224737987Y-96807623D02*
X224450365Y-96520000D01*
X225501616Y-96807623D02*
X224737987Y-96807623D01*
X225540192Y-96846202D02*
X225501616Y-96807623D01*
X225540202Y-96846203D02*
X225540192Y-96846202D01*
X225976000Y-97282000D02*
X225540202Y-96846203D01*
D26*
X243260880Y-96675120D02*
X244348000Y-95588000D01*
X243260880Y-97180400D02*
X243260880Y-96675120D01*
X244348000Y-95588000D02*
X242316000Y-95588000D01*
D28*
X235511340Y-99809340D02*
X235511340Y-96725740D01*
X236728000Y-101026000D02*
X235511340Y-99809340D01*
X236728000Y-101176000D02*
X236728000Y-101026000D01*
D27*
X210650000Y-86185240D02*
X210565970Y-86101210D01*
X210650000Y-86995000D02*
X210650000Y-86185240D01*
D28*
X223897212Y-89489788D02*
X223897212Y-89667348D01*
X223897212Y-90206151D02*
X223897212Y-89667348D01*
X223405363Y-90698000D02*
X223897212Y-90206151D01*
X225976000Y-88265000D02*
X225122000Y-88265000D01*
X222536000Y-90698000D02*
X223405363Y-90698000D01*
X225122000Y-88265000D02*
X223897212Y-89489788D01*
D26*
X236601000Y-85725000D02*
X236982000Y-86106000D01*
X234780000Y-85725000D02*
X236601000Y-85725000D01*
D27*
X208450000Y-95123000D02*
X206248000Y-95123000D01*
X212970238Y-94198000D02*
X213836000Y-94198000D01*
X210650000Y-93726000D02*
X212498238Y-93726000D01*
X212498238Y-93726000D02*
X212970238Y-94198000D01*
X208450000Y-95123000D02*
X208737200Y-95123000D01*
X210134200Y-93726000D02*
X210650000Y-93726000D01*
X208737200Y-95123000D02*
X210134200Y-93726000D01*
X210820000Y-123190000D02*
X210820000Y-121920000D01*
X211660000Y-125229589D02*
X211119999Y-124689588D01*
X211119999Y-124689588D02*
X210820000Y-124389589D01*
X211660000Y-126365000D02*
X211660000Y-125229589D01*
X215936000Y-86650000D02*
X215936000Y-87598000D01*
X214630000Y-85344000D02*
X215936000Y-86650000D01*
X221995990Y-106425990D02*
X221996000Y-106426000D01*
X227545301Y-88265000D02*
X226672502Y-89137799D01*
X223436000Y-91198000D02*
X222536000Y-91198000D01*
X223549127Y-91198000D02*
X223436000Y-91198000D01*
X228176000Y-88265000D02*
X227545301Y-88265000D01*
X226672502Y-89137799D02*
X225113439Y-89137799D01*
X224790000Y-89957127D02*
X223549127Y-91198000D01*
X224790000Y-89461238D02*
X224790000Y-89957127D01*
X225113439Y-89137799D02*
X224790000Y-89461238D01*
X225976000Y-91313000D02*
X226441000Y-91313000D01*
X226441000Y-91313000D02*
X227076000Y-90678000D01*
X227838000Y-89916000D02*
X228176000Y-89916000D01*
X227076000Y-90678000D02*
X227838000Y-89916000D01*
D29*
X220980000Y-128016000D02*
X220130001Y-127166001D01*
D26*
X227711000Y-95123000D02*
X228176000Y-95123000D01*
X226441000Y-93853000D02*
X227711000Y-95123000D01*
D27*
X226314000Y-93726000D02*
X226441000Y-93853000D01*
X225976000Y-93726000D02*
X226314000Y-93726000D01*
D28*
X231438474Y-84582000D02*
X231528885Y-84491589D01*
X231528885Y-84491589D02*
X232791000Y-84491589D01*
X231375000Y-84582000D02*
X231438474Y-84582000D01*
X231032000Y-84925000D02*
X231375000Y-84582000D01*
D27*
X230213000Y-85090000D02*
X230378000Y-84925000D01*
X229959000Y-85090000D02*
X230124000Y-84925000D01*
X229108000Y-85090000D02*
X229959000Y-85090000D01*
X231032000Y-84925000D02*
X230124000Y-84925000D01*
X220436000Y-97163762D02*
X221214638Y-97942400D01*
X220436000Y-96298000D02*
X220436000Y-97163762D01*
X221214638Y-97942400D02*
X222402400Y-97942400D01*
X229069864Y-88265000D02*
X229314453Y-88509589D01*
X228176000Y-88265000D02*
X229069864Y-88265000D01*
D29*
X209429733Y-97216023D02*
X210616799Y-98403089D01*
X207329977Y-97216023D02*
X209429733Y-97216023D01*
X205486000Y-99060000D02*
X207329977Y-97216023D01*
X211455000Y-100605338D02*
X211455000Y-110047370D01*
X210616799Y-99767137D02*
X211455000Y-100605338D01*
X211455000Y-110047370D02*
X211455000Y-111125000D01*
X210616799Y-98403089D02*
X210616799Y-99767137D01*
X221741999Y-120141999D02*
X219714261Y-120141999D01*
X223520000Y-128016000D02*
X224369999Y-127166001D01*
X224369999Y-122769999D02*
X221741999Y-120141999D01*
X224369999Y-127166001D02*
X224369999Y-122769999D01*
X219714261Y-120141999D02*
X217905251Y-118332989D01*
X217905251Y-118332989D02*
X217143252Y-117570990D01*
D27*
X236728000Y-97012660D02*
X235219340Y-95504000D01*
X235219340Y-95504000D02*
X234950000Y-95504000D01*
X236728000Y-98976000D02*
X236728000Y-97012660D01*
X223436000Y-91698000D02*
X222536000Y-91698000D01*
X224044000Y-91698000D02*
X223436000Y-91698000D01*
X225976000Y-89916000D02*
X225826000Y-89916000D01*
X225826000Y-89916000D02*
X224044000Y-91698000D01*
X227346201Y-89137799D02*
X226568000Y-89916000D01*
X234950000Y-89408000D02*
X233934000Y-88392000D01*
X234950000Y-95504000D02*
X234950000Y-89408000D01*
X226568000Y-89916000D02*
X225976000Y-89916000D01*
X230648201Y-89137799D02*
X227346201Y-89137799D01*
X233934000Y-88392000D02*
X231394000Y-88392000D01*
X231394000Y-88392000D02*
X230648201Y-89137799D01*
X215060000Y-126365000D02*
X216243498Y-126365000D01*
X220610922Y-118344587D02*
X223674569Y-118344587D01*
X223674569Y-118344587D02*
X224536000Y-117483156D01*
X219042802Y-121653267D02*
X215411422Y-118021887D01*
X224536000Y-115454872D02*
X230632000Y-109358872D01*
X230632000Y-99822000D02*
X234950000Y-95504000D01*
X224536000Y-117483156D02*
X224536000Y-115454872D01*
X218197925Y-115931588D02*
X220610922Y-118344587D01*
X216167475Y-115931588D02*
X218197925Y-115931588D01*
X215411422Y-116687641D02*
X216167475Y-115931588D01*
X215411422Y-118021887D02*
X215411422Y-116687641D01*
X218298588Y-124309910D02*
X218298588Y-123194352D01*
X219042802Y-122450138D02*
X219042802Y-121653267D01*
X218298588Y-123194352D02*
X219042802Y-122450138D01*
X216243498Y-126365000D02*
X218298588Y-124309910D01*
X230632000Y-109358872D02*
X230632000Y-99822000D01*
X222536000Y-92698000D02*
X230719060Y-92698000D01*
X230719060Y-92698000D02*
X232918000Y-94896940D01*
X231802940Y-94896940D02*
X232918000Y-94896940D01*
X228176000Y-93726000D02*
X230632000Y-93726000D01*
X230632000Y-93726000D02*
X231802940Y-94896940D01*
X208600000Y-91186000D02*
X209550000Y-90236000D01*
X208450000Y-91186000D02*
X208600000Y-91186000D01*
X209550000Y-90236000D02*
X209550000Y-85938262D01*
D28*
X211036000Y-85471000D02*
X212090000Y-86525000D01*
X210017262Y-85471000D02*
X211036000Y-85471000D01*
D27*
X209550000Y-85938262D02*
X210017262Y-85471000D01*
X222536000Y-92198000D02*
X230735060Y-92198000D01*
X230735060Y-92198000D02*
X232918000Y-90015060D01*
X231929940Y-90015060D02*
X232918000Y-90015060D01*
X228176000Y-91313000D02*
X230632000Y-91313000D01*
X230632000Y-91313000D02*
X231929940Y-90015060D01*
X233442561Y-84946799D02*
X233508201Y-85012439D01*
X230867439Y-85796799D02*
X231717439Y-84946799D01*
X224772919Y-86539789D02*
X228464449Y-86539789D01*
X221649436Y-86619799D02*
X221650706Y-86618529D01*
X231717439Y-84946799D02*
X233442561Y-84946799D01*
X229207439Y-85796799D02*
X230867439Y-85796799D01*
X228464449Y-86539789D02*
X229207439Y-85796799D01*
X224694179Y-86618529D02*
X224772919Y-86539789D01*
X218482799Y-87551201D02*
X218482799Y-86685439D01*
X221650706Y-86618529D02*
X224694179Y-86618529D01*
X218548439Y-86619799D02*
X221649436Y-86619799D01*
X233508201Y-86205124D02*
X234187901Y-86884824D01*
X218436000Y-87598000D02*
X218482799Y-87551201D01*
X218482799Y-86685439D02*
X218548439Y-86619799D01*
X233508201Y-85012439D02*
X233508201Y-86205124D01*
X234187901Y-86884824D02*
X235912770Y-86884824D01*
X235912770Y-86884824D02*
X236337034Y-86884824D01*
X200419001Y-94662999D02*
X199644000Y-95438000D01*
X200419001Y-92349001D02*
X200419001Y-94662999D01*
X199644000Y-95438000D02*
X199644000Y-95588000D01*
X200025000Y-91955000D02*
X200419001Y-92349001D01*
X200025000Y-90805000D02*
X200025000Y-91955000D01*
X212348336Y-95926601D02*
X205825399Y-95926601D01*
X220198166Y-93922354D02*
X219253932Y-94866588D01*
X214906562Y-94866588D02*
X214610389Y-95162761D01*
X220198166Y-90048360D02*
X220198166Y-93922354D01*
X213112176Y-95162761D02*
X212348336Y-95926601D01*
X199644000Y-95738000D02*
X199644000Y-95588000D01*
X219253932Y-94866588D02*
X214906562Y-94866588D01*
X205235799Y-96516201D02*
X200422201Y-96516201D01*
X218936000Y-87598000D02*
X218936000Y-88786194D01*
X200422201Y-96516201D02*
X199644000Y-95738000D01*
X214610389Y-95162761D02*
X213112176Y-95162761D01*
X218936000Y-88786194D02*
X220198166Y-90048360D01*
X205825399Y-95926601D02*
X205235799Y-96516201D01*
X197612000Y-96438000D02*
X197612000Y-95588000D01*
X197612000Y-99702000D02*
X197612000Y-96438000D01*
X201415000Y-103505000D02*
X197612000Y-99702000D01*
X202565000Y-103505000D02*
X201415000Y-103505000D01*
X198843412Y-96969412D02*
X197612000Y-95738000D01*
X219436000Y-88645257D02*
X220651377Y-89860634D01*
X219436000Y-87598000D02*
X219436000Y-88645257D01*
X220321879Y-95319799D02*
X215094288Y-95319799D01*
X197612000Y-95738000D02*
X197612000Y-95588000D01*
X220651377Y-94990301D02*
X220321879Y-95319799D01*
X205442988Y-96969412D02*
X198843412Y-96969412D01*
X206032588Y-96379812D02*
X205442988Y-96969412D01*
X215094288Y-95319799D02*
X214798115Y-95615972D01*
X213299902Y-95615972D02*
X212536062Y-96379812D01*
X212536062Y-96379812D02*
X206032588Y-96379812D01*
X220651377Y-89860634D02*
X220651377Y-94990301D01*
X214798115Y-95615972D02*
X213299902Y-95615972D01*
X223454579Y-116595601D02*
X223454579Y-117019865D01*
X224925713Y-96354412D02*
X228942412Y-96354412D01*
X221104588Y-95202723D02*
X221585663Y-95683798D01*
X219936000Y-88504320D02*
X221104588Y-89672908D01*
X229612801Y-97024801D02*
X229612801Y-109096199D01*
X228942412Y-96354412D02*
X229612801Y-97024801D01*
X229612801Y-109096199D02*
X223454579Y-115254421D01*
X224255099Y-95683798D02*
X224925713Y-96354412D01*
X223454579Y-115254421D02*
X223454579Y-116595601D01*
X221104588Y-89672908D02*
X221104588Y-95202723D01*
X221585663Y-95683798D02*
X224255099Y-95683798D01*
X219936000Y-87598000D02*
X219936000Y-88504320D01*
X215436000Y-96298000D02*
X213506299Y-96298000D01*
X213506299Y-96298000D02*
X213300630Y-96503669D01*
X213836000Y-93698000D02*
X215110576Y-93698000D01*
X215110576Y-93698000D02*
X215112886Y-93700310D01*
X213836000Y-89198000D02*
X212935000Y-89198000D01*
X212936000Y-89198000D02*
X213836000Y-89198000D01*
X212788000Y-89198000D02*
X212936000Y-89198000D01*
X210650000Y-91186000D02*
X210800000Y-91186000D01*
X210800000Y-91186000D02*
X212788000Y-89198000D01*
X208450000Y-93726000D02*
X208788000Y-93726000D01*
X208600000Y-93726000D02*
X208450000Y-93726000D01*
X209378201Y-92947799D02*
X208600000Y-93726000D01*
X211762762Y-93198000D02*
X211512561Y-92947799D01*
X213836000Y-93198000D02*
X211762762Y-93198000D01*
X211512561Y-92947799D02*
X209378201Y-92947799D01*
X208450000Y-93726000D02*
X206375000Y-93726000D01*
X228500000Y-125265000D02*
X229600000Y-126365000D01*
X227600131Y-125265000D02*
X228500000Y-125265000D01*
X225372211Y-123037080D02*
X227600131Y-125265000D01*
X225372211Y-122589631D02*
X225372211Y-123037080D01*
X221580378Y-118797798D02*
X225372211Y-122589631D01*
X220423196Y-118797798D02*
X221580378Y-118797798D01*
X219496013Y-121465541D02*
X215864633Y-117834161D01*
X218751799Y-123382078D02*
X219496013Y-122637864D01*
X215864799Y-127543201D02*
X218751799Y-124656201D01*
X214347439Y-127543201D02*
X215864799Y-127543201D01*
X215864633Y-116875367D02*
X216355201Y-116384799D01*
X212598000Y-100584000D02*
X212598000Y-125793762D01*
X216355201Y-116384799D02*
X218010199Y-116384799D01*
X215864633Y-117834161D02*
X215864633Y-116875367D01*
X218751799Y-124656201D02*
X218751799Y-123382078D01*
X229600000Y-126365000D02*
X230300000Y-126365000D01*
X219496013Y-122637864D02*
X219496013Y-121465541D01*
X218010199Y-116384799D02*
X220423196Y-118797798D01*
X212598000Y-125793762D02*
X214347439Y-127543201D01*
X213106000Y-88519000D02*
X212324000Y-88519000D01*
X212070000Y-88519000D02*
X212324000Y-88519000D01*
X210650000Y-89789000D02*
X210800000Y-89789000D01*
X210800000Y-89789000D02*
X212070000Y-88519000D01*
X217223681Y-89308688D02*
X216923682Y-89608687D01*
X217436000Y-89096369D02*
X217223681Y-89308688D01*
X217436000Y-87598000D02*
X217436000Y-89096369D01*
X218936000Y-98230687D02*
X219631514Y-98926201D01*
X219631514Y-98926201D02*
X221707883Y-98926201D01*
X221707883Y-98926201D02*
X222095682Y-99314000D01*
X218936000Y-96298000D02*
X218936000Y-98230687D01*
X225126000Y-99314000D02*
X225976000Y-99314000D01*
X222095682Y-99314000D02*
X225126000Y-99314000D01*
X219436000Y-96298000D02*
X219436000Y-97842262D01*
X219436000Y-97842262D02*
X219564366Y-97970628D01*
X219564366Y-97970628D02*
X219864365Y-98270627D01*
X215936000Y-98435367D02*
X219100703Y-101600070D01*
X215936000Y-96298000D02*
X215936000Y-98435367D01*
X219464508Y-100739045D02*
X219900714Y-101175251D01*
X216436000Y-98294431D02*
X218880614Y-100739045D01*
X218880614Y-100739045D02*
X219464508Y-100739045D01*
X219900714Y-101175251D02*
X219900714Y-101599515D01*
X216436000Y-96298000D02*
X216436000Y-98294431D01*
X221315001Y-100828481D02*
X221615000Y-101128480D01*
X220772354Y-100285834D02*
X221315001Y-100828481D01*
X219068339Y-100285834D02*
X220772354Y-100285834D01*
X216936000Y-98153495D02*
X219068339Y-100285834D01*
X216936000Y-96298000D02*
X216936000Y-98153495D01*
X218436000Y-96298000D02*
X218436000Y-98371623D01*
X223263956Y-101123211D02*
X223563955Y-101423210D01*
X219443789Y-99379412D02*
X221520157Y-99379412D01*
X221520157Y-99379412D02*
X223263956Y-101123211D01*
X218436000Y-98371623D02*
X219443789Y-99379412D01*
X222854827Y-101376157D02*
X222854827Y-101800421D01*
X221311293Y-99832623D02*
X222854827Y-101376157D01*
X219256064Y-99832623D02*
X221311293Y-99832623D01*
X217936000Y-96298000D02*
X217936000Y-98512559D01*
X217936000Y-98512559D02*
X219256064Y-99832623D01*
X226775752Y-98472990D02*
X226904201Y-98601439D01*
X224682028Y-102235000D02*
X224257764Y-102235000D01*
X219936000Y-96298000D02*
X219936000Y-97311127D01*
X219936000Y-97311127D02*
X221097863Y-98472990D01*
X221097863Y-98472990D02*
X226775752Y-98472990D01*
X226904201Y-98601439D02*
X226904201Y-100012827D01*
X226904201Y-100012827D02*
X224682028Y-102235000D01*
X216436000Y-88498000D02*
X215720623Y-89213377D01*
X216955890Y-91170256D02*
X219145692Y-91170256D01*
X219145692Y-91170256D02*
X219569956Y-91170256D01*
X215720623Y-89934989D02*
X216955890Y-91170256D01*
X215720623Y-89213377D02*
X215720623Y-89934989D01*
X216436000Y-87598000D02*
X216436000Y-88498000D01*
X216936000Y-87598000D02*
X216936000Y-88666375D01*
X216793615Y-90367045D02*
X219145650Y-90367045D01*
X216173834Y-89747264D02*
X216793615Y-90367045D01*
X216936000Y-88666375D02*
X216173834Y-89428541D01*
X219145650Y-90367045D02*
X219569914Y-90367045D01*
X216173834Y-89428541D02*
X216173834Y-89747264D01*
X224204124Y-85344000D02*
X223560995Y-85987129D01*
X224790000Y-85344000D02*
X224204124Y-85344000D01*
X231630000Y-86525000D02*
X232430000Y-85725000D01*
X232430000Y-85725000D02*
X232580000Y-85725000D01*
X230124000Y-86525000D02*
X231630000Y-86525000D01*
X211500000Y-88392000D02*
X212001201Y-87890799D01*
X210650000Y-88392000D02*
X211500000Y-88392000D01*
X212001201Y-87890799D02*
X213797237Y-87890799D01*
X213797237Y-87890799D02*
X215267412Y-89360974D01*
X217978952Y-92834254D02*
X218370603Y-92834254D01*
X215267412Y-89360974D02*
X215267412Y-90122714D01*
X215267412Y-90122714D02*
X217978952Y-92834254D01*
X217936000Y-87598000D02*
X217936000Y-86544235D01*
X217936000Y-86544235D02*
X217884783Y-86493018D01*
X224442825Y-95230587D02*
X225113439Y-95901201D01*
X225113439Y-95901201D02*
X229130138Y-95901201D01*
X214958211Y-116499915D02*
X214958211Y-118743013D01*
X221773389Y-95230587D02*
X224442825Y-95230587D01*
X221557799Y-89485182D02*
X221557799Y-95014997D01*
X230066012Y-96837075D02*
X230066012Y-109283924D01*
X229130138Y-95901201D02*
X230066012Y-96837075D01*
X224082789Y-115267146D02*
X224082789Y-117295430D01*
X224082789Y-117295430D02*
X223486843Y-117891376D01*
X223486843Y-117891376D02*
X220798648Y-117891376D01*
X215979749Y-115478377D02*
X214958211Y-116499915D01*
X221557799Y-95014997D02*
X221773389Y-95230587D01*
X220436000Y-87598000D02*
X220436000Y-88363383D01*
X220436000Y-88363383D02*
X221557799Y-89485182D01*
X230066012Y-109283924D02*
X224082789Y-115267146D01*
X220798648Y-117891376D02*
X218385651Y-115478377D01*
X214958211Y-118743013D02*
X218063799Y-121848601D01*
X218385651Y-115478377D02*
X215979749Y-115478377D01*
X218063799Y-121848601D02*
X218363798Y-122148600D01*
X244348000Y-93388000D02*
X244348000Y-90932000D01*
X244348000Y-90932000D02*
X244475000Y-90805000D01*
D28*
X224358473Y-87598000D02*
X221315000Y-87598000D01*
X229284505Y-86995000D02*
X224961473Y-86995000D01*
X224961473Y-86995000D02*
X224358473Y-87598000D01*
X229715682Y-87426177D02*
X229284505Y-86995000D01*
X221315000Y-87598000D02*
X220936000Y-87598000D01*
X244475000Y-90805000D02*
X242570000Y-88900000D01*
X242570000Y-88900000D02*
X235726702Y-88900000D01*
X235726702Y-88900000D02*
X234252879Y-87426177D01*
X234252879Y-87426177D02*
X229715682Y-87426177D01*
D27*
X239395000Y-106045000D02*
X240545000Y-106045000D01*
X241540999Y-105049001D02*
X241540999Y-94313001D01*
X240545000Y-106045000D02*
X241540999Y-105049001D01*
X241540999Y-94313001D02*
X242316000Y-93538000D01*
X242316000Y-93538000D02*
X242316000Y-93388000D01*
X240222446Y-89355211D02*
X240706799Y-89839564D01*
X223811000Y-88823000D02*
X225183789Y-87450211D01*
X225183789Y-87450211D02*
X229095951Y-87450211D01*
X229095951Y-87450211D02*
X229527128Y-87881388D01*
X234064325Y-87881388D02*
X235538148Y-89355211D01*
X240706799Y-91921219D02*
X240974880Y-92189300D01*
X240974880Y-92189300D02*
X241267300Y-92189300D01*
X242316000Y-93238000D02*
X242316000Y-93388000D01*
X240706799Y-89839564D02*
X240706799Y-91921219D01*
X223061000Y-89198000D02*
X223436000Y-88823000D01*
X223436000Y-88823000D02*
X223811000Y-88823000D01*
X241267300Y-92189300D02*
X242316000Y-93238000D01*
X222536000Y-89198000D02*
X223061000Y-89198000D01*
X235538148Y-89355211D02*
X240222446Y-89355211D01*
X229527128Y-87881388D02*
X234064325Y-87881388D01*
X208450000Y-88392000D02*
X198247000Y-88392000D01*
X203751000Y-95631000D02*
X203708000Y-95588000D01*
X204978000Y-95631000D02*
X203751000Y-95631000D01*
X238252000Y-93388000D02*
X238252000Y-92202000D01*
X238252000Y-92202000D02*
X236855000Y-90805000D01*
X201676000Y-93388000D02*
X201676000Y-91694000D01*
X201676000Y-91694000D02*
X202565000Y-90805000D01*
X240284000Y-95588000D02*
X240284000Y-97536000D01*
X240284000Y-97536000D02*
X239395000Y-98425000D01*
X204408000Y-93388000D02*
X203708000Y-93388000D01*
X205543200Y-92252800D02*
X204408000Y-93388000D01*
X208852749Y-92041377D02*
X208641326Y-92252800D01*
X208641326Y-92252800D02*
X205543200Y-92252800D01*
X212031412Y-90602588D02*
X212031412Y-91642472D01*
X213836000Y-89698000D02*
X212936000Y-89698000D01*
X211632507Y-92041377D02*
X208852749Y-92041377D01*
X212936000Y-89698000D02*
X212031412Y-90602588D01*
X212031412Y-91642472D02*
X211632507Y-92041377D01*
X238252000Y-95588000D02*
X237574000Y-95588000D01*
X237574000Y-95588000D02*
X236474000Y-94488000D01*
X218138790Y-93635028D02*
X218308210Y-93635028D01*
X213836000Y-90198000D02*
X214701762Y-90198000D01*
X214701762Y-90198000D02*
X218138790Y-93635028D01*
X206146400Y-92710000D02*
X208825063Y-92710000D01*
X202626000Y-94488000D02*
X204368400Y-94488000D01*
X211820233Y-92494588D02*
X212484623Y-91830198D01*
X212936000Y-90698000D02*
X213836000Y-90698000D01*
X212484623Y-91830198D02*
X212484623Y-91149377D01*
X204368400Y-94488000D02*
X206146400Y-92710000D01*
X201676000Y-95438000D02*
X202626000Y-94488000D01*
X201676000Y-95588000D02*
X201676000Y-95438000D01*
X212484623Y-91149377D02*
X212936000Y-90698000D01*
X208825063Y-92710000D02*
X209040475Y-92494588D01*
X209040475Y-92494588D02*
X211820233Y-92494588D01*
X240033002Y-92205002D02*
X240284000Y-92456000D01*
X240284000Y-92456000D02*
X240284000Y-93388000D01*
X240030000Y-92205002D02*
X240033002Y-92205002D01*
X213836000Y-91198000D02*
X214701762Y-91198000D01*
X214701762Y-91198000D02*
X217917139Y-94413377D01*
X219569956Y-93562143D02*
X219569956Y-93137879D01*
X218718722Y-94413377D02*
X219569956Y-93562143D01*
X217917139Y-94413377D02*
X218718722Y-94413377D01*
D29*
X217321879Y-114642166D02*
X215633380Y-114642166D01*
X218948000Y-107111800D02*
X218948000Y-112467422D01*
X218368790Y-113595256D02*
X217321879Y-114642166D01*
X218948000Y-112467422D02*
X218368790Y-113046632D01*
X216446377Y-122910601D02*
X217208376Y-123672600D01*
X214122000Y-120586224D02*
X216446377Y-122910601D01*
X215633380Y-114642166D02*
X214122000Y-116153546D01*
X218368790Y-113046632D02*
X218368790Y-113595256D01*
X214122000Y-116153546D02*
X214122000Y-120586224D01*
D30*
G36*
X196353664Y-92263495D02*
G01*
X196467066Y-92297895D01*
X196585000Y-92309511D01*
X196926249Y-92307398D01*
X196908886Y-92364637D01*
X196901667Y-92437939D01*
X196898097Y-92474180D01*
X196900800Y-92501622D01*
X196900800Y-92630083D01*
X196879040Y-92670794D01*
X196861611Y-92728249D01*
X196855726Y-92788000D01*
X196855726Y-93988000D01*
X196861611Y-94047751D01*
X196879040Y-94105206D01*
X196907342Y-94158157D01*
X196945432Y-94204568D01*
X196991843Y-94242658D01*
X197044794Y-94270960D01*
X197102249Y-94288389D01*
X197162000Y-94294274D01*
X198062000Y-94294274D01*
X198121751Y-94288389D01*
X198179206Y-94270960D01*
X198232157Y-94242658D01*
X198278568Y-94204568D01*
X198316658Y-94158157D01*
X198344960Y-94105206D01*
X198362389Y-94047751D01*
X198368274Y-93988000D01*
X198368274Y-93946800D01*
X198887726Y-93946800D01*
X198887726Y-93988000D01*
X198893611Y-94047751D01*
X198911040Y-94105206D01*
X198939342Y-94158157D01*
X198977432Y-94204568D01*
X199023843Y-94242658D01*
X199076794Y-94270960D01*
X199134249Y-94288389D01*
X199194000Y-94294274D01*
X199989202Y-94294274D01*
X199989202Y-94484969D01*
X199792445Y-94681726D01*
X199194000Y-94681726D01*
X199134249Y-94687611D01*
X199076794Y-94705040D01*
X199023843Y-94733342D01*
X198977432Y-94771432D01*
X198939342Y-94817843D01*
X198911040Y-94870794D01*
X198893611Y-94928249D01*
X198887726Y-94988000D01*
X198887726Y-96188000D01*
X198893611Y-96247751D01*
X198911040Y-96305206D01*
X198939342Y-96358157D01*
X198977432Y-96404568D01*
X199023843Y-96442658D01*
X199076794Y-96470960D01*
X199134249Y-96488389D01*
X199194000Y-96494274D01*
X199792445Y-96494274D01*
X199837783Y-96539612D01*
X199021441Y-96539612D01*
X198368274Y-95886446D01*
X198368274Y-94988000D01*
X198362389Y-94928249D01*
X198344960Y-94870794D01*
X198316658Y-94817843D01*
X198278568Y-94771432D01*
X198232157Y-94733342D01*
X198179206Y-94705040D01*
X198121751Y-94687611D01*
X198062000Y-94681726D01*
X197162000Y-94681726D01*
X197102249Y-94687611D01*
X197044794Y-94705040D01*
X196991843Y-94733342D01*
X196945432Y-94771432D01*
X196907342Y-94817843D01*
X196879040Y-94870794D01*
X196861611Y-94928249D01*
X196855726Y-94988000D01*
X196855726Y-96188000D01*
X196861611Y-96247751D01*
X196879040Y-96305206D01*
X196907342Y-96358157D01*
X196945432Y-96404568D01*
X196991843Y-96442658D01*
X197044794Y-96470960D01*
X197102249Y-96488389D01*
X197162000Y-96494274D01*
X197182201Y-96494274D01*
X197182200Y-99680893D01*
X197180121Y-99702000D01*
X197182200Y-99723107D01*
X197182200Y-99723108D01*
X197188419Y-99786254D01*
X197211474Y-99862254D01*
X197212996Y-99867272D01*
X197252906Y-99941939D01*
X197257114Y-99947066D01*
X197306615Y-100007385D01*
X197323020Y-100020848D01*
X201096157Y-103793986D01*
X201109615Y-103810385D01*
X201145965Y-103840216D01*
X201175060Y-103864094D01*
X201201069Y-103877995D01*
X201249727Y-103904004D01*
X201330745Y-103928581D01*
X201393891Y-103934800D01*
X201393892Y-103934800D01*
X201414999Y-103936879D01*
X201436106Y-103934800D01*
X201438962Y-103934800D01*
X201497320Y-104075687D01*
X201629170Y-104273016D01*
X201796984Y-104440830D01*
X201948765Y-104542246D01*
X201665000Y-104540489D01*
X201547066Y-104552105D01*
X201433664Y-104586505D01*
X201329152Y-104642367D01*
X201237546Y-104717546D01*
X201162367Y-104809152D01*
X201106505Y-104913664D01*
X201072105Y-105027066D01*
X201060489Y-105145000D01*
X201063400Y-105615200D01*
X201213800Y-105765600D01*
X202285600Y-105765600D01*
X202285600Y-105745600D01*
X202844400Y-105745600D01*
X202844400Y-105765600D01*
X203916200Y-105765600D01*
X204066600Y-105615200D01*
X204069511Y-105145000D01*
X204057895Y-105027066D01*
X204023495Y-104913664D01*
X203967633Y-104809152D01*
X203892454Y-104717546D01*
X203800848Y-104642367D01*
X203696336Y-104586505D01*
X203582934Y-104552105D01*
X203465000Y-104540489D01*
X203181235Y-104542246D01*
X203333016Y-104440830D01*
X203500830Y-104273016D01*
X203632680Y-104075687D01*
X203723501Y-103856427D01*
X203769800Y-103623662D01*
X203769800Y-103386338D01*
X203723501Y-103153573D01*
X203632680Y-102934313D01*
X203500830Y-102736984D01*
X203333016Y-102569170D01*
X203135687Y-102437320D01*
X202916427Y-102346499D01*
X202683662Y-102300200D01*
X202446338Y-102300200D01*
X202213573Y-102346499D01*
X201994313Y-102437320D01*
X201796984Y-102569170D01*
X201629170Y-102736984D01*
X201497320Y-102934313D01*
X201484088Y-102966259D01*
X198041800Y-99523972D01*
X198041800Y-99325000D01*
X201060489Y-99325000D01*
X201072105Y-99442934D01*
X201106505Y-99556336D01*
X201162367Y-99660848D01*
X201237546Y-99752454D01*
X201329152Y-99827633D01*
X201433664Y-99883495D01*
X201547066Y-99917895D01*
X201665000Y-99929511D01*
X201948765Y-99927754D01*
X201796984Y-100029170D01*
X201629170Y-100196984D01*
X201497320Y-100394313D01*
X201406499Y-100613573D01*
X201360200Y-100846338D01*
X201360200Y-101083662D01*
X201406499Y-101316427D01*
X201497320Y-101535687D01*
X201629170Y-101733016D01*
X201796984Y-101900830D01*
X201994313Y-102032680D01*
X202213573Y-102123501D01*
X202446338Y-102169800D01*
X202683662Y-102169800D01*
X202916427Y-102123501D01*
X203135687Y-102032680D01*
X203333016Y-101900830D01*
X203500830Y-101733016D01*
X203632680Y-101535687D01*
X203653152Y-101486262D01*
X207125200Y-101486262D01*
X207125200Y-101713738D01*
X207169578Y-101936843D01*
X207256629Y-102147003D01*
X207383008Y-102336142D01*
X207543858Y-102496992D01*
X207732997Y-102623371D01*
X207943157Y-102710422D01*
X208166262Y-102754800D01*
X208393738Y-102754800D01*
X208616843Y-102710422D01*
X208827003Y-102623371D01*
X209016142Y-102496992D01*
X209176992Y-102336142D01*
X209303371Y-102147003D01*
X209390422Y-101936843D01*
X209434800Y-101713738D01*
X209434800Y-101486262D01*
X209390422Y-101263157D01*
X209303371Y-101052997D01*
X209176992Y-100863858D01*
X209016142Y-100703008D01*
X208827003Y-100576629D01*
X208616843Y-100489578D01*
X208393738Y-100445200D01*
X208166262Y-100445200D01*
X207943157Y-100489578D01*
X207732997Y-100576629D01*
X207543858Y-100703008D01*
X207383008Y-100863858D01*
X207256629Y-101052997D01*
X207169578Y-101263157D01*
X207125200Y-101486262D01*
X203653152Y-101486262D01*
X203723501Y-101316427D01*
X203769800Y-101083662D01*
X203769800Y-100846338D01*
X203723501Y-100613573D01*
X203632680Y-100394313D01*
X203500830Y-100196984D01*
X203333016Y-100029170D01*
X203181235Y-99927754D01*
X203465000Y-99929511D01*
X203582934Y-99917895D01*
X203696336Y-99883495D01*
X203800848Y-99827633D01*
X203892454Y-99752454D01*
X203967633Y-99660848D01*
X204023495Y-99556336D01*
X204057895Y-99442934D01*
X204069511Y-99325000D01*
X204066600Y-98854800D01*
X203916200Y-98704400D01*
X202844400Y-98704400D01*
X202844400Y-98724400D01*
X202285600Y-98724400D01*
X202285600Y-98704400D01*
X201213800Y-98704400D01*
X201063400Y-98854800D01*
X201060489Y-99325000D01*
X198041800Y-99325000D01*
X198041800Y-96775629D01*
X198524569Y-97258398D01*
X198538027Y-97274797D01*
X198554424Y-97288253D01*
X198603472Y-97328506D01*
X198611506Y-97332800D01*
X198678139Y-97368416D01*
X198759157Y-97392993D01*
X198822303Y-97399212D01*
X198822305Y-97399212D01*
X198843412Y-97401291D01*
X198864519Y-97399212D01*
X201074487Y-97399212D01*
X201072105Y-97407066D01*
X201060489Y-97525000D01*
X201063400Y-97995200D01*
X201213800Y-98145600D01*
X202285600Y-98145600D01*
X202285600Y-98125600D01*
X202844400Y-98125600D01*
X202844400Y-98145600D01*
X203916200Y-98145600D01*
X204066600Y-97995200D01*
X204069511Y-97525000D01*
X204057895Y-97407066D01*
X204055513Y-97399212D01*
X205421881Y-97399212D01*
X205442988Y-97401291D01*
X205464095Y-97399212D01*
X205464097Y-97399212D01*
X205527243Y-97392993D01*
X205608261Y-97368416D01*
X205682927Y-97328506D01*
X205748373Y-97274797D01*
X205761835Y-97258393D01*
X206210617Y-96809612D01*
X206586915Y-96809612D01*
X205491328Y-97905200D01*
X205429276Y-97905200D01*
X205259620Y-97921910D01*
X205041939Y-97987942D01*
X204841324Y-98095173D01*
X204665482Y-98239482D01*
X204521173Y-98415324D01*
X204413942Y-98615939D01*
X204347910Y-98833620D01*
X204325613Y-99060000D01*
X204347910Y-99286380D01*
X204413942Y-99504061D01*
X204521173Y-99704676D01*
X204665482Y-99880518D01*
X204841324Y-100024827D01*
X205041939Y-100132058D01*
X205206598Y-100182006D01*
X205206598Y-100298798D01*
X205056200Y-100148400D01*
X204636000Y-100145489D01*
X204518066Y-100157105D01*
X204404664Y-100191505D01*
X204300152Y-100247367D01*
X204208546Y-100322546D01*
X204133367Y-100414152D01*
X204077505Y-100518664D01*
X204043105Y-100632066D01*
X204031489Y-100750000D01*
X204034400Y-101170200D01*
X204184800Y-101320600D01*
X205206600Y-101320600D01*
X205206600Y-101300600D01*
X205765400Y-101300600D01*
X205765400Y-101320600D01*
X206787200Y-101320600D01*
X206937600Y-101170200D01*
X206940511Y-100750000D01*
X206928895Y-100632066D01*
X206894495Y-100518664D01*
X206838633Y-100414152D01*
X206763454Y-100322546D01*
X206671848Y-100247367D01*
X206567336Y-100191505D01*
X206453934Y-100157105D01*
X206336000Y-100145489D01*
X205915800Y-100148400D01*
X205765402Y-100298798D01*
X205765402Y-100182006D01*
X205930061Y-100132058D01*
X206130676Y-100024827D01*
X206306518Y-99880518D01*
X206450827Y-99704676D01*
X206558058Y-99504061D01*
X206624090Y-99286380D01*
X206646387Y-99060000D01*
X206645408Y-99050064D01*
X207666650Y-98028823D01*
X207759456Y-98028823D01*
X207635324Y-98095173D01*
X207459482Y-98239482D01*
X207315173Y-98415324D01*
X207207942Y-98615939D01*
X207141910Y-98833620D01*
X207119613Y-99060000D01*
X207141910Y-99286380D01*
X207207942Y-99504061D01*
X207315173Y-99704676D01*
X207459482Y-99880518D01*
X207635324Y-100024827D01*
X207835939Y-100132058D01*
X208053620Y-100198090D01*
X208223276Y-100214800D01*
X208336724Y-100214800D01*
X208506380Y-100198090D01*
X208724061Y-100132058D01*
X208924676Y-100024827D01*
X209100518Y-99880518D01*
X209244827Y-99704676D01*
X209352058Y-99504061D01*
X209418090Y-99286380D01*
X209440387Y-99060000D01*
X209418090Y-98833620D01*
X209352058Y-98615939D01*
X209244827Y-98415324D01*
X209100518Y-98239482D01*
X208924676Y-98095173D01*
X208800544Y-98028823D01*
X209093061Y-98028823D01*
X209803999Y-98739762D01*
X209804000Y-99727207D01*
X209800067Y-99767137D01*
X209811374Y-99881934D01*
X209815761Y-99926474D01*
X209818092Y-99934157D01*
X209862237Y-100079686D01*
X209937711Y-100220888D01*
X209964786Y-100253879D01*
X210039283Y-100344654D01*
X210070294Y-100370104D01*
X210642200Y-100942011D01*
X210642201Y-108524116D01*
X210626362Y-108539955D01*
X210509614Y-108714681D01*
X210429196Y-108908826D01*
X210388200Y-109114929D01*
X210388200Y-109325071D01*
X210429196Y-109531174D01*
X210509614Y-109725319D01*
X210626362Y-109900045D01*
X210642201Y-109915884D01*
X210642201Y-110007438D01*
X210642200Y-110007448D01*
X210642200Y-110429117D01*
X210626362Y-110444955D01*
X210509614Y-110619681D01*
X210429196Y-110813826D01*
X210388200Y-111019929D01*
X210388200Y-111230071D01*
X210429196Y-111436174D01*
X210509614Y-111630319D01*
X210626362Y-111805045D01*
X210774955Y-111953638D01*
X210949681Y-112070386D01*
X211143826Y-112150804D01*
X211349929Y-112191800D01*
X211560071Y-112191800D01*
X211766174Y-112150804D01*
X211960319Y-112070386D01*
X212135045Y-111953638D01*
X212168200Y-111920483D01*
X212168201Y-124916222D01*
X212110000Y-124910489D01*
X212089800Y-124913400D01*
X211939400Y-125063800D01*
X211939400Y-126085600D01*
X211959400Y-126085600D01*
X211959400Y-126644400D01*
X211939400Y-126644400D01*
X211939400Y-127666200D01*
X212089800Y-127816600D01*
X212110000Y-127819511D01*
X212227934Y-127807895D01*
X212341336Y-127773495D01*
X212445848Y-127717633D01*
X212537454Y-127642454D01*
X212612633Y-127550848D01*
X212668495Y-127446336D01*
X212702895Y-127332934D01*
X212714511Y-127215000D01*
X212711600Y-126794800D01*
X212561202Y-126644402D01*
X212711600Y-126644402D01*
X212711600Y-126515190D01*
X214028596Y-127832187D01*
X214042054Y-127848586D01*
X214078404Y-127878417D01*
X214107499Y-127902295D01*
X214141677Y-127920563D01*
X214182166Y-127942205D01*
X214263184Y-127966782D01*
X214326330Y-127973001D01*
X214326331Y-127973001D01*
X214347438Y-127975080D01*
X214368545Y-127973001D01*
X215843692Y-127973001D01*
X215864799Y-127975080D01*
X215885906Y-127973001D01*
X215885908Y-127973001D01*
X215949054Y-127966782D01*
X216030072Y-127942205D01*
X216104738Y-127902295D01*
X216170184Y-127848586D01*
X216183647Y-127832181D01*
X218875389Y-125140440D01*
X219026132Y-125504364D01*
X219267420Y-125865478D01*
X219574522Y-126172580D01*
X219935636Y-126413868D01*
X220294779Y-126562631D01*
X220130000Y-126561489D01*
X220012066Y-126573105D01*
X219898664Y-126607505D01*
X219794152Y-126663367D01*
X219702546Y-126738546D01*
X219627367Y-126830152D01*
X219571505Y-126934664D01*
X219537105Y-127048066D01*
X219525489Y-127166000D01*
X219528400Y-127586200D01*
X219678798Y-127736598D01*
X219562006Y-127736598D01*
X219512058Y-127571939D01*
X219404827Y-127371324D01*
X219260518Y-127195482D01*
X219084676Y-127051173D01*
X218884061Y-126943942D01*
X218666380Y-126877910D01*
X218496724Y-126861200D01*
X218383276Y-126861200D01*
X218213620Y-126877910D01*
X217995939Y-126943942D01*
X217795324Y-127051173D01*
X217619482Y-127195482D01*
X217475173Y-127371324D01*
X217367942Y-127571939D01*
X217301910Y-127789620D01*
X217279613Y-128016000D01*
X217301910Y-128242380D01*
X217367942Y-128460061D01*
X217475173Y-128660676D01*
X217552746Y-128755200D01*
X210397357Y-128755200D01*
X210371548Y-128752669D01*
X210363427Y-128750217D01*
X210355928Y-128746231D01*
X210349349Y-128740864D01*
X210343940Y-128734326D01*
X210339900Y-128726854D01*
X210337389Y-128718744D01*
X210334800Y-128694108D01*
X210334800Y-127215000D01*
X210605489Y-127215000D01*
X210617105Y-127332934D01*
X210651505Y-127446336D01*
X210707367Y-127550848D01*
X210782546Y-127642454D01*
X210874152Y-127717633D01*
X210978664Y-127773495D01*
X211092066Y-127807895D01*
X211210000Y-127819511D01*
X211230200Y-127816600D01*
X211380600Y-127666200D01*
X211380600Y-126644400D01*
X210758800Y-126644400D01*
X210608400Y-126794800D01*
X210605489Y-127215000D01*
X210334800Y-127215000D01*
X210334800Y-125515000D01*
X210605489Y-125515000D01*
X210608400Y-125935200D01*
X210758800Y-126085600D01*
X211380600Y-126085600D01*
X211380600Y-125063800D01*
X211230200Y-124913400D01*
X211210000Y-124910489D01*
X211092066Y-124922105D01*
X210978664Y-124956505D01*
X210874152Y-125012367D01*
X210782546Y-125087546D01*
X210707367Y-125179152D01*
X210651505Y-125283664D01*
X210617105Y-125397066D01*
X210605489Y-125515000D01*
X210334800Y-125515000D01*
X210334800Y-107492576D01*
X210333312Y-107477469D01*
X210333329Y-107475052D01*
X210332846Y-107470121D01*
X210324686Y-107392483D01*
X210318222Y-107360991D01*
X210312194Y-107329394D01*
X210310764Y-107324659D01*
X210310763Y-107324652D01*
X210310760Y-107324646D01*
X210287678Y-107250076D01*
X210275203Y-107220399D01*
X210263170Y-107190618D01*
X210260845Y-107186243D01*
X210223715Y-107117572D01*
X210205719Y-107090892D01*
X210188124Y-107064005D01*
X210184994Y-107060166D01*
X210135233Y-107000015D01*
X210112407Y-106977348D01*
X210089914Y-106954379D01*
X210086103Y-106951226D01*
X210086099Y-106951222D01*
X210086095Y-106951219D01*
X210025601Y-106901881D01*
X209998791Y-106884069D01*
X209972283Y-106865919D01*
X209967925Y-106863562D01*
X209898996Y-106826912D01*
X209869271Y-106814660D01*
X209839711Y-106801991D01*
X209834978Y-106800526D01*
X209834980Y-106800526D01*
X209834972Y-106800524D01*
X209760244Y-106777962D01*
X209728702Y-106771716D01*
X209697244Y-106765030D01*
X209692317Y-106764511D01*
X209614623Y-106756893D01*
X209614614Y-106756893D01*
X209597424Y-106755200D01*
X207355793Y-106755200D01*
X207419364Y-106728868D01*
X207780478Y-106487580D01*
X208087580Y-106180478D01*
X208328868Y-105819364D01*
X208495071Y-105418116D01*
X208579800Y-104992154D01*
X208579800Y-104557846D01*
X208495071Y-104131884D01*
X208328868Y-103730636D01*
X208087580Y-103369522D01*
X207780478Y-103062420D01*
X207419364Y-102821132D01*
X207018116Y-102654929D01*
X206909084Y-102633241D01*
X206928895Y-102567934D01*
X206940511Y-102450000D01*
X206937600Y-102029800D01*
X206787200Y-101879400D01*
X205765400Y-101879400D01*
X205765400Y-101899400D01*
X205206600Y-101899400D01*
X205206600Y-101879400D01*
X204184800Y-101879400D01*
X204034400Y-102029800D01*
X204031489Y-102450000D01*
X204043105Y-102567934D01*
X204077505Y-102681336D01*
X204133367Y-102785848D01*
X204208546Y-102877454D01*
X204300152Y-102952633D01*
X204404664Y-103008495D01*
X204518066Y-103042895D01*
X204636000Y-103054511D01*
X204984977Y-103052093D01*
X204969522Y-103062420D01*
X204662420Y-103369522D01*
X204421132Y-103730636D01*
X204254929Y-104131884D01*
X204170200Y-104557846D01*
X204170200Y-104992154D01*
X204254929Y-105418116D01*
X204421132Y-105819364D01*
X204662420Y-106180478D01*
X204969522Y-106487580D01*
X205330636Y-106728868D01*
X205394207Y-106755200D01*
X204068336Y-106755200D01*
X204066600Y-106474800D01*
X203916200Y-106324400D01*
X202844400Y-106324400D01*
X202844400Y-106755200D01*
X202285600Y-106755200D01*
X202285600Y-106324400D01*
X201213800Y-106324400D01*
X201063400Y-106474800D01*
X201061664Y-106755200D01*
X196397357Y-106755200D01*
X196371548Y-106752669D01*
X196363427Y-106750217D01*
X196355928Y-106746231D01*
X196349349Y-106740864D01*
X196343940Y-106734326D01*
X196339900Y-106726854D01*
X196337389Y-106718744D01*
X196334800Y-106694108D01*
X196334800Y-92253412D01*
X196353664Y-92263495D01*
X196353664Y-92263495D01*
G37*
X196353664Y-92263495D02*
X196467066Y-92297895D01*
X196585000Y-92309511D01*
X196926249Y-92307398D01*
X196908886Y-92364637D01*
X196901667Y-92437939D01*
X196898097Y-92474180D01*
X196900800Y-92501622D01*
X196900800Y-92630083D01*
X196879040Y-92670794D01*
X196861611Y-92728249D01*
X196855726Y-92788000D01*
X196855726Y-93988000D01*
X196861611Y-94047751D01*
X196879040Y-94105206D01*
X196907342Y-94158157D01*
X196945432Y-94204568D01*
X196991843Y-94242658D01*
X197044794Y-94270960D01*
X197102249Y-94288389D01*
X197162000Y-94294274D01*
X198062000Y-94294274D01*
X198121751Y-94288389D01*
X198179206Y-94270960D01*
X198232157Y-94242658D01*
X198278568Y-94204568D01*
X198316658Y-94158157D01*
X198344960Y-94105206D01*
X198362389Y-94047751D01*
X198368274Y-93988000D01*
X198368274Y-93946800D01*
X198887726Y-93946800D01*
X198887726Y-93988000D01*
X198893611Y-94047751D01*
X198911040Y-94105206D01*
X198939342Y-94158157D01*
X198977432Y-94204568D01*
X199023843Y-94242658D01*
X199076794Y-94270960D01*
X199134249Y-94288389D01*
X199194000Y-94294274D01*
X199989202Y-94294274D01*
X199989202Y-94484969D01*
X199792445Y-94681726D01*
X199194000Y-94681726D01*
X199134249Y-94687611D01*
X199076794Y-94705040D01*
X199023843Y-94733342D01*
X198977432Y-94771432D01*
X198939342Y-94817843D01*
X198911040Y-94870794D01*
X198893611Y-94928249D01*
X198887726Y-94988000D01*
X198887726Y-96188000D01*
X198893611Y-96247751D01*
X198911040Y-96305206D01*
X198939342Y-96358157D01*
X198977432Y-96404568D01*
X199023843Y-96442658D01*
X199076794Y-96470960D01*
X199134249Y-96488389D01*
X199194000Y-96494274D01*
X199792445Y-96494274D01*
X199837783Y-96539612D01*
X199021441Y-96539612D01*
X198368274Y-95886446D01*
X198368274Y-94988000D01*
X198362389Y-94928249D01*
X198344960Y-94870794D01*
X198316658Y-94817843D01*
X198278568Y-94771432D01*
X198232157Y-94733342D01*
X198179206Y-94705040D01*
X198121751Y-94687611D01*
X198062000Y-94681726D01*
X197162000Y-94681726D01*
X197102249Y-94687611D01*
X197044794Y-94705040D01*
X196991843Y-94733342D01*
X196945432Y-94771432D01*
X196907342Y-94817843D01*
X196879040Y-94870794D01*
X196861611Y-94928249D01*
X196855726Y-94988000D01*
X196855726Y-96188000D01*
X196861611Y-96247751D01*
X196879040Y-96305206D01*
X196907342Y-96358157D01*
X196945432Y-96404568D01*
X196991843Y-96442658D01*
X197044794Y-96470960D01*
X197102249Y-96488389D01*
X197162000Y-96494274D01*
X197182201Y-96494274D01*
X197182200Y-99680893D01*
X197180121Y-99702000D01*
X197182200Y-99723107D01*
X197182200Y-99723108D01*
X197188419Y-99786254D01*
X197211474Y-99862254D01*
X197212996Y-99867272D01*
X197252906Y-99941939D01*
X197257114Y-99947066D01*
X197306615Y-100007385D01*
X197323020Y-100020848D01*
X201096157Y-103793986D01*
X201109615Y-103810385D01*
X201145965Y-103840216D01*
X201175060Y-103864094D01*
X201201069Y-103877995D01*
X201249727Y-103904004D01*
X201330745Y-103928581D01*
X201393891Y-103934800D01*
X201393892Y-103934800D01*
X201414999Y-103936879D01*
X201436106Y-103934800D01*
X201438962Y-103934800D01*
X201497320Y-104075687D01*
X201629170Y-104273016D01*
X201796984Y-104440830D01*
X201948765Y-104542246D01*
X201665000Y-104540489D01*
X201547066Y-104552105D01*
X201433664Y-104586505D01*
X201329152Y-104642367D01*
X201237546Y-104717546D01*
X201162367Y-104809152D01*
X201106505Y-104913664D01*
X201072105Y-105027066D01*
X201060489Y-105145000D01*
X201063400Y-105615200D01*
X201213800Y-105765600D01*
X202285600Y-105765600D01*
X202285600Y-105745600D01*
X202844400Y-105745600D01*
X202844400Y-105765600D01*
X203916200Y-105765600D01*
X204066600Y-105615200D01*
X204069511Y-105145000D01*
X204057895Y-105027066D01*
X204023495Y-104913664D01*
X203967633Y-104809152D01*
X203892454Y-104717546D01*
X203800848Y-104642367D01*
X203696336Y-104586505D01*
X203582934Y-104552105D01*
X203465000Y-104540489D01*
X203181235Y-104542246D01*
X203333016Y-104440830D01*
X203500830Y-104273016D01*
X203632680Y-104075687D01*
X203723501Y-103856427D01*
X203769800Y-103623662D01*
X203769800Y-103386338D01*
X203723501Y-103153573D01*
X203632680Y-102934313D01*
X203500830Y-102736984D01*
X203333016Y-102569170D01*
X203135687Y-102437320D01*
X202916427Y-102346499D01*
X202683662Y-102300200D01*
X202446338Y-102300200D01*
X202213573Y-102346499D01*
X201994313Y-102437320D01*
X201796984Y-102569170D01*
X201629170Y-102736984D01*
X201497320Y-102934313D01*
X201484088Y-102966259D01*
X198041800Y-99523972D01*
X198041800Y-99325000D01*
X201060489Y-99325000D01*
X201072105Y-99442934D01*
X201106505Y-99556336D01*
X201162367Y-99660848D01*
X201237546Y-99752454D01*
X201329152Y-99827633D01*
X201433664Y-99883495D01*
X201547066Y-99917895D01*
X201665000Y-99929511D01*
X201948765Y-99927754D01*
X201796984Y-100029170D01*
X201629170Y-100196984D01*
X201497320Y-100394313D01*
X201406499Y-100613573D01*
X201360200Y-100846338D01*
X201360200Y-101083662D01*
X201406499Y-101316427D01*
X201497320Y-101535687D01*
X201629170Y-101733016D01*
X201796984Y-101900830D01*
X201994313Y-102032680D01*
X202213573Y-102123501D01*
X202446338Y-102169800D01*
X202683662Y-102169800D01*
X202916427Y-102123501D01*
X203135687Y-102032680D01*
X203333016Y-101900830D01*
X203500830Y-101733016D01*
X203632680Y-101535687D01*
X203653152Y-101486262D01*
X207125200Y-101486262D01*
X207125200Y-101713738D01*
X207169578Y-101936843D01*
X207256629Y-102147003D01*
X207383008Y-102336142D01*
X207543858Y-102496992D01*
X207732997Y-102623371D01*
X207943157Y-102710422D01*
X208166262Y-102754800D01*
X208393738Y-102754800D01*
X208616843Y-102710422D01*
X208827003Y-102623371D01*
X209016142Y-102496992D01*
X209176992Y-102336142D01*
X209303371Y-102147003D01*
X209390422Y-101936843D01*
X209434800Y-101713738D01*
X209434800Y-101486262D01*
X209390422Y-101263157D01*
X209303371Y-101052997D01*
X209176992Y-100863858D01*
X209016142Y-100703008D01*
X208827003Y-100576629D01*
X208616843Y-100489578D01*
X208393738Y-100445200D01*
X208166262Y-100445200D01*
X207943157Y-100489578D01*
X207732997Y-100576629D01*
X207543858Y-100703008D01*
X207383008Y-100863858D01*
X207256629Y-101052997D01*
X207169578Y-101263157D01*
X207125200Y-101486262D01*
X203653152Y-101486262D01*
X203723501Y-101316427D01*
X203769800Y-101083662D01*
X203769800Y-100846338D01*
X203723501Y-100613573D01*
X203632680Y-100394313D01*
X203500830Y-100196984D01*
X203333016Y-100029170D01*
X203181235Y-99927754D01*
X203465000Y-99929511D01*
X203582934Y-99917895D01*
X203696336Y-99883495D01*
X203800848Y-99827633D01*
X203892454Y-99752454D01*
X203967633Y-99660848D01*
X204023495Y-99556336D01*
X204057895Y-99442934D01*
X204069511Y-99325000D01*
X204066600Y-98854800D01*
X203916200Y-98704400D01*
X202844400Y-98704400D01*
X202844400Y-98724400D01*
X202285600Y-98724400D01*
X202285600Y-98704400D01*
X201213800Y-98704400D01*
X201063400Y-98854800D01*
X201060489Y-99325000D01*
X198041800Y-99325000D01*
X198041800Y-96775629D01*
X198524569Y-97258398D01*
X198538027Y-97274797D01*
X198554424Y-97288253D01*
X198603472Y-97328506D01*
X198611506Y-97332800D01*
X198678139Y-97368416D01*
X198759157Y-97392993D01*
X198822303Y-97399212D01*
X198822305Y-97399212D01*
X198843412Y-97401291D01*
X198864519Y-97399212D01*
X201074487Y-97399212D01*
X201072105Y-97407066D01*
X201060489Y-97525000D01*
X201063400Y-97995200D01*
X201213800Y-98145600D01*
X202285600Y-98145600D01*
X202285600Y-98125600D01*
X202844400Y-98125600D01*
X202844400Y-98145600D01*
X203916200Y-98145600D01*
X204066600Y-97995200D01*
X204069511Y-97525000D01*
X204057895Y-97407066D01*
X204055513Y-97399212D01*
X205421881Y-97399212D01*
X205442988Y-97401291D01*
X205464095Y-97399212D01*
X205464097Y-97399212D01*
X205527243Y-97392993D01*
X205608261Y-97368416D01*
X205682927Y-97328506D01*
X205748373Y-97274797D01*
X205761835Y-97258393D01*
X206210617Y-96809612D01*
X206586915Y-96809612D01*
X205491328Y-97905200D01*
X205429276Y-97905200D01*
X205259620Y-97921910D01*
X205041939Y-97987942D01*
X204841324Y-98095173D01*
X204665482Y-98239482D01*
X204521173Y-98415324D01*
X204413942Y-98615939D01*
X204347910Y-98833620D01*
X204325613Y-99060000D01*
X204347910Y-99286380D01*
X204413942Y-99504061D01*
X204521173Y-99704676D01*
X204665482Y-99880518D01*
X204841324Y-100024827D01*
X205041939Y-100132058D01*
X205206598Y-100182006D01*
X205206598Y-100298798D01*
X205056200Y-100148400D01*
X204636000Y-100145489D01*
X204518066Y-100157105D01*
X204404664Y-100191505D01*
X204300152Y-100247367D01*
X204208546Y-100322546D01*
X204133367Y-100414152D01*
X204077505Y-100518664D01*
X204043105Y-100632066D01*
X204031489Y-100750000D01*
X204034400Y-101170200D01*
X204184800Y-101320600D01*
X205206600Y-101320600D01*
X205206600Y-101300600D01*
X205765400Y-101300600D01*
X205765400Y-101320600D01*
X206787200Y-101320600D01*
X206937600Y-101170200D01*
X206940511Y-100750000D01*
X206928895Y-100632066D01*
X206894495Y-100518664D01*
X206838633Y-100414152D01*
X206763454Y-100322546D01*
X206671848Y-100247367D01*
X206567336Y-100191505D01*
X206453934Y-100157105D01*
X206336000Y-100145489D01*
X205915800Y-100148400D01*
X205765402Y-100298798D01*
X205765402Y-100182006D01*
X205930061Y-100132058D01*
X206130676Y-100024827D01*
X206306518Y-99880518D01*
X206450827Y-99704676D01*
X206558058Y-99504061D01*
X206624090Y-99286380D01*
X206646387Y-99060000D01*
X206645408Y-99050064D01*
X207666650Y-98028823D01*
X207759456Y-98028823D01*
X207635324Y-98095173D01*
X207459482Y-98239482D01*
X207315173Y-98415324D01*
X207207942Y-98615939D01*
X207141910Y-98833620D01*
X207119613Y-99060000D01*
X207141910Y-99286380D01*
X207207942Y-99504061D01*
X207315173Y-99704676D01*
X207459482Y-99880518D01*
X207635324Y-100024827D01*
X207835939Y-100132058D01*
X208053620Y-100198090D01*
X208223276Y-100214800D01*
X208336724Y-100214800D01*
X208506380Y-100198090D01*
X208724061Y-100132058D01*
X208924676Y-100024827D01*
X209100518Y-99880518D01*
X209244827Y-99704676D01*
X209352058Y-99504061D01*
X209418090Y-99286380D01*
X209440387Y-99060000D01*
X209418090Y-98833620D01*
X209352058Y-98615939D01*
X209244827Y-98415324D01*
X209100518Y-98239482D01*
X208924676Y-98095173D01*
X208800544Y-98028823D01*
X209093061Y-98028823D01*
X209803999Y-98739762D01*
X209804000Y-99727207D01*
X209800067Y-99767137D01*
X209811374Y-99881934D01*
X209815761Y-99926474D01*
X209818092Y-99934157D01*
X209862237Y-100079686D01*
X209937711Y-100220888D01*
X209964786Y-100253879D01*
X210039283Y-100344654D01*
X210070294Y-100370104D01*
X210642200Y-100942011D01*
X210642201Y-108524116D01*
X210626362Y-108539955D01*
X210509614Y-108714681D01*
X210429196Y-108908826D01*
X210388200Y-109114929D01*
X210388200Y-109325071D01*
X210429196Y-109531174D01*
X210509614Y-109725319D01*
X210626362Y-109900045D01*
X210642201Y-109915884D01*
X210642201Y-110007438D01*
X210642200Y-110007448D01*
X210642200Y-110429117D01*
X210626362Y-110444955D01*
X210509614Y-110619681D01*
X210429196Y-110813826D01*
X210388200Y-111019929D01*
X210388200Y-111230071D01*
X210429196Y-111436174D01*
X210509614Y-111630319D01*
X210626362Y-111805045D01*
X210774955Y-111953638D01*
X210949681Y-112070386D01*
X211143826Y-112150804D01*
X211349929Y-112191800D01*
X211560071Y-112191800D01*
X211766174Y-112150804D01*
X211960319Y-112070386D01*
X212135045Y-111953638D01*
X212168200Y-111920483D01*
X212168201Y-124916222D01*
X212110000Y-124910489D01*
X212089800Y-124913400D01*
X211939400Y-125063800D01*
X211939400Y-126085600D01*
X211959400Y-126085600D01*
X211959400Y-126644400D01*
X211939400Y-126644400D01*
X211939400Y-127666200D01*
X212089800Y-127816600D01*
X212110000Y-127819511D01*
X212227934Y-127807895D01*
X212341336Y-127773495D01*
X212445848Y-127717633D01*
X212537454Y-127642454D01*
X212612633Y-127550848D01*
X212668495Y-127446336D01*
X212702895Y-127332934D01*
X212714511Y-127215000D01*
X212711600Y-126794800D01*
X212561202Y-126644402D01*
X212711600Y-126644402D01*
X212711600Y-126515190D01*
X214028596Y-127832187D01*
X214042054Y-127848586D01*
X214078404Y-127878417D01*
X214107499Y-127902295D01*
X214141677Y-127920563D01*
X214182166Y-127942205D01*
X214263184Y-127966782D01*
X214326330Y-127973001D01*
X214326331Y-127973001D01*
X214347438Y-127975080D01*
X214368545Y-127973001D01*
X215843692Y-127973001D01*
X215864799Y-127975080D01*
X215885906Y-127973001D01*
X215885908Y-127973001D01*
X215949054Y-127966782D01*
X216030072Y-127942205D01*
X216104738Y-127902295D01*
X216170184Y-127848586D01*
X216183647Y-127832181D01*
X218875389Y-125140440D01*
X219026132Y-125504364D01*
X219267420Y-125865478D01*
X219574522Y-126172580D01*
X219935636Y-126413868D01*
X220294779Y-126562631D01*
X220130000Y-126561489D01*
X220012066Y-126573105D01*
X219898664Y-126607505D01*
X219794152Y-126663367D01*
X219702546Y-126738546D01*
X219627367Y-126830152D01*
X219571505Y-126934664D01*
X219537105Y-127048066D01*
X219525489Y-127166000D01*
X219528400Y-127586200D01*
X219678798Y-127736598D01*
X219562006Y-127736598D01*
X219512058Y-127571939D01*
X219404827Y-127371324D01*
X219260518Y-127195482D01*
X219084676Y-127051173D01*
X218884061Y-126943942D01*
X218666380Y-126877910D01*
X218496724Y-126861200D01*
X218383276Y-126861200D01*
X218213620Y-126877910D01*
X217995939Y-126943942D01*
X217795324Y-127051173D01*
X217619482Y-127195482D01*
X217475173Y-127371324D01*
X217367942Y-127571939D01*
X217301910Y-127789620D01*
X217279613Y-128016000D01*
X217301910Y-128242380D01*
X217367942Y-128460061D01*
X217475173Y-128660676D01*
X217552746Y-128755200D01*
X210397357Y-128755200D01*
X210371548Y-128752669D01*
X210363427Y-128750217D01*
X210355928Y-128746231D01*
X210349349Y-128740864D01*
X210343940Y-128734326D01*
X210339900Y-128726854D01*
X210337389Y-128718744D01*
X210334800Y-128694108D01*
X210334800Y-127215000D01*
X210605489Y-127215000D01*
X210617105Y-127332934D01*
X210651505Y-127446336D01*
X210707367Y-127550848D01*
X210782546Y-127642454D01*
X210874152Y-127717633D01*
X210978664Y-127773495D01*
X211092066Y-127807895D01*
X211210000Y-127819511D01*
X211230200Y-127816600D01*
X211380600Y-127666200D01*
X211380600Y-126644400D01*
X210758800Y-126644400D01*
X210608400Y-126794800D01*
X210605489Y-127215000D01*
X210334800Y-127215000D01*
X210334800Y-125515000D01*
X210605489Y-125515000D01*
X210608400Y-125935200D01*
X210758800Y-126085600D01*
X211380600Y-126085600D01*
X211380600Y-125063800D01*
X211230200Y-124913400D01*
X211210000Y-124910489D01*
X211092066Y-124922105D01*
X210978664Y-124956505D01*
X210874152Y-125012367D01*
X210782546Y-125087546D01*
X210707367Y-125179152D01*
X210651505Y-125283664D01*
X210617105Y-125397066D01*
X210605489Y-125515000D01*
X210334800Y-125515000D01*
X210334800Y-107492576D01*
X210333312Y-107477469D01*
X210333329Y-107475052D01*
X210332846Y-107470121D01*
X210324686Y-107392483D01*
X210318222Y-107360991D01*
X210312194Y-107329394D01*
X210310764Y-107324659D01*
X210310763Y-107324652D01*
X210310760Y-107324646D01*
X210287678Y-107250076D01*
X210275203Y-107220399D01*
X210263170Y-107190618D01*
X210260845Y-107186243D01*
X210223715Y-107117572D01*
X210205719Y-107090892D01*
X210188124Y-107064005D01*
X210184994Y-107060166D01*
X210135233Y-107000015D01*
X210112407Y-106977348D01*
X210089914Y-106954379D01*
X210086103Y-106951226D01*
X210086099Y-106951222D01*
X210086095Y-106951219D01*
X210025601Y-106901881D01*
X209998791Y-106884069D01*
X209972283Y-106865919D01*
X209967925Y-106863562D01*
X209898996Y-106826912D01*
X209869271Y-106814660D01*
X209839711Y-106801991D01*
X209834978Y-106800526D01*
X209834980Y-106800526D01*
X209834972Y-106800524D01*
X209760244Y-106777962D01*
X209728702Y-106771716D01*
X209697244Y-106765030D01*
X209692317Y-106764511D01*
X209614623Y-106756893D01*
X209614614Y-106756893D01*
X209597424Y-106755200D01*
X207355793Y-106755200D01*
X207419364Y-106728868D01*
X207780478Y-106487580D01*
X208087580Y-106180478D01*
X208328868Y-105819364D01*
X208495071Y-105418116D01*
X208579800Y-104992154D01*
X208579800Y-104557846D01*
X208495071Y-104131884D01*
X208328868Y-103730636D01*
X208087580Y-103369522D01*
X207780478Y-103062420D01*
X207419364Y-102821132D01*
X207018116Y-102654929D01*
X206909084Y-102633241D01*
X206928895Y-102567934D01*
X206940511Y-102450000D01*
X206937600Y-102029800D01*
X206787200Y-101879400D01*
X205765400Y-101879400D01*
X205765400Y-101899400D01*
X205206600Y-101899400D01*
X205206600Y-101879400D01*
X204184800Y-101879400D01*
X204034400Y-102029800D01*
X204031489Y-102450000D01*
X204043105Y-102567934D01*
X204077505Y-102681336D01*
X204133367Y-102785848D01*
X204208546Y-102877454D01*
X204300152Y-102952633D01*
X204404664Y-103008495D01*
X204518066Y-103042895D01*
X204636000Y-103054511D01*
X204984977Y-103052093D01*
X204969522Y-103062420D01*
X204662420Y-103369522D01*
X204421132Y-103730636D01*
X204254929Y-104131884D01*
X204170200Y-104557846D01*
X204170200Y-104992154D01*
X204254929Y-105418116D01*
X204421132Y-105819364D01*
X204662420Y-106180478D01*
X204969522Y-106487580D01*
X205330636Y-106728868D01*
X205394207Y-106755200D01*
X204068336Y-106755200D01*
X204066600Y-106474800D01*
X203916200Y-106324400D01*
X202844400Y-106324400D01*
X202844400Y-106755200D01*
X202285600Y-106755200D01*
X202285600Y-106324400D01*
X201213800Y-106324400D01*
X201063400Y-106474800D01*
X201061664Y-106755200D01*
X196397357Y-106755200D01*
X196371548Y-106752669D01*
X196363427Y-106750217D01*
X196355928Y-106746231D01*
X196349349Y-106740864D01*
X196343940Y-106734326D01*
X196339900Y-106726854D01*
X196337389Y-106718744D01*
X196334800Y-106694108D01*
X196334800Y-92253412D01*
X196353664Y-92263495D01*
G36*
X221259400Y-127736600D02*
G01*
X221279400Y-127736600D01*
X221279400Y-128295400D01*
X221259400Y-128295400D01*
X221259400Y-128315400D01*
X220700600Y-128315400D01*
X220700600Y-128295400D01*
X220680600Y-128295400D01*
X220680600Y-127736600D01*
X220700600Y-127736600D01*
X220700600Y-127716600D01*
X221259400Y-127716600D01*
X221259400Y-127736600D01*
X221259400Y-127736600D01*
G37*
X221259400Y-127736600D02*
X221279400Y-127736600D01*
X221279400Y-128295400D01*
X221259400Y-128295400D01*
X221259400Y-128315400D01*
X220700600Y-128315400D01*
X220700600Y-128295400D01*
X220680600Y-128295400D01*
X220680600Y-127736600D01*
X220700600Y-127736600D01*
X220700600Y-127716600D01*
X221259400Y-127716600D01*
X221259400Y-127736600D01*
G36*
X215004726Y-96948000D02*
G01*
X215010611Y-97007751D01*
X215028040Y-97065206D01*
X215056342Y-97118157D01*
X215094432Y-97164568D01*
X215140843Y-97202658D01*
X215193794Y-97230960D01*
X215251249Y-97248389D01*
X215311000Y-97254274D01*
X215506200Y-97254274D01*
X215506201Y-98414250D01*
X215504121Y-98435367D01*
X215512420Y-98519622D01*
X215536996Y-98600639D01*
X215576906Y-98675306D01*
X215592418Y-98694207D01*
X215630616Y-98740752D01*
X215647015Y-98754210D01*
X218495903Y-101603099D01*
X218495903Y-101659638D01*
X218519145Y-101776484D01*
X218564737Y-101886550D01*
X218630924Y-101985607D01*
X218715166Y-102069849D01*
X218814223Y-102136036D01*
X218924289Y-102181628D01*
X219041135Y-102204870D01*
X219160271Y-102204870D01*
X219277117Y-102181628D01*
X219387183Y-102136036D01*
X219486240Y-102069849D01*
X219500986Y-102055103D01*
X219515177Y-102069294D01*
X219614234Y-102135481D01*
X219724300Y-102181073D01*
X219841146Y-102204315D01*
X219960282Y-102204315D01*
X220077128Y-102181073D01*
X220187194Y-102135481D01*
X220286251Y-102069294D01*
X220370493Y-101985052D01*
X220436680Y-101885995D01*
X220482272Y-101775929D01*
X220505514Y-101659083D01*
X220505514Y-101539947D01*
X220482272Y-101423101D01*
X220436680Y-101313035D01*
X220370493Y-101213978D01*
X220332519Y-101176004D01*
X220332593Y-101175250D01*
X220329842Y-101147321D01*
X220324295Y-101090996D01*
X220299718Y-101009978D01*
X220259808Y-100935312D01*
X220259807Y-100935310D01*
X220234372Y-100904318D01*
X220206099Y-100869866D01*
X220189701Y-100856409D01*
X220048926Y-100715634D01*
X220594326Y-100715634D01*
X221010200Y-101131508D01*
X221010200Y-101188048D01*
X221033442Y-101304894D01*
X221079034Y-101414960D01*
X221145221Y-101514017D01*
X221229463Y-101598259D01*
X221328520Y-101664446D01*
X221438586Y-101710038D01*
X221555432Y-101733280D01*
X221674568Y-101733280D01*
X221791414Y-101710038D01*
X221901480Y-101664446D01*
X222000537Y-101598259D01*
X222084779Y-101514017D01*
X222150966Y-101414960D01*
X222190459Y-101319618D01*
X222345265Y-101474424D01*
X222318861Y-101513941D01*
X222273269Y-101624007D01*
X222250027Y-101740853D01*
X222250027Y-101859989D01*
X222273269Y-101976835D01*
X222318861Y-102086901D01*
X222385048Y-102185958D01*
X222469290Y-102270200D01*
X222568347Y-102336387D01*
X222678413Y-102381979D01*
X222795259Y-102405221D01*
X222914395Y-102405221D01*
X223031241Y-102381979D01*
X223141307Y-102336387D01*
X223240364Y-102270200D01*
X223324606Y-102185958D01*
X223390793Y-102086901D01*
X223421977Y-102011618D01*
X223504387Y-102028010D01*
X223623523Y-102028010D01*
X223694739Y-102013844D01*
X223676206Y-102058586D01*
X223652964Y-102175432D01*
X223652964Y-102294568D01*
X223676206Y-102411414D01*
X223721798Y-102521480D01*
X223787985Y-102620537D01*
X223872227Y-102704779D01*
X223971284Y-102770966D01*
X224081350Y-102816558D01*
X224198196Y-102839800D01*
X224317332Y-102839800D01*
X224434178Y-102816558D01*
X224544244Y-102770966D01*
X224643301Y-102704779D01*
X224681275Y-102666805D01*
X224682028Y-102666879D01*
X224703135Y-102664800D01*
X224703137Y-102664800D01*
X224766283Y-102658581D01*
X224847301Y-102634004D01*
X224921967Y-102594094D01*
X224987413Y-102540385D01*
X225000876Y-102523980D01*
X227193187Y-100331670D01*
X227209586Y-100318212D01*
X227248328Y-100271003D01*
X227344664Y-100322495D01*
X227458066Y-100356895D01*
X227576000Y-100368511D01*
X227746200Y-100365600D01*
X227896600Y-100215200D01*
X227896600Y-99593400D01*
X227876600Y-99593400D01*
X227876600Y-99034600D01*
X227896600Y-99034600D01*
X227896600Y-98412800D01*
X227781800Y-98298000D01*
X227896600Y-98183200D01*
X227896600Y-97561400D01*
X227124800Y-97561400D01*
X226974400Y-97711800D01*
X226971489Y-97732000D01*
X226983105Y-97849934D01*
X227017505Y-97963336D01*
X227073367Y-98067848D01*
X227148546Y-98159454D01*
X227240152Y-98234633D01*
X227344664Y-98290495D01*
X227369405Y-98298000D01*
X227344664Y-98305505D01*
X227256163Y-98352809D01*
X227209586Y-98296054D01*
X227193182Y-98282592D01*
X227094600Y-98184010D01*
X227081137Y-98167605D01*
X227015691Y-98113896D01*
X226941025Y-98073986D01*
X226860007Y-98049409D01*
X226796861Y-98043190D01*
X226796859Y-98043190D01*
X226775752Y-98041111D01*
X226754645Y-98043190D01*
X221275892Y-98043190D01*
X220751384Y-97518682D01*
X220806588Y-97500377D01*
X220909632Y-97441851D01*
X220999279Y-97364347D01*
X221072083Y-97270843D01*
X221081409Y-97252264D01*
X221120751Y-97248389D01*
X221178206Y-97230960D01*
X221231157Y-97202658D01*
X221277568Y-97164568D01*
X221315658Y-97118157D01*
X221343960Y-97065206D01*
X221361389Y-97007751D01*
X221367274Y-96948000D01*
X221367274Y-96839362D01*
X222098897Y-97570986D01*
X222112355Y-97587385D01*
X222147847Y-97616512D01*
X222177800Y-97641094D01*
X222191707Y-97648527D01*
X222252467Y-97681004D01*
X222333485Y-97705581D01*
X222396631Y-97711800D01*
X222396632Y-97711800D01*
X222417739Y-97713879D01*
X222438846Y-97711800D01*
X225069726Y-97711800D01*
X225069726Y-97732000D01*
X225075611Y-97791751D01*
X225093040Y-97849206D01*
X225121342Y-97902157D01*
X225159432Y-97948568D01*
X225205843Y-97986658D01*
X225258794Y-98014960D01*
X225316249Y-98032389D01*
X225376000Y-98038274D01*
X226576000Y-98038274D01*
X226635751Y-98032389D01*
X226693206Y-98014960D01*
X226746157Y-97986658D01*
X226792568Y-97948568D01*
X226830658Y-97902157D01*
X226858960Y-97849206D01*
X226876389Y-97791751D01*
X226882274Y-97732000D01*
X226882274Y-96832000D01*
X226877567Y-96784212D01*
X226976196Y-96784212D01*
X226971489Y-96832000D01*
X226974400Y-96852200D01*
X227124800Y-97002600D01*
X227896600Y-97002600D01*
X227896600Y-96982600D01*
X228455400Y-96982600D01*
X228455400Y-97002600D01*
X228475400Y-97002600D01*
X228475400Y-97561400D01*
X228455400Y-97561400D01*
X228455400Y-98183200D01*
X228570200Y-98298000D01*
X228455400Y-98412800D01*
X228455400Y-99034600D01*
X228475400Y-99034600D01*
X228475400Y-99593400D01*
X228455400Y-99593400D01*
X228455400Y-100215200D01*
X228605800Y-100365600D01*
X228776000Y-100368511D01*
X228893934Y-100356895D01*
X229007336Y-100322495D01*
X229111848Y-100266633D01*
X229183001Y-100208239D01*
X229183002Y-108918169D01*
X223165599Y-114935573D01*
X223149194Y-114949036D01*
X223112014Y-114994341D01*
X223095485Y-115014482D01*
X223073364Y-115055868D01*
X223055575Y-115089149D01*
X223030998Y-115170167D01*
X223024779Y-115233312D01*
X223022700Y-115254421D01*
X223024779Y-115275528D01*
X223024780Y-116574483D01*
X223024779Y-116574493D01*
X223024779Y-116594349D01*
X222984800Y-116634328D01*
X222918613Y-116733385D01*
X222873021Y-116843451D01*
X222849779Y-116960297D01*
X222849779Y-117079433D01*
X222873021Y-117196279D01*
X222918613Y-117306345D01*
X222984800Y-117405402D01*
X223040974Y-117461576D01*
X220976677Y-117461576D01*
X218704499Y-115189397D01*
X218691036Y-115172992D01*
X218625590Y-115119283D01*
X218550924Y-115079373D01*
X218469906Y-115054796D01*
X218406760Y-115048577D01*
X218406758Y-115048577D01*
X218385651Y-115046498D01*
X218364544Y-115048577D01*
X218064940Y-115048577D01*
X218775200Y-114338318D01*
X218775200Y-114517154D01*
X218859929Y-114943116D01*
X219026132Y-115344364D01*
X219267420Y-115705478D01*
X219574522Y-116012580D01*
X219935636Y-116253868D01*
X220336884Y-116420071D01*
X220762846Y-116504800D01*
X221197154Y-116504800D01*
X221623116Y-116420071D01*
X222024364Y-116253868D01*
X222385478Y-116012580D01*
X222692580Y-115705478D01*
X222933868Y-115344364D01*
X223100071Y-114943116D01*
X223184800Y-114517154D01*
X223184800Y-114082846D01*
X223100071Y-113656884D01*
X222933868Y-113255636D01*
X222692580Y-112894522D01*
X222385478Y-112587420D01*
X222024364Y-112346132D01*
X221623116Y-112179929D01*
X221197154Y-112095200D01*
X220762846Y-112095200D01*
X220336884Y-112179929D01*
X219935636Y-112346132D01*
X219764076Y-112460764D01*
X219760800Y-112427499D01*
X219760800Y-107807683D01*
X219776638Y-107791845D01*
X219893386Y-107617119D01*
X219973804Y-107422974D01*
X220014800Y-107216871D01*
X220014800Y-107006729D01*
X219973804Y-106800626D01*
X219893386Y-106606481D01*
X219776638Y-106431755D01*
X219628045Y-106283162D01*
X219453319Y-106166414D01*
X219259174Y-106085996D01*
X219053071Y-106045000D01*
X218842929Y-106045000D01*
X218636826Y-106085996D01*
X218442681Y-106166414D01*
X218267955Y-106283162D01*
X218119362Y-106431755D01*
X218002614Y-106606481D01*
X217922196Y-106800626D01*
X217881200Y-107006729D01*
X217881200Y-107216871D01*
X217922196Y-107422974D01*
X218002614Y-107617119D01*
X218119362Y-107791845D01*
X218135200Y-107807683D01*
X218135201Y-112130748D01*
X217822289Y-112443661D01*
X217791273Y-112469115D01*
X217773225Y-112491107D01*
X217708736Y-112426618D01*
X217708736Y-103412767D01*
X217711439Y-103385325D01*
X217706948Y-103339727D01*
X217700650Y-103275782D01*
X217668697Y-103170448D01*
X217616809Y-103073372D01*
X217546979Y-102988283D01*
X217525655Y-102970783D01*
X212977010Y-98422138D01*
X212977010Y-98319546D01*
X212945775Y-98162515D01*
X212884504Y-98014595D01*
X212795553Y-97881470D01*
X212682340Y-97768257D01*
X212549215Y-97679306D01*
X212401295Y-97618035D01*
X212244264Y-97586800D01*
X212084156Y-97586800D01*
X211927125Y-97618035D01*
X211779205Y-97679306D01*
X211646080Y-97768257D01*
X211532867Y-97881470D01*
X211443916Y-98014595D01*
X211388735Y-98147813D01*
X211371361Y-98090539D01*
X211295887Y-97949337D01*
X211194316Y-97825572D01*
X211163306Y-97800123D01*
X210172794Y-96809612D01*
X212514955Y-96809612D01*
X212536062Y-96811691D01*
X212557169Y-96809612D01*
X212557171Y-96809612D01*
X212620317Y-96803393D01*
X212701335Y-96778816D01*
X212749341Y-96753156D01*
X212764664Y-96790149D01*
X212830851Y-96889206D01*
X212915093Y-96973448D01*
X213014150Y-97039635D01*
X213124216Y-97085227D01*
X213241062Y-97108469D01*
X213360198Y-97108469D01*
X213477044Y-97085227D01*
X213587110Y-97039635D01*
X213686167Y-96973448D01*
X213770409Y-96889206D01*
X213836596Y-96790149D01*
X213862422Y-96727800D01*
X215004726Y-96727800D01*
X215004726Y-96948000D01*
X215004726Y-96948000D01*
G37*
X215004726Y-96948000D02*
X215010611Y-97007751D01*
X215028040Y-97065206D01*
X215056342Y-97118157D01*
X215094432Y-97164568D01*
X215140843Y-97202658D01*
X215193794Y-97230960D01*
X215251249Y-97248389D01*
X215311000Y-97254274D01*
X215506200Y-97254274D01*
X215506201Y-98414250D01*
X215504121Y-98435367D01*
X215512420Y-98519622D01*
X215536996Y-98600639D01*
X215576906Y-98675306D01*
X215592418Y-98694207D01*
X215630616Y-98740752D01*
X215647015Y-98754210D01*
X218495903Y-101603099D01*
X218495903Y-101659638D01*
X218519145Y-101776484D01*
X218564737Y-101886550D01*
X218630924Y-101985607D01*
X218715166Y-102069849D01*
X218814223Y-102136036D01*
X218924289Y-102181628D01*
X219041135Y-102204870D01*
X219160271Y-102204870D01*
X219277117Y-102181628D01*
X219387183Y-102136036D01*
X219486240Y-102069849D01*
X219500986Y-102055103D01*
X219515177Y-102069294D01*
X219614234Y-102135481D01*
X219724300Y-102181073D01*
X219841146Y-102204315D01*
X219960282Y-102204315D01*
X220077128Y-102181073D01*
X220187194Y-102135481D01*
X220286251Y-102069294D01*
X220370493Y-101985052D01*
X220436680Y-101885995D01*
X220482272Y-101775929D01*
X220505514Y-101659083D01*
X220505514Y-101539947D01*
X220482272Y-101423101D01*
X220436680Y-101313035D01*
X220370493Y-101213978D01*
X220332519Y-101176004D01*
X220332593Y-101175250D01*
X220329842Y-101147321D01*
X220324295Y-101090996D01*
X220299718Y-101009978D01*
X220259808Y-100935312D01*
X220259807Y-100935310D01*
X220234372Y-100904318D01*
X220206099Y-100869866D01*
X220189701Y-100856409D01*
X220048926Y-100715634D01*
X220594326Y-100715634D01*
X221010200Y-101131508D01*
X221010200Y-101188048D01*
X221033442Y-101304894D01*
X221079034Y-101414960D01*
X221145221Y-101514017D01*
X221229463Y-101598259D01*
X221328520Y-101664446D01*
X221438586Y-101710038D01*
X221555432Y-101733280D01*
X221674568Y-101733280D01*
X221791414Y-101710038D01*
X221901480Y-101664446D01*
X222000537Y-101598259D01*
X222084779Y-101514017D01*
X222150966Y-101414960D01*
X222190459Y-101319618D01*
X222345265Y-101474424D01*
X222318861Y-101513941D01*
X222273269Y-101624007D01*
X222250027Y-101740853D01*
X222250027Y-101859989D01*
X222273269Y-101976835D01*
X222318861Y-102086901D01*
X222385048Y-102185958D01*
X222469290Y-102270200D01*
X222568347Y-102336387D01*
X222678413Y-102381979D01*
X222795259Y-102405221D01*
X222914395Y-102405221D01*
X223031241Y-102381979D01*
X223141307Y-102336387D01*
X223240364Y-102270200D01*
X223324606Y-102185958D01*
X223390793Y-102086901D01*
X223421977Y-102011618D01*
X223504387Y-102028010D01*
X223623523Y-102028010D01*
X223694739Y-102013844D01*
X223676206Y-102058586D01*
X223652964Y-102175432D01*
X223652964Y-102294568D01*
X223676206Y-102411414D01*
X223721798Y-102521480D01*
X223787985Y-102620537D01*
X223872227Y-102704779D01*
X223971284Y-102770966D01*
X224081350Y-102816558D01*
X224198196Y-102839800D01*
X224317332Y-102839800D01*
X224434178Y-102816558D01*
X224544244Y-102770966D01*
X224643301Y-102704779D01*
X224681275Y-102666805D01*
X224682028Y-102666879D01*
X224703135Y-102664800D01*
X224703137Y-102664800D01*
X224766283Y-102658581D01*
X224847301Y-102634004D01*
X224921967Y-102594094D01*
X224987413Y-102540385D01*
X225000876Y-102523980D01*
X227193187Y-100331670D01*
X227209586Y-100318212D01*
X227248328Y-100271003D01*
X227344664Y-100322495D01*
X227458066Y-100356895D01*
X227576000Y-100368511D01*
X227746200Y-100365600D01*
X227896600Y-100215200D01*
X227896600Y-99593400D01*
X227876600Y-99593400D01*
X227876600Y-99034600D01*
X227896600Y-99034600D01*
X227896600Y-98412800D01*
X227781800Y-98298000D01*
X227896600Y-98183200D01*
X227896600Y-97561400D01*
X227124800Y-97561400D01*
X226974400Y-97711800D01*
X226971489Y-97732000D01*
X226983105Y-97849934D01*
X227017505Y-97963336D01*
X227073367Y-98067848D01*
X227148546Y-98159454D01*
X227240152Y-98234633D01*
X227344664Y-98290495D01*
X227369405Y-98298000D01*
X227344664Y-98305505D01*
X227256163Y-98352809D01*
X227209586Y-98296054D01*
X227193182Y-98282592D01*
X227094600Y-98184010D01*
X227081137Y-98167605D01*
X227015691Y-98113896D01*
X226941025Y-98073986D01*
X226860007Y-98049409D01*
X226796861Y-98043190D01*
X226796859Y-98043190D01*
X226775752Y-98041111D01*
X226754645Y-98043190D01*
X221275892Y-98043190D01*
X220751384Y-97518682D01*
X220806588Y-97500377D01*
X220909632Y-97441851D01*
X220999279Y-97364347D01*
X221072083Y-97270843D01*
X221081409Y-97252264D01*
X221120751Y-97248389D01*
X221178206Y-97230960D01*
X221231157Y-97202658D01*
X221277568Y-97164568D01*
X221315658Y-97118157D01*
X221343960Y-97065206D01*
X221361389Y-97007751D01*
X221367274Y-96948000D01*
X221367274Y-96839362D01*
X222098897Y-97570986D01*
X222112355Y-97587385D01*
X222147847Y-97616512D01*
X222177800Y-97641094D01*
X222191707Y-97648527D01*
X222252467Y-97681004D01*
X222333485Y-97705581D01*
X222396631Y-97711800D01*
X222396632Y-97711800D01*
X222417739Y-97713879D01*
X222438846Y-97711800D01*
X225069726Y-97711800D01*
X225069726Y-97732000D01*
X225075611Y-97791751D01*
X225093040Y-97849206D01*
X225121342Y-97902157D01*
X225159432Y-97948568D01*
X225205843Y-97986658D01*
X225258794Y-98014960D01*
X225316249Y-98032389D01*
X225376000Y-98038274D01*
X226576000Y-98038274D01*
X226635751Y-98032389D01*
X226693206Y-98014960D01*
X226746157Y-97986658D01*
X226792568Y-97948568D01*
X226830658Y-97902157D01*
X226858960Y-97849206D01*
X226876389Y-97791751D01*
X226882274Y-97732000D01*
X226882274Y-96832000D01*
X226877567Y-96784212D01*
X226976196Y-96784212D01*
X226971489Y-96832000D01*
X226974400Y-96852200D01*
X227124800Y-97002600D01*
X227896600Y-97002600D01*
X227896600Y-96982600D01*
X228455400Y-96982600D01*
X228455400Y-97002600D01*
X228475400Y-97002600D01*
X228475400Y-97561400D01*
X228455400Y-97561400D01*
X228455400Y-98183200D01*
X228570200Y-98298000D01*
X228455400Y-98412800D01*
X228455400Y-99034600D01*
X228475400Y-99034600D01*
X228475400Y-99593400D01*
X228455400Y-99593400D01*
X228455400Y-100215200D01*
X228605800Y-100365600D01*
X228776000Y-100368511D01*
X228893934Y-100356895D01*
X229007336Y-100322495D01*
X229111848Y-100266633D01*
X229183001Y-100208239D01*
X229183002Y-108918169D01*
X223165599Y-114935573D01*
X223149194Y-114949036D01*
X223112014Y-114994341D01*
X223095485Y-115014482D01*
X223073364Y-115055868D01*
X223055575Y-115089149D01*
X223030998Y-115170167D01*
X223024779Y-115233312D01*
X223022700Y-115254421D01*
X223024779Y-115275528D01*
X223024780Y-116574483D01*
X223024779Y-116574493D01*
X223024779Y-116594349D01*
X222984800Y-116634328D01*
X222918613Y-116733385D01*
X222873021Y-116843451D01*
X222849779Y-116960297D01*
X222849779Y-117079433D01*
X222873021Y-117196279D01*
X222918613Y-117306345D01*
X222984800Y-117405402D01*
X223040974Y-117461576D01*
X220976677Y-117461576D01*
X218704499Y-115189397D01*
X218691036Y-115172992D01*
X218625590Y-115119283D01*
X218550924Y-115079373D01*
X218469906Y-115054796D01*
X218406760Y-115048577D01*
X218406758Y-115048577D01*
X218385651Y-115046498D01*
X218364544Y-115048577D01*
X218064940Y-115048577D01*
X218775200Y-114338318D01*
X218775200Y-114517154D01*
X218859929Y-114943116D01*
X219026132Y-115344364D01*
X219267420Y-115705478D01*
X219574522Y-116012580D01*
X219935636Y-116253868D01*
X220336884Y-116420071D01*
X220762846Y-116504800D01*
X221197154Y-116504800D01*
X221623116Y-116420071D01*
X222024364Y-116253868D01*
X222385478Y-116012580D01*
X222692580Y-115705478D01*
X222933868Y-115344364D01*
X223100071Y-114943116D01*
X223184800Y-114517154D01*
X223184800Y-114082846D01*
X223100071Y-113656884D01*
X222933868Y-113255636D01*
X222692580Y-112894522D01*
X222385478Y-112587420D01*
X222024364Y-112346132D01*
X221623116Y-112179929D01*
X221197154Y-112095200D01*
X220762846Y-112095200D01*
X220336884Y-112179929D01*
X219935636Y-112346132D01*
X219764076Y-112460764D01*
X219760800Y-112427499D01*
X219760800Y-107807683D01*
X219776638Y-107791845D01*
X219893386Y-107617119D01*
X219973804Y-107422974D01*
X220014800Y-107216871D01*
X220014800Y-107006729D01*
X219973804Y-106800626D01*
X219893386Y-106606481D01*
X219776638Y-106431755D01*
X219628045Y-106283162D01*
X219453319Y-106166414D01*
X219259174Y-106085996D01*
X219053071Y-106045000D01*
X218842929Y-106045000D01*
X218636826Y-106085996D01*
X218442681Y-106166414D01*
X218267955Y-106283162D01*
X218119362Y-106431755D01*
X218002614Y-106606481D01*
X217922196Y-106800626D01*
X217881200Y-107006729D01*
X217881200Y-107216871D01*
X217922196Y-107422974D01*
X218002614Y-107617119D01*
X218119362Y-107791845D01*
X218135200Y-107807683D01*
X218135201Y-112130748D01*
X217822289Y-112443661D01*
X217791273Y-112469115D01*
X217773225Y-112491107D01*
X217708736Y-112426618D01*
X217708736Y-103412767D01*
X217711439Y-103385325D01*
X217706948Y-103339727D01*
X217700650Y-103275782D01*
X217668697Y-103170448D01*
X217616809Y-103073372D01*
X217546979Y-102988283D01*
X217525655Y-102970783D01*
X212977010Y-98422138D01*
X212977010Y-98319546D01*
X212945775Y-98162515D01*
X212884504Y-98014595D01*
X212795553Y-97881470D01*
X212682340Y-97768257D01*
X212549215Y-97679306D01*
X212401295Y-97618035D01*
X212244264Y-97586800D01*
X212084156Y-97586800D01*
X211927125Y-97618035D01*
X211779205Y-97679306D01*
X211646080Y-97768257D01*
X211532867Y-97881470D01*
X211443916Y-98014595D01*
X211388735Y-98147813D01*
X211371361Y-98090539D01*
X211295887Y-97949337D01*
X211194316Y-97825572D01*
X211163306Y-97800123D01*
X210172794Y-96809612D01*
X212514955Y-96809612D01*
X212536062Y-96811691D01*
X212557169Y-96809612D01*
X212557171Y-96809612D01*
X212620317Y-96803393D01*
X212701335Y-96778816D01*
X212749341Y-96753156D01*
X212764664Y-96790149D01*
X212830851Y-96889206D01*
X212915093Y-96973448D01*
X213014150Y-97039635D01*
X213124216Y-97085227D01*
X213241062Y-97108469D01*
X213360198Y-97108469D01*
X213477044Y-97085227D01*
X213587110Y-97039635D01*
X213686167Y-96973448D01*
X213770409Y-96889206D01*
X213836596Y-96790149D01*
X213862422Y-96727800D01*
X215004726Y-96727800D01*
X215004726Y-96948000D01*
G36*
X235453893Y-89778792D02*
G01*
X235517039Y-89785011D01*
X235517043Y-89785011D01*
X235538147Y-89787090D01*
X235559251Y-89785011D01*
X236212938Y-89785011D01*
X236086984Y-89869170D01*
X235919170Y-90036984D01*
X235787320Y-90234313D01*
X235696499Y-90453573D01*
X235650200Y-90686338D01*
X235650200Y-90923662D01*
X235696499Y-91156427D01*
X235787320Y-91375687D01*
X235919170Y-91573016D01*
X236086984Y-91740830D01*
X236284313Y-91872680D01*
X236503573Y-91963501D01*
X236736338Y-92009800D01*
X236973662Y-92009800D01*
X237206427Y-91963501D01*
X237347315Y-91905143D01*
X237822201Y-92380030D01*
X237822201Y-92481726D01*
X237802000Y-92481726D01*
X237742249Y-92487611D01*
X237684794Y-92505040D01*
X237631843Y-92533342D01*
X237585432Y-92571432D01*
X237547342Y-92617843D01*
X237519040Y-92670794D01*
X237501611Y-92728249D01*
X237495726Y-92788000D01*
X237495726Y-93988000D01*
X237501611Y-94047751D01*
X237519040Y-94105206D01*
X237547342Y-94158157D01*
X237585432Y-94204568D01*
X237631843Y-94242658D01*
X237684794Y-94270960D01*
X237742249Y-94288389D01*
X237802000Y-94294274D01*
X238702000Y-94294274D01*
X238761751Y-94288389D01*
X238819206Y-94270960D01*
X238872157Y-94242658D01*
X238918568Y-94204568D01*
X238956658Y-94158157D01*
X238984960Y-94105206D01*
X239002389Y-94047751D01*
X239008274Y-93988000D01*
X239008274Y-92788000D01*
X239002389Y-92728249D01*
X238984960Y-92670794D01*
X238956658Y-92617843D01*
X238918568Y-92571432D01*
X238872157Y-92533342D01*
X238819206Y-92505040D01*
X238761751Y-92487611D01*
X238702000Y-92481726D01*
X238681800Y-92481726D01*
X238681800Y-92308355D01*
X238965200Y-92306600D01*
X239115600Y-92156200D01*
X239115600Y-91084400D01*
X239095600Y-91084400D01*
X239095600Y-90525600D01*
X239115600Y-90525600D01*
X239115600Y-90505600D01*
X239674400Y-90505600D01*
X239674400Y-90525600D01*
X239694400Y-90525600D01*
X239694400Y-91084400D01*
X239674400Y-91084400D01*
X239674400Y-91715220D01*
X239644463Y-91735223D01*
X239560221Y-91819465D01*
X239494034Y-91918522D01*
X239448442Y-92028588D01*
X239425200Y-92145434D01*
X239425200Y-92264570D01*
X239448442Y-92381416D01*
X239494034Y-92491482D01*
X239560221Y-92590539D01*
X239583031Y-92613349D01*
X239579342Y-92617843D01*
X239551040Y-92670794D01*
X239533611Y-92728249D01*
X239527726Y-92788000D01*
X239527726Y-93988000D01*
X239533611Y-94047751D01*
X239551040Y-94105206D01*
X239579342Y-94158157D01*
X239617432Y-94204568D01*
X239663843Y-94242658D01*
X239716794Y-94270960D01*
X239774249Y-94288389D01*
X239834000Y-94294274D01*
X240734000Y-94294274D01*
X240793751Y-94288389D01*
X240851206Y-94270960D01*
X240904157Y-94242658D01*
X240950568Y-94204568D01*
X240988658Y-94158157D01*
X241016960Y-94105206D01*
X241034389Y-94047751D01*
X241040274Y-93988000D01*
X241040274Y-92788000D01*
X241034389Y-92728249D01*
X241016960Y-92670794D01*
X240989663Y-92619723D01*
X240995987Y-92619100D01*
X241089272Y-92619100D01*
X241559726Y-93089555D01*
X241559726Y-93686446D01*
X241252014Y-93994158D01*
X241235615Y-94007616D01*
X241211001Y-94037609D01*
X241181905Y-94073062D01*
X241141995Y-94147729D01*
X241117419Y-94228746D01*
X241109120Y-94313001D01*
X241111200Y-94334118D01*
X241111199Y-104870972D01*
X240475913Y-105506259D01*
X240462680Y-105474313D01*
X240330830Y-105276984D01*
X240163016Y-105109170D01*
X240011235Y-105007754D01*
X240295000Y-105009511D01*
X240412934Y-104997895D01*
X240526336Y-104963495D01*
X240630848Y-104907633D01*
X240722454Y-104832454D01*
X240797633Y-104740848D01*
X240853495Y-104636336D01*
X240887895Y-104522934D01*
X240899511Y-104405000D01*
X240896600Y-103934800D01*
X240746200Y-103784400D01*
X239674400Y-103784400D01*
X239674400Y-103804400D01*
X239115600Y-103804400D01*
X239115600Y-103784400D01*
X238043800Y-103784400D01*
X237893400Y-103934800D01*
X237890489Y-104405000D01*
X237902105Y-104522934D01*
X237936505Y-104636336D01*
X237992367Y-104740848D01*
X238067546Y-104832454D01*
X238159152Y-104907633D01*
X238263664Y-104963495D01*
X238377066Y-104997895D01*
X238495000Y-105009511D01*
X238778765Y-105007754D01*
X238626984Y-105109170D01*
X238459170Y-105276984D01*
X238327320Y-105474313D01*
X238236499Y-105693573D01*
X238190200Y-105926338D01*
X238190200Y-106163662D01*
X238236499Y-106396427D01*
X238327320Y-106615687D01*
X238420539Y-106755200D01*
X236565793Y-106755200D01*
X236629364Y-106728868D01*
X236990478Y-106487580D01*
X237297580Y-106180478D01*
X237538868Y-105819364D01*
X237705071Y-105418116D01*
X237789800Y-104992154D01*
X237789800Y-104557846D01*
X237705071Y-104131884D01*
X237538868Y-103730636D01*
X237297580Y-103369522D01*
X236990478Y-103062420D01*
X236629364Y-102821132D01*
X236228116Y-102654929D01*
X235802154Y-102570200D01*
X235367846Y-102570200D01*
X234941884Y-102654929D01*
X234540636Y-102821132D01*
X234179522Y-103062420D01*
X233872420Y-103369522D01*
X233631132Y-103730636D01*
X233464929Y-104131884D01*
X233380200Y-104557846D01*
X233380200Y-104992154D01*
X233464929Y-105418116D01*
X233631132Y-105819364D01*
X233872420Y-106180478D01*
X234179522Y-106487580D01*
X234540636Y-106728868D01*
X234604207Y-106755200D01*
X232362576Y-106755200D01*
X232347469Y-106756688D01*
X232345052Y-106756671D01*
X232340121Y-106757154D01*
X232262483Y-106765314D01*
X232230991Y-106771778D01*
X232199394Y-106777806D01*
X232194659Y-106779236D01*
X232194652Y-106779237D01*
X232194646Y-106779240D01*
X232120076Y-106802322D01*
X232090399Y-106814797D01*
X232060618Y-106826830D01*
X232056243Y-106829155D01*
X231987572Y-106866285D01*
X231960892Y-106884281D01*
X231934005Y-106901876D01*
X231930166Y-106905006D01*
X231870015Y-106954767D01*
X231847348Y-106977593D01*
X231824379Y-107000086D01*
X231821226Y-107003897D01*
X231821222Y-107003901D01*
X231821221Y-107003903D01*
X231771881Y-107064399D01*
X231754069Y-107091209D01*
X231735919Y-107117717D01*
X231733562Y-107122075D01*
X231696912Y-107191004D01*
X231684665Y-107220718D01*
X231671991Y-107250289D01*
X231670526Y-107255022D01*
X231647962Y-107329756D01*
X231641716Y-107361298D01*
X231635030Y-107392756D01*
X231634511Y-107397683D01*
X231626893Y-107475377D01*
X231626893Y-107475387D01*
X231625200Y-107492577D01*
X231625201Y-113192633D01*
X231622669Y-113218452D01*
X231620217Y-113226573D01*
X231616231Y-113234072D01*
X231610864Y-113240651D01*
X231604326Y-113246060D01*
X231596854Y-113250100D01*
X231588744Y-113252611D01*
X231564108Y-113255200D01*
X227343500Y-113255200D01*
X230920987Y-109677714D01*
X230937385Y-109664257D01*
X230967216Y-109627907D01*
X230991094Y-109598812D01*
X231031004Y-109524145D01*
X231032328Y-109519780D01*
X231055581Y-109443127D01*
X231061800Y-109379981D01*
X231061800Y-109379979D01*
X231063879Y-109358872D01*
X231061800Y-109337765D01*
X231061800Y-101486262D01*
X232525200Y-101486262D01*
X232525200Y-101713738D01*
X232569578Y-101936843D01*
X232656629Y-102147003D01*
X232783008Y-102336142D01*
X232943858Y-102496992D01*
X233132997Y-102623371D01*
X233343157Y-102710422D01*
X233566262Y-102754800D01*
X233793738Y-102754800D01*
X234016843Y-102710422D01*
X234227003Y-102623371D01*
X234416142Y-102496992D01*
X234576992Y-102336142D01*
X234703371Y-102147003D01*
X234790422Y-101936843D01*
X234834800Y-101713738D01*
X234834800Y-101486262D01*
X234790422Y-101263157D01*
X234703371Y-101052997D01*
X234576992Y-100863858D01*
X234416142Y-100703008D01*
X234227003Y-100576629D01*
X234016843Y-100489578D01*
X233793738Y-100445200D01*
X233566262Y-100445200D01*
X233343157Y-100489578D01*
X233132997Y-100576629D01*
X232943858Y-100703008D01*
X232783008Y-100863858D01*
X232656629Y-101052997D01*
X232569578Y-101263157D01*
X232525200Y-101486262D01*
X231061800Y-101486262D01*
X231061800Y-100000028D01*
X232115566Y-98946262D01*
X232525200Y-98946262D01*
X232525200Y-99173738D01*
X232569578Y-99396843D01*
X232656629Y-99607003D01*
X232783008Y-99796142D01*
X232943858Y-99956992D01*
X233132997Y-100083371D01*
X233343157Y-100170422D01*
X233566262Y-100214800D01*
X233793738Y-100214800D01*
X234016843Y-100170422D01*
X234227003Y-100083371D01*
X234416142Y-99956992D01*
X234576992Y-99796142D01*
X234703371Y-99607003D01*
X234790422Y-99396843D01*
X234834800Y-99173738D01*
X234834800Y-98946262D01*
X234790422Y-98723157D01*
X234703371Y-98512997D01*
X234576992Y-98323858D01*
X234416142Y-98163008D01*
X234227003Y-98036629D01*
X234016843Y-97949578D01*
X233793738Y-97905200D01*
X233566262Y-97905200D01*
X233343157Y-97949578D01*
X233132997Y-98036629D01*
X232943858Y-98163008D01*
X232783008Y-98323858D01*
X232656629Y-98512997D01*
X232569578Y-98723157D01*
X232525200Y-98946262D01*
X232115566Y-98946262D01*
X235084670Y-95977159D01*
X235276072Y-96168561D01*
X235224860Y-96189774D01*
X235125803Y-96255961D01*
X235041561Y-96340203D01*
X234975374Y-96439260D01*
X234929782Y-96549326D01*
X234906540Y-96666172D01*
X234906540Y-96785308D01*
X234929782Y-96902154D01*
X234975374Y-97012220D01*
X235041561Y-97111277D01*
X235079541Y-97149257D01*
X235079540Y-99788130D01*
X235077451Y-99809340D01*
X235082663Y-99862254D01*
X235085788Y-99893987D01*
X235110479Y-99975381D01*
X235150574Y-100050395D01*
X235204534Y-100116146D01*
X235221019Y-100129675D01*
X235971726Y-100880383D01*
X235971726Y-101776000D01*
X235977611Y-101835751D01*
X235995040Y-101893206D01*
X236023342Y-101946157D01*
X236061432Y-101992568D01*
X236107843Y-102030658D01*
X236160794Y-102058960D01*
X236218249Y-102076389D01*
X236278000Y-102082274D01*
X237178000Y-102082274D01*
X237237751Y-102076389D01*
X237295206Y-102058960D01*
X237348157Y-102030658D01*
X237394568Y-101992568D01*
X237432658Y-101946157D01*
X237460960Y-101893206D01*
X237469516Y-101865000D01*
X237890489Y-101865000D01*
X237902105Y-101982934D01*
X237936505Y-102096336D01*
X237992367Y-102200848D01*
X238020395Y-102235000D01*
X237992367Y-102269152D01*
X237936505Y-102373664D01*
X237902105Y-102487066D01*
X237890489Y-102605000D01*
X237893400Y-103075200D01*
X238043800Y-103225600D01*
X239115600Y-103225600D01*
X239115600Y-101244400D01*
X239674400Y-101244400D01*
X239674400Y-103225600D01*
X240746200Y-103225600D01*
X240896600Y-103075200D01*
X240899511Y-102605000D01*
X240887895Y-102487066D01*
X240853495Y-102373664D01*
X240797633Y-102269152D01*
X240769605Y-102235000D01*
X240797633Y-102200848D01*
X240853495Y-102096336D01*
X240887895Y-101982934D01*
X240899511Y-101865000D01*
X240896600Y-101394800D01*
X240746200Y-101244400D01*
X239674400Y-101244400D01*
X239115600Y-101244400D01*
X238043800Y-101244400D01*
X237893400Y-101394800D01*
X237890489Y-101865000D01*
X237469516Y-101865000D01*
X237478389Y-101835751D01*
X237484274Y-101776000D01*
X237484274Y-100576000D01*
X237478389Y-100516249D01*
X237460960Y-100458794D01*
X237432658Y-100405843D01*
X237394568Y-100359432D01*
X237348157Y-100321342D01*
X237295206Y-100293040D01*
X237237751Y-100275611D01*
X237178000Y-100269726D01*
X236582383Y-100269726D01*
X236377657Y-100065000D01*
X237890489Y-100065000D01*
X237893400Y-100535200D01*
X238043800Y-100685600D01*
X239115600Y-100685600D01*
X239115600Y-100665600D01*
X239674400Y-100665600D01*
X239674400Y-100685600D01*
X240746200Y-100685600D01*
X240896600Y-100535200D01*
X240899511Y-100065000D01*
X240887895Y-99947066D01*
X240853495Y-99833664D01*
X240797633Y-99729152D01*
X240722454Y-99637546D01*
X240630848Y-99562367D01*
X240526336Y-99506505D01*
X240412934Y-99472105D01*
X240295000Y-99460489D01*
X240011235Y-99462246D01*
X240163016Y-99360830D01*
X240330830Y-99193016D01*
X240462680Y-98995687D01*
X240553501Y-98776427D01*
X240599800Y-98543662D01*
X240599800Y-98306338D01*
X240553501Y-98073573D01*
X240495143Y-97932686D01*
X240572986Y-97854843D01*
X240589385Y-97841385D01*
X240630118Y-97791751D01*
X240643094Y-97775940D01*
X240683004Y-97701273D01*
X240688960Y-97681640D01*
X240707581Y-97620255D01*
X240713800Y-97557109D01*
X240713800Y-97557107D01*
X240715879Y-97536000D01*
X240713800Y-97514893D01*
X240713800Y-96494274D01*
X240734000Y-96494274D01*
X240793751Y-96488389D01*
X240851206Y-96470960D01*
X240904157Y-96442658D01*
X240950568Y-96404568D01*
X240988658Y-96358157D01*
X241016960Y-96305206D01*
X241034389Y-96247751D01*
X241040274Y-96188000D01*
X241040274Y-94988000D01*
X241034389Y-94928249D01*
X241016960Y-94870794D01*
X240988658Y-94817843D01*
X240950568Y-94771432D01*
X240904157Y-94733342D01*
X240851206Y-94705040D01*
X240793751Y-94687611D01*
X240734000Y-94681726D01*
X239834000Y-94681726D01*
X239774249Y-94687611D01*
X239716794Y-94705040D01*
X239663843Y-94733342D01*
X239617432Y-94771432D01*
X239579342Y-94817843D01*
X239551040Y-94870794D01*
X239533611Y-94928249D01*
X239527726Y-94988000D01*
X239527726Y-96188000D01*
X239533611Y-96247751D01*
X239551040Y-96305206D01*
X239579342Y-96358157D01*
X239617432Y-96404568D01*
X239663843Y-96442658D01*
X239716794Y-96470960D01*
X239774249Y-96488389D01*
X239834000Y-96494274D01*
X239854200Y-96494274D01*
X239854201Y-97311141D01*
X239746427Y-97266499D01*
X239513662Y-97220200D01*
X239276338Y-97220200D01*
X239043573Y-97266499D01*
X238824313Y-97357320D01*
X238626984Y-97489170D01*
X238459170Y-97656984D01*
X238327320Y-97854313D01*
X238236499Y-98073573D01*
X238190200Y-98306338D01*
X238190200Y-98543662D01*
X238236499Y-98776427D01*
X238327320Y-98995687D01*
X238459170Y-99193016D01*
X238626984Y-99360830D01*
X238778765Y-99462246D01*
X238495000Y-99460489D01*
X238377066Y-99472105D01*
X238263664Y-99506505D01*
X238159152Y-99562367D01*
X238067546Y-99637546D01*
X237992367Y-99729152D01*
X237936505Y-99833664D01*
X237902105Y-99947066D01*
X237890489Y-100065000D01*
X236377657Y-100065000D01*
X236176329Y-99863673D01*
X236218249Y-99876389D01*
X236278000Y-99882274D01*
X237178000Y-99882274D01*
X237237751Y-99876389D01*
X237295206Y-99858960D01*
X237348157Y-99830658D01*
X237394568Y-99792568D01*
X237432658Y-99746157D01*
X237460960Y-99693206D01*
X237478389Y-99635751D01*
X237484274Y-99576000D01*
X237484274Y-98376000D01*
X237478389Y-98316249D01*
X237460960Y-98258794D01*
X237432658Y-98205843D01*
X237394568Y-98159432D01*
X237348157Y-98121342D01*
X237295206Y-98093040D01*
X237237751Y-98075611D01*
X237178000Y-98069726D01*
X237157800Y-98069726D01*
X237157800Y-97033764D01*
X237159879Y-97012659D01*
X237157359Y-96987074D01*
X237151581Y-96928405D01*
X237127004Y-96847387D01*
X237087094Y-96772721D01*
X237087093Y-96772719D01*
X237050229Y-96727800D01*
X237033385Y-96707275D01*
X237016986Y-96693817D01*
X235538188Y-95215020D01*
X235524725Y-95198615D01*
X235459279Y-95144906D01*
X235384613Y-95104996D01*
X235379800Y-95103536D01*
X235379800Y-94428432D01*
X235869200Y-94428432D01*
X235869200Y-94547568D01*
X235892442Y-94664414D01*
X235938034Y-94774480D01*
X236004221Y-94873537D01*
X236088463Y-94957779D01*
X236187520Y-95023966D01*
X236297586Y-95069558D01*
X236414432Y-95092800D01*
X236470972Y-95092800D01*
X237255157Y-95876986D01*
X237268615Y-95893385D01*
X237304133Y-95922533D01*
X237334060Y-95947094D01*
X237394052Y-95979160D01*
X237408727Y-95987004D01*
X237489745Y-96011581D01*
X237495726Y-96012170D01*
X237495726Y-96188000D01*
X237501611Y-96247751D01*
X237519040Y-96305206D01*
X237547342Y-96358157D01*
X237585432Y-96404568D01*
X237631843Y-96442658D01*
X237684794Y-96470960D01*
X237742249Y-96488389D01*
X237802000Y-96494274D01*
X238702000Y-96494274D01*
X238761751Y-96488389D01*
X238819206Y-96470960D01*
X238872157Y-96442658D01*
X238918568Y-96404568D01*
X238956658Y-96358157D01*
X238984960Y-96305206D01*
X239002389Y-96247751D01*
X239008274Y-96188000D01*
X239008274Y-94988000D01*
X239002389Y-94928249D01*
X238984960Y-94870794D01*
X238956658Y-94817843D01*
X238918568Y-94771432D01*
X238872157Y-94733342D01*
X238819206Y-94705040D01*
X238761751Y-94687611D01*
X238702000Y-94681726D01*
X237802000Y-94681726D01*
X237742249Y-94687611D01*
X237684794Y-94705040D01*
X237631843Y-94733342D01*
X237585432Y-94771432D01*
X237547342Y-94817843D01*
X237519040Y-94870794D01*
X237506375Y-94912546D01*
X237078800Y-94484972D01*
X237078800Y-94428432D01*
X237055558Y-94311586D01*
X237009966Y-94201520D01*
X236943779Y-94102463D01*
X236859537Y-94018221D01*
X236760480Y-93952034D01*
X236650414Y-93906442D01*
X236533568Y-93883200D01*
X236414432Y-93883200D01*
X236297586Y-93906442D01*
X236187520Y-93952034D01*
X236088463Y-94018221D01*
X236004221Y-94102463D01*
X235938034Y-94201520D01*
X235892442Y-94311586D01*
X235869200Y-94428432D01*
X235379800Y-94428432D01*
X235379800Y-89756316D01*
X235453893Y-89778792D01*
X235453893Y-89778792D01*
G37*
X235453893Y-89778792D02*
X235517039Y-89785011D01*
X235517043Y-89785011D01*
X235538147Y-89787090D01*
X235559251Y-89785011D01*
X236212938Y-89785011D01*
X236086984Y-89869170D01*
X235919170Y-90036984D01*
X235787320Y-90234313D01*
X235696499Y-90453573D01*
X235650200Y-90686338D01*
X235650200Y-90923662D01*
X235696499Y-91156427D01*
X235787320Y-91375687D01*
X235919170Y-91573016D01*
X236086984Y-91740830D01*
X236284313Y-91872680D01*
X236503573Y-91963501D01*
X236736338Y-92009800D01*
X236973662Y-92009800D01*
X237206427Y-91963501D01*
X237347315Y-91905143D01*
X237822201Y-92380030D01*
X237822201Y-92481726D01*
X237802000Y-92481726D01*
X237742249Y-92487611D01*
X237684794Y-92505040D01*
X237631843Y-92533342D01*
X237585432Y-92571432D01*
X237547342Y-92617843D01*
X237519040Y-92670794D01*
X237501611Y-92728249D01*
X237495726Y-92788000D01*
X237495726Y-93988000D01*
X237501611Y-94047751D01*
X237519040Y-94105206D01*
X237547342Y-94158157D01*
X237585432Y-94204568D01*
X237631843Y-94242658D01*
X237684794Y-94270960D01*
X237742249Y-94288389D01*
X237802000Y-94294274D01*
X238702000Y-94294274D01*
X238761751Y-94288389D01*
X238819206Y-94270960D01*
X238872157Y-94242658D01*
X238918568Y-94204568D01*
X238956658Y-94158157D01*
X238984960Y-94105206D01*
X239002389Y-94047751D01*
X239008274Y-93988000D01*
X239008274Y-92788000D01*
X239002389Y-92728249D01*
X238984960Y-92670794D01*
X238956658Y-92617843D01*
X238918568Y-92571432D01*
X238872157Y-92533342D01*
X238819206Y-92505040D01*
X238761751Y-92487611D01*
X238702000Y-92481726D01*
X238681800Y-92481726D01*
X238681800Y-92308355D01*
X238965200Y-92306600D01*
X239115600Y-92156200D01*
X239115600Y-91084400D01*
X239095600Y-91084400D01*
X239095600Y-90525600D01*
X239115600Y-90525600D01*
X239115600Y-90505600D01*
X239674400Y-90505600D01*
X239674400Y-90525600D01*
X239694400Y-90525600D01*
X239694400Y-91084400D01*
X239674400Y-91084400D01*
X239674400Y-91715220D01*
X239644463Y-91735223D01*
X239560221Y-91819465D01*
X239494034Y-91918522D01*
X239448442Y-92028588D01*
X239425200Y-92145434D01*
X239425200Y-92264570D01*
X239448442Y-92381416D01*
X239494034Y-92491482D01*
X239560221Y-92590539D01*
X239583031Y-92613349D01*
X239579342Y-92617843D01*
X239551040Y-92670794D01*
X239533611Y-92728249D01*
X239527726Y-92788000D01*
X239527726Y-93988000D01*
X239533611Y-94047751D01*
X239551040Y-94105206D01*
X239579342Y-94158157D01*
X239617432Y-94204568D01*
X239663843Y-94242658D01*
X239716794Y-94270960D01*
X239774249Y-94288389D01*
X239834000Y-94294274D01*
X240734000Y-94294274D01*
X240793751Y-94288389D01*
X240851206Y-94270960D01*
X240904157Y-94242658D01*
X240950568Y-94204568D01*
X240988658Y-94158157D01*
X241016960Y-94105206D01*
X241034389Y-94047751D01*
X241040274Y-93988000D01*
X241040274Y-92788000D01*
X241034389Y-92728249D01*
X241016960Y-92670794D01*
X240989663Y-92619723D01*
X240995987Y-92619100D01*
X241089272Y-92619100D01*
X241559726Y-93089555D01*
X241559726Y-93686446D01*
X241252014Y-93994158D01*
X241235615Y-94007616D01*
X241211001Y-94037609D01*
X241181905Y-94073062D01*
X241141995Y-94147729D01*
X241117419Y-94228746D01*
X241109120Y-94313001D01*
X241111200Y-94334118D01*
X241111199Y-104870972D01*
X240475913Y-105506259D01*
X240462680Y-105474313D01*
X240330830Y-105276984D01*
X240163016Y-105109170D01*
X240011235Y-105007754D01*
X240295000Y-105009511D01*
X240412934Y-104997895D01*
X240526336Y-104963495D01*
X240630848Y-104907633D01*
X240722454Y-104832454D01*
X240797633Y-104740848D01*
X240853495Y-104636336D01*
X240887895Y-104522934D01*
X240899511Y-104405000D01*
X240896600Y-103934800D01*
X240746200Y-103784400D01*
X239674400Y-103784400D01*
X239674400Y-103804400D01*
X239115600Y-103804400D01*
X239115600Y-103784400D01*
X238043800Y-103784400D01*
X237893400Y-103934800D01*
X237890489Y-104405000D01*
X237902105Y-104522934D01*
X237936505Y-104636336D01*
X237992367Y-104740848D01*
X238067546Y-104832454D01*
X238159152Y-104907633D01*
X238263664Y-104963495D01*
X238377066Y-104997895D01*
X238495000Y-105009511D01*
X238778765Y-105007754D01*
X238626984Y-105109170D01*
X238459170Y-105276984D01*
X238327320Y-105474313D01*
X238236499Y-105693573D01*
X238190200Y-105926338D01*
X238190200Y-106163662D01*
X238236499Y-106396427D01*
X238327320Y-106615687D01*
X238420539Y-106755200D01*
X236565793Y-106755200D01*
X236629364Y-106728868D01*
X236990478Y-106487580D01*
X237297580Y-106180478D01*
X237538868Y-105819364D01*
X237705071Y-105418116D01*
X237789800Y-104992154D01*
X237789800Y-104557846D01*
X237705071Y-104131884D01*
X237538868Y-103730636D01*
X237297580Y-103369522D01*
X236990478Y-103062420D01*
X236629364Y-102821132D01*
X236228116Y-102654929D01*
X235802154Y-102570200D01*
X235367846Y-102570200D01*
X234941884Y-102654929D01*
X234540636Y-102821132D01*
X234179522Y-103062420D01*
X233872420Y-103369522D01*
X233631132Y-103730636D01*
X233464929Y-104131884D01*
X233380200Y-104557846D01*
X233380200Y-104992154D01*
X233464929Y-105418116D01*
X233631132Y-105819364D01*
X233872420Y-106180478D01*
X234179522Y-106487580D01*
X234540636Y-106728868D01*
X234604207Y-106755200D01*
X232362576Y-106755200D01*
X232347469Y-106756688D01*
X232345052Y-106756671D01*
X232340121Y-106757154D01*
X232262483Y-106765314D01*
X232230991Y-106771778D01*
X232199394Y-106777806D01*
X232194659Y-106779236D01*
X232194652Y-106779237D01*
X232194646Y-106779240D01*
X232120076Y-106802322D01*
X232090399Y-106814797D01*
X232060618Y-106826830D01*
X232056243Y-106829155D01*
X231987572Y-106866285D01*
X231960892Y-106884281D01*
X231934005Y-106901876D01*
X231930166Y-106905006D01*
X231870015Y-106954767D01*
X231847348Y-106977593D01*
X231824379Y-107000086D01*
X231821226Y-107003897D01*
X231821222Y-107003901D01*
X231821221Y-107003903D01*
X231771881Y-107064399D01*
X231754069Y-107091209D01*
X231735919Y-107117717D01*
X231733562Y-107122075D01*
X231696912Y-107191004D01*
X231684665Y-107220718D01*
X231671991Y-107250289D01*
X231670526Y-107255022D01*
X231647962Y-107329756D01*
X231641716Y-107361298D01*
X231635030Y-107392756D01*
X231634511Y-107397683D01*
X231626893Y-107475377D01*
X231626893Y-107475387D01*
X231625200Y-107492577D01*
X231625201Y-113192633D01*
X231622669Y-113218452D01*
X231620217Y-113226573D01*
X231616231Y-113234072D01*
X231610864Y-113240651D01*
X231604326Y-113246060D01*
X231596854Y-113250100D01*
X231588744Y-113252611D01*
X231564108Y-113255200D01*
X227343500Y-113255200D01*
X230920987Y-109677714D01*
X230937385Y-109664257D01*
X230967216Y-109627907D01*
X230991094Y-109598812D01*
X231031004Y-109524145D01*
X231032328Y-109519780D01*
X231055581Y-109443127D01*
X231061800Y-109379981D01*
X231061800Y-109379979D01*
X231063879Y-109358872D01*
X231061800Y-109337765D01*
X231061800Y-101486262D01*
X232525200Y-101486262D01*
X232525200Y-101713738D01*
X232569578Y-101936843D01*
X232656629Y-102147003D01*
X232783008Y-102336142D01*
X232943858Y-102496992D01*
X233132997Y-102623371D01*
X233343157Y-102710422D01*
X233566262Y-102754800D01*
X233793738Y-102754800D01*
X234016843Y-102710422D01*
X234227003Y-102623371D01*
X234416142Y-102496992D01*
X234576992Y-102336142D01*
X234703371Y-102147003D01*
X234790422Y-101936843D01*
X234834800Y-101713738D01*
X234834800Y-101486262D01*
X234790422Y-101263157D01*
X234703371Y-101052997D01*
X234576992Y-100863858D01*
X234416142Y-100703008D01*
X234227003Y-100576629D01*
X234016843Y-100489578D01*
X233793738Y-100445200D01*
X233566262Y-100445200D01*
X233343157Y-100489578D01*
X233132997Y-100576629D01*
X232943858Y-100703008D01*
X232783008Y-100863858D01*
X232656629Y-101052997D01*
X232569578Y-101263157D01*
X232525200Y-101486262D01*
X231061800Y-101486262D01*
X231061800Y-100000028D01*
X232115566Y-98946262D01*
X232525200Y-98946262D01*
X232525200Y-99173738D01*
X232569578Y-99396843D01*
X232656629Y-99607003D01*
X232783008Y-99796142D01*
X232943858Y-99956992D01*
X233132997Y-100083371D01*
X233343157Y-100170422D01*
X233566262Y-100214800D01*
X233793738Y-100214800D01*
X234016843Y-100170422D01*
X234227003Y-100083371D01*
X234416142Y-99956992D01*
X234576992Y-99796142D01*
X234703371Y-99607003D01*
X234790422Y-99396843D01*
X234834800Y-99173738D01*
X234834800Y-98946262D01*
X234790422Y-98723157D01*
X234703371Y-98512997D01*
X234576992Y-98323858D01*
X234416142Y-98163008D01*
X234227003Y-98036629D01*
X234016843Y-97949578D01*
X233793738Y-97905200D01*
X233566262Y-97905200D01*
X233343157Y-97949578D01*
X233132997Y-98036629D01*
X232943858Y-98163008D01*
X232783008Y-98323858D01*
X232656629Y-98512997D01*
X232569578Y-98723157D01*
X232525200Y-98946262D01*
X232115566Y-98946262D01*
X235084670Y-95977159D01*
X235276072Y-96168561D01*
X235224860Y-96189774D01*
X235125803Y-96255961D01*
X235041561Y-96340203D01*
X234975374Y-96439260D01*
X234929782Y-96549326D01*
X234906540Y-96666172D01*
X234906540Y-96785308D01*
X234929782Y-96902154D01*
X234975374Y-97012220D01*
X235041561Y-97111277D01*
X235079541Y-97149257D01*
X235079540Y-99788130D01*
X235077451Y-99809340D01*
X235082663Y-99862254D01*
X235085788Y-99893987D01*
X235110479Y-99975381D01*
X235150574Y-100050395D01*
X235204534Y-100116146D01*
X235221019Y-100129675D01*
X235971726Y-100880383D01*
X235971726Y-101776000D01*
X235977611Y-101835751D01*
X235995040Y-101893206D01*
X236023342Y-101946157D01*
X236061432Y-101992568D01*
X236107843Y-102030658D01*
X236160794Y-102058960D01*
X236218249Y-102076389D01*
X236278000Y-102082274D01*
X237178000Y-102082274D01*
X237237751Y-102076389D01*
X237295206Y-102058960D01*
X237348157Y-102030658D01*
X237394568Y-101992568D01*
X237432658Y-101946157D01*
X237460960Y-101893206D01*
X237469516Y-101865000D01*
X237890489Y-101865000D01*
X237902105Y-101982934D01*
X237936505Y-102096336D01*
X237992367Y-102200848D01*
X238020395Y-102235000D01*
X237992367Y-102269152D01*
X237936505Y-102373664D01*
X237902105Y-102487066D01*
X237890489Y-102605000D01*
X237893400Y-103075200D01*
X238043800Y-103225600D01*
X239115600Y-103225600D01*
X239115600Y-101244400D01*
X239674400Y-101244400D01*
X239674400Y-103225600D01*
X240746200Y-103225600D01*
X240896600Y-103075200D01*
X240899511Y-102605000D01*
X240887895Y-102487066D01*
X240853495Y-102373664D01*
X240797633Y-102269152D01*
X240769605Y-102235000D01*
X240797633Y-102200848D01*
X240853495Y-102096336D01*
X240887895Y-101982934D01*
X240899511Y-101865000D01*
X240896600Y-101394800D01*
X240746200Y-101244400D01*
X239674400Y-101244400D01*
X239115600Y-101244400D01*
X238043800Y-101244400D01*
X237893400Y-101394800D01*
X237890489Y-101865000D01*
X237469516Y-101865000D01*
X237478389Y-101835751D01*
X237484274Y-101776000D01*
X237484274Y-100576000D01*
X237478389Y-100516249D01*
X237460960Y-100458794D01*
X237432658Y-100405843D01*
X237394568Y-100359432D01*
X237348157Y-100321342D01*
X237295206Y-100293040D01*
X237237751Y-100275611D01*
X237178000Y-100269726D01*
X236582383Y-100269726D01*
X236377657Y-100065000D01*
X237890489Y-100065000D01*
X237893400Y-100535200D01*
X238043800Y-100685600D01*
X239115600Y-100685600D01*
X239115600Y-100665600D01*
X239674400Y-100665600D01*
X239674400Y-100685600D01*
X240746200Y-100685600D01*
X240896600Y-100535200D01*
X240899511Y-100065000D01*
X240887895Y-99947066D01*
X240853495Y-99833664D01*
X240797633Y-99729152D01*
X240722454Y-99637546D01*
X240630848Y-99562367D01*
X240526336Y-99506505D01*
X240412934Y-99472105D01*
X240295000Y-99460489D01*
X240011235Y-99462246D01*
X240163016Y-99360830D01*
X240330830Y-99193016D01*
X240462680Y-98995687D01*
X240553501Y-98776427D01*
X240599800Y-98543662D01*
X240599800Y-98306338D01*
X240553501Y-98073573D01*
X240495143Y-97932686D01*
X240572986Y-97854843D01*
X240589385Y-97841385D01*
X240630118Y-97791751D01*
X240643094Y-97775940D01*
X240683004Y-97701273D01*
X240688960Y-97681640D01*
X240707581Y-97620255D01*
X240713800Y-97557109D01*
X240713800Y-97557107D01*
X240715879Y-97536000D01*
X240713800Y-97514893D01*
X240713800Y-96494274D01*
X240734000Y-96494274D01*
X240793751Y-96488389D01*
X240851206Y-96470960D01*
X240904157Y-96442658D01*
X240950568Y-96404568D01*
X240988658Y-96358157D01*
X241016960Y-96305206D01*
X241034389Y-96247751D01*
X241040274Y-96188000D01*
X241040274Y-94988000D01*
X241034389Y-94928249D01*
X241016960Y-94870794D01*
X240988658Y-94817843D01*
X240950568Y-94771432D01*
X240904157Y-94733342D01*
X240851206Y-94705040D01*
X240793751Y-94687611D01*
X240734000Y-94681726D01*
X239834000Y-94681726D01*
X239774249Y-94687611D01*
X239716794Y-94705040D01*
X239663843Y-94733342D01*
X239617432Y-94771432D01*
X239579342Y-94817843D01*
X239551040Y-94870794D01*
X239533611Y-94928249D01*
X239527726Y-94988000D01*
X239527726Y-96188000D01*
X239533611Y-96247751D01*
X239551040Y-96305206D01*
X239579342Y-96358157D01*
X239617432Y-96404568D01*
X239663843Y-96442658D01*
X239716794Y-96470960D01*
X239774249Y-96488389D01*
X239834000Y-96494274D01*
X239854200Y-96494274D01*
X239854201Y-97311141D01*
X239746427Y-97266499D01*
X239513662Y-97220200D01*
X239276338Y-97220200D01*
X239043573Y-97266499D01*
X238824313Y-97357320D01*
X238626984Y-97489170D01*
X238459170Y-97656984D01*
X238327320Y-97854313D01*
X238236499Y-98073573D01*
X238190200Y-98306338D01*
X238190200Y-98543662D01*
X238236499Y-98776427D01*
X238327320Y-98995687D01*
X238459170Y-99193016D01*
X238626984Y-99360830D01*
X238778765Y-99462246D01*
X238495000Y-99460489D01*
X238377066Y-99472105D01*
X238263664Y-99506505D01*
X238159152Y-99562367D01*
X238067546Y-99637546D01*
X237992367Y-99729152D01*
X237936505Y-99833664D01*
X237902105Y-99947066D01*
X237890489Y-100065000D01*
X236377657Y-100065000D01*
X236176329Y-99863673D01*
X236218249Y-99876389D01*
X236278000Y-99882274D01*
X237178000Y-99882274D01*
X237237751Y-99876389D01*
X237295206Y-99858960D01*
X237348157Y-99830658D01*
X237394568Y-99792568D01*
X237432658Y-99746157D01*
X237460960Y-99693206D01*
X237478389Y-99635751D01*
X237484274Y-99576000D01*
X237484274Y-98376000D01*
X237478389Y-98316249D01*
X237460960Y-98258794D01*
X237432658Y-98205843D01*
X237394568Y-98159432D01*
X237348157Y-98121342D01*
X237295206Y-98093040D01*
X237237751Y-98075611D01*
X237178000Y-98069726D01*
X237157800Y-98069726D01*
X237157800Y-97033764D01*
X237159879Y-97012659D01*
X237157359Y-96987074D01*
X237151581Y-96928405D01*
X237127004Y-96847387D01*
X237087094Y-96772721D01*
X237087093Y-96772719D01*
X237050229Y-96727800D01*
X237033385Y-96707275D01*
X237016986Y-96693817D01*
X235538188Y-95215020D01*
X235524725Y-95198615D01*
X235459279Y-95144906D01*
X235384613Y-95104996D01*
X235379800Y-95103536D01*
X235379800Y-94428432D01*
X235869200Y-94428432D01*
X235869200Y-94547568D01*
X235892442Y-94664414D01*
X235938034Y-94774480D01*
X236004221Y-94873537D01*
X236088463Y-94957779D01*
X236187520Y-95023966D01*
X236297586Y-95069558D01*
X236414432Y-95092800D01*
X236470972Y-95092800D01*
X237255157Y-95876986D01*
X237268615Y-95893385D01*
X237304133Y-95922533D01*
X237334060Y-95947094D01*
X237394052Y-95979160D01*
X237408727Y-95987004D01*
X237489745Y-96011581D01*
X237495726Y-96012170D01*
X237495726Y-96188000D01*
X237501611Y-96247751D01*
X237519040Y-96305206D01*
X237547342Y-96358157D01*
X237585432Y-96404568D01*
X237631843Y-96442658D01*
X237684794Y-96470960D01*
X237742249Y-96488389D01*
X237802000Y-96494274D01*
X238702000Y-96494274D01*
X238761751Y-96488389D01*
X238819206Y-96470960D01*
X238872157Y-96442658D01*
X238918568Y-96404568D01*
X238956658Y-96358157D01*
X238984960Y-96305206D01*
X239002389Y-96247751D01*
X239008274Y-96188000D01*
X239008274Y-94988000D01*
X239002389Y-94928249D01*
X238984960Y-94870794D01*
X238956658Y-94817843D01*
X238918568Y-94771432D01*
X238872157Y-94733342D01*
X238819206Y-94705040D01*
X238761751Y-94687611D01*
X238702000Y-94681726D01*
X237802000Y-94681726D01*
X237742249Y-94687611D01*
X237684794Y-94705040D01*
X237631843Y-94733342D01*
X237585432Y-94771432D01*
X237547342Y-94817843D01*
X237519040Y-94870794D01*
X237506375Y-94912546D01*
X237078800Y-94484972D01*
X237078800Y-94428432D01*
X237055558Y-94311586D01*
X237009966Y-94201520D01*
X236943779Y-94102463D01*
X236859537Y-94018221D01*
X236760480Y-93952034D01*
X236650414Y-93906442D01*
X236533568Y-93883200D01*
X236414432Y-93883200D01*
X236297586Y-93906442D01*
X236187520Y-93952034D01*
X236088463Y-94018221D01*
X236004221Y-94102463D01*
X235938034Y-94201520D01*
X235892442Y-94311586D01*
X235869200Y-94428432D01*
X235379800Y-94428432D01*
X235379800Y-89756316D01*
X235453893Y-89778792D01*
G36*
X231374920Y-95076749D02*
G01*
X231382393Y-95152625D01*
X231456973Y-95398485D01*
X231578086Y-95625070D01*
X231741076Y-95823674D01*
X231939680Y-95986664D01*
X232166265Y-96107777D01*
X232412125Y-96182357D01*
X232603744Y-96201230D01*
X233232256Y-96201230D01*
X233423875Y-96182357D01*
X233669735Y-96107777D01*
X233817235Y-96028936D01*
X230495812Y-99350360D01*
X230495812Y-96858182D01*
X230497891Y-96837075D01*
X230495131Y-96809053D01*
X230489593Y-96752820D01*
X230465016Y-96671802D01*
X230449835Y-96643400D01*
X230425106Y-96597135D01*
X230384853Y-96548087D01*
X230371397Y-96531690D01*
X230354999Y-96518233D01*
X229448986Y-95612221D01*
X229435523Y-95595816D01*
X229370077Y-95542107D01*
X229363267Y-95538467D01*
X229227200Y-95402400D01*
X228455400Y-95402400D01*
X228455400Y-95422400D01*
X227896600Y-95422400D01*
X227896600Y-95402400D01*
X227124800Y-95402400D01*
X227055799Y-95471401D01*
X226882274Y-95471401D01*
X226882274Y-94694440D01*
X226911848Y-94678633D01*
X226976130Y-94625878D01*
X226971489Y-94673000D01*
X226974400Y-94693200D01*
X227124800Y-94843600D01*
X227896600Y-94843600D01*
X227896600Y-94823600D01*
X228455400Y-94823600D01*
X228455400Y-94843600D01*
X229227200Y-94843600D01*
X229377600Y-94693200D01*
X229380511Y-94673000D01*
X229368895Y-94555066D01*
X229334495Y-94441664D01*
X229278633Y-94337152D01*
X229203454Y-94245546D01*
X229111848Y-94170367D01*
X229084595Y-94155800D01*
X230453972Y-94155800D01*
X231374920Y-95076749D01*
X231374920Y-95076749D01*
G37*
X231374920Y-95076749D02*
X231382393Y-95152625D01*
X231456973Y-95398485D01*
X231578086Y-95625070D01*
X231741076Y-95823674D01*
X231939680Y-95986664D01*
X232166265Y-96107777D01*
X232412125Y-96182357D01*
X232603744Y-96201230D01*
X233232256Y-96201230D01*
X233423875Y-96182357D01*
X233669735Y-96107777D01*
X233817235Y-96028936D01*
X230495812Y-99350360D01*
X230495812Y-96858182D01*
X230497891Y-96837075D01*
X230495131Y-96809053D01*
X230489593Y-96752820D01*
X230465016Y-96671802D01*
X230449835Y-96643400D01*
X230425106Y-96597135D01*
X230384853Y-96548087D01*
X230371397Y-96531690D01*
X230354999Y-96518233D01*
X229448986Y-95612221D01*
X229435523Y-95595816D01*
X229370077Y-95542107D01*
X229363267Y-95538467D01*
X229227200Y-95402400D01*
X228455400Y-95402400D01*
X228455400Y-95422400D01*
X227896600Y-95422400D01*
X227896600Y-95402400D01*
X227124800Y-95402400D01*
X227055799Y-95471401D01*
X226882274Y-95471401D01*
X226882274Y-94694440D01*
X226911848Y-94678633D01*
X226976130Y-94625878D01*
X226971489Y-94673000D01*
X226974400Y-94693200D01*
X227124800Y-94843600D01*
X227896600Y-94843600D01*
X227896600Y-94823600D01*
X228455400Y-94823600D01*
X228455400Y-94843600D01*
X229227200Y-94843600D01*
X229377600Y-94693200D01*
X229380511Y-94673000D01*
X229368895Y-94555066D01*
X229334495Y-94441664D01*
X229278633Y-94337152D01*
X229203454Y-94245546D01*
X229111848Y-94170367D01*
X229084595Y-94155800D01*
X230453972Y-94155800D01*
X231374920Y-95076749D01*
G36*
X220459400Y-96018600D02*
G01*
X220504726Y-96018600D01*
X220504726Y-96291857D01*
X220504121Y-96298000D01*
X220504726Y-96304143D01*
X220504726Y-96577400D01*
X220459400Y-96577400D01*
X220459400Y-96597400D01*
X220412600Y-96597400D01*
X220412600Y-96577400D01*
X220367274Y-96577400D01*
X220367274Y-96018600D01*
X220412600Y-96018600D01*
X220412600Y-95998600D01*
X220459400Y-95998600D01*
X220459400Y-96018600D01*
X220459400Y-96018600D01*
G37*
X220459400Y-96018600D02*
X220504726Y-96018600D01*
X220504726Y-96291857D01*
X220504121Y-96298000D01*
X220504726Y-96304143D01*
X220504726Y-96577400D01*
X220459400Y-96577400D01*
X220459400Y-96597400D01*
X220412600Y-96597400D01*
X220412600Y-96577400D01*
X220367274Y-96577400D01*
X220367274Y-96018600D01*
X220412600Y-96018600D01*
X220412600Y-95998600D01*
X220459400Y-95998600D01*
X220459400Y-96018600D01*
G36*
X211088400Y-84495200D02*
G01*
X211238800Y-84645600D01*
X211810600Y-84645600D01*
X211810600Y-84625600D01*
X212369400Y-84625600D01*
X212369400Y-84645600D01*
X212941200Y-84645600D01*
X213091600Y-84495200D01*
X213088175Y-84464800D01*
X213178365Y-84464800D01*
X213175489Y-84494000D01*
X213178400Y-84914200D01*
X213328800Y-85064600D01*
X214350600Y-85064600D01*
X214350600Y-85044600D01*
X214909400Y-85044600D01*
X214909400Y-85064600D01*
X214929400Y-85064600D01*
X214929400Y-85623400D01*
X214909400Y-85623400D01*
X214909400Y-86645200D01*
X215051361Y-86787161D01*
X215028040Y-86830794D01*
X215010611Y-86888249D01*
X215004726Y-86948000D01*
X215004726Y-87066698D01*
X214898040Y-86960012D01*
X214884584Y-86943616D01*
X214819139Y-86889906D01*
X214744472Y-86849996D01*
X214663455Y-86825420D01*
X214642957Y-86823401D01*
X214579200Y-86817121D01*
X214579199Y-86817121D01*
X214515443Y-86823401D01*
X212796274Y-86823401D01*
X212796274Y-86194000D01*
X213175489Y-86194000D01*
X213187105Y-86311934D01*
X213221505Y-86425336D01*
X213277367Y-86529848D01*
X213352546Y-86621454D01*
X213444152Y-86696633D01*
X213548664Y-86752495D01*
X213662066Y-86786895D01*
X213780000Y-86798511D01*
X214200200Y-86795600D01*
X214350600Y-86645200D01*
X214350600Y-85623400D01*
X213328800Y-85623400D01*
X213178400Y-85773800D01*
X213175489Y-86194000D01*
X212796274Y-86194000D01*
X212796274Y-86125000D01*
X212790389Y-86065249D01*
X212772960Y-86007794D01*
X212744658Y-85954843D01*
X212706568Y-85908432D01*
X212688995Y-85894009D01*
X212709412Y-85888287D01*
X212815088Y-85834658D01*
X212908271Y-85761443D01*
X212985380Y-85671457D01*
X213043452Y-85568156D01*
X213080255Y-85455511D01*
X213091600Y-85354800D01*
X212941200Y-85204400D01*
X212369400Y-85204400D01*
X212369400Y-85224400D01*
X211810600Y-85224400D01*
X211810600Y-85204400D01*
X211380056Y-85204400D01*
X211356335Y-85180679D01*
X211342806Y-85164194D01*
X211277056Y-85110234D01*
X211202042Y-85070139D01*
X211120648Y-85045448D01*
X211057210Y-85039200D01*
X211036000Y-85037111D01*
X211014790Y-85039200D01*
X210018063Y-85039200D01*
X210017261Y-85039121D01*
X210016459Y-85039200D01*
X209996052Y-85039200D01*
X209932614Y-85045448D01*
X209851220Y-85070139D01*
X209776206Y-85110234D01*
X209710456Y-85164194D01*
X209683988Y-85196445D01*
X209261015Y-85619419D01*
X209244616Y-85632877D01*
X209231160Y-85649274D01*
X209190906Y-85698323D01*
X209150996Y-85772990D01*
X209126420Y-85854007D01*
X209118121Y-85938262D01*
X209119010Y-85947286D01*
X209050000Y-85940489D01*
X208879800Y-85943400D01*
X208729400Y-86093800D01*
X208729400Y-86715600D01*
X208749400Y-86715600D01*
X208749400Y-87274400D01*
X208729400Y-87274400D01*
X208729400Y-87294400D01*
X208170600Y-87294400D01*
X208170600Y-87274400D01*
X207398800Y-87274400D01*
X207248400Y-87424800D01*
X207245489Y-87445000D01*
X207257105Y-87562934D01*
X207291505Y-87676336D01*
X207347367Y-87780848D01*
X207422546Y-87872454D01*
X207514152Y-87947633D01*
X207541405Y-87962200D01*
X198672516Y-87962200D01*
X198632537Y-87922221D01*
X198533480Y-87856034D01*
X198423414Y-87810442D01*
X198306568Y-87787200D01*
X198187432Y-87787200D01*
X198070586Y-87810442D01*
X197960520Y-87856034D01*
X197861463Y-87922221D01*
X197777221Y-88006463D01*
X197711034Y-88105520D01*
X197665442Y-88215586D01*
X197642200Y-88332432D01*
X197642200Y-88451568D01*
X197665442Y-88568414D01*
X197711034Y-88678480D01*
X197777221Y-88777537D01*
X197861463Y-88861779D01*
X197960520Y-88927966D01*
X198070586Y-88973558D01*
X198187432Y-88996800D01*
X198306568Y-88996800D01*
X198423414Y-88973558D01*
X198533480Y-88927966D01*
X198632537Y-88861779D01*
X198672516Y-88821800D01*
X207541405Y-88821800D01*
X207514152Y-88836367D01*
X207422546Y-88911546D01*
X207347367Y-89003152D01*
X207291505Y-89107664D01*
X207257105Y-89221066D01*
X207245489Y-89339000D01*
X207248400Y-89359200D01*
X207398800Y-89509600D01*
X208170600Y-89509600D01*
X208170600Y-89489600D01*
X208729400Y-89489600D01*
X208729400Y-89509600D01*
X208749400Y-89509600D01*
X208749400Y-90068400D01*
X208729400Y-90068400D01*
X208729400Y-90088400D01*
X208170600Y-90088400D01*
X208170600Y-90068400D01*
X207398800Y-90068400D01*
X207248400Y-90218800D01*
X207245489Y-90239000D01*
X207257105Y-90356934D01*
X207291505Y-90470336D01*
X207347367Y-90574848D01*
X207422546Y-90666454D01*
X207514152Y-90741633D01*
X207543726Y-90757440D01*
X207543726Y-91636000D01*
X207549611Y-91695751D01*
X207567040Y-91753206D01*
X207595342Y-91806157D01*
X207609165Y-91823000D01*
X206597875Y-91823000D01*
X206597895Y-91822934D01*
X206609511Y-91705000D01*
X206606600Y-91234800D01*
X206456200Y-91084400D01*
X205384400Y-91084400D01*
X205384400Y-91104400D01*
X204825600Y-91104400D01*
X204825600Y-91084400D01*
X204805600Y-91084400D01*
X204805600Y-90525600D01*
X204825600Y-90525600D01*
X204825600Y-89453800D01*
X205384400Y-89453800D01*
X205384400Y-90525600D01*
X206456200Y-90525600D01*
X206606600Y-90375200D01*
X206609511Y-89905000D01*
X206597895Y-89787066D01*
X206563495Y-89673664D01*
X206507633Y-89569152D01*
X206432454Y-89477546D01*
X206340848Y-89402367D01*
X206236336Y-89346505D01*
X206122934Y-89312105D01*
X206005000Y-89300489D01*
X205534800Y-89303400D01*
X205384400Y-89453800D01*
X204825600Y-89453800D01*
X204675200Y-89303400D01*
X204205000Y-89300489D01*
X204087066Y-89312105D01*
X203973664Y-89346505D01*
X203869152Y-89402367D01*
X203777546Y-89477546D01*
X203702367Y-89569152D01*
X203646505Y-89673664D01*
X203612105Y-89787066D01*
X203600489Y-89905000D01*
X203602246Y-90188765D01*
X203500830Y-90036984D01*
X203333016Y-89869170D01*
X203135687Y-89737320D01*
X202916427Y-89646499D01*
X202683662Y-89600200D01*
X202446338Y-89600200D01*
X202213573Y-89646499D01*
X201994313Y-89737320D01*
X201796984Y-89869170D01*
X201629170Y-90036984D01*
X201497320Y-90234313D01*
X201406499Y-90453573D01*
X201360200Y-90686338D01*
X201360200Y-90923662D01*
X201406499Y-91156427D01*
X201464857Y-91297315D01*
X201387015Y-91375157D01*
X201370616Y-91388615D01*
X201357160Y-91405012D01*
X201316906Y-91454061D01*
X201276996Y-91528728D01*
X201252420Y-91609745D01*
X201244121Y-91694000D01*
X201246201Y-91715117D01*
X201246201Y-92481726D01*
X201226000Y-92481726D01*
X201166249Y-92487611D01*
X201108794Y-92505040D01*
X201055843Y-92533342D01*
X201009432Y-92571432D01*
X200971342Y-92617843D01*
X200943040Y-92670794D01*
X200925611Y-92728249D01*
X200919726Y-92788000D01*
X200919726Y-93988000D01*
X200925611Y-94047751D01*
X200943040Y-94105206D01*
X200971342Y-94158157D01*
X201009432Y-94204568D01*
X201055843Y-94242658D01*
X201108794Y-94270960D01*
X201166249Y-94288389D01*
X201226000Y-94294274D01*
X202126000Y-94294274D01*
X202185751Y-94288389D01*
X202231730Y-94274441D01*
X201824446Y-94681726D01*
X201226000Y-94681726D01*
X201166249Y-94687611D01*
X201108794Y-94705040D01*
X201055843Y-94733342D01*
X201009432Y-94771432D01*
X200971342Y-94817843D01*
X200943040Y-94870794D01*
X200925611Y-94928249D01*
X200919726Y-94988000D01*
X200919726Y-96086401D01*
X200600230Y-96086401D01*
X200400274Y-95886445D01*
X200400274Y-95289555D01*
X200707987Y-94981842D01*
X200724386Y-94968384D01*
X200762151Y-94922366D01*
X200778095Y-94902939D01*
X200818005Y-94828272D01*
X200821169Y-94817843D01*
X200842582Y-94747254D01*
X200848801Y-94684108D01*
X200848801Y-94684106D01*
X200850880Y-94662999D01*
X200848801Y-94641892D01*
X200848801Y-92370108D01*
X200850880Y-92349001D01*
X200848171Y-92321495D01*
X200842582Y-92264746D01*
X200818005Y-92183728D01*
X200813739Y-92175747D01*
X200778095Y-92109061D01*
X200746979Y-92071146D01*
X200724386Y-92043616D01*
X200707988Y-92030159D01*
X200563741Y-91885913D01*
X200595687Y-91872680D01*
X200793016Y-91740830D01*
X200960830Y-91573016D01*
X201092680Y-91375687D01*
X201183501Y-91156427D01*
X201229800Y-90923662D01*
X201229800Y-90686338D01*
X201183501Y-90453573D01*
X201092680Y-90234313D01*
X200960830Y-90036984D01*
X200793016Y-89869170D01*
X200595687Y-89737320D01*
X200376427Y-89646499D01*
X200143662Y-89600200D01*
X199906338Y-89600200D01*
X199673573Y-89646499D01*
X199454313Y-89737320D01*
X199256984Y-89869170D01*
X199089170Y-90036984D01*
X198987754Y-90188765D01*
X198989511Y-89905000D01*
X198977895Y-89787066D01*
X198943495Y-89673664D01*
X198887633Y-89569152D01*
X198812454Y-89477546D01*
X198720848Y-89402367D01*
X198616336Y-89346505D01*
X198502934Y-89312105D01*
X198385000Y-89300489D01*
X197914800Y-89303400D01*
X197764400Y-89453800D01*
X197764400Y-90525600D01*
X197784400Y-90525600D01*
X197784400Y-91084400D01*
X197764400Y-91084400D01*
X197764400Y-91104400D01*
X197205600Y-91104400D01*
X197205600Y-91084400D01*
X197185600Y-91084400D01*
X197185600Y-90525600D01*
X197205600Y-90525600D01*
X197205600Y-89453800D01*
X197055200Y-89303400D01*
X196585000Y-89300489D01*
X196467066Y-89312105D01*
X196353664Y-89346505D01*
X196334800Y-89356588D01*
X196334800Y-86545000D01*
X207245489Y-86545000D01*
X207248400Y-86565200D01*
X207398800Y-86715600D01*
X208170600Y-86715600D01*
X208170600Y-86093800D01*
X208020200Y-85943400D01*
X207850000Y-85940489D01*
X207732066Y-85952105D01*
X207618664Y-85986505D01*
X207514152Y-86042367D01*
X207422546Y-86117546D01*
X207347367Y-86209152D01*
X207291505Y-86313664D01*
X207257105Y-86427066D01*
X207245489Y-86545000D01*
X196334800Y-86545000D01*
X196334800Y-84527356D01*
X196337331Y-84501548D01*
X196339783Y-84493427D01*
X196343768Y-84485930D01*
X196349137Y-84479348D01*
X196355675Y-84473939D01*
X196363142Y-84469901D01*
X196371258Y-84467389D01*
X196395893Y-84464800D01*
X211091825Y-84464800D01*
X211088400Y-84495200D01*
X211088400Y-84495200D01*
G37*
X211088400Y-84495200D02*
X211238800Y-84645600D01*
X211810600Y-84645600D01*
X211810600Y-84625600D01*
X212369400Y-84625600D01*
X212369400Y-84645600D01*
X212941200Y-84645600D01*
X213091600Y-84495200D01*
X213088175Y-84464800D01*
X213178365Y-84464800D01*
X213175489Y-84494000D01*
X213178400Y-84914200D01*
X213328800Y-85064600D01*
X214350600Y-85064600D01*
X214350600Y-85044600D01*
X214909400Y-85044600D01*
X214909400Y-85064600D01*
X214929400Y-85064600D01*
X214929400Y-85623400D01*
X214909400Y-85623400D01*
X214909400Y-86645200D01*
X215051361Y-86787161D01*
X215028040Y-86830794D01*
X215010611Y-86888249D01*
X215004726Y-86948000D01*
X215004726Y-87066698D01*
X214898040Y-86960012D01*
X214884584Y-86943616D01*
X214819139Y-86889906D01*
X214744472Y-86849996D01*
X214663455Y-86825420D01*
X214642957Y-86823401D01*
X214579200Y-86817121D01*
X214579199Y-86817121D01*
X214515443Y-86823401D01*
X212796274Y-86823401D01*
X212796274Y-86194000D01*
X213175489Y-86194000D01*
X213187105Y-86311934D01*
X213221505Y-86425336D01*
X213277367Y-86529848D01*
X213352546Y-86621454D01*
X213444152Y-86696633D01*
X213548664Y-86752495D01*
X213662066Y-86786895D01*
X213780000Y-86798511D01*
X214200200Y-86795600D01*
X214350600Y-86645200D01*
X214350600Y-85623400D01*
X213328800Y-85623400D01*
X213178400Y-85773800D01*
X213175489Y-86194000D01*
X212796274Y-86194000D01*
X212796274Y-86125000D01*
X212790389Y-86065249D01*
X212772960Y-86007794D01*
X212744658Y-85954843D01*
X212706568Y-85908432D01*
X212688995Y-85894009D01*
X212709412Y-85888287D01*
X212815088Y-85834658D01*
X212908271Y-85761443D01*
X212985380Y-85671457D01*
X213043452Y-85568156D01*
X213080255Y-85455511D01*
X213091600Y-85354800D01*
X212941200Y-85204400D01*
X212369400Y-85204400D01*
X212369400Y-85224400D01*
X211810600Y-85224400D01*
X211810600Y-85204400D01*
X211380056Y-85204400D01*
X211356335Y-85180679D01*
X211342806Y-85164194D01*
X211277056Y-85110234D01*
X211202042Y-85070139D01*
X211120648Y-85045448D01*
X211057210Y-85039200D01*
X211036000Y-85037111D01*
X211014790Y-85039200D01*
X210018063Y-85039200D01*
X210017261Y-85039121D01*
X210016459Y-85039200D01*
X209996052Y-85039200D01*
X209932614Y-85045448D01*
X209851220Y-85070139D01*
X209776206Y-85110234D01*
X209710456Y-85164194D01*
X209683988Y-85196445D01*
X209261015Y-85619419D01*
X209244616Y-85632877D01*
X209231160Y-85649274D01*
X209190906Y-85698323D01*
X209150996Y-85772990D01*
X209126420Y-85854007D01*
X209118121Y-85938262D01*
X209119010Y-85947286D01*
X209050000Y-85940489D01*
X208879800Y-85943400D01*
X208729400Y-86093800D01*
X208729400Y-86715600D01*
X208749400Y-86715600D01*
X208749400Y-87274400D01*
X208729400Y-87274400D01*
X208729400Y-87294400D01*
X208170600Y-87294400D01*
X208170600Y-87274400D01*
X207398800Y-87274400D01*
X207248400Y-87424800D01*
X207245489Y-87445000D01*
X207257105Y-87562934D01*
X207291505Y-87676336D01*
X207347367Y-87780848D01*
X207422546Y-87872454D01*
X207514152Y-87947633D01*
X207541405Y-87962200D01*
X198672516Y-87962200D01*
X198632537Y-87922221D01*
X198533480Y-87856034D01*
X198423414Y-87810442D01*
X198306568Y-87787200D01*
X198187432Y-87787200D01*
X198070586Y-87810442D01*
X197960520Y-87856034D01*
X197861463Y-87922221D01*
X197777221Y-88006463D01*
X197711034Y-88105520D01*
X197665442Y-88215586D01*
X197642200Y-88332432D01*
X197642200Y-88451568D01*
X197665442Y-88568414D01*
X197711034Y-88678480D01*
X197777221Y-88777537D01*
X197861463Y-88861779D01*
X197960520Y-88927966D01*
X198070586Y-88973558D01*
X198187432Y-88996800D01*
X198306568Y-88996800D01*
X198423414Y-88973558D01*
X198533480Y-88927966D01*
X198632537Y-88861779D01*
X198672516Y-88821800D01*
X207541405Y-88821800D01*
X207514152Y-88836367D01*
X207422546Y-88911546D01*
X207347367Y-89003152D01*
X207291505Y-89107664D01*
X207257105Y-89221066D01*
X207245489Y-89339000D01*
X207248400Y-89359200D01*
X207398800Y-89509600D01*
X208170600Y-89509600D01*
X208170600Y-89489600D01*
X208729400Y-89489600D01*
X208729400Y-89509600D01*
X208749400Y-89509600D01*
X208749400Y-90068400D01*
X208729400Y-90068400D01*
X208729400Y-90088400D01*
X208170600Y-90088400D01*
X208170600Y-90068400D01*
X207398800Y-90068400D01*
X207248400Y-90218800D01*
X207245489Y-90239000D01*
X207257105Y-90356934D01*
X207291505Y-90470336D01*
X207347367Y-90574848D01*
X207422546Y-90666454D01*
X207514152Y-90741633D01*
X207543726Y-90757440D01*
X207543726Y-91636000D01*
X207549611Y-91695751D01*
X207567040Y-91753206D01*
X207595342Y-91806157D01*
X207609165Y-91823000D01*
X206597875Y-91823000D01*
X206597895Y-91822934D01*
X206609511Y-91705000D01*
X206606600Y-91234800D01*
X206456200Y-91084400D01*
X205384400Y-91084400D01*
X205384400Y-91104400D01*
X204825600Y-91104400D01*
X204825600Y-91084400D01*
X204805600Y-91084400D01*
X204805600Y-90525600D01*
X204825600Y-90525600D01*
X204825600Y-89453800D01*
X205384400Y-89453800D01*
X205384400Y-90525600D01*
X206456200Y-90525600D01*
X206606600Y-90375200D01*
X206609511Y-89905000D01*
X206597895Y-89787066D01*
X206563495Y-89673664D01*
X206507633Y-89569152D01*
X206432454Y-89477546D01*
X206340848Y-89402367D01*
X206236336Y-89346505D01*
X206122934Y-89312105D01*
X206005000Y-89300489D01*
X205534800Y-89303400D01*
X205384400Y-89453800D01*
X204825600Y-89453800D01*
X204675200Y-89303400D01*
X204205000Y-89300489D01*
X204087066Y-89312105D01*
X203973664Y-89346505D01*
X203869152Y-89402367D01*
X203777546Y-89477546D01*
X203702367Y-89569152D01*
X203646505Y-89673664D01*
X203612105Y-89787066D01*
X203600489Y-89905000D01*
X203602246Y-90188765D01*
X203500830Y-90036984D01*
X203333016Y-89869170D01*
X203135687Y-89737320D01*
X202916427Y-89646499D01*
X202683662Y-89600200D01*
X202446338Y-89600200D01*
X202213573Y-89646499D01*
X201994313Y-89737320D01*
X201796984Y-89869170D01*
X201629170Y-90036984D01*
X201497320Y-90234313D01*
X201406499Y-90453573D01*
X201360200Y-90686338D01*
X201360200Y-90923662D01*
X201406499Y-91156427D01*
X201464857Y-91297315D01*
X201387015Y-91375157D01*
X201370616Y-91388615D01*
X201357160Y-91405012D01*
X201316906Y-91454061D01*
X201276996Y-91528728D01*
X201252420Y-91609745D01*
X201244121Y-91694000D01*
X201246201Y-91715117D01*
X201246201Y-92481726D01*
X201226000Y-92481726D01*
X201166249Y-92487611D01*
X201108794Y-92505040D01*
X201055843Y-92533342D01*
X201009432Y-92571432D01*
X200971342Y-92617843D01*
X200943040Y-92670794D01*
X200925611Y-92728249D01*
X200919726Y-92788000D01*
X200919726Y-93988000D01*
X200925611Y-94047751D01*
X200943040Y-94105206D01*
X200971342Y-94158157D01*
X201009432Y-94204568D01*
X201055843Y-94242658D01*
X201108794Y-94270960D01*
X201166249Y-94288389D01*
X201226000Y-94294274D01*
X202126000Y-94294274D01*
X202185751Y-94288389D01*
X202231730Y-94274441D01*
X201824446Y-94681726D01*
X201226000Y-94681726D01*
X201166249Y-94687611D01*
X201108794Y-94705040D01*
X201055843Y-94733342D01*
X201009432Y-94771432D01*
X200971342Y-94817843D01*
X200943040Y-94870794D01*
X200925611Y-94928249D01*
X200919726Y-94988000D01*
X200919726Y-96086401D01*
X200600230Y-96086401D01*
X200400274Y-95886445D01*
X200400274Y-95289555D01*
X200707987Y-94981842D01*
X200724386Y-94968384D01*
X200762151Y-94922366D01*
X200778095Y-94902939D01*
X200818005Y-94828272D01*
X200821169Y-94817843D01*
X200842582Y-94747254D01*
X200848801Y-94684108D01*
X200848801Y-94684106D01*
X200850880Y-94662999D01*
X200848801Y-94641892D01*
X200848801Y-92370108D01*
X200850880Y-92349001D01*
X200848171Y-92321495D01*
X200842582Y-92264746D01*
X200818005Y-92183728D01*
X200813739Y-92175747D01*
X200778095Y-92109061D01*
X200746979Y-92071146D01*
X200724386Y-92043616D01*
X200707988Y-92030159D01*
X200563741Y-91885913D01*
X200595687Y-91872680D01*
X200793016Y-91740830D01*
X200960830Y-91573016D01*
X201092680Y-91375687D01*
X201183501Y-91156427D01*
X201229800Y-90923662D01*
X201229800Y-90686338D01*
X201183501Y-90453573D01*
X201092680Y-90234313D01*
X200960830Y-90036984D01*
X200793016Y-89869170D01*
X200595687Y-89737320D01*
X200376427Y-89646499D01*
X200143662Y-89600200D01*
X199906338Y-89600200D01*
X199673573Y-89646499D01*
X199454313Y-89737320D01*
X199256984Y-89869170D01*
X199089170Y-90036984D01*
X198987754Y-90188765D01*
X198989511Y-89905000D01*
X198977895Y-89787066D01*
X198943495Y-89673664D01*
X198887633Y-89569152D01*
X198812454Y-89477546D01*
X198720848Y-89402367D01*
X198616336Y-89346505D01*
X198502934Y-89312105D01*
X198385000Y-89300489D01*
X197914800Y-89303400D01*
X197764400Y-89453800D01*
X197764400Y-90525600D01*
X197784400Y-90525600D01*
X197784400Y-91084400D01*
X197764400Y-91084400D01*
X197764400Y-91104400D01*
X197205600Y-91104400D01*
X197205600Y-91084400D01*
X197185600Y-91084400D01*
X197185600Y-90525600D01*
X197205600Y-90525600D01*
X197205600Y-89453800D01*
X197055200Y-89303400D01*
X196585000Y-89300489D01*
X196467066Y-89312105D01*
X196353664Y-89346505D01*
X196334800Y-89356588D01*
X196334800Y-86545000D01*
X207245489Y-86545000D01*
X207248400Y-86565200D01*
X207398800Y-86715600D01*
X208170600Y-86715600D01*
X208170600Y-86093800D01*
X208020200Y-85943400D01*
X207850000Y-85940489D01*
X207732066Y-85952105D01*
X207618664Y-85986505D01*
X207514152Y-86042367D01*
X207422546Y-86117546D01*
X207347367Y-86209152D01*
X207291505Y-86313664D01*
X207257105Y-86427066D01*
X207245489Y-86545000D01*
X196334800Y-86545000D01*
X196334800Y-84527356D01*
X196337331Y-84501548D01*
X196339783Y-84493427D01*
X196343768Y-84485930D01*
X196349137Y-84479348D01*
X196355675Y-84473939D01*
X196363142Y-84469901D01*
X196371258Y-84467389D01*
X196395893Y-84464800D01*
X211091825Y-84464800D01*
X211088400Y-84495200D01*
G36*
X205770200Y-93785568D02*
G01*
X205793442Y-93902414D01*
X205839034Y-94012480D01*
X205905221Y-94111537D01*
X205989463Y-94195779D01*
X206088520Y-94261966D01*
X206198586Y-94307558D01*
X206315432Y-94330800D01*
X206434568Y-94330800D01*
X206551414Y-94307558D01*
X206661480Y-94261966D01*
X206760537Y-94195779D01*
X206800516Y-94155800D01*
X207541405Y-94155800D01*
X207514152Y-94170367D01*
X207422546Y-94245546D01*
X207347367Y-94337152D01*
X207291505Y-94441664D01*
X207257105Y-94555066D01*
X207245489Y-94673000D01*
X207248400Y-94693200D01*
X207398800Y-94843600D01*
X208170600Y-94843600D01*
X208170600Y-94823600D01*
X208729400Y-94823600D01*
X208729400Y-94843600D01*
X209501200Y-94843600D01*
X209651600Y-94693200D01*
X209654511Y-94673000D01*
X209649870Y-94625878D01*
X209714152Y-94678633D01*
X209743726Y-94694440D01*
X209743726Y-95496801D01*
X209595601Y-95496801D01*
X209501200Y-95402400D01*
X208729400Y-95402400D01*
X208729400Y-95422400D01*
X208170600Y-95422400D01*
X208170600Y-95402400D01*
X207398800Y-95402400D01*
X207304399Y-95496801D01*
X205846505Y-95496801D01*
X205825398Y-95494722D01*
X205804291Y-95496801D01*
X205804290Y-95496801D01*
X205741144Y-95503020D01*
X205660126Y-95527597D01*
X205624610Y-95546581D01*
X205585459Y-95567507D01*
X205582502Y-95569934D01*
X205559558Y-95454586D01*
X205513966Y-95344520D01*
X205447779Y-95245463D01*
X205363537Y-95161221D01*
X205264480Y-95095034D01*
X205154414Y-95049442D01*
X205037568Y-95026200D01*
X204918432Y-95026200D01*
X204801586Y-95049442D01*
X204691520Y-95095034D01*
X204592463Y-95161221D01*
X204552484Y-95201200D01*
X204464274Y-95201200D01*
X204464274Y-94988000D01*
X204458389Y-94928249D01*
X204453276Y-94911393D01*
X204533673Y-94887004D01*
X204608339Y-94847094D01*
X204673785Y-94793385D01*
X204687248Y-94776980D01*
X205770200Y-93694029D01*
X205770200Y-93785568D01*
X205770200Y-93785568D01*
G37*
X205770200Y-93785568D02*
X205793442Y-93902414D01*
X205839034Y-94012480D01*
X205905221Y-94111537D01*
X205989463Y-94195779D01*
X206088520Y-94261966D01*
X206198586Y-94307558D01*
X206315432Y-94330800D01*
X206434568Y-94330800D01*
X206551414Y-94307558D01*
X206661480Y-94261966D01*
X206760537Y-94195779D01*
X206800516Y-94155800D01*
X207541405Y-94155800D01*
X207514152Y-94170367D01*
X207422546Y-94245546D01*
X207347367Y-94337152D01*
X207291505Y-94441664D01*
X207257105Y-94555066D01*
X207245489Y-94673000D01*
X207248400Y-94693200D01*
X207398800Y-94843600D01*
X208170600Y-94843600D01*
X208170600Y-94823600D01*
X208729400Y-94823600D01*
X208729400Y-94843600D01*
X209501200Y-94843600D01*
X209651600Y-94693200D01*
X209654511Y-94673000D01*
X209649870Y-94625878D01*
X209714152Y-94678633D01*
X209743726Y-94694440D01*
X209743726Y-95496801D01*
X209595601Y-95496801D01*
X209501200Y-95402400D01*
X208729400Y-95402400D01*
X208729400Y-95422400D01*
X208170600Y-95422400D01*
X208170600Y-95402400D01*
X207398800Y-95402400D01*
X207304399Y-95496801D01*
X205846505Y-95496801D01*
X205825398Y-95494722D01*
X205804291Y-95496801D01*
X205804290Y-95496801D01*
X205741144Y-95503020D01*
X205660126Y-95527597D01*
X205624610Y-95546581D01*
X205585459Y-95567507D01*
X205582502Y-95569934D01*
X205559558Y-95454586D01*
X205513966Y-95344520D01*
X205447779Y-95245463D01*
X205363537Y-95161221D01*
X205264480Y-95095034D01*
X205154414Y-95049442D01*
X205037568Y-95026200D01*
X204918432Y-95026200D01*
X204801586Y-95049442D01*
X204691520Y-95095034D01*
X204592463Y-95161221D01*
X204552484Y-95201200D01*
X204464274Y-95201200D01*
X204464274Y-94988000D01*
X204458389Y-94928249D01*
X204453276Y-94911393D01*
X204533673Y-94887004D01*
X204608339Y-94847094D01*
X204673785Y-94793385D01*
X204687248Y-94776980D01*
X205770200Y-93694029D01*
X205770200Y-93785568D01*
G36*
X214115400Y-94174600D02*
G01*
X214135400Y-94174600D01*
X214135400Y-94221400D01*
X214115400Y-94221400D01*
X214115400Y-94266726D01*
X213556600Y-94266726D01*
X213556600Y-94221400D01*
X213536600Y-94221400D01*
X213536600Y-94174600D01*
X213556600Y-94174600D01*
X213556600Y-94129274D01*
X214115400Y-94129274D01*
X214115400Y-94174600D01*
X214115400Y-94174600D01*
G37*
X214115400Y-94174600D02*
X214135400Y-94174600D01*
X214135400Y-94221400D01*
X214115400Y-94221400D01*
X214115400Y-94266726D01*
X213556600Y-94266726D01*
X213556600Y-94221400D01*
X213536600Y-94221400D01*
X213536600Y-94174600D01*
X213556600Y-94174600D01*
X213556600Y-94129274D01*
X214115400Y-94129274D01*
X214115400Y-94174600D01*
G36*
X224783105Y-93158066D02*
G01*
X224771489Y-93276000D01*
X224774400Y-93296200D01*
X224924800Y-93446600D01*
X225696600Y-93446600D01*
X225696600Y-93426600D01*
X226255400Y-93426600D01*
X226255400Y-93446600D01*
X227027200Y-93446600D01*
X227177600Y-93296200D01*
X227180511Y-93276000D01*
X227168895Y-93158066D01*
X227159714Y-93127800D01*
X227309606Y-93127800D01*
X227293040Y-93158794D01*
X227275611Y-93216249D01*
X227269726Y-93276000D01*
X227269726Y-94154560D01*
X227240152Y-94170367D01*
X227175870Y-94223122D01*
X227180511Y-94176000D01*
X227177600Y-94155800D01*
X227027200Y-94005400D01*
X226255400Y-94005400D01*
X226255400Y-94025400D01*
X225696600Y-94025400D01*
X225696600Y-94005400D01*
X225163199Y-94005400D01*
X225137157Y-93991480D01*
X225056139Y-93966903D01*
X224992993Y-93960684D01*
X224992991Y-93960684D01*
X224971884Y-93958605D01*
X224950777Y-93960684D01*
X224900247Y-93960684D01*
X224841227Y-93872354D01*
X224728014Y-93759141D01*
X224594889Y-93670190D01*
X224446969Y-93608919D01*
X224289938Y-93577684D01*
X224129830Y-93577684D01*
X223972799Y-93608919D01*
X223824879Y-93670190D01*
X223691754Y-93759141D01*
X223578541Y-93872354D01*
X223489590Y-94005479D01*
X223486382Y-94013225D01*
X223468960Y-93955794D01*
X223464794Y-93948000D01*
X223468960Y-93940206D01*
X223486389Y-93882751D01*
X223492274Y-93823000D01*
X223492274Y-93573000D01*
X223486389Y-93513249D01*
X223468960Y-93455794D01*
X223464794Y-93448000D01*
X223468960Y-93440206D01*
X223486389Y-93382751D01*
X223492274Y-93323000D01*
X223492274Y-93127800D01*
X224792286Y-93127800D01*
X224783105Y-93158066D01*
X224783105Y-93158066D01*
G37*
X224783105Y-93158066D02*
X224771489Y-93276000D01*
X224774400Y-93296200D01*
X224924800Y-93446600D01*
X225696600Y-93446600D01*
X225696600Y-93426600D01*
X226255400Y-93426600D01*
X226255400Y-93446600D01*
X227027200Y-93446600D01*
X227177600Y-93296200D01*
X227180511Y-93276000D01*
X227168895Y-93158066D01*
X227159714Y-93127800D01*
X227309606Y-93127800D01*
X227293040Y-93158794D01*
X227275611Y-93216249D01*
X227269726Y-93276000D01*
X227269726Y-94154560D01*
X227240152Y-94170367D01*
X227175870Y-94223122D01*
X227180511Y-94176000D01*
X227177600Y-94155800D01*
X227027200Y-94005400D01*
X226255400Y-94005400D01*
X226255400Y-94025400D01*
X225696600Y-94025400D01*
X225696600Y-94005400D01*
X225163199Y-94005400D01*
X225137157Y-93991480D01*
X225056139Y-93966903D01*
X224992993Y-93960684D01*
X224992991Y-93960684D01*
X224971884Y-93958605D01*
X224950777Y-93960684D01*
X224900247Y-93960684D01*
X224841227Y-93872354D01*
X224728014Y-93759141D01*
X224594889Y-93670190D01*
X224446969Y-93608919D01*
X224289938Y-93577684D01*
X224129830Y-93577684D01*
X223972799Y-93608919D01*
X223824879Y-93670190D01*
X223691754Y-93759141D01*
X223578541Y-93872354D01*
X223489590Y-94005479D01*
X223486382Y-94013225D01*
X223468960Y-93955794D01*
X223464794Y-93948000D01*
X223468960Y-93940206D01*
X223486389Y-93882751D01*
X223492274Y-93823000D01*
X223492274Y-93573000D01*
X223486389Y-93513249D01*
X223468960Y-93455794D01*
X223464794Y-93448000D01*
X223468960Y-93440206D01*
X223486389Y-93382751D01*
X223492274Y-93323000D01*
X223492274Y-93127800D01*
X224792286Y-93127800D01*
X224783105Y-93158066D01*
G36*
X209598800Y-93446600D02*
G01*
X210370600Y-93446600D01*
X210370600Y-93426600D01*
X210929400Y-93426600D01*
X210929400Y-93446600D01*
X211403534Y-93446600D01*
X211443914Y-93486980D01*
X211457377Y-93503385D01*
X211501467Y-93539568D01*
X211522822Y-93557094D01*
X211557183Y-93575460D01*
X211597489Y-93597004D01*
X211678507Y-93621581D01*
X211741653Y-93627800D01*
X211741655Y-93627800D01*
X211762762Y-93629879D01*
X211783869Y-93627800D01*
X212778542Y-93627800D01*
X212769653Y-93634721D01*
X212692149Y-93724368D01*
X212633623Y-93827412D01*
X212603387Y-93918598D01*
X212584400Y-93918598D01*
X212584400Y-93974684D01*
X212526337Y-93916621D01*
X212427280Y-93850434D01*
X212317214Y-93804842D01*
X212200368Y-93781600D01*
X212081232Y-93781600D01*
X211964386Y-93804842D01*
X211854320Y-93850434D01*
X211755263Y-93916621D01*
X211671021Y-94000863D01*
X211667990Y-94005400D01*
X210929400Y-94005400D01*
X210929400Y-94025400D01*
X210370600Y-94025400D01*
X210370600Y-94005400D01*
X209598800Y-94005400D01*
X209448400Y-94155800D01*
X209445489Y-94176000D01*
X209450130Y-94223122D01*
X209385848Y-94170367D01*
X209356274Y-94154560D01*
X209356274Y-93577555D01*
X209543014Y-93390814D01*
X209598800Y-93446600D01*
X209598800Y-93446600D01*
G37*
X209598800Y-93446600D02*
X210370600Y-93446600D01*
X210370600Y-93426600D01*
X210929400Y-93426600D01*
X210929400Y-93446600D01*
X211403534Y-93446600D01*
X211443914Y-93486980D01*
X211457377Y-93503385D01*
X211501467Y-93539568D01*
X211522822Y-93557094D01*
X211557183Y-93575460D01*
X211597489Y-93597004D01*
X211678507Y-93621581D01*
X211741653Y-93627800D01*
X211741655Y-93627800D01*
X211762762Y-93629879D01*
X211783869Y-93627800D01*
X212778542Y-93627800D01*
X212769653Y-93634721D01*
X212692149Y-93724368D01*
X212633623Y-93827412D01*
X212603387Y-93918598D01*
X212584400Y-93918598D01*
X212584400Y-93974684D01*
X212526337Y-93916621D01*
X212427280Y-93850434D01*
X212317214Y-93804842D01*
X212200368Y-93781600D01*
X212081232Y-93781600D01*
X211964386Y-93804842D01*
X211854320Y-93850434D01*
X211755263Y-93916621D01*
X211671021Y-94000863D01*
X211667990Y-94005400D01*
X210929400Y-94005400D01*
X210929400Y-94025400D01*
X210370600Y-94025400D01*
X210370600Y-94005400D01*
X209598800Y-94005400D01*
X209448400Y-94155800D01*
X209445489Y-94176000D01*
X209450130Y-94223122D01*
X209385848Y-94170367D01*
X209356274Y-94154560D01*
X209356274Y-93577555D01*
X209543014Y-93390814D01*
X209598800Y-93446600D01*
G36*
X227240152Y-90868633D02*
G01*
X227269726Y-90884440D01*
X227269726Y-91763000D01*
X227270238Y-91768200D01*
X227179999Y-91768200D01*
X227180511Y-91763000D01*
X227177600Y-91742800D01*
X227027200Y-91592400D01*
X226255400Y-91592400D01*
X226255400Y-91612400D01*
X225696600Y-91612400D01*
X225696600Y-91592400D01*
X225676600Y-91592400D01*
X225676600Y-91033600D01*
X225696600Y-91033600D01*
X225696600Y-91013600D01*
X226255400Y-91013600D01*
X226255400Y-91033600D01*
X227027200Y-91033600D01*
X227177600Y-90883200D01*
X227180511Y-90863000D01*
X227175870Y-90815878D01*
X227240152Y-90868633D01*
X227240152Y-90868633D01*
G37*
X227240152Y-90868633D02*
X227269726Y-90884440D01*
X227269726Y-91763000D01*
X227270238Y-91768200D01*
X227179999Y-91768200D01*
X227180511Y-91763000D01*
X227177600Y-91742800D01*
X227027200Y-91592400D01*
X226255400Y-91592400D01*
X226255400Y-91612400D01*
X225696600Y-91612400D01*
X225696600Y-91592400D01*
X225676600Y-91592400D01*
X225676600Y-91033600D01*
X225696600Y-91033600D01*
X225696600Y-91013600D01*
X226255400Y-91013600D01*
X226255400Y-91033600D01*
X227027200Y-91033600D01*
X227177600Y-90883200D01*
X227180511Y-90863000D01*
X227175870Y-90815878D01*
X227240152Y-90868633D01*
G36*
X227124800Y-87985600D02*
G01*
X227896600Y-87985600D01*
X227896600Y-87965600D01*
X228455400Y-87965600D01*
X228455400Y-87985600D01*
X228475400Y-87985600D01*
X228475400Y-88544400D01*
X228455400Y-88544400D01*
X228455400Y-88564400D01*
X227896600Y-88564400D01*
X227896600Y-88544400D01*
X227124800Y-88544400D01*
X226974400Y-88694800D01*
X226971489Y-88715000D01*
X226983105Y-88832934D01*
X226997100Y-88879071D01*
X226693149Y-89183023D01*
X226635751Y-89165611D01*
X226576000Y-89159726D01*
X225376000Y-89159726D01*
X225316249Y-89165611D01*
X225258794Y-89183040D01*
X225205843Y-89211342D01*
X225159432Y-89249432D01*
X225121342Y-89295843D01*
X225093040Y-89348794D01*
X225075611Y-89406249D01*
X225069726Y-89466000D01*
X225069726Y-90064445D01*
X223865972Y-91268200D01*
X223684000Y-91268200D01*
X223637200Y-91221400D01*
X222815400Y-91221400D01*
X222815400Y-91266726D01*
X222256600Y-91266726D01*
X222256600Y-91221400D01*
X222236600Y-91221400D01*
X222236600Y-91174600D01*
X222256600Y-91174600D01*
X222256600Y-91129274D01*
X222509449Y-91129274D01*
X222514790Y-91129800D01*
X222815400Y-91129800D01*
X222815400Y-91174600D01*
X223637200Y-91174600D01*
X223787600Y-91024200D01*
X223775675Y-90939894D01*
X223775289Y-90938730D01*
X224187540Y-90526480D01*
X224204018Y-90512957D01*
X224257978Y-90447207D01*
X224294037Y-90379744D01*
X224415342Y-90298691D01*
X224528555Y-90185478D01*
X224617506Y-90052353D01*
X224678777Y-89904433D01*
X224710012Y-89747402D01*
X224710012Y-89587294D01*
X224678777Y-89430263D01*
X224646153Y-89351503D01*
X225118262Y-88879395D01*
X225121342Y-88885157D01*
X225159432Y-88931568D01*
X225205843Y-88969658D01*
X225258794Y-88997960D01*
X225316249Y-89015389D01*
X225376000Y-89021274D01*
X226576000Y-89021274D01*
X226635751Y-89015389D01*
X226693206Y-88997960D01*
X226746157Y-88969658D01*
X226792568Y-88931568D01*
X226830658Y-88885157D01*
X226858960Y-88832206D01*
X226876389Y-88774751D01*
X226882274Y-88715000D01*
X226882274Y-87880011D01*
X227019211Y-87880011D01*
X227124800Y-87985600D01*
X227124800Y-87985600D01*
G37*
X227124800Y-87985600D02*
X227896600Y-87985600D01*
X227896600Y-87965600D01*
X228455400Y-87965600D01*
X228455400Y-87985600D01*
X228475400Y-87985600D01*
X228475400Y-88544400D01*
X228455400Y-88544400D01*
X228455400Y-88564400D01*
X227896600Y-88564400D01*
X227896600Y-88544400D01*
X227124800Y-88544400D01*
X226974400Y-88694800D01*
X226971489Y-88715000D01*
X226983105Y-88832934D01*
X226997100Y-88879071D01*
X226693149Y-89183023D01*
X226635751Y-89165611D01*
X226576000Y-89159726D01*
X225376000Y-89159726D01*
X225316249Y-89165611D01*
X225258794Y-89183040D01*
X225205843Y-89211342D01*
X225159432Y-89249432D01*
X225121342Y-89295843D01*
X225093040Y-89348794D01*
X225075611Y-89406249D01*
X225069726Y-89466000D01*
X225069726Y-90064445D01*
X223865972Y-91268200D01*
X223684000Y-91268200D01*
X223637200Y-91221400D01*
X222815400Y-91221400D01*
X222815400Y-91266726D01*
X222256600Y-91266726D01*
X222256600Y-91221400D01*
X222236600Y-91221400D01*
X222236600Y-91174600D01*
X222256600Y-91174600D01*
X222256600Y-91129274D01*
X222509449Y-91129274D01*
X222514790Y-91129800D01*
X222815400Y-91129800D01*
X222815400Y-91174600D01*
X223637200Y-91174600D01*
X223787600Y-91024200D01*
X223775675Y-90939894D01*
X223775289Y-90938730D01*
X224187540Y-90526480D01*
X224204018Y-90512957D01*
X224257978Y-90447207D01*
X224294037Y-90379744D01*
X224415342Y-90298691D01*
X224528555Y-90185478D01*
X224617506Y-90052353D01*
X224678777Y-89904433D01*
X224710012Y-89747402D01*
X224710012Y-89587294D01*
X224678777Y-89430263D01*
X224646153Y-89351503D01*
X225118262Y-88879395D01*
X225121342Y-88885157D01*
X225159432Y-88931568D01*
X225205843Y-88969658D01*
X225258794Y-88997960D01*
X225316249Y-89015389D01*
X225376000Y-89021274D01*
X226576000Y-89021274D01*
X226635751Y-89015389D01*
X226693206Y-88997960D01*
X226746157Y-88969658D01*
X226792568Y-88931568D01*
X226830658Y-88885157D01*
X226858960Y-88832206D01*
X226876389Y-88774751D01*
X226882274Y-88715000D01*
X226882274Y-87880011D01*
X227019211Y-87880011D01*
X227124800Y-87985600D01*
G36*
X242214400Y-90525600D02*
G01*
X242234400Y-90525600D01*
X242234400Y-91084400D01*
X242214400Y-91084400D01*
X242214400Y-91104400D01*
X241655600Y-91104400D01*
X241655600Y-91084400D01*
X241635600Y-91084400D01*
X241635600Y-90525600D01*
X241655600Y-90525600D01*
X241655600Y-90505600D01*
X242214400Y-90505600D01*
X242214400Y-90525600D01*
X242214400Y-90525600D01*
G37*
X242214400Y-90525600D02*
X242234400Y-90525600D01*
X242234400Y-91084400D01*
X242214400Y-91084400D01*
X242214400Y-91104400D01*
X241655600Y-91104400D01*
X241655600Y-91084400D01*
X241635600Y-91084400D01*
X241635600Y-90525600D01*
X241655600Y-90525600D01*
X241655600Y-90505600D01*
X242214400Y-90505600D01*
X242214400Y-90525600D01*
G36*
X231939680Y-88925336D02*
G01*
X231741076Y-89088326D01*
X231578086Y-89286930D01*
X231456973Y-89513515D01*
X231382393Y-89759375D01*
X231361045Y-89976127D01*
X230453972Y-90883200D01*
X229084595Y-90883200D01*
X229111848Y-90868633D01*
X229203454Y-90793454D01*
X229278633Y-90701848D01*
X229334495Y-90597336D01*
X229368895Y-90483934D01*
X229380511Y-90366000D01*
X229377600Y-90345800D01*
X229227200Y-90195400D01*
X228455400Y-90195400D01*
X228455400Y-90215400D01*
X227896600Y-90215400D01*
X227896600Y-90195400D01*
X227876600Y-90195400D01*
X227876600Y-89636600D01*
X227896600Y-89636600D01*
X227896600Y-89616600D01*
X228455400Y-89616600D01*
X228455400Y-89636600D01*
X229227200Y-89636600D01*
X229296201Y-89567599D01*
X230627094Y-89567599D01*
X230648201Y-89569678D01*
X230669308Y-89567599D01*
X230669310Y-89567599D01*
X230732456Y-89561380D01*
X230813474Y-89536803D01*
X230888140Y-89496893D01*
X230953586Y-89443184D01*
X230967049Y-89426780D01*
X231572029Y-88821800D01*
X232133381Y-88821800D01*
X231939680Y-88925336D01*
X231939680Y-88925336D01*
G37*
X231939680Y-88925336D02*
X231741076Y-89088326D01*
X231578086Y-89286930D01*
X231456973Y-89513515D01*
X231382393Y-89759375D01*
X231361045Y-89976127D01*
X230453972Y-90883200D01*
X229084595Y-90883200D01*
X229111848Y-90868633D01*
X229203454Y-90793454D01*
X229278633Y-90701848D01*
X229334495Y-90597336D01*
X229368895Y-90483934D01*
X229380511Y-90366000D01*
X229377600Y-90345800D01*
X229227200Y-90195400D01*
X228455400Y-90195400D01*
X228455400Y-90215400D01*
X227896600Y-90215400D01*
X227896600Y-90195400D01*
X227876600Y-90195400D01*
X227876600Y-89636600D01*
X227896600Y-89636600D01*
X227896600Y-89616600D01*
X228455400Y-89616600D01*
X228455400Y-89636600D01*
X229227200Y-89636600D01*
X229296201Y-89567599D01*
X230627094Y-89567599D01*
X230648201Y-89569678D01*
X230669308Y-89567599D01*
X230669310Y-89567599D01*
X230732456Y-89561380D01*
X230813474Y-89536803D01*
X230888140Y-89496893D01*
X230953586Y-89443184D01*
X230967049Y-89426780D01*
X231572029Y-88821800D01*
X232133381Y-88821800D01*
X231939680Y-88925336D01*
G36*
X229122400Y-84495200D02*
G01*
X229272800Y-84645600D01*
X229844600Y-84645600D01*
X229844600Y-84625600D01*
X230403400Y-84625600D01*
X230403400Y-84645600D01*
X230975200Y-84645600D01*
X231125600Y-84495200D01*
X231122175Y-84464800D01*
X245562644Y-84464800D01*
X245588452Y-84467331D01*
X245596573Y-84469783D01*
X245604070Y-84473768D01*
X245610652Y-84479137D01*
X245616061Y-84485675D01*
X245620099Y-84493142D01*
X245622611Y-84501258D01*
X245625200Y-84525893D01*
X245625200Y-90433533D01*
X245542680Y-90234313D01*
X245410830Y-90036984D01*
X245243016Y-89869170D01*
X245045687Y-89737320D01*
X244826427Y-89646499D01*
X244593662Y-89600200D01*
X244356338Y-89600200D01*
X244123573Y-89646499D01*
X243984685Y-89704029D01*
X242890335Y-88609679D01*
X242876806Y-88593194D01*
X242811056Y-88539234D01*
X242736042Y-88499139D01*
X242654648Y-88474448D01*
X242591210Y-88468200D01*
X242570000Y-88466111D01*
X242548790Y-88468200D01*
X235905560Y-88468200D01*
X234751982Y-87314624D01*
X235911518Y-87314624D01*
X235951497Y-87354603D01*
X236050554Y-87420790D01*
X236160620Y-87466382D01*
X236277466Y-87489624D01*
X236396602Y-87489624D01*
X236513448Y-87466382D01*
X236623514Y-87420790D01*
X236722571Y-87354603D01*
X236806813Y-87270361D01*
X236873000Y-87171304D01*
X236918592Y-87061238D01*
X236941834Y-86944392D01*
X236941834Y-86918800D01*
X237062054Y-86918800D01*
X237219085Y-86887565D01*
X237367005Y-86826294D01*
X237500130Y-86737343D01*
X237613343Y-86624130D01*
X237702294Y-86491005D01*
X237763565Y-86343085D01*
X237794800Y-86186054D01*
X237794800Y-86025946D01*
X237763565Y-85868915D01*
X237702294Y-85720995D01*
X237613343Y-85587870D01*
X237500130Y-85474657D01*
X237367005Y-85385706D01*
X237219085Y-85324435D01*
X237062054Y-85293200D01*
X236955691Y-85293200D01*
X236912954Y-85258127D01*
X236815878Y-85206239D01*
X236710544Y-85174286D01*
X236628444Y-85166200D01*
X236628442Y-85166200D01*
X236601000Y-85163497D01*
X236573558Y-85166200D01*
X235665510Y-85166200D01*
X235662960Y-85157794D01*
X235634658Y-85104843D01*
X235596568Y-85058432D01*
X235550157Y-85020342D01*
X235497206Y-84992040D01*
X235439751Y-84974611D01*
X235380000Y-84968726D01*
X234180000Y-84968726D01*
X234120249Y-84974611D01*
X234062794Y-84992040D01*
X234009843Y-85020342D01*
X233963432Y-85058432D01*
X233938001Y-85089419D01*
X233938001Y-85033546D01*
X233940080Y-85012439D01*
X233936354Y-84974611D01*
X233931782Y-84928184D01*
X233907205Y-84847166D01*
X233867295Y-84772500D01*
X233813586Y-84707054D01*
X233797182Y-84693592D01*
X233761409Y-84657819D01*
X233747946Y-84641414D01*
X233682500Y-84587705D01*
X233607834Y-84547795D01*
X233526816Y-84523218D01*
X233463670Y-84516999D01*
X233463668Y-84516999D01*
X233442561Y-84514920D01*
X233421454Y-84516999D01*
X231738546Y-84516999D01*
X231717439Y-84514920D01*
X231696332Y-84516999D01*
X231696330Y-84516999D01*
X231633184Y-84523218D01*
X231552166Y-84547795D01*
X231477499Y-84587705D01*
X231447227Y-84612549D01*
X231412054Y-84641414D01*
X231398596Y-84657813D01*
X230852010Y-85204400D01*
X230403400Y-85204400D01*
X230403400Y-85224400D01*
X229844600Y-85224400D01*
X229844600Y-85204400D01*
X229272800Y-85204400D01*
X229122400Y-85354800D01*
X229124461Y-85373092D01*
X229123184Y-85373218D01*
X229042166Y-85397795D01*
X228967499Y-85437705D01*
X228951101Y-85451163D01*
X228902054Y-85491414D01*
X228888598Y-85507811D01*
X228286421Y-86109989D01*
X228195269Y-86109989D01*
X228294827Y-85988676D01*
X228402058Y-85788061D01*
X228468090Y-85570380D01*
X228490387Y-85344000D01*
X228468090Y-85117620D01*
X228402058Y-84899939D01*
X228294827Y-84699324D01*
X228150518Y-84523482D01*
X228079013Y-84464800D01*
X229125825Y-84464800D01*
X229122400Y-84495200D01*
X229122400Y-84495200D01*
G37*
X229122400Y-84495200D02*
X229272800Y-84645600D01*
X229844600Y-84645600D01*
X229844600Y-84625600D01*
X230403400Y-84625600D01*
X230403400Y-84645600D01*
X230975200Y-84645600D01*
X231125600Y-84495200D01*
X231122175Y-84464800D01*
X245562644Y-84464800D01*
X245588452Y-84467331D01*
X245596573Y-84469783D01*
X245604070Y-84473768D01*
X245610652Y-84479137D01*
X245616061Y-84485675D01*
X245620099Y-84493142D01*
X245622611Y-84501258D01*
X245625200Y-84525893D01*
X245625200Y-90433533D01*
X245542680Y-90234313D01*
X245410830Y-90036984D01*
X245243016Y-89869170D01*
X245045687Y-89737320D01*
X244826427Y-89646499D01*
X244593662Y-89600200D01*
X244356338Y-89600200D01*
X244123573Y-89646499D01*
X243984685Y-89704029D01*
X242890335Y-88609679D01*
X242876806Y-88593194D01*
X242811056Y-88539234D01*
X242736042Y-88499139D01*
X242654648Y-88474448D01*
X242591210Y-88468200D01*
X242570000Y-88466111D01*
X242548790Y-88468200D01*
X235905560Y-88468200D01*
X234751982Y-87314624D01*
X235911518Y-87314624D01*
X235951497Y-87354603D01*
X236050554Y-87420790D01*
X236160620Y-87466382D01*
X236277466Y-87489624D01*
X236396602Y-87489624D01*
X236513448Y-87466382D01*
X236623514Y-87420790D01*
X236722571Y-87354603D01*
X236806813Y-87270361D01*
X236873000Y-87171304D01*
X236918592Y-87061238D01*
X236941834Y-86944392D01*
X236941834Y-86918800D01*
X237062054Y-86918800D01*
X237219085Y-86887565D01*
X237367005Y-86826294D01*
X237500130Y-86737343D01*
X237613343Y-86624130D01*
X237702294Y-86491005D01*
X237763565Y-86343085D01*
X237794800Y-86186054D01*
X237794800Y-86025946D01*
X237763565Y-85868915D01*
X237702294Y-85720995D01*
X237613343Y-85587870D01*
X237500130Y-85474657D01*
X237367005Y-85385706D01*
X237219085Y-85324435D01*
X237062054Y-85293200D01*
X236955691Y-85293200D01*
X236912954Y-85258127D01*
X236815878Y-85206239D01*
X236710544Y-85174286D01*
X236628444Y-85166200D01*
X236628442Y-85166200D01*
X236601000Y-85163497D01*
X236573558Y-85166200D01*
X235665510Y-85166200D01*
X235662960Y-85157794D01*
X235634658Y-85104843D01*
X235596568Y-85058432D01*
X235550157Y-85020342D01*
X235497206Y-84992040D01*
X235439751Y-84974611D01*
X235380000Y-84968726D01*
X234180000Y-84968726D01*
X234120249Y-84974611D01*
X234062794Y-84992040D01*
X234009843Y-85020342D01*
X233963432Y-85058432D01*
X233938001Y-85089419D01*
X233938001Y-85033546D01*
X233940080Y-85012439D01*
X233936354Y-84974611D01*
X233931782Y-84928184D01*
X233907205Y-84847166D01*
X233867295Y-84772500D01*
X233813586Y-84707054D01*
X233797182Y-84693592D01*
X233761409Y-84657819D01*
X233747946Y-84641414D01*
X233682500Y-84587705D01*
X233607834Y-84547795D01*
X233526816Y-84523218D01*
X233463670Y-84516999D01*
X233463668Y-84516999D01*
X233442561Y-84514920D01*
X233421454Y-84516999D01*
X231738546Y-84516999D01*
X231717439Y-84514920D01*
X231696332Y-84516999D01*
X231696330Y-84516999D01*
X231633184Y-84523218D01*
X231552166Y-84547795D01*
X231477499Y-84587705D01*
X231447227Y-84612549D01*
X231412054Y-84641414D01*
X231398596Y-84657813D01*
X230852010Y-85204400D01*
X230403400Y-85204400D01*
X230403400Y-85224400D01*
X229844600Y-85224400D01*
X229844600Y-85204400D01*
X229272800Y-85204400D01*
X229122400Y-85354800D01*
X229124461Y-85373092D01*
X229123184Y-85373218D01*
X229042166Y-85397795D01*
X228967499Y-85437705D01*
X228951101Y-85451163D01*
X228902054Y-85491414D01*
X228888598Y-85507811D01*
X228286421Y-86109989D01*
X228195269Y-86109989D01*
X228294827Y-85988676D01*
X228402058Y-85788061D01*
X228468090Y-85570380D01*
X228490387Y-85344000D01*
X228468090Y-85117620D01*
X228402058Y-84899939D01*
X228294827Y-84699324D01*
X228150518Y-84523482D01*
X228079013Y-84464800D01*
X229125825Y-84464800D01*
X229122400Y-84495200D01*
G36*
X229442873Y-88304969D02*
G01*
X229506019Y-88311188D01*
X229506020Y-88311188D01*
X229527127Y-88313267D01*
X229548234Y-88311188D01*
X230866983Y-88311188D01*
X230470173Y-88707999D01*
X229379502Y-88707999D01*
X229377600Y-88694800D01*
X229227202Y-88544402D01*
X229377600Y-88544402D01*
X229377600Y-88285168D01*
X229442873Y-88304969D01*
X229442873Y-88304969D01*
G37*
X229442873Y-88304969D02*
X229506019Y-88311188D01*
X229506020Y-88311188D01*
X229527127Y-88313267D01*
X229548234Y-88311188D01*
X230866983Y-88311188D01*
X230470173Y-88707999D01*
X229379502Y-88707999D01*
X229377600Y-88694800D01*
X229227202Y-88544402D01*
X229377600Y-88544402D01*
X229377600Y-88285168D01*
X229442873Y-88304969D01*
G36*
X215959400Y-87318600D02*
G01*
X216004726Y-87318600D01*
X216004726Y-87877400D01*
X215959400Y-87877400D01*
X215959400Y-87897400D01*
X215912600Y-87897400D01*
X215912600Y-87877400D01*
X215867274Y-87877400D01*
X215867274Y-87604143D01*
X215867879Y-87598000D01*
X215867274Y-87591857D01*
X215867274Y-87318600D01*
X215912600Y-87318600D01*
X215912600Y-87298600D01*
X215959400Y-87298600D01*
X215959400Y-87318600D01*
X215959400Y-87318600D01*
G37*
X215959400Y-87318600D02*
X216004726Y-87318600D01*
X216004726Y-87877400D01*
X215959400Y-87877400D01*
X215959400Y-87897400D01*
X215912600Y-87897400D01*
X215912600Y-87877400D01*
X215867274Y-87877400D01*
X215867274Y-87604143D01*
X215867879Y-87598000D01*
X215867274Y-87591857D01*
X215867274Y-87318600D01*
X215912600Y-87318600D01*
X215912600Y-87298600D01*
X215959400Y-87298600D01*
X215959400Y-87318600D01*
M02*
