G04 #@! TF.GenerationSoftware,KiCad,Pcbnew,5.1.4-e60b266~84~ubuntu18.04.1*
G04 #@! TF.CreationDate,2019-08-11T22:19:42+02:00*
G04 #@! TF.ProjectId,rat_board,7261745f-626f-4617-9264-2e6b69636164,rev?*
G04 #@! TF.SameCoordinates,Original*
G04 #@! TF.FileFunction,Copper,L2,Bot*
G04 #@! TF.FilePolarity,Positive*
%FSLAX46Y46*%
G04 Gerber Fmt 4.6, Leading zero omitted, Abs format (unit mm)*
G04 Created by KiCad (PCBNEW 5.1.4-e60b266~84~ubuntu18.04.1) date 2019-08-11 22:19:42*
%MOMM*%
%LPD*%
G04 APERTURE LIST*
%ADD10O,1.700000X1.700000*%
%ADD11R,1.700000X1.700000*%
%ADD12C,1.700000*%
%ADD13R,1.100000X1.000000*%
%ADD14R,2.032000X1.524000*%
%ADD15C,3.800000*%
%ADD16R,0.900000X1.200000*%
%ADD17R,1.800000X1.800000*%
%ADD18C,1.800000*%
%ADD19O,2.499360X1.998980*%
%ADD20R,1.200000X0.900000*%
%ADD21R,0.450000X1.750000*%
%ADD22R,1.100000X1.750000*%
%ADD23R,1.500000X2.000000*%
%ADD24R,3.800000X2.000000*%
%ADD25C,0.600000*%
%ADD26C,1.016000*%
%ADD27C,1.524000*%
%ADD28C,0.250000*%
%ADD29C,0.508000*%
%ADD30C,0.254000*%
%ADD31C,0.406400*%
%ADD32C,1.016000*%
%ADD33C,0.203200*%
G04 APERTURE END LIST*
D10*
X227330000Y-85344000D03*
X224790000Y-85344000D03*
X222250000Y-85344000D03*
X219710000Y-85344000D03*
X217170000Y-85344000D03*
D11*
X214630000Y-85344000D03*
D10*
X218440000Y-128016000D03*
D11*
X220980000Y-128016000D03*
D12*
X223520000Y-128016000D03*
D13*
X201086000Y-85460000D03*
X197186000Y-85460000D03*
X197186000Y-87260000D03*
X201086000Y-87260000D03*
D10*
X205486000Y-99060000D03*
D11*
X205486000Y-101600000D03*
D14*
X214630000Y-101981000D03*
X214630000Y-98679000D03*
D12*
X208280000Y-101600000D03*
D10*
X208280000Y-99060000D03*
D12*
X233680000Y-101600000D03*
X233680000Y-99060000D03*
D15*
X235585000Y-104775000D03*
X206375000Y-104775000D03*
X220980000Y-124460000D03*
X220980000Y-114300000D03*
D16*
X224790000Y-100795000D03*
X224790000Y-98595000D03*
X217170000Y-100795000D03*
X217170000Y-98595000D03*
D17*
X205105000Y-90805000D03*
D18*
X202565000Y-90805000D03*
D19*
X232918000Y-94896940D03*
X232918000Y-90015060D03*
D20*
X219540000Y-121285000D03*
X217340000Y-121285000D03*
X222250000Y-121285000D03*
X224450000Y-121285000D03*
D16*
X238506000Y-85260000D03*
X238506000Y-87460000D03*
X203200000Y-87460000D03*
X203200000Y-85260000D03*
D13*
X215310000Y-125846000D03*
X211410000Y-125846000D03*
X211410000Y-127646000D03*
X215310000Y-127646000D03*
X244774000Y-85460000D03*
X240874000Y-85460000D03*
X240874000Y-87260000D03*
X244774000Y-87260000D03*
X230550000Y-125846000D03*
X226650000Y-125846000D03*
X226650000Y-127646000D03*
X230550000Y-127646000D03*
D18*
X239395000Y-106045000D03*
D17*
X239395000Y-103505000D03*
D18*
X200025000Y-90805000D03*
D17*
X197485000Y-90805000D03*
D18*
X244475000Y-90805000D03*
D17*
X241935000Y-90805000D03*
D18*
X202565000Y-103505000D03*
D17*
X202565000Y-106045000D03*
X239395000Y-100965000D03*
D18*
X239395000Y-98425000D03*
D17*
X239395000Y-90805000D03*
D18*
X236855000Y-90805000D03*
D17*
X202565000Y-98425000D03*
D18*
X202565000Y-100965000D03*
D14*
X227330000Y-101981000D03*
X227330000Y-98679000D03*
D20*
X219880000Y-119634000D03*
X222080000Y-119634000D03*
D21*
X222604760Y-110925160D03*
X218704760Y-110925160D03*
D22*
X224231200Y-110916720D03*
X221630240Y-110916720D03*
X220334840Y-110916720D03*
X217728800Y-110921800D03*
D21*
X224555000Y-110915000D03*
X223255000Y-110915000D03*
X221955000Y-110915000D03*
X220655000Y-110915000D03*
X219355000Y-110915000D03*
X218055000Y-110915000D03*
X217405000Y-103715000D03*
X218705000Y-103715000D03*
X219355000Y-103715000D03*
X220005000Y-103715000D03*
X220655000Y-103715000D03*
X221305000Y-103715000D03*
X221955000Y-103715000D03*
X222605000Y-103715000D03*
X223255000Y-103715000D03*
X223905000Y-103715000D03*
X224555000Y-103715000D03*
D22*
X217728800Y-103720900D03*
D23*
X211441000Y-114325000D03*
X216041000Y-114325000D03*
X213741000Y-114325000D03*
D24*
X213741000Y-120625000D03*
D20*
X215984000Y-110744000D03*
X213784000Y-110744000D03*
X213827000Y-112141000D03*
X216027000Y-112141000D03*
D25*
X212598000Y-128524000D03*
X213614000Y-128524000D03*
X213106000Y-127508000D03*
X205994000Y-85344000D03*
X205994000Y-86360000D03*
X207010000Y-86360000D03*
X207010000Y-85344000D03*
X208026000Y-85344000D03*
X230632000Y-110744000D03*
X230632000Y-111760000D03*
X229616000Y-111760000D03*
X230632000Y-112776000D03*
X229616000Y-112776000D03*
X228600000Y-112776000D03*
D26*
X198501000Y-92151200D03*
D25*
X212140800Y-94386400D03*
D26*
X212164210Y-98399600D03*
D25*
X228600000Y-126771400D03*
D26*
X217149936Y-113017291D03*
X224209884Y-94390484D03*
X223647000Y-96520000D03*
X243260880Y-97180400D03*
D25*
X235511340Y-96725740D03*
X210565970Y-86101210D03*
D26*
X223897212Y-89667348D03*
X236982000Y-86106000D03*
D25*
X206248000Y-95123000D03*
X243205000Y-85471000D03*
X220980000Y-105410000D03*
X210820000Y-123190000D03*
X210820000Y-121920000D03*
X210820000Y-124389589D03*
X221995990Y-105410000D03*
X220980000Y-106426000D03*
X221996000Y-106426000D03*
X210820000Y-97282000D03*
X245110000Y-88392000D03*
X245110000Y-89281000D03*
X244094000Y-89281000D03*
X244094000Y-88392000D03*
X243078000Y-88392000D03*
X227076000Y-90678000D03*
X226822000Y-110490000D03*
X226822000Y-109474000D03*
X227838000Y-109474000D03*
X225806000Y-110490000D03*
X225806000Y-111506000D03*
X227838000Y-108458000D03*
X230886000Y-98298000D03*
X230886000Y-97282000D03*
X231902000Y-97282000D03*
X230886000Y-96266000D03*
X229108000Y-85090000D03*
X229314453Y-88509589D03*
D27*
X211455000Y-111125000D03*
X211455000Y-109220000D03*
X217143252Y-117570990D03*
D25*
X236337034Y-86884824D03*
X223454579Y-117019865D03*
X213300630Y-96503669D03*
X215112886Y-93700310D03*
X212598000Y-100584000D03*
X206375000Y-93726000D03*
X213106000Y-88519000D03*
X216923682Y-89608687D03*
X219864365Y-98270627D03*
X219100703Y-101600070D03*
X219900714Y-101599515D03*
X221615000Y-101128480D03*
X223563955Y-101423210D03*
X222854827Y-101800421D03*
X224257764Y-102235000D03*
X219569956Y-91170256D03*
X223560995Y-85987129D03*
X219569914Y-90367045D03*
X218370603Y-92834254D03*
X217884783Y-86493018D03*
X218363798Y-122148600D03*
X198247000Y-88392000D03*
X204978000Y-95631000D03*
X236474000Y-94488000D03*
X218308210Y-93635028D03*
X240030000Y-92205002D03*
X219569956Y-93137879D03*
D27*
X218948000Y-107111800D03*
X217208376Y-123672600D03*
D28*
X221955000Y-103715000D02*
X221955000Y-101811837D01*
X221955000Y-101811837D02*
X222971837Y-100795000D01*
X224090000Y-100795000D02*
X224790000Y-100795000D01*
X222971837Y-100795000D02*
X224090000Y-100795000D01*
D29*
X225976000Y-101981000D02*
X224790000Y-100795000D01*
X227330000Y-101981000D02*
X225976000Y-101981000D01*
X216027000Y-114311000D02*
X216041000Y-114325000D01*
X216027000Y-112141000D02*
X216027000Y-114311000D01*
X203011000Y-87271000D02*
X203200000Y-87460000D01*
X198780400Y-92430600D02*
X198501000Y-92151200D01*
X212140800Y-92430600D02*
X198780400Y-92430600D01*
X212140800Y-97002600D02*
X212140800Y-94386400D01*
X212140800Y-94386400D02*
X212140800Y-92430600D01*
X212164210Y-97681180D02*
X212164210Y-98399600D01*
X212164210Y-97026010D02*
X212164210Y-97681180D01*
X212140800Y-97002600D02*
X212164210Y-97026010D01*
D30*
X229565200Y-126771400D02*
X228600000Y-126771400D01*
X230550000Y-127646000D02*
X230439800Y-127646000D01*
X230439800Y-127646000D02*
X229565200Y-126771400D01*
D29*
X216641937Y-113525290D02*
X217149936Y-113017291D01*
X216041000Y-114325000D02*
X216041000Y-114126229D01*
X216041000Y-114126229D02*
X216641937Y-113525290D01*
X218812713Y-90003588D02*
X218812713Y-91295887D01*
X222250000Y-85344000D02*
X222250000Y-86566301D01*
X218812713Y-91295887D02*
X218770200Y-91338400D01*
X222250000Y-86566301D02*
X218812713Y-90003588D01*
X218770200Y-91338400D02*
X218770200Y-91670407D01*
X218770200Y-91670407D02*
X219027259Y-91927466D01*
X220980000Y-121158000D02*
X221107000Y-121285000D01*
X219540000Y-121285000D02*
X221107000Y-121285000D01*
X220980000Y-120953000D02*
X220980000Y-120421400D01*
X220980000Y-120421400D02*
X220980000Y-121158000D01*
X221107000Y-121285000D02*
X221538800Y-121285000D01*
X221538800Y-121285000D02*
X222250000Y-121285000D01*
X219540000Y-121285000D02*
X220497400Y-121285000D01*
X220497400Y-121285000D02*
X220648000Y-121285000D01*
X220980000Y-120421400D02*
X220980000Y-121005600D01*
X220700600Y-121285000D02*
X220497400Y-121285000D01*
X220980000Y-121005600D02*
X220700600Y-121285000D01*
X221259400Y-121285000D02*
X221538800Y-121285000D01*
X220980000Y-121005600D02*
X221259400Y-121285000D01*
D28*
X229671799Y-128474201D02*
X225837439Y-128474201D01*
X222250000Y-121985000D02*
X222250000Y-121285000D01*
X225837439Y-128474201D02*
X225298000Y-127934762D01*
X222250000Y-122338273D02*
X222250000Y-121985000D01*
X225298000Y-127934762D02*
X225298000Y-125386273D01*
X225298000Y-125386273D02*
X222250000Y-122338273D01*
X230500000Y-127646000D02*
X229671799Y-128474201D01*
X230550000Y-127646000D02*
X230500000Y-127646000D01*
D29*
X220980000Y-118922800D02*
X220980000Y-120421400D01*
X217144600Y-115087400D02*
X220980000Y-118922800D01*
X216041000Y-114325000D02*
X216803400Y-115087400D01*
X216803400Y-115087400D02*
X217144600Y-115087400D01*
X212399071Y-97260871D02*
X212140800Y-97002600D01*
X216937129Y-97260871D02*
X212399071Y-97260871D01*
X217551000Y-96647000D02*
X216937129Y-97260871D01*
X217551000Y-92583000D02*
X217551000Y-96647000D01*
X218770200Y-91338400D02*
X218770200Y-91363800D01*
X218770200Y-91363800D02*
X217551000Y-92583000D01*
D28*
X223647000Y-94953368D02*
X224209884Y-94390484D01*
X223647000Y-96520000D02*
X223647000Y-94953368D01*
D29*
X242806220Y-96725740D02*
X243260880Y-97180400D01*
X235511340Y-96725740D02*
X242806220Y-96725740D01*
X210565970Y-90855770D02*
X210565970Y-86525474D01*
X210265971Y-86401209D02*
X210565970Y-86101210D01*
X203200000Y-87460000D02*
X209207180Y-87460000D01*
X209207180Y-87460000D02*
X210265971Y-86401209D01*
X210565970Y-86525474D02*
X210565970Y-86101210D01*
X212140800Y-92430600D02*
X210565970Y-90855770D01*
X219027259Y-91927466D02*
X224048534Y-91927466D01*
X223897212Y-91776144D02*
X223897212Y-90385768D01*
X223897212Y-90385768D02*
X223897212Y-89667348D01*
X224048534Y-91927466D02*
X223897212Y-91776144D01*
X235305600Y-96520000D02*
X235511340Y-96725740D01*
X217552746Y-94392230D02*
X218671532Y-94392230D01*
X218673278Y-94390484D02*
X230026484Y-94390484D01*
X217551000Y-94390484D02*
X217552746Y-94392230D01*
X218671532Y-94392230D02*
X218673278Y-94390484D01*
X230026484Y-94390484D02*
X232156000Y-96520000D01*
X232156000Y-96520000D02*
X235305600Y-96520000D01*
X227584000Y-101981000D02*
X227330000Y-101981000D01*
X229362000Y-100203000D02*
X227584000Y-101981000D01*
X228346000Y-94488000D02*
X229362000Y-95504000D01*
X229362000Y-95504000D02*
X229362000Y-100203000D01*
X236982000Y-86106000D02*
X238252000Y-86106000D01*
X238252000Y-86106000D02*
X238506000Y-85852000D01*
X238506000Y-85852000D02*
X238506000Y-85260000D01*
X224048534Y-91927466D02*
X224050578Y-91925422D01*
X234703800Y-85260000D02*
X237548000Y-85260000D01*
X224050578Y-91925422D02*
X228038378Y-91925422D01*
X237548000Y-85260000D02*
X238506000Y-85260000D01*
X228038378Y-91925422D02*
X234703800Y-85260000D01*
X203000000Y-87260000D02*
X203200000Y-87460000D01*
X201086000Y-87260000D02*
X203000000Y-87260000D01*
D31*
X222604760Y-112206560D02*
X222666200Y-112268000D01*
X222604760Y-110925160D02*
X222604760Y-112206560D01*
X223255000Y-112196400D02*
X223255000Y-110915000D01*
X222666200Y-112268000D02*
X223183400Y-112268000D01*
X223183400Y-112268000D02*
X223255000Y-112196400D01*
X219355000Y-112196400D02*
X219355000Y-110915000D01*
X219283400Y-112268000D02*
X219355000Y-112196400D01*
X218704760Y-112206560D02*
X218766200Y-112268000D01*
X218766200Y-112268000D02*
X219283400Y-112268000D01*
X218704760Y-110925160D02*
X218704760Y-112206560D01*
D28*
X220655000Y-103715000D02*
X220655000Y-105085000D01*
X220655000Y-105085000D02*
X220980000Y-105410000D01*
D32*
X220980000Y-128016000D02*
X220130001Y-127166001D01*
X219900579Y-127166001D02*
X219277378Y-126542800D01*
X220130001Y-127166001D02*
X219900579Y-127166001D01*
D28*
X210820000Y-123190000D02*
X210820000Y-124389589D01*
X220980000Y-106425990D02*
X220980000Y-106426000D01*
X229108000Y-85090000D02*
X229108000Y-88303136D01*
X229108000Y-88303136D02*
X229314453Y-88509589D01*
D32*
X211455000Y-111125000D02*
X211455000Y-109220000D01*
X211455000Y-114311000D02*
X211441000Y-114325000D01*
X211455000Y-111125000D02*
X211455000Y-114311000D01*
X214460000Y-109220000D02*
X211455000Y-109220000D01*
X215984000Y-110744000D02*
X214460000Y-109220000D01*
X212670990Y-117570990D02*
X216065622Y-117570990D01*
X216065622Y-117570990D02*
X217143252Y-117570990D01*
X211441000Y-116341000D02*
X212670990Y-117570990D01*
X211441000Y-114325000D02*
X211441000Y-116341000D01*
D28*
X236912210Y-87460000D02*
X236637033Y-87184823D01*
X236637033Y-87184823D02*
X236337034Y-86884824D01*
X238506000Y-87460000D02*
X236912210Y-87460000D01*
X238506000Y-87310000D02*
X238506000Y-87460000D01*
X240874000Y-85460000D02*
X240356000Y-85460000D01*
X240356000Y-85460000D02*
X238506000Y-87310000D01*
X226600000Y-126100000D02*
X226650000Y-126100000D01*
X226650000Y-125456400D02*
X226650000Y-125846000D01*
X224450000Y-123256400D02*
X226650000Y-125456400D01*
X224450000Y-121285000D02*
X224450000Y-123256400D01*
X224600000Y-121285000D02*
X224450000Y-121285000D01*
X223469200Y-120154200D02*
X224600000Y-121285000D01*
X223454579Y-117019865D02*
X223469200Y-117034486D01*
X223469200Y-117034486D02*
X223469200Y-120154200D01*
D32*
X221630240Y-109458760D02*
X221630240Y-110916720D01*
X222123000Y-108966000D02*
X221630240Y-109458760D01*
X223446776Y-108966000D02*
X222123000Y-108966000D01*
X233680000Y-99060000D02*
X233352776Y-99060000D01*
X233352776Y-99060000D02*
X223446776Y-108966000D01*
X224231200Y-109905800D02*
X232537000Y-101600000D01*
X232537000Y-101600000D02*
X233680000Y-101600000D01*
X224231200Y-110916720D02*
X224231200Y-109905800D01*
X209482081Y-99060000D02*
X209983789Y-99561708D01*
X209983789Y-99561708D02*
X209983789Y-100676369D01*
X219710000Y-108966000D02*
X220334840Y-109590840D01*
X208280000Y-99060000D02*
X209482081Y-99060000D01*
X209983789Y-100676369D02*
X218273420Y-108966000D01*
X220334840Y-109590840D02*
X220334840Y-110916720D01*
X218273420Y-108966000D02*
X219710000Y-108966000D01*
X208280000Y-101600000D02*
X209183196Y-101600000D01*
X217728800Y-110145604D02*
X217728800Y-110921800D01*
X209183196Y-101600000D02*
X217728800Y-110145604D01*
D28*
X218617800Y-88734194D02*
X217777291Y-89574703D01*
X213300630Y-96079405D02*
X213300630Y-96503669D01*
X213300630Y-94240266D02*
X213300630Y-96079405D01*
X217703400Y-85344000D02*
X218617800Y-86258400D01*
X217777291Y-89574703D02*
X217777291Y-89763605D01*
X217777291Y-89763605D02*
X213300630Y-94240266D01*
X217170000Y-85344000D02*
X217703400Y-85344000D01*
X218617800Y-86258400D02*
X218617800Y-88734194D01*
X219710000Y-85344000D02*
X219710000Y-88282931D01*
X218230502Y-90582694D02*
X215412885Y-93400311D01*
X218230502Y-89762429D02*
X218230502Y-90582694D01*
X219710000Y-88282931D02*
X218230502Y-89762429D01*
X215412885Y-93400311D02*
X215112886Y-93700310D01*
X212598000Y-100584000D02*
X206375000Y-94361000D01*
X206375000Y-94150264D02*
X206375000Y-93726000D01*
X206375000Y-94361000D02*
X206375000Y-94150264D01*
X214195687Y-89608687D02*
X216499418Y-89608687D01*
X213106000Y-88519000D02*
X214195687Y-89608687D01*
X216499418Y-89608687D02*
X216923682Y-89608687D01*
X219564366Y-98570626D02*
X219864365Y-98270627D01*
X218705000Y-102129369D02*
X218440781Y-101865150D01*
X218440781Y-99694211D02*
X219564366Y-98570626D01*
X218705000Y-103715000D02*
X218705000Y-102129369D01*
X218440781Y-101865150D02*
X218440781Y-99694211D01*
X219355000Y-103715000D02*
X219355000Y-102590000D01*
X219275712Y-102510712D02*
X219275712Y-101775079D01*
X219355000Y-102590000D02*
X219275712Y-102510712D01*
X219275712Y-101775079D02*
X219100703Y-101600070D01*
X220005000Y-103715000D02*
X220005000Y-101703801D01*
X220005000Y-101703801D02*
X219900714Y-101599515D01*
X221305000Y-103715000D02*
X221305000Y-101438480D01*
X221305000Y-101438480D02*
X221315001Y-101428479D01*
X221315001Y-101428479D02*
X221615000Y-101128480D01*
X223255000Y-103715000D02*
X223255000Y-102329999D01*
X223255000Y-102329999D02*
X223563955Y-102021044D01*
X223563955Y-101847474D02*
X223563955Y-101423210D01*
X223563955Y-102021044D02*
X223563955Y-101847474D01*
X222605000Y-103715000D02*
X222605000Y-102050248D01*
X222605000Y-102050248D02*
X222854827Y-101800421D01*
X223957765Y-102534999D02*
X224257764Y-102235000D01*
X223905000Y-102587764D02*
X223957765Y-102534999D01*
X223905000Y-103715000D02*
X223905000Y-102587764D01*
X219569956Y-91170256D02*
X221156726Y-91170256D01*
X226132983Y-86193999D02*
X226480001Y-86193999D01*
X226480001Y-86193999D02*
X227330000Y-85344000D01*
X221156726Y-91170256D02*
X226132983Y-86193999D01*
X223260996Y-86675963D02*
X219869913Y-90067046D01*
X219869913Y-90067046D02*
X219569914Y-90367045D01*
X223260996Y-86287128D02*
X223260996Y-86675963D01*
X223560995Y-85987129D02*
X223260996Y-86287128D01*
X224373993Y-92509677D02*
X218695180Y-92509677D01*
X218695180Y-92509677D02*
X218670602Y-92534255D01*
X218670602Y-92534255D02*
X218370603Y-92834254D01*
X224376037Y-92507633D02*
X224373993Y-92509677D01*
X228279537Y-92507633D02*
X224376037Y-92507633D01*
X232398969Y-88388201D02*
X228279537Y-92507633D01*
X241557799Y-88388201D02*
X232398969Y-88388201D01*
X242675000Y-87271000D02*
X241557799Y-88388201D01*
X243963000Y-87271000D02*
X242675000Y-87271000D01*
X244774000Y-87260000D02*
X243974000Y-87260000D01*
X243974000Y-87260000D02*
X243963000Y-87271000D01*
X203900000Y-85260000D02*
X204545801Y-84614199D01*
X213122555Y-86793017D02*
X217584784Y-86793017D01*
X210943737Y-84614199D02*
X213122555Y-86793017D01*
X203200000Y-85260000D02*
X203900000Y-85260000D01*
X217584784Y-86793017D02*
X217884783Y-86493018D01*
X204545801Y-84614199D02*
X210943737Y-84614199D01*
X201912761Y-84645999D02*
X202755999Y-84645999D01*
X197242000Y-85460000D02*
X198056001Y-84645999D01*
X198056001Y-84645999D02*
X200259239Y-84645999D01*
X203200000Y-85090000D02*
X203200000Y-85260000D01*
X197186000Y-85460000D02*
X197242000Y-85460000D01*
X200259239Y-84645999D02*
X200273439Y-84631799D01*
X200273439Y-84631799D02*
X201898561Y-84631799D01*
X202755999Y-84645999D02*
X203200000Y-85090000D01*
X201898561Y-84631799D02*
X201912761Y-84645999D01*
X212779000Y-125846000D02*
X217340000Y-121285000D01*
X211410000Y-125846000D02*
X212779000Y-125846000D01*
X217490000Y-121285000D02*
X218353600Y-122148600D01*
X218353600Y-122148600D02*
X218363798Y-122148600D01*
X217340000Y-121285000D02*
X217490000Y-121285000D01*
X197186000Y-87331000D02*
X198247000Y-88392000D01*
X197186000Y-87260000D02*
X197186000Y-87331000D01*
X223521799Y-122969135D02*
X225771799Y-125219135D01*
X222230000Y-119634000D02*
X223521799Y-120925799D01*
X225771799Y-125219135D02*
X225771799Y-126817799D01*
X223521799Y-120925799D02*
X223521799Y-122969135D01*
X222080000Y-119634000D02*
X222230000Y-119634000D01*
X225771799Y-126817799D02*
X226600000Y-127646000D01*
X226600000Y-127646000D02*
X226650000Y-127646000D01*
X215969201Y-121887561D02*
X212838963Y-125017799D01*
X212838963Y-125017799D02*
X210597439Y-125017799D01*
X216477439Y-120506799D02*
X215969201Y-121015037D01*
X219880000Y-119634000D02*
X219030000Y-119634000D01*
X210597439Y-125017799D02*
X210439000Y-125176238D01*
X219030000Y-119634000D02*
X218157201Y-120506799D01*
X215969201Y-121015037D02*
X215969201Y-121887561D01*
X218157201Y-120506799D02*
X216477439Y-120506799D01*
X210597439Y-126674201D02*
X210439000Y-126515762D01*
X213538201Y-126674201D02*
X210597439Y-126674201D01*
X215310000Y-127646000D02*
X214510000Y-127646000D01*
X210439000Y-126515762D02*
X210439000Y-125176238D01*
X214510000Y-127646000D02*
X213538201Y-126674201D01*
X202565000Y-100965000D02*
X200787000Y-99187000D01*
X200787000Y-99187000D02*
X200787000Y-97812238D01*
X202968238Y-95631000D02*
X204978000Y-95631000D01*
X200787000Y-97812238D02*
X202968238Y-95631000D01*
X221659717Y-93554283D02*
X221447911Y-93766089D01*
X224751489Y-93414055D02*
X224611261Y-93554283D01*
X218732474Y-93635028D02*
X218308210Y-93635028D01*
X224611261Y-93554283D02*
X221659717Y-93554283D01*
X236474000Y-94488000D02*
X235400055Y-93414055D01*
X218863535Y-93766089D02*
X218732474Y-93635028D01*
X221447911Y-93766089D02*
X218863535Y-93766089D01*
X235400055Y-93414055D02*
X224751489Y-93414055D01*
X219606763Y-93101072D02*
X219569956Y-93137879D01*
X224423535Y-93101072D02*
X219606763Y-93101072D01*
X224563763Y-92960844D02*
X224423535Y-93101072D01*
X240030000Y-92205002D02*
X239274158Y-92960844D01*
X239274158Y-92960844D02*
X224563763Y-92960844D01*
D32*
X217170000Y-103162100D02*
X217728800Y-103720900D01*
X217170000Y-100795000D02*
X217170000Y-103162100D01*
X215988900Y-101981000D02*
X217728800Y-103720900D01*
X214630000Y-101981000D02*
X215988900Y-101981000D01*
X217728800Y-103720900D02*
X217728800Y-105892600D01*
X217728800Y-105892600D02*
X218948000Y-107111800D01*
X217474800Y-123939024D02*
X217208376Y-123672600D01*
X218440000Y-128016000D02*
X217474800Y-127050800D01*
X217474800Y-127050800D02*
X217474800Y-123939024D01*
D31*
X224555000Y-104996400D02*
X224555000Y-103715000D01*
X222363400Y-107188000D02*
X224555000Y-104996400D01*
X218948000Y-107111800D02*
X219024200Y-107188000D01*
X219024200Y-107188000D02*
X222363400Y-107188000D01*
D33*
G36*
X220700600Y-121846503D02*
G01*
X220728042Y-121843800D01*
X221079557Y-121843800D01*
X221106999Y-121846503D01*
X221134441Y-121843800D01*
X221231957Y-121843800D01*
X221259399Y-121846503D01*
X221286841Y-121843800D01*
X221364490Y-121843800D01*
X221367040Y-121852206D01*
X221395342Y-121905157D01*
X221433432Y-121951568D01*
X221479843Y-121989658D01*
X221532794Y-122017960D01*
X221590249Y-122035389D01*
X221650000Y-122041274D01*
X221820200Y-122041274D01*
X221820200Y-122317166D01*
X221818121Y-122338273D01*
X221820200Y-122359380D01*
X221820200Y-122359381D01*
X221826419Y-122422527D01*
X221826979Y-122424372D01*
X221623116Y-122339929D01*
X221197154Y-122255200D01*
X220762846Y-122255200D01*
X220336884Y-122339929D01*
X219935636Y-122506132D01*
X219574522Y-122747420D01*
X219267420Y-123054522D01*
X219026132Y-123415636D01*
X218859929Y-123816884D01*
X218775200Y-124242846D01*
X218775200Y-124677154D01*
X218859929Y-125103116D01*
X219026132Y-125504364D01*
X219267420Y-125865478D01*
X219574522Y-126172580D01*
X219935636Y-126413868D01*
X220275086Y-126554473D01*
X220130000Y-126553450D01*
X220010497Y-126565220D01*
X219895587Y-126600078D01*
X219789685Y-126656683D01*
X219696862Y-126732862D01*
X219620683Y-126825685D01*
X219564078Y-126931587D01*
X219529220Y-127046497D01*
X219517450Y-127166000D01*
X219520400Y-127584200D01*
X219672798Y-127736598D01*
X219562006Y-127736598D01*
X219512058Y-127571939D01*
X219404827Y-127371324D01*
X219260518Y-127195482D01*
X219084676Y-127051173D01*
X218884061Y-126943942D01*
X218666380Y-126877910D01*
X218496724Y-126861200D01*
X218434672Y-126861200D01*
X218287600Y-126714128D01*
X218287600Y-123978944D01*
X218291532Y-123939023D01*
X218287600Y-123899101D01*
X218275839Y-123779687D01*
X218275176Y-123777501D01*
X218275176Y-123567529D01*
X218234180Y-123361426D01*
X218153762Y-123167281D01*
X218037014Y-122992555D01*
X217888421Y-122843962D01*
X217713695Y-122727214D01*
X217519550Y-122646796D01*
X217313447Y-122605800D01*
X217103305Y-122605800D01*
X216897202Y-122646796D01*
X216703057Y-122727214D01*
X216528331Y-122843962D01*
X216379738Y-122992555D01*
X216262990Y-123167281D01*
X216182572Y-123361426D01*
X216141576Y-123567529D01*
X216141576Y-123777671D01*
X216182572Y-123983774D01*
X216262990Y-124177919D01*
X216379738Y-124352645D01*
X216528331Y-124501238D01*
X216662001Y-124590553D01*
X216662000Y-127010879D01*
X216658068Y-127050800D01*
X216662000Y-127090720D01*
X216662000Y-127090722D01*
X216673761Y-127210136D01*
X216720238Y-127363349D01*
X216795712Y-127504551D01*
X216897283Y-127628317D01*
X216928299Y-127653771D01*
X217280592Y-128006064D01*
X217279613Y-128016000D01*
X217301910Y-128242380D01*
X217367942Y-128460061D01*
X217475173Y-128660676D01*
X217552746Y-128755200D01*
X211994013Y-128755200D01*
X212079503Y-128746780D01*
X212194413Y-128711922D01*
X212300315Y-128655317D01*
X212393138Y-128579138D01*
X212469317Y-128486315D01*
X212525922Y-128380413D01*
X212560780Y-128265503D01*
X212572550Y-128146000D01*
X212569600Y-128077800D01*
X212417200Y-127925400D01*
X211689400Y-127925400D01*
X211689400Y-127945400D01*
X211130600Y-127945400D01*
X211130600Y-127925400D01*
X211110600Y-127925400D01*
X211110600Y-127366600D01*
X211130600Y-127366600D01*
X211130600Y-127346600D01*
X211689400Y-127346600D01*
X211689400Y-127366600D01*
X212417200Y-127366600D01*
X212569600Y-127214200D01*
X212572550Y-127146000D01*
X212568413Y-127104001D01*
X213360173Y-127104001D01*
X214191157Y-127934986D01*
X214204615Y-127951385D01*
X214240965Y-127981216D01*
X214270060Y-128005094D01*
X214296107Y-128019016D01*
X214344727Y-128045004D01*
X214425745Y-128069581D01*
X214453726Y-128072337D01*
X214453726Y-128146000D01*
X214459611Y-128205751D01*
X214477040Y-128263206D01*
X214505342Y-128316157D01*
X214543432Y-128362568D01*
X214589843Y-128400658D01*
X214642794Y-128428960D01*
X214700249Y-128446389D01*
X214760000Y-128452274D01*
X215860000Y-128452274D01*
X215919751Y-128446389D01*
X215977206Y-128428960D01*
X216030157Y-128400658D01*
X216076568Y-128362568D01*
X216114658Y-128316157D01*
X216142960Y-128263206D01*
X216160389Y-128205751D01*
X216166274Y-128146000D01*
X216166274Y-127146000D01*
X216160389Y-127086249D01*
X216142960Y-127028794D01*
X216114658Y-126975843D01*
X216076568Y-126929432D01*
X216065806Y-126920600D01*
X216094413Y-126911922D01*
X216200315Y-126855317D01*
X216293138Y-126779138D01*
X216369317Y-126686315D01*
X216425922Y-126580413D01*
X216460780Y-126465503D01*
X216472550Y-126346000D01*
X216469600Y-126277800D01*
X216317200Y-126125400D01*
X215589400Y-126125400D01*
X215589400Y-126145400D01*
X215030600Y-126145400D01*
X215030600Y-126125400D01*
X214302800Y-126125400D01*
X214150400Y-126277800D01*
X214147450Y-126346000D01*
X214159220Y-126465503D01*
X214194078Y-126580413D01*
X214250683Y-126686315D01*
X214326862Y-126779138D01*
X214419685Y-126855317D01*
X214525587Y-126911922D01*
X214554194Y-126920600D01*
X214543432Y-126929432D01*
X214505342Y-126975843D01*
X214485254Y-127013426D01*
X213857049Y-126385221D01*
X213843586Y-126368816D01*
X213778140Y-126315107D01*
X213703474Y-126275197D01*
X213622456Y-126250620D01*
X213559310Y-126244401D01*
X213559308Y-126244401D01*
X213538201Y-126242322D01*
X213517094Y-126244401D01*
X212945401Y-126244401D01*
X213018939Y-126205094D01*
X213084385Y-126151385D01*
X213097848Y-126134980D01*
X213886828Y-125346000D01*
X214147450Y-125346000D01*
X214150400Y-125414200D01*
X214302800Y-125566600D01*
X215030600Y-125566600D01*
X215030600Y-124888800D01*
X215589400Y-124888800D01*
X215589400Y-125566600D01*
X216317200Y-125566600D01*
X216469600Y-125414200D01*
X216472550Y-125346000D01*
X216460780Y-125226497D01*
X216425922Y-125111587D01*
X216369317Y-125005685D01*
X216293138Y-124912862D01*
X216200315Y-124836683D01*
X216094413Y-124780078D01*
X215979503Y-124745220D01*
X215860000Y-124733450D01*
X215741800Y-124736400D01*
X215589400Y-124888800D01*
X215030600Y-124888800D01*
X214878200Y-124736400D01*
X214760000Y-124733450D01*
X214640497Y-124745220D01*
X214525587Y-124780078D01*
X214419685Y-124836683D01*
X214326862Y-124912862D01*
X214250683Y-125005685D01*
X214194078Y-125111587D01*
X214159220Y-125226497D01*
X214147450Y-125346000D01*
X213886828Y-125346000D01*
X217191555Y-122041274D01*
X217638445Y-122041274D01*
X217758998Y-122161827D01*
X217758998Y-122208168D01*
X217782240Y-122325014D01*
X217827832Y-122435080D01*
X217894019Y-122534137D01*
X217978261Y-122618379D01*
X218077318Y-122684566D01*
X218187384Y-122730158D01*
X218304230Y-122753400D01*
X218423366Y-122753400D01*
X218540212Y-122730158D01*
X218650278Y-122684566D01*
X218749335Y-122618379D01*
X218833577Y-122534137D01*
X218899764Y-122435080D01*
X218945356Y-122325014D01*
X218968598Y-122208168D01*
X218968598Y-122089032D01*
X218959098Y-122041274D01*
X220140000Y-122041274D01*
X220199751Y-122035389D01*
X220257206Y-122017960D01*
X220310157Y-121989658D01*
X220356568Y-121951568D01*
X220394658Y-121905157D01*
X220422960Y-121852206D01*
X220425510Y-121843800D01*
X220673158Y-121843800D01*
X220700600Y-121846503D01*
X220700600Y-121846503D01*
G37*
X220700600Y-121846503D02*
X220728042Y-121843800D01*
X221079557Y-121843800D01*
X221106999Y-121846503D01*
X221134441Y-121843800D01*
X221231957Y-121843800D01*
X221259399Y-121846503D01*
X221286841Y-121843800D01*
X221364490Y-121843800D01*
X221367040Y-121852206D01*
X221395342Y-121905157D01*
X221433432Y-121951568D01*
X221479843Y-121989658D01*
X221532794Y-122017960D01*
X221590249Y-122035389D01*
X221650000Y-122041274D01*
X221820200Y-122041274D01*
X221820200Y-122317166D01*
X221818121Y-122338273D01*
X221820200Y-122359380D01*
X221820200Y-122359381D01*
X221826419Y-122422527D01*
X221826979Y-122424372D01*
X221623116Y-122339929D01*
X221197154Y-122255200D01*
X220762846Y-122255200D01*
X220336884Y-122339929D01*
X219935636Y-122506132D01*
X219574522Y-122747420D01*
X219267420Y-123054522D01*
X219026132Y-123415636D01*
X218859929Y-123816884D01*
X218775200Y-124242846D01*
X218775200Y-124677154D01*
X218859929Y-125103116D01*
X219026132Y-125504364D01*
X219267420Y-125865478D01*
X219574522Y-126172580D01*
X219935636Y-126413868D01*
X220275086Y-126554473D01*
X220130000Y-126553450D01*
X220010497Y-126565220D01*
X219895587Y-126600078D01*
X219789685Y-126656683D01*
X219696862Y-126732862D01*
X219620683Y-126825685D01*
X219564078Y-126931587D01*
X219529220Y-127046497D01*
X219517450Y-127166000D01*
X219520400Y-127584200D01*
X219672798Y-127736598D01*
X219562006Y-127736598D01*
X219512058Y-127571939D01*
X219404827Y-127371324D01*
X219260518Y-127195482D01*
X219084676Y-127051173D01*
X218884061Y-126943942D01*
X218666380Y-126877910D01*
X218496724Y-126861200D01*
X218434672Y-126861200D01*
X218287600Y-126714128D01*
X218287600Y-123978944D01*
X218291532Y-123939023D01*
X218287600Y-123899101D01*
X218275839Y-123779687D01*
X218275176Y-123777501D01*
X218275176Y-123567529D01*
X218234180Y-123361426D01*
X218153762Y-123167281D01*
X218037014Y-122992555D01*
X217888421Y-122843962D01*
X217713695Y-122727214D01*
X217519550Y-122646796D01*
X217313447Y-122605800D01*
X217103305Y-122605800D01*
X216897202Y-122646796D01*
X216703057Y-122727214D01*
X216528331Y-122843962D01*
X216379738Y-122992555D01*
X216262990Y-123167281D01*
X216182572Y-123361426D01*
X216141576Y-123567529D01*
X216141576Y-123777671D01*
X216182572Y-123983774D01*
X216262990Y-124177919D01*
X216379738Y-124352645D01*
X216528331Y-124501238D01*
X216662001Y-124590553D01*
X216662000Y-127010879D01*
X216658068Y-127050800D01*
X216662000Y-127090720D01*
X216662000Y-127090722D01*
X216673761Y-127210136D01*
X216720238Y-127363349D01*
X216795712Y-127504551D01*
X216897283Y-127628317D01*
X216928299Y-127653771D01*
X217280592Y-128006064D01*
X217279613Y-128016000D01*
X217301910Y-128242380D01*
X217367942Y-128460061D01*
X217475173Y-128660676D01*
X217552746Y-128755200D01*
X211994013Y-128755200D01*
X212079503Y-128746780D01*
X212194413Y-128711922D01*
X212300315Y-128655317D01*
X212393138Y-128579138D01*
X212469317Y-128486315D01*
X212525922Y-128380413D01*
X212560780Y-128265503D01*
X212572550Y-128146000D01*
X212569600Y-128077800D01*
X212417200Y-127925400D01*
X211689400Y-127925400D01*
X211689400Y-127945400D01*
X211130600Y-127945400D01*
X211130600Y-127925400D01*
X211110600Y-127925400D01*
X211110600Y-127366600D01*
X211130600Y-127366600D01*
X211130600Y-127346600D01*
X211689400Y-127346600D01*
X211689400Y-127366600D01*
X212417200Y-127366600D01*
X212569600Y-127214200D01*
X212572550Y-127146000D01*
X212568413Y-127104001D01*
X213360173Y-127104001D01*
X214191157Y-127934986D01*
X214204615Y-127951385D01*
X214240965Y-127981216D01*
X214270060Y-128005094D01*
X214296107Y-128019016D01*
X214344727Y-128045004D01*
X214425745Y-128069581D01*
X214453726Y-128072337D01*
X214453726Y-128146000D01*
X214459611Y-128205751D01*
X214477040Y-128263206D01*
X214505342Y-128316157D01*
X214543432Y-128362568D01*
X214589843Y-128400658D01*
X214642794Y-128428960D01*
X214700249Y-128446389D01*
X214760000Y-128452274D01*
X215860000Y-128452274D01*
X215919751Y-128446389D01*
X215977206Y-128428960D01*
X216030157Y-128400658D01*
X216076568Y-128362568D01*
X216114658Y-128316157D01*
X216142960Y-128263206D01*
X216160389Y-128205751D01*
X216166274Y-128146000D01*
X216166274Y-127146000D01*
X216160389Y-127086249D01*
X216142960Y-127028794D01*
X216114658Y-126975843D01*
X216076568Y-126929432D01*
X216065806Y-126920600D01*
X216094413Y-126911922D01*
X216200315Y-126855317D01*
X216293138Y-126779138D01*
X216369317Y-126686315D01*
X216425922Y-126580413D01*
X216460780Y-126465503D01*
X216472550Y-126346000D01*
X216469600Y-126277800D01*
X216317200Y-126125400D01*
X215589400Y-126125400D01*
X215589400Y-126145400D01*
X215030600Y-126145400D01*
X215030600Y-126125400D01*
X214302800Y-126125400D01*
X214150400Y-126277800D01*
X214147450Y-126346000D01*
X214159220Y-126465503D01*
X214194078Y-126580413D01*
X214250683Y-126686315D01*
X214326862Y-126779138D01*
X214419685Y-126855317D01*
X214525587Y-126911922D01*
X214554194Y-126920600D01*
X214543432Y-126929432D01*
X214505342Y-126975843D01*
X214485254Y-127013426D01*
X213857049Y-126385221D01*
X213843586Y-126368816D01*
X213778140Y-126315107D01*
X213703474Y-126275197D01*
X213622456Y-126250620D01*
X213559310Y-126244401D01*
X213559308Y-126244401D01*
X213538201Y-126242322D01*
X213517094Y-126244401D01*
X212945401Y-126244401D01*
X213018939Y-126205094D01*
X213084385Y-126151385D01*
X213097848Y-126134980D01*
X213886828Y-125346000D01*
X214147450Y-125346000D01*
X214150400Y-125414200D01*
X214302800Y-125566600D01*
X215030600Y-125566600D01*
X215030600Y-124888800D01*
X215589400Y-124888800D01*
X215589400Y-125566600D01*
X216317200Y-125566600D01*
X216469600Y-125414200D01*
X216472550Y-125346000D01*
X216460780Y-125226497D01*
X216425922Y-125111587D01*
X216369317Y-125005685D01*
X216293138Y-124912862D01*
X216200315Y-124836683D01*
X216094413Y-124780078D01*
X215979503Y-124745220D01*
X215860000Y-124733450D01*
X215741800Y-124736400D01*
X215589400Y-124888800D01*
X215030600Y-124888800D01*
X214878200Y-124736400D01*
X214760000Y-124733450D01*
X214640497Y-124745220D01*
X214525587Y-124780078D01*
X214419685Y-124836683D01*
X214326862Y-124912862D01*
X214250683Y-125005685D01*
X214194078Y-125111587D01*
X214159220Y-125226497D01*
X214147450Y-125346000D01*
X213886828Y-125346000D01*
X217191555Y-122041274D01*
X217638445Y-122041274D01*
X217758998Y-122161827D01*
X217758998Y-122208168D01*
X217782240Y-122325014D01*
X217827832Y-122435080D01*
X217894019Y-122534137D01*
X217978261Y-122618379D01*
X218077318Y-122684566D01*
X218187384Y-122730158D01*
X218304230Y-122753400D01*
X218423366Y-122753400D01*
X218540212Y-122730158D01*
X218650278Y-122684566D01*
X218749335Y-122618379D01*
X218833577Y-122534137D01*
X218899764Y-122435080D01*
X218945356Y-122325014D01*
X218968598Y-122208168D01*
X218968598Y-122089032D01*
X218959098Y-122041274D01*
X220140000Y-122041274D01*
X220199751Y-122035389D01*
X220257206Y-122017960D01*
X220310157Y-121989658D01*
X220356568Y-121951568D01*
X220394658Y-121905157D01*
X220422960Y-121852206D01*
X220425510Y-121843800D01*
X220673158Y-121843800D01*
X220700600Y-121846503D01*
G36*
X221259400Y-127736600D02*
G01*
X221279400Y-127736600D01*
X221279400Y-128295400D01*
X221259400Y-128295400D01*
X221259400Y-128315400D01*
X220700600Y-128315400D01*
X220700600Y-128295400D01*
X220680600Y-128295400D01*
X220680600Y-127736600D01*
X220700600Y-127736600D01*
X220700600Y-127716600D01*
X221259400Y-127716600D01*
X221259400Y-127736600D01*
X221259400Y-127736600D01*
G37*
X221259400Y-127736600D02*
X221279400Y-127736600D01*
X221279400Y-128295400D01*
X221259400Y-128295400D01*
X221259400Y-128315400D01*
X220700600Y-128315400D01*
X220700600Y-128295400D01*
X220680600Y-128295400D01*
X220680600Y-127736600D01*
X220700600Y-127736600D01*
X220700600Y-127716600D01*
X221259400Y-127716600D01*
X221259400Y-127736600D01*
G36*
X243917726Y-87760000D02*
G01*
X243923611Y-87819751D01*
X243941040Y-87877206D01*
X243969342Y-87930157D01*
X244007432Y-87976568D01*
X244053843Y-88014658D01*
X244106794Y-88042960D01*
X244164249Y-88060389D01*
X244224000Y-88066274D01*
X245324000Y-88066274D01*
X245383751Y-88060389D01*
X245441206Y-88042960D01*
X245494157Y-88014658D01*
X245540568Y-87976568D01*
X245578658Y-87930157D01*
X245606960Y-87877206D01*
X245624389Y-87819751D01*
X245625200Y-87811517D01*
X245625200Y-90433533D01*
X245542680Y-90234313D01*
X245410830Y-90036984D01*
X245243016Y-89869170D01*
X245045687Y-89737320D01*
X244826427Y-89646499D01*
X244593662Y-89600200D01*
X244356338Y-89600200D01*
X244123573Y-89646499D01*
X243904313Y-89737320D01*
X243706984Y-89869170D01*
X243539170Y-90036984D01*
X243445838Y-90176666D01*
X243447550Y-89905000D01*
X243435780Y-89785497D01*
X243400922Y-89670587D01*
X243344317Y-89564685D01*
X243268138Y-89471862D01*
X243175315Y-89395683D01*
X243069413Y-89339078D01*
X242954503Y-89304220D01*
X242835000Y-89292450D01*
X242366800Y-89295400D01*
X242214400Y-89447800D01*
X242214400Y-90525600D01*
X242234400Y-90525600D01*
X242234400Y-91084400D01*
X242214400Y-91084400D01*
X242214400Y-92162200D01*
X242366800Y-92314600D01*
X242835000Y-92317550D01*
X242954503Y-92305780D01*
X243069413Y-92270922D01*
X243175315Y-92214317D01*
X243268138Y-92138138D01*
X243344317Y-92045315D01*
X243400922Y-91939413D01*
X243435780Y-91824503D01*
X243447550Y-91705000D01*
X243445838Y-91433334D01*
X243539170Y-91573016D01*
X243706984Y-91740830D01*
X243904313Y-91872680D01*
X244123573Y-91963501D01*
X244356338Y-92009800D01*
X244593662Y-92009800D01*
X244826427Y-91963501D01*
X245045687Y-91872680D01*
X245243016Y-91740830D01*
X245410830Y-91573016D01*
X245542680Y-91375687D01*
X245625200Y-91176467D01*
X245625201Y-106692633D01*
X245622669Y-106718452D01*
X245620217Y-106726573D01*
X245616231Y-106734072D01*
X245610864Y-106740651D01*
X245604326Y-106746060D01*
X245596854Y-106750100D01*
X245588744Y-106752611D01*
X245564108Y-106755200D01*
X240369461Y-106755200D01*
X240462680Y-106615687D01*
X240553501Y-106396427D01*
X240599800Y-106163662D01*
X240599800Y-105926338D01*
X240553501Y-105693573D01*
X240462680Y-105474313D01*
X240330830Y-105276984D01*
X240163016Y-105109170D01*
X240023334Y-105015838D01*
X240295000Y-105017550D01*
X240414503Y-105005780D01*
X240529413Y-104970922D01*
X240635315Y-104914317D01*
X240728138Y-104838138D01*
X240804317Y-104745315D01*
X240860922Y-104639413D01*
X240895780Y-104524503D01*
X240907550Y-104405000D01*
X240904600Y-103936800D01*
X240752200Y-103784400D01*
X239674400Y-103784400D01*
X239674400Y-103804400D01*
X239115600Y-103804400D01*
X239115600Y-103784400D01*
X238037800Y-103784400D01*
X237885400Y-103936800D01*
X237882450Y-104405000D01*
X237894220Y-104524503D01*
X237929078Y-104639413D01*
X237985683Y-104745315D01*
X238061862Y-104838138D01*
X238154685Y-104914317D01*
X238260587Y-104970922D01*
X238375497Y-105005780D01*
X238495000Y-105017550D01*
X238766666Y-105015838D01*
X238626984Y-105109170D01*
X238459170Y-105276984D01*
X238327320Y-105474313D01*
X238236499Y-105693573D01*
X238190200Y-105926338D01*
X238190200Y-106163662D01*
X238236499Y-106396427D01*
X238327320Y-106615687D01*
X238420539Y-106755200D01*
X236565793Y-106755200D01*
X236629364Y-106728868D01*
X236990478Y-106487580D01*
X237297580Y-106180478D01*
X237538868Y-105819364D01*
X237705071Y-105418116D01*
X237789800Y-104992154D01*
X237789800Y-104557846D01*
X237705071Y-104131884D01*
X237538868Y-103730636D01*
X237297580Y-103369522D01*
X236990478Y-103062420D01*
X236629364Y-102821132D01*
X236228116Y-102654929D01*
X235802154Y-102570200D01*
X235367846Y-102570200D01*
X234941884Y-102654929D01*
X234540636Y-102821132D01*
X234179522Y-103062420D01*
X233872420Y-103369522D01*
X233631132Y-103730636D01*
X233464929Y-104131884D01*
X233380200Y-104557846D01*
X233380200Y-104992154D01*
X233464929Y-105418116D01*
X233631132Y-105819364D01*
X233872420Y-106180478D01*
X234179522Y-106487580D01*
X234540636Y-106728868D01*
X234604207Y-106755200D01*
X232362576Y-106755200D01*
X232347469Y-106756688D01*
X232345052Y-106756671D01*
X232340121Y-106757154D01*
X232262483Y-106765314D01*
X232230991Y-106771778D01*
X232199394Y-106777806D01*
X232194659Y-106779236D01*
X232194652Y-106779237D01*
X232194646Y-106779240D01*
X232120076Y-106802322D01*
X232090399Y-106814797D01*
X232060618Y-106826830D01*
X232056243Y-106829155D01*
X231987572Y-106866285D01*
X231960892Y-106884281D01*
X231934005Y-106901876D01*
X231930166Y-106905006D01*
X231870015Y-106954767D01*
X231847348Y-106977593D01*
X231824379Y-107000086D01*
X231821226Y-107003897D01*
X231821222Y-107003901D01*
X231821221Y-107003903D01*
X231771881Y-107064399D01*
X231754069Y-107091209D01*
X231735919Y-107117717D01*
X231733562Y-107122075D01*
X231696912Y-107191004D01*
X231684665Y-107220718D01*
X231671991Y-107250289D01*
X231670526Y-107255022D01*
X231647962Y-107329756D01*
X231641716Y-107361298D01*
X231635030Y-107392756D01*
X231634511Y-107397683D01*
X231626893Y-107475377D01*
X231626893Y-107475387D01*
X231625200Y-107492577D01*
X231625201Y-113192633D01*
X231622669Y-113218452D01*
X231620217Y-113226573D01*
X231616231Y-113234072D01*
X231610864Y-113240651D01*
X231604326Y-113246060D01*
X231596854Y-113250100D01*
X231588744Y-113252611D01*
X231564108Y-113255200D01*
X226997424Y-113255200D01*
X226980000Y-113253484D01*
X226962576Y-113255200D01*
X226910447Y-113260334D01*
X226843567Y-113280622D01*
X226781930Y-113313568D01*
X226727905Y-113357905D01*
X226683568Y-113411930D01*
X226650622Y-113473567D01*
X226630334Y-113540447D01*
X226623484Y-113610000D01*
X226625200Y-113627424D01*
X226625201Y-124092566D01*
X226623484Y-124110000D01*
X226630334Y-124179553D01*
X226650622Y-124246433D01*
X226683568Y-124308070D01*
X226727905Y-124362095D01*
X226781930Y-124406432D01*
X226843567Y-124439378D01*
X226910447Y-124459666D01*
X226962576Y-124464800D01*
X226980000Y-124466516D01*
X226997424Y-124464800D01*
X231562644Y-124464800D01*
X231588452Y-124467331D01*
X231596573Y-124469783D01*
X231604070Y-124473768D01*
X231610652Y-124479137D01*
X231616061Y-124485675D01*
X231620099Y-124493142D01*
X231622611Y-124501258D01*
X231625200Y-124525893D01*
X231625200Y-125035401D01*
X231609317Y-125005685D01*
X231533138Y-124912862D01*
X231440315Y-124836683D01*
X231334413Y-124780078D01*
X231219503Y-124745220D01*
X231100000Y-124733450D01*
X230981800Y-124736400D01*
X230829400Y-124888800D01*
X230829400Y-125566600D01*
X230849400Y-125566600D01*
X230849400Y-126125400D01*
X230829400Y-126125400D01*
X230829400Y-126145400D01*
X230270600Y-126145400D01*
X230270600Y-126125400D01*
X229542800Y-126125400D01*
X229390400Y-126277800D01*
X229387727Y-126339600D01*
X229023516Y-126339600D01*
X228985537Y-126301621D01*
X228886480Y-126235434D01*
X228776414Y-126189842D01*
X228659568Y-126166600D01*
X228540432Y-126166600D01*
X228423586Y-126189842D01*
X228313520Y-126235434D01*
X228214463Y-126301621D01*
X228130221Y-126385863D01*
X228064034Y-126484920D01*
X228018442Y-126594986D01*
X227995200Y-126711832D01*
X227995200Y-126830968D01*
X228018442Y-126947814D01*
X228064034Y-127057880D01*
X228130221Y-127156937D01*
X228214463Y-127241179D01*
X228313520Y-127307366D01*
X228423586Y-127352958D01*
X228540432Y-127376200D01*
X228659568Y-127376200D01*
X228776414Y-127352958D01*
X228886480Y-127307366D01*
X228985537Y-127241179D01*
X229023516Y-127203200D01*
X229386344Y-127203200D01*
X229693726Y-127510583D01*
X229693726Y-127844446D01*
X229493771Y-128044401D01*
X227506274Y-128044401D01*
X227506274Y-127146000D01*
X227500389Y-127086249D01*
X227482960Y-127028794D01*
X227454658Y-126975843D01*
X227416568Y-126929432D01*
X227370157Y-126891342D01*
X227317206Y-126863040D01*
X227259751Y-126845611D01*
X227200000Y-126839726D01*
X226401554Y-126839726D01*
X226214102Y-126652274D01*
X227200000Y-126652274D01*
X227259751Y-126646389D01*
X227317206Y-126628960D01*
X227370157Y-126600658D01*
X227416568Y-126562568D01*
X227454658Y-126516157D01*
X227482960Y-126463206D01*
X227500389Y-126405751D01*
X227506274Y-126346000D01*
X227506274Y-125346000D01*
X229387450Y-125346000D01*
X229390400Y-125414200D01*
X229542800Y-125566600D01*
X230270600Y-125566600D01*
X230270600Y-124888800D01*
X230118200Y-124736400D01*
X230000000Y-124733450D01*
X229880497Y-124745220D01*
X229765587Y-124780078D01*
X229659685Y-124836683D01*
X229566862Y-124912862D01*
X229490683Y-125005685D01*
X229434078Y-125111587D01*
X229399220Y-125226497D01*
X229387450Y-125346000D01*
X227506274Y-125346000D01*
X227500389Y-125286249D01*
X227482960Y-125228794D01*
X227454658Y-125175843D01*
X227416568Y-125129432D01*
X227370157Y-125091342D01*
X227317206Y-125063040D01*
X227259751Y-125045611D01*
X227200000Y-125039726D01*
X226841155Y-125039726D01*
X224879800Y-123078372D01*
X224879800Y-122041274D01*
X225050000Y-122041274D01*
X225109751Y-122035389D01*
X225167206Y-122017960D01*
X225220157Y-121989658D01*
X225266568Y-121951568D01*
X225304658Y-121905157D01*
X225332960Y-121852206D01*
X225350389Y-121794751D01*
X225356274Y-121735000D01*
X225356274Y-120835000D01*
X225350389Y-120775249D01*
X225332960Y-120717794D01*
X225304658Y-120664843D01*
X225266568Y-120618432D01*
X225220157Y-120580342D01*
X225167206Y-120552040D01*
X225109751Y-120534611D01*
X225050000Y-120528726D01*
X224451555Y-120528726D01*
X223899000Y-119976172D01*
X223899000Y-117430760D01*
X223924358Y-117405402D01*
X223990545Y-117306345D01*
X224036137Y-117196279D01*
X224059379Y-117079433D01*
X224059379Y-116960297D01*
X224036137Y-116843451D01*
X223990545Y-116733385D01*
X223924358Y-116634328D01*
X223840116Y-116550086D01*
X223741059Y-116483899D01*
X223630993Y-116438307D01*
X223514147Y-116415065D01*
X223395011Y-116415065D01*
X223278165Y-116438307D01*
X223168099Y-116483899D01*
X223069042Y-116550086D01*
X222984800Y-116634328D01*
X222918613Y-116733385D01*
X222873021Y-116843451D01*
X222849779Y-116960297D01*
X222849779Y-117079433D01*
X222873021Y-117196279D01*
X222918613Y-117306345D01*
X222984800Y-117405402D01*
X223039400Y-117460002D01*
X223039401Y-119835572D01*
X222986274Y-119782446D01*
X222986274Y-119184000D01*
X222980389Y-119124249D01*
X222962960Y-119066794D01*
X222934658Y-119013843D01*
X222896568Y-118967432D01*
X222850157Y-118929342D01*
X222797206Y-118901040D01*
X222739751Y-118883611D01*
X222680000Y-118877726D01*
X221537064Y-118877726D01*
X221530714Y-118813255D01*
X221498761Y-118707922D01*
X221446873Y-118610845D01*
X221394537Y-118547074D01*
X221377043Y-118525757D01*
X221355725Y-118508262D01*
X217559143Y-114711681D01*
X217541643Y-114690357D01*
X217456554Y-114620527D01*
X217359478Y-114568639D01*
X217254144Y-114536686D01*
X217172044Y-114528600D01*
X217172042Y-114528600D01*
X217144600Y-114525897D01*
X217117158Y-114528600D01*
X217097274Y-114528600D01*
X217097274Y-113860215D01*
X217127398Y-113830091D01*
X217229990Y-113830091D01*
X217387021Y-113798856D01*
X217534941Y-113737585D01*
X217668066Y-113648634D01*
X217781279Y-113535421D01*
X217870230Y-113402296D01*
X217931501Y-113254376D01*
X217962736Y-113097345D01*
X217962736Y-112937237D01*
X217931501Y-112780206D01*
X217870230Y-112632286D01*
X217781279Y-112499161D01*
X217668066Y-112385948D01*
X217534941Y-112296997D01*
X217387021Y-112235726D01*
X217229990Y-112204491D01*
X217069882Y-112204491D01*
X216933274Y-112231664D01*
X216933274Y-111978084D01*
X216962232Y-112013368D01*
X217008643Y-112051458D01*
X217061594Y-112079760D01*
X217119049Y-112097189D01*
X217178800Y-112103074D01*
X217949868Y-112103074D01*
X217963236Y-112129433D01*
X218037399Y-112223875D01*
X218128562Y-112302034D01*
X218233221Y-112360906D01*
X218347354Y-112398229D01*
X218428960Y-112409760D01*
X218581360Y-112257360D01*
X218581360Y-112055946D01*
X218613476Y-112119273D01*
X218687639Y-112213715D01*
X218778802Y-112291874D01*
X218883461Y-112350746D01*
X218940052Y-112369252D01*
X218980560Y-112409760D01*
X219062166Y-112398229D01*
X219064378Y-112397506D01*
X219079200Y-112399600D01*
X219089514Y-112389286D01*
X219176299Y-112360906D01*
X219280958Y-112302034D01*
X219372121Y-112223875D01*
X219446284Y-112129433D01*
X219478400Y-112066106D01*
X219478400Y-112247200D01*
X219630800Y-112399600D01*
X219712406Y-112388069D01*
X219826539Y-112350746D01*
X219931198Y-112291874D01*
X220022361Y-112213715D01*
X220096524Y-112119273D01*
X220107315Y-112097994D01*
X220748800Y-112097994D01*
X220336884Y-112179929D01*
X219935636Y-112346132D01*
X219574522Y-112587420D01*
X219267420Y-112894522D01*
X219026132Y-113255636D01*
X218859929Y-113656884D01*
X218775200Y-114082846D01*
X218775200Y-114517154D01*
X218859929Y-114943116D01*
X219026132Y-115344364D01*
X219267420Y-115705478D01*
X219574522Y-116012580D01*
X219935636Y-116253868D01*
X220336884Y-116420071D01*
X220762846Y-116504800D01*
X221197154Y-116504800D01*
X221623116Y-116420071D01*
X222024364Y-116253868D01*
X222385478Y-116012580D01*
X222692580Y-115705478D01*
X222933868Y-115344364D01*
X223100071Y-114943116D01*
X223184800Y-114517154D01*
X223184800Y-114082846D01*
X223100071Y-113656884D01*
X222933868Y-113255636D01*
X222692580Y-112894522D01*
X222385478Y-112587420D01*
X222024364Y-112346132D01*
X221623116Y-112179929D01*
X221211200Y-112097994D01*
X221847292Y-112097994D01*
X221863236Y-112129433D01*
X221937399Y-112223875D01*
X222028562Y-112302034D01*
X222133221Y-112360906D01*
X222247354Y-112398229D01*
X222328960Y-112409760D01*
X222481360Y-112257360D01*
X222481360Y-112055946D01*
X222513476Y-112119273D01*
X222587639Y-112213715D01*
X222678802Y-112291874D01*
X222783461Y-112350746D01*
X222840052Y-112369252D01*
X222880560Y-112409760D01*
X222962166Y-112398229D01*
X222964378Y-112397506D01*
X222979200Y-112399600D01*
X222989514Y-112389286D01*
X223076299Y-112360906D01*
X223180958Y-112302034D01*
X223272121Y-112223875D01*
X223346284Y-112129433D01*
X223378400Y-112066106D01*
X223378400Y-112247200D01*
X223530800Y-112399600D01*
X223612406Y-112388069D01*
X223726539Y-112350746D01*
X223831198Y-112291874D01*
X223922361Y-112213715D01*
X223996524Y-112119273D01*
X224007315Y-112097994D01*
X224781200Y-112097994D01*
X224840951Y-112092109D01*
X224898406Y-112074680D01*
X224951357Y-112046378D01*
X224997768Y-112008288D01*
X225035858Y-111961877D01*
X225064160Y-111908926D01*
X225081589Y-111851471D01*
X225087474Y-111791720D01*
X225087474Y-110198998D01*
X232866669Y-102419803D01*
X232943858Y-102496992D01*
X233132997Y-102623371D01*
X233343157Y-102710422D01*
X233566262Y-102754800D01*
X233793738Y-102754800D01*
X234016843Y-102710422D01*
X234227003Y-102623371D01*
X234416142Y-102496992D01*
X234576992Y-102336142D01*
X234703371Y-102147003D01*
X234790422Y-101936843D01*
X234804712Y-101865000D01*
X237882450Y-101865000D01*
X237894220Y-101984503D01*
X237929078Y-102099413D01*
X237985683Y-102205315D01*
X238010045Y-102235000D01*
X237985683Y-102264685D01*
X237929078Y-102370587D01*
X237894220Y-102485497D01*
X237882450Y-102605000D01*
X237885400Y-103073200D01*
X238037800Y-103225600D01*
X239115600Y-103225600D01*
X239115600Y-101244400D01*
X239674400Y-101244400D01*
X239674400Y-103225600D01*
X240752200Y-103225600D01*
X240904600Y-103073200D01*
X240907550Y-102605000D01*
X240895780Y-102485497D01*
X240860922Y-102370587D01*
X240804317Y-102264685D01*
X240779955Y-102235000D01*
X240804317Y-102205315D01*
X240860922Y-102099413D01*
X240895780Y-101984503D01*
X240907550Y-101865000D01*
X240904600Y-101396800D01*
X240752200Y-101244400D01*
X239674400Y-101244400D01*
X239115600Y-101244400D01*
X238037800Y-101244400D01*
X237885400Y-101396800D01*
X237882450Y-101865000D01*
X234804712Y-101865000D01*
X234834800Y-101713738D01*
X234834800Y-101486262D01*
X234790422Y-101263157D01*
X234703371Y-101052997D01*
X234576992Y-100863858D01*
X234416142Y-100703008D01*
X234227003Y-100576629D01*
X234016843Y-100489578D01*
X233793738Y-100445200D01*
X233566262Y-100445200D01*
X233343157Y-100489578D01*
X233132997Y-100576629D01*
X232943858Y-100703008D01*
X232859666Y-100787200D01*
X232775049Y-100787200D01*
X233383752Y-100178497D01*
X233566262Y-100214800D01*
X233793738Y-100214800D01*
X234016843Y-100170422D01*
X234227003Y-100083371D01*
X234416142Y-99956992D01*
X234576992Y-99796142D01*
X234703371Y-99607003D01*
X234790422Y-99396843D01*
X234834800Y-99173738D01*
X234834800Y-98946262D01*
X234790422Y-98723157D01*
X234703371Y-98512997D01*
X234576992Y-98323858D01*
X234416142Y-98163008D01*
X234227003Y-98036629D01*
X234016843Y-97949578D01*
X233793738Y-97905200D01*
X233566262Y-97905200D01*
X233343157Y-97949578D01*
X233132997Y-98036629D01*
X232943858Y-98163008D01*
X232783008Y-98323858D01*
X232656629Y-98512997D01*
X232590390Y-98672914D01*
X228652274Y-102611029D01*
X228652274Y-101702988D01*
X229737725Y-100617538D01*
X229759043Y-100600043D01*
X229787798Y-100565005D01*
X229828873Y-100514955D01*
X229880761Y-100417878D01*
X229912714Y-100312545D01*
X229923503Y-100203000D01*
X229920800Y-100175556D01*
X229920800Y-95531442D01*
X229923503Y-95504000D01*
X229920800Y-95476556D01*
X229912714Y-95394456D01*
X229880761Y-95289122D01*
X229828873Y-95192046D01*
X229759043Y-95106957D01*
X229737725Y-95089462D01*
X229597547Y-94949284D01*
X229795022Y-94949284D01*
X231741457Y-96895719D01*
X231758957Y-96917043D01*
X231844046Y-96986873D01*
X231941122Y-97038761D01*
X232046456Y-97070714D01*
X232128556Y-97078800D01*
X232128557Y-97078800D01*
X232155999Y-97081503D01*
X232183441Y-97078800D01*
X235019861Y-97078800D01*
X235041561Y-97111277D01*
X235125803Y-97195519D01*
X235224860Y-97261706D01*
X235334926Y-97307298D01*
X235451772Y-97330540D01*
X235570908Y-97330540D01*
X235687754Y-97307298D01*
X235742695Y-97284540D01*
X239000018Y-97284540D01*
X238824313Y-97357320D01*
X238626984Y-97489170D01*
X238459170Y-97656984D01*
X238327320Y-97854313D01*
X238236499Y-98073573D01*
X238190200Y-98306338D01*
X238190200Y-98543662D01*
X238236499Y-98776427D01*
X238327320Y-98995687D01*
X238459170Y-99193016D01*
X238626984Y-99360830D01*
X238766666Y-99454162D01*
X238495000Y-99452450D01*
X238375497Y-99464220D01*
X238260587Y-99499078D01*
X238154685Y-99555683D01*
X238061862Y-99631862D01*
X237985683Y-99724685D01*
X237929078Y-99830587D01*
X237894220Y-99945497D01*
X237882450Y-100065000D01*
X237885400Y-100533200D01*
X238037800Y-100685600D01*
X239115600Y-100685600D01*
X239115600Y-100665600D01*
X239674400Y-100665600D01*
X239674400Y-100685600D01*
X240752200Y-100685600D01*
X240904600Y-100533200D01*
X240907550Y-100065000D01*
X240895780Y-99945497D01*
X240860922Y-99830587D01*
X240804317Y-99724685D01*
X240728138Y-99631862D01*
X240635315Y-99555683D01*
X240529413Y-99499078D01*
X240414503Y-99464220D01*
X240295000Y-99452450D01*
X240023334Y-99454162D01*
X240163016Y-99360830D01*
X240330830Y-99193016D01*
X240462680Y-98995687D01*
X240553501Y-98776427D01*
X240599800Y-98543662D01*
X240599800Y-98306338D01*
X240553501Y-98073573D01*
X240462680Y-97854313D01*
X240330830Y-97656984D01*
X240163016Y-97489170D01*
X239965687Y-97357320D01*
X239789982Y-97284540D01*
X242452871Y-97284540D01*
X242479315Y-97417485D01*
X242540586Y-97565405D01*
X242629537Y-97698530D01*
X242742750Y-97811743D01*
X242875875Y-97900694D01*
X243023795Y-97961965D01*
X243180826Y-97993200D01*
X243340934Y-97993200D01*
X243497965Y-97961965D01*
X243645885Y-97900694D01*
X243779010Y-97811743D01*
X243892223Y-97698530D01*
X243981174Y-97565405D01*
X244042445Y-97417485D01*
X244073680Y-97260454D01*
X244073680Y-97100346D01*
X244042445Y-96943315D01*
X243981174Y-96795395D01*
X243892223Y-96662270D01*
X243779010Y-96549057D01*
X243645885Y-96460106D01*
X243497965Y-96398835D01*
X243340934Y-96367600D01*
X243238342Y-96367600D01*
X243220763Y-96350021D01*
X243203263Y-96328697D01*
X243118174Y-96258867D01*
X243021098Y-96206979D01*
X242915764Y-96175026D01*
X242833664Y-96166940D01*
X242833662Y-96166940D01*
X242806220Y-96164237D01*
X242778778Y-96166940D01*
X235742802Y-96166940D01*
X235720144Y-96144282D01*
X235702643Y-96122957D01*
X235617554Y-96053127D01*
X235520478Y-96001239D01*
X235415144Y-95969286D01*
X235333044Y-95961200D01*
X235333042Y-95961200D01*
X235305600Y-95958497D01*
X235278158Y-95961200D01*
X233927348Y-95961200D01*
X234094924Y-95823674D01*
X234257914Y-95625070D01*
X234379027Y-95398485D01*
X234453607Y-95152625D01*
X234478790Y-94896940D01*
X234453607Y-94641255D01*
X234379027Y-94395395D01*
X234257914Y-94168810D01*
X234094924Y-93970206D01*
X233940965Y-93843855D01*
X235222027Y-93843855D01*
X235869200Y-94491029D01*
X235869200Y-94547568D01*
X235892442Y-94664414D01*
X235938034Y-94774480D01*
X236004221Y-94873537D01*
X236088463Y-94957779D01*
X236187520Y-95023966D01*
X236297586Y-95069558D01*
X236414432Y-95092800D01*
X236533568Y-95092800D01*
X236650414Y-95069558D01*
X236760480Y-95023966D01*
X236859537Y-94957779D01*
X236943779Y-94873537D01*
X237009966Y-94774480D01*
X237055558Y-94664414D01*
X237078800Y-94547568D01*
X237078800Y-94428432D01*
X237055558Y-94311586D01*
X237009966Y-94201520D01*
X236943779Y-94102463D01*
X236859537Y-94018221D01*
X236760480Y-93952034D01*
X236650414Y-93906442D01*
X236533568Y-93883200D01*
X236477029Y-93883200D01*
X235984472Y-93390644D01*
X239253051Y-93390644D01*
X239274158Y-93392723D01*
X239295265Y-93390644D01*
X239295267Y-93390644D01*
X239358413Y-93384425D01*
X239439431Y-93359848D01*
X239514097Y-93319938D01*
X239579543Y-93266229D01*
X239593006Y-93249824D01*
X240033029Y-92809802D01*
X240089568Y-92809802D01*
X240206414Y-92786560D01*
X240316480Y-92740968D01*
X240415537Y-92674781D01*
X240499779Y-92590539D01*
X240565966Y-92491482D01*
X240611558Y-92381416D01*
X240634800Y-92264570D01*
X240634800Y-92214592D01*
X240635315Y-92214317D01*
X240665000Y-92189955D01*
X240694685Y-92214317D01*
X240800587Y-92270922D01*
X240915497Y-92305780D01*
X241035000Y-92317550D01*
X241503200Y-92314600D01*
X241655600Y-92162200D01*
X241655600Y-91084400D01*
X239674400Y-91084400D01*
X239674400Y-91104400D01*
X239115600Y-91104400D01*
X239115600Y-91084400D01*
X239095600Y-91084400D01*
X239095600Y-90525600D01*
X239115600Y-90525600D01*
X239115600Y-89447800D01*
X239674400Y-89447800D01*
X239674400Y-90525600D01*
X241655600Y-90525600D01*
X241655600Y-89447800D01*
X241503200Y-89295400D01*
X241035000Y-89292450D01*
X240915497Y-89304220D01*
X240800587Y-89339078D01*
X240694685Y-89395683D01*
X240665000Y-89420045D01*
X240635315Y-89395683D01*
X240529413Y-89339078D01*
X240414503Y-89304220D01*
X240295000Y-89292450D01*
X239826800Y-89295400D01*
X239674400Y-89447800D01*
X239115600Y-89447800D01*
X238963200Y-89295400D01*
X238495000Y-89292450D01*
X238375497Y-89304220D01*
X238260587Y-89339078D01*
X238154685Y-89395683D01*
X238061862Y-89471862D01*
X237985683Y-89564685D01*
X237929078Y-89670587D01*
X237894220Y-89785497D01*
X237882450Y-89905000D01*
X237884162Y-90176666D01*
X237790830Y-90036984D01*
X237623016Y-89869170D01*
X237425687Y-89737320D01*
X237206427Y-89646499D01*
X236973662Y-89600200D01*
X236736338Y-89600200D01*
X236503573Y-89646499D01*
X236284313Y-89737320D01*
X236086984Y-89869170D01*
X235919170Y-90036984D01*
X235787320Y-90234313D01*
X235696499Y-90453573D01*
X235650200Y-90686338D01*
X235650200Y-90923662D01*
X235696499Y-91156427D01*
X235787320Y-91375687D01*
X235919170Y-91573016D01*
X236086984Y-91740830D01*
X236284313Y-91872680D01*
X236503573Y-91963501D01*
X236736338Y-92009800D01*
X236973662Y-92009800D01*
X237206427Y-91963501D01*
X237425687Y-91872680D01*
X237623016Y-91740830D01*
X237790830Y-91573016D01*
X237884162Y-91433334D01*
X237882450Y-91705000D01*
X237894220Y-91824503D01*
X237929078Y-91939413D01*
X237985683Y-92045315D01*
X238061862Y-92138138D01*
X238154685Y-92214317D01*
X238260587Y-92270922D01*
X238375497Y-92305780D01*
X238495000Y-92317550D01*
X238963200Y-92314600D01*
X239115598Y-92162202D01*
X239115598Y-92314600D01*
X239312573Y-92314600D01*
X239096130Y-92531044D01*
X228863954Y-92531044D01*
X231359248Y-90035751D01*
X231382393Y-90270745D01*
X231456973Y-90516605D01*
X231578086Y-90743190D01*
X231741076Y-90941794D01*
X231939680Y-91104784D01*
X232166265Y-91225897D01*
X232412125Y-91300477D01*
X232603744Y-91319350D01*
X233232256Y-91319350D01*
X233423875Y-91300477D01*
X233669735Y-91225897D01*
X233896320Y-91104784D01*
X234094924Y-90941794D01*
X234257914Y-90743190D01*
X234379027Y-90516605D01*
X234453607Y-90270745D01*
X234478790Y-90015060D01*
X234453607Y-89759375D01*
X234379027Y-89513515D01*
X234257914Y-89286930D01*
X234094924Y-89088326D01*
X233896320Y-88925336D01*
X233695512Y-88818001D01*
X241536692Y-88818001D01*
X241557799Y-88820080D01*
X241578906Y-88818001D01*
X241578908Y-88818001D01*
X241642054Y-88811782D01*
X241723072Y-88787205D01*
X241797738Y-88747295D01*
X241863184Y-88693586D01*
X241876647Y-88677181D01*
X242853029Y-87700800D01*
X243917726Y-87700800D01*
X243917726Y-87760000D01*
X243917726Y-87760000D01*
G37*
X243917726Y-87760000D02*
X243923611Y-87819751D01*
X243941040Y-87877206D01*
X243969342Y-87930157D01*
X244007432Y-87976568D01*
X244053843Y-88014658D01*
X244106794Y-88042960D01*
X244164249Y-88060389D01*
X244224000Y-88066274D01*
X245324000Y-88066274D01*
X245383751Y-88060389D01*
X245441206Y-88042960D01*
X245494157Y-88014658D01*
X245540568Y-87976568D01*
X245578658Y-87930157D01*
X245606960Y-87877206D01*
X245624389Y-87819751D01*
X245625200Y-87811517D01*
X245625200Y-90433533D01*
X245542680Y-90234313D01*
X245410830Y-90036984D01*
X245243016Y-89869170D01*
X245045687Y-89737320D01*
X244826427Y-89646499D01*
X244593662Y-89600200D01*
X244356338Y-89600200D01*
X244123573Y-89646499D01*
X243904313Y-89737320D01*
X243706984Y-89869170D01*
X243539170Y-90036984D01*
X243445838Y-90176666D01*
X243447550Y-89905000D01*
X243435780Y-89785497D01*
X243400922Y-89670587D01*
X243344317Y-89564685D01*
X243268138Y-89471862D01*
X243175315Y-89395683D01*
X243069413Y-89339078D01*
X242954503Y-89304220D01*
X242835000Y-89292450D01*
X242366800Y-89295400D01*
X242214400Y-89447800D01*
X242214400Y-90525600D01*
X242234400Y-90525600D01*
X242234400Y-91084400D01*
X242214400Y-91084400D01*
X242214400Y-92162200D01*
X242366800Y-92314600D01*
X242835000Y-92317550D01*
X242954503Y-92305780D01*
X243069413Y-92270922D01*
X243175315Y-92214317D01*
X243268138Y-92138138D01*
X243344317Y-92045315D01*
X243400922Y-91939413D01*
X243435780Y-91824503D01*
X243447550Y-91705000D01*
X243445838Y-91433334D01*
X243539170Y-91573016D01*
X243706984Y-91740830D01*
X243904313Y-91872680D01*
X244123573Y-91963501D01*
X244356338Y-92009800D01*
X244593662Y-92009800D01*
X244826427Y-91963501D01*
X245045687Y-91872680D01*
X245243016Y-91740830D01*
X245410830Y-91573016D01*
X245542680Y-91375687D01*
X245625200Y-91176467D01*
X245625201Y-106692633D01*
X245622669Y-106718452D01*
X245620217Y-106726573D01*
X245616231Y-106734072D01*
X245610864Y-106740651D01*
X245604326Y-106746060D01*
X245596854Y-106750100D01*
X245588744Y-106752611D01*
X245564108Y-106755200D01*
X240369461Y-106755200D01*
X240462680Y-106615687D01*
X240553501Y-106396427D01*
X240599800Y-106163662D01*
X240599800Y-105926338D01*
X240553501Y-105693573D01*
X240462680Y-105474313D01*
X240330830Y-105276984D01*
X240163016Y-105109170D01*
X240023334Y-105015838D01*
X240295000Y-105017550D01*
X240414503Y-105005780D01*
X240529413Y-104970922D01*
X240635315Y-104914317D01*
X240728138Y-104838138D01*
X240804317Y-104745315D01*
X240860922Y-104639413D01*
X240895780Y-104524503D01*
X240907550Y-104405000D01*
X240904600Y-103936800D01*
X240752200Y-103784400D01*
X239674400Y-103784400D01*
X239674400Y-103804400D01*
X239115600Y-103804400D01*
X239115600Y-103784400D01*
X238037800Y-103784400D01*
X237885400Y-103936800D01*
X237882450Y-104405000D01*
X237894220Y-104524503D01*
X237929078Y-104639413D01*
X237985683Y-104745315D01*
X238061862Y-104838138D01*
X238154685Y-104914317D01*
X238260587Y-104970922D01*
X238375497Y-105005780D01*
X238495000Y-105017550D01*
X238766666Y-105015838D01*
X238626984Y-105109170D01*
X238459170Y-105276984D01*
X238327320Y-105474313D01*
X238236499Y-105693573D01*
X238190200Y-105926338D01*
X238190200Y-106163662D01*
X238236499Y-106396427D01*
X238327320Y-106615687D01*
X238420539Y-106755200D01*
X236565793Y-106755200D01*
X236629364Y-106728868D01*
X236990478Y-106487580D01*
X237297580Y-106180478D01*
X237538868Y-105819364D01*
X237705071Y-105418116D01*
X237789800Y-104992154D01*
X237789800Y-104557846D01*
X237705071Y-104131884D01*
X237538868Y-103730636D01*
X237297580Y-103369522D01*
X236990478Y-103062420D01*
X236629364Y-102821132D01*
X236228116Y-102654929D01*
X235802154Y-102570200D01*
X235367846Y-102570200D01*
X234941884Y-102654929D01*
X234540636Y-102821132D01*
X234179522Y-103062420D01*
X233872420Y-103369522D01*
X233631132Y-103730636D01*
X233464929Y-104131884D01*
X233380200Y-104557846D01*
X233380200Y-104992154D01*
X233464929Y-105418116D01*
X233631132Y-105819364D01*
X233872420Y-106180478D01*
X234179522Y-106487580D01*
X234540636Y-106728868D01*
X234604207Y-106755200D01*
X232362576Y-106755200D01*
X232347469Y-106756688D01*
X232345052Y-106756671D01*
X232340121Y-106757154D01*
X232262483Y-106765314D01*
X232230991Y-106771778D01*
X232199394Y-106777806D01*
X232194659Y-106779236D01*
X232194652Y-106779237D01*
X232194646Y-106779240D01*
X232120076Y-106802322D01*
X232090399Y-106814797D01*
X232060618Y-106826830D01*
X232056243Y-106829155D01*
X231987572Y-106866285D01*
X231960892Y-106884281D01*
X231934005Y-106901876D01*
X231930166Y-106905006D01*
X231870015Y-106954767D01*
X231847348Y-106977593D01*
X231824379Y-107000086D01*
X231821226Y-107003897D01*
X231821222Y-107003901D01*
X231821221Y-107003903D01*
X231771881Y-107064399D01*
X231754069Y-107091209D01*
X231735919Y-107117717D01*
X231733562Y-107122075D01*
X231696912Y-107191004D01*
X231684665Y-107220718D01*
X231671991Y-107250289D01*
X231670526Y-107255022D01*
X231647962Y-107329756D01*
X231641716Y-107361298D01*
X231635030Y-107392756D01*
X231634511Y-107397683D01*
X231626893Y-107475377D01*
X231626893Y-107475387D01*
X231625200Y-107492577D01*
X231625201Y-113192633D01*
X231622669Y-113218452D01*
X231620217Y-113226573D01*
X231616231Y-113234072D01*
X231610864Y-113240651D01*
X231604326Y-113246060D01*
X231596854Y-113250100D01*
X231588744Y-113252611D01*
X231564108Y-113255200D01*
X226997424Y-113255200D01*
X226980000Y-113253484D01*
X226962576Y-113255200D01*
X226910447Y-113260334D01*
X226843567Y-113280622D01*
X226781930Y-113313568D01*
X226727905Y-113357905D01*
X226683568Y-113411930D01*
X226650622Y-113473567D01*
X226630334Y-113540447D01*
X226623484Y-113610000D01*
X226625200Y-113627424D01*
X226625201Y-124092566D01*
X226623484Y-124110000D01*
X226630334Y-124179553D01*
X226650622Y-124246433D01*
X226683568Y-124308070D01*
X226727905Y-124362095D01*
X226781930Y-124406432D01*
X226843567Y-124439378D01*
X226910447Y-124459666D01*
X226962576Y-124464800D01*
X226980000Y-124466516D01*
X226997424Y-124464800D01*
X231562644Y-124464800D01*
X231588452Y-124467331D01*
X231596573Y-124469783D01*
X231604070Y-124473768D01*
X231610652Y-124479137D01*
X231616061Y-124485675D01*
X231620099Y-124493142D01*
X231622611Y-124501258D01*
X231625200Y-124525893D01*
X231625200Y-125035401D01*
X231609317Y-125005685D01*
X231533138Y-124912862D01*
X231440315Y-124836683D01*
X231334413Y-124780078D01*
X231219503Y-124745220D01*
X231100000Y-124733450D01*
X230981800Y-124736400D01*
X230829400Y-124888800D01*
X230829400Y-125566600D01*
X230849400Y-125566600D01*
X230849400Y-126125400D01*
X230829400Y-126125400D01*
X230829400Y-126145400D01*
X230270600Y-126145400D01*
X230270600Y-126125400D01*
X229542800Y-126125400D01*
X229390400Y-126277800D01*
X229387727Y-126339600D01*
X229023516Y-126339600D01*
X228985537Y-126301621D01*
X228886480Y-126235434D01*
X228776414Y-126189842D01*
X228659568Y-126166600D01*
X228540432Y-126166600D01*
X228423586Y-126189842D01*
X228313520Y-126235434D01*
X228214463Y-126301621D01*
X228130221Y-126385863D01*
X228064034Y-126484920D01*
X228018442Y-126594986D01*
X227995200Y-126711832D01*
X227995200Y-126830968D01*
X228018442Y-126947814D01*
X228064034Y-127057880D01*
X228130221Y-127156937D01*
X228214463Y-127241179D01*
X228313520Y-127307366D01*
X228423586Y-127352958D01*
X228540432Y-127376200D01*
X228659568Y-127376200D01*
X228776414Y-127352958D01*
X228886480Y-127307366D01*
X228985537Y-127241179D01*
X229023516Y-127203200D01*
X229386344Y-127203200D01*
X229693726Y-127510583D01*
X229693726Y-127844446D01*
X229493771Y-128044401D01*
X227506274Y-128044401D01*
X227506274Y-127146000D01*
X227500389Y-127086249D01*
X227482960Y-127028794D01*
X227454658Y-126975843D01*
X227416568Y-126929432D01*
X227370157Y-126891342D01*
X227317206Y-126863040D01*
X227259751Y-126845611D01*
X227200000Y-126839726D01*
X226401554Y-126839726D01*
X226214102Y-126652274D01*
X227200000Y-126652274D01*
X227259751Y-126646389D01*
X227317206Y-126628960D01*
X227370157Y-126600658D01*
X227416568Y-126562568D01*
X227454658Y-126516157D01*
X227482960Y-126463206D01*
X227500389Y-126405751D01*
X227506274Y-126346000D01*
X227506274Y-125346000D01*
X229387450Y-125346000D01*
X229390400Y-125414200D01*
X229542800Y-125566600D01*
X230270600Y-125566600D01*
X230270600Y-124888800D01*
X230118200Y-124736400D01*
X230000000Y-124733450D01*
X229880497Y-124745220D01*
X229765587Y-124780078D01*
X229659685Y-124836683D01*
X229566862Y-124912862D01*
X229490683Y-125005685D01*
X229434078Y-125111587D01*
X229399220Y-125226497D01*
X229387450Y-125346000D01*
X227506274Y-125346000D01*
X227500389Y-125286249D01*
X227482960Y-125228794D01*
X227454658Y-125175843D01*
X227416568Y-125129432D01*
X227370157Y-125091342D01*
X227317206Y-125063040D01*
X227259751Y-125045611D01*
X227200000Y-125039726D01*
X226841155Y-125039726D01*
X224879800Y-123078372D01*
X224879800Y-122041274D01*
X225050000Y-122041274D01*
X225109751Y-122035389D01*
X225167206Y-122017960D01*
X225220157Y-121989658D01*
X225266568Y-121951568D01*
X225304658Y-121905157D01*
X225332960Y-121852206D01*
X225350389Y-121794751D01*
X225356274Y-121735000D01*
X225356274Y-120835000D01*
X225350389Y-120775249D01*
X225332960Y-120717794D01*
X225304658Y-120664843D01*
X225266568Y-120618432D01*
X225220157Y-120580342D01*
X225167206Y-120552040D01*
X225109751Y-120534611D01*
X225050000Y-120528726D01*
X224451555Y-120528726D01*
X223899000Y-119976172D01*
X223899000Y-117430760D01*
X223924358Y-117405402D01*
X223990545Y-117306345D01*
X224036137Y-117196279D01*
X224059379Y-117079433D01*
X224059379Y-116960297D01*
X224036137Y-116843451D01*
X223990545Y-116733385D01*
X223924358Y-116634328D01*
X223840116Y-116550086D01*
X223741059Y-116483899D01*
X223630993Y-116438307D01*
X223514147Y-116415065D01*
X223395011Y-116415065D01*
X223278165Y-116438307D01*
X223168099Y-116483899D01*
X223069042Y-116550086D01*
X222984800Y-116634328D01*
X222918613Y-116733385D01*
X222873021Y-116843451D01*
X222849779Y-116960297D01*
X222849779Y-117079433D01*
X222873021Y-117196279D01*
X222918613Y-117306345D01*
X222984800Y-117405402D01*
X223039400Y-117460002D01*
X223039401Y-119835572D01*
X222986274Y-119782446D01*
X222986274Y-119184000D01*
X222980389Y-119124249D01*
X222962960Y-119066794D01*
X222934658Y-119013843D01*
X222896568Y-118967432D01*
X222850157Y-118929342D01*
X222797206Y-118901040D01*
X222739751Y-118883611D01*
X222680000Y-118877726D01*
X221537064Y-118877726D01*
X221530714Y-118813255D01*
X221498761Y-118707922D01*
X221446873Y-118610845D01*
X221394537Y-118547074D01*
X221377043Y-118525757D01*
X221355725Y-118508262D01*
X217559143Y-114711681D01*
X217541643Y-114690357D01*
X217456554Y-114620527D01*
X217359478Y-114568639D01*
X217254144Y-114536686D01*
X217172044Y-114528600D01*
X217172042Y-114528600D01*
X217144600Y-114525897D01*
X217117158Y-114528600D01*
X217097274Y-114528600D01*
X217097274Y-113860215D01*
X217127398Y-113830091D01*
X217229990Y-113830091D01*
X217387021Y-113798856D01*
X217534941Y-113737585D01*
X217668066Y-113648634D01*
X217781279Y-113535421D01*
X217870230Y-113402296D01*
X217931501Y-113254376D01*
X217962736Y-113097345D01*
X217962736Y-112937237D01*
X217931501Y-112780206D01*
X217870230Y-112632286D01*
X217781279Y-112499161D01*
X217668066Y-112385948D01*
X217534941Y-112296997D01*
X217387021Y-112235726D01*
X217229990Y-112204491D01*
X217069882Y-112204491D01*
X216933274Y-112231664D01*
X216933274Y-111978084D01*
X216962232Y-112013368D01*
X217008643Y-112051458D01*
X217061594Y-112079760D01*
X217119049Y-112097189D01*
X217178800Y-112103074D01*
X217949868Y-112103074D01*
X217963236Y-112129433D01*
X218037399Y-112223875D01*
X218128562Y-112302034D01*
X218233221Y-112360906D01*
X218347354Y-112398229D01*
X218428960Y-112409760D01*
X218581360Y-112257360D01*
X218581360Y-112055946D01*
X218613476Y-112119273D01*
X218687639Y-112213715D01*
X218778802Y-112291874D01*
X218883461Y-112350746D01*
X218940052Y-112369252D01*
X218980560Y-112409760D01*
X219062166Y-112398229D01*
X219064378Y-112397506D01*
X219079200Y-112399600D01*
X219089514Y-112389286D01*
X219176299Y-112360906D01*
X219280958Y-112302034D01*
X219372121Y-112223875D01*
X219446284Y-112129433D01*
X219478400Y-112066106D01*
X219478400Y-112247200D01*
X219630800Y-112399600D01*
X219712406Y-112388069D01*
X219826539Y-112350746D01*
X219931198Y-112291874D01*
X220022361Y-112213715D01*
X220096524Y-112119273D01*
X220107315Y-112097994D01*
X220748800Y-112097994D01*
X220336884Y-112179929D01*
X219935636Y-112346132D01*
X219574522Y-112587420D01*
X219267420Y-112894522D01*
X219026132Y-113255636D01*
X218859929Y-113656884D01*
X218775200Y-114082846D01*
X218775200Y-114517154D01*
X218859929Y-114943116D01*
X219026132Y-115344364D01*
X219267420Y-115705478D01*
X219574522Y-116012580D01*
X219935636Y-116253868D01*
X220336884Y-116420071D01*
X220762846Y-116504800D01*
X221197154Y-116504800D01*
X221623116Y-116420071D01*
X222024364Y-116253868D01*
X222385478Y-116012580D01*
X222692580Y-115705478D01*
X222933868Y-115344364D01*
X223100071Y-114943116D01*
X223184800Y-114517154D01*
X223184800Y-114082846D01*
X223100071Y-113656884D01*
X222933868Y-113255636D01*
X222692580Y-112894522D01*
X222385478Y-112587420D01*
X222024364Y-112346132D01*
X221623116Y-112179929D01*
X221211200Y-112097994D01*
X221847292Y-112097994D01*
X221863236Y-112129433D01*
X221937399Y-112223875D01*
X222028562Y-112302034D01*
X222133221Y-112360906D01*
X222247354Y-112398229D01*
X222328960Y-112409760D01*
X222481360Y-112257360D01*
X222481360Y-112055946D01*
X222513476Y-112119273D01*
X222587639Y-112213715D01*
X222678802Y-112291874D01*
X222783461Y-112350746D01*
X222840052Y-112369252D01*
X222880560Y-112409760D01*
X222962166Y-112398229D01*
X222964378Y-112397506D01*
X222979200Y-112399600D01*
X222989514Y-112389286D01*
X223076299Y-112360906D01*
X223180958Y-112302034D01*
X223272121Y-112223875D01*
X223346284Y-112129433D01*
X223378400Y-112066106D01*
X223378400Y-112247200D01*
X223530800Y-112399600D01*
X223612406Y-112388069D01*
X223726539Y-112350746D01*
X223831198Y-112291874D01*
X223922361Y-112213715D01*
X223996524Y-112119273D01*
X224007315Y-112097994D01*
X224781200Y-112097994D01*
X224840951Y-112092109D01*
X224898406Y-112074680D01*
X224951357Y-112046378D01*
X224997768Y-112008288D01*
X225035858Y-111961877D01*
X225064160Y-111908926D01*
X225081589Y-111851471D01*
X225087474Y-111791720D01*
X225087474Y-110198998D01*
X232866669Y-102419803D01*
X232943858Y-102496992D01*
X233132997Y-102623371D01*
X233343157Y-102710422D01*
X233566262Y-102754800D01*
X233793738Y-102754800D01*
X234016843Y-102710422D01*
X234227003Y-102623371D01*
X234416142Y-102496992D01*
X234576992Y-102336142D01*
X234703371Y-102147003D01*
X234790422Y-101936843D01*
X234804712Y-101865000D01*
X237882450Y-101865000D01*
X237894220Y-101984503D01*
X237929078Y-102099413D01*
X237985683Y-102205315D01*
X238010045Y-102235000D01*
X237985683Y-102264685D01*
X237929078Y-102370587D01*
X237894220Y-102485497D01*
X237882450Y-102605000D01*
X237885400Y-103073200D01*
X238037800Y-103225600D01*
X239115600Y-103225600D01*
X239115600Y-101244400D01*
X239674400Y-101244400D01*
X239674400Y-103225600D01*
X240752200Y-103225600D01*
X240904600Y-103073200D01*
X240907550Y-102605000D01*
X240895780Y-102485497D01*
X240860922Y-102370587D01*
X240804317Y-102264685D01*
X240779955Y-102235000D01*
X240804317Y-102205315D01*
X240860922Y-102099413D01*
X240895780Y-101984503D01*
X240907550Y-101865000D01*
X240904600Y-101396800D01*
X240752200Y-101244400D01*
X239674400Y-101244400D01*
X239115600Y-101244400D01*
X238037800Y-101244400D01*
X237885400Y-101396800D01*
X237882450Y-101865000D01*
X234804712Y-101865000D01*
X234834800Y-101713738D01*
X234834800Y-101486262D01*
X234790422Y-101263157D01*
X234703371Y-101052997D01*
X234576992Y-100863858D01*
X234416142Y-100703008D01*
X234227003Y-100576629D01*
X234016843Y-100489578D01*
X233793738Y-100445200D01*
X233566262Y-100445200D01*
X233343157Y-100489578D01*
X233132997Y-100576629D01*
X232943858Y-100703008D01*
X232859666Y-100787200D01*
X232775049Y-100787200D01*
X233383752Y-100178497D01*
X233566262Y-100214800D01*
X233793738Y-100214800D01*
X234016843Y-100170422D01*
X234227003Y-100083371D01*
X234416142Y-99956992D01*
X234576992Y-99796142D01*
X234703371Y-99607003D01*
X234790422Y-99396843D01*
X234834800Y-99173738D01*
X234834800Y-98946262D01*
X234790422Y-98723157D01*
X234703371Y-98512997D01*
X234576992Y-98323858D01*
X234416142Y-98163008D01*
X234227003Y-98036629D01*
X234016843Y-97949578D01*
X233793738Y-97905200D01*
X233566262Y-97905200D01*
X233343157Y-97949578D01*
X233132997Y-98036629D01*
X232943858Y-98163008D01*
X232783008Y-98323858D01*
X232656629Y-98512997D01*
X232590390Y-98672914D01*
X228652274Y-102611029D01*
X228652274Y-101702988D01*
X229737725Y-100617538D01*
X229759043Y-100600043D01*
X229787798Y-100565005D01*
X229828873Y-100514955D01*
X229880761Y-100417878D01*
X229912714Y-100312545D01*
X229923503Y-100203000D01*
X229920800Y-100175556D01*
X229920800Y-95531442D01*
X229923503Y-95504000D01*
X229920800Y-95476556D01*
X229912714Y-95394456D01*
X229880761Y-95289122D01*
X229828873Y-95192046D01*
X229759043Y-95106957D01*
X229737725Y-95089462D01*
X229597547Y-94949284D01*
X229795022Y-94949284D01*
X231741457Y-96895719D01*
X231758957Y-96917043D01*
X231844046Y-96986873D01*
X231941122Y-97038761D01*
X232046456Y-97070714D01*
X232128556Y-97078800D01*
X232128557Y-97078800D01*
X232155999Y-97081503D01*
X232183441Y-97078800D01*
X235019861Y-97078800D01*
X235041561Y-97111277D01*
X235125803Y-97195519D01*
X235224860Y-97261706D01*
X235334926Y-97307298D01*
X235451772Y-97330540D01*
X235570908Y-97330540D01*
X235687754Y-97307298D01*
X235742695Y-97284540D01*
X239000018Y-97284540D01*
X238824313Y-97357320D01*
X238626984Y-97489170D01*
X238459170Y-97656984D01*
X238327320Y-97854313D01*
X238236499Y-98073573D01*
X238190200Y-98306338D01*
X238190200Y-98543662D01*
X238236499Y-98776427D01*
X238327320Y-98995687D01*
X238459170Y-99193016D01*
X238626984Y-99360830D01*
X238766666Y-99454162D01*
X238495000Y-99452450D01*
X238375497Y-99464220D01*
X238260587Y-99499078D01*
X238154685Y-99555683D01*
X238061862Y-99631862D01*
X237985683Y-99724685D01*
X237929078Y-99830587D01*
X237894220Y-99945497D01*
X237882450Y-100065000D01*
X237885400Y-100533200D01*
X238037800Y-100685600D01*
X239115600Y-100685600D01*
X239115600Y-100665600D01*
X239674400Y-100665600D01*
X239674400Y-100685600D01*
X240752200Y-100685600D01*
X240904600Y-100533200D01*
X240907550Y-100065000D01*
X240895780Y-99945497D01*
X240860922Y-99830587D01*
X240804317Y-99724685D01*
X240728138Y-99631862D01*
X240635315Y-99555683D01*
X240529413Y-99499078D01*
X240414503Y-99464220D01*
X240295000Y-99452450D01*
X240023334Y-99454162D01*
X240163016Y-99360830D01*
X240330830Y-99193016D01*
X240462680Y-98995687D01*
X240553501Y-98776427D01*
X240599800Y-98543662D01*
X240599800Y-98306338D01*
X240553501Y-98073573D01*
X240462680Y-97854313D01*
X240330830Y-97656984D01*
X240163016Y-97489170D01*
X239965687Y-97357320D01*
X239789982Y-97284540D01*
X242452871Y-97284540D01*
X242479315Y-97417485D01*
X242540586Y-97565405D01*
X242629537Y-97698530D01*
X242742750Y-97811743D01*
X242875875Y-97900694D01*
X243023795Y-97961965D01*
X243180826Y-97993200D01*
X243340934Y-97993200D01*
X243497965Y-97961965D01*
X243645885Y-97900694D01*
X243779010Y-97811743D01*
X243892223Y-97698530D01*
X243981174Y-97565405D01*
X244042445Y-97417485D01*
X244073680Y-97260454D01*
X244073680Y-97100346D01*
X244042445Y-96943315D01*
X243981174Y-96795395D01*
X243892223Y-96662270D01*
X243779010Y-96549057D01*
X243645885Y-96460106D01*
X243497965Y-96398835D01*
X243340934Y-96367600D01*
X243238342Y-96367600D01*
X243220763Y-96350021D01*
X243203263Y-96328697D01*
X243118174Y-96258867D01*
X243021098Y-96206979D01*
X242915764Y-96175026D01*
X242833664Y-96166940D01*
X242833662Y-96166940D01*
X242806220Y-96164237D01*
X242778778Y-96166940D01*
X235742802Y-96166940D01*
X235720144Y-96144282D01*
X235702643Y-96122957D01*
X235617554Y-96053127D01*
X235520478Y-96001239D01*
X235415144Y-95969286D01*
X235333044Y-95961200D01*
X235333042Y-95961200D01*
X235305600Y-95958497D01*
X235278158Y-95961200D01*
X233927348Y-95961200D01*
X234094924Y-95823674D01*
X234257914Y-95625070D01*
X234379027Y-95398485D01*
X234453607Y-95152625D01*
X234478790Y-94896940D01*
X234453607Y-94641255D01*
X234379027Y-94395395D01*
X234257914Y-94168810D01*
X234094924Y-93970206D01*
X233940965Y-93843855D01*
X235222027Y-93843855D01*
X235869200Y-94491029D01*
X235869200Y-94547568D01*
X235892442Y-94664414D01*
X235938034Y-94774480D01*
X236004221Y-94873537D01*
X236088463Y-94957779D01*
X236187520Y-95023966D01*
X236297586Y-95069558D01*
X236414432Y-95092800D01*
X236533568Y-95092800D01*
X236650414Y-95069558D01*
X236760480Y-95023966D01*
X236859537Y-94957779D01*
X236943779Y-94873537D01*
X237009966Y-94774480D01*
X237055558Y-94664414D01*
X237078800Y-94547568D01*
X237078800Y-94428432D01*
X237055558Y-94311586D01*
X237009966Y-94201520D01*
X236943779Y-94102463D01*
X236859537Y-94018221D01*
X236760480Y-93952034D01*
X236650414Y-93906442D01*
X236533568Y-93883200D01*
X236477029Y-93883200D01*
X235984472Y-93390644D01*
X239253051Y-93390644D01*
X239274158Y-93392723D01*
X239295265Y-93390644D01*
X239295267Y-93390644D01*
X239358413Y-93384425D01*
X239439431Y-93359848D01*
X239514097Y-93319938D01*
X239579543Y-93266229D01*
X239593006Y-93249824D01*
X240033029Y-92809802D01*
X240089568Y-92809802D01*
X240206414Y-92786560D01*
X240316480Y-92740968D01*
X240415537Y-92674781D01*
X240499779Y-92590539D01*
X240565966Y-92491482D01*
X240611558Y-92381416D01*
X240634800Y-92264570D01*
X240634800Y-92214592D01*
X240635315Y-92214317D01*
X240665000Y-92189955D01*
X240694685Y-92214317D01*
X240800587Y-92270922D01*
X240915497Y-92305780D01*
X241035000Y-92317550D01*
X241503200Y-92314600D01*
X241655600Y-92162200D01*
X241655600Y-91084400D01*
X239674400Y-91084400D01*
X239674400Y-91104400D01*
X239115600Y-91104400D01*
X239115600Y-91084400D01*
X239095600Y-91084400D01*
X239095600Y-90525600D01*
X239115600Y-90525600D01*
X239115600Y-89447800D01*
X239674400Y-89447800D01*
X239674400Y-90525600D01*
X241655600Y-90525600D01*
X241655600Y-89447800D01*
X241503200Y-89295400D01*
X241035000Y-89292450D01*
X240915497Y-89304220D01*
X240800587Y-89339078D01*
X240694685Y-89395683D01*
X240665000Y-89420045D01*
X240635315Y-89395683D01*
X240529413Y-89339078D01*
X240414503Y-89304220D01*
X240295000Y-89292450D01*
X239826800Y-89295400D01*
X239674400Y-89447800D01*
X239115600Y-89447800D01*
X238963200Y-89295400D01*
X238495000Y-89292450D01*
X238375497Y-89304220D01*
X238260587Y-89339078D01*
X238154685Y-89395683D01*
X238061862Y-89471862D01*
X237985683Y-89564685D01*
X237929078Y-89670587D01*
X237894220Y-89785497D01*
X237882450Y-89905000D01*
X237884162Y-90176666D01*
X237790830Y-90036984D01*
X237623016Y-89869170D01*
X237425687Y-89737320D01*
X237206427Y-89646499D01*
X236973662Y-89600200D01*
X236736338Y-89600200D01*
X236503573Y-89646499D01*
X236284313Y-89737320D01*
X236086984Y-89869170D01*
X235919170Y-90036984D01*
X235787320Y-90234313D01*
X235696499Y-90453573D01*
X235650200Y-90686338D01*
X235650200Y-90923662D01*
X235696499Y-91156427D01*
X235787320Y-91375687D01*
X235919170Y-91573016D01*
X236086984Y-91740830D01*
X236284313Y-91872680D01*
X236503573Y-91963501D01*
X236736338Y-92009800D01*
X236973662Y-92009800D01*
X237206427Y-91963501D01*
X237425687Y-91872680D01*
X237623016Y-91740830D01*
X237790830Y-91573016D01*
X237884162Y-91433334D01*
X237882450Y-91705000D01*
X237894220Y-91824503D01*
X237929078Y-91939413D01*
X237985683Y-92045315D01*
X238061862Y-92138138D01*
X238154685Y-92214317D01*
X238260587Y-92270922D01*
X238375497Y-92305780D01*
X238495000Y-92317550D01*
X238963200Y-92314600D01*
X239115598Y-92162202D01*
X239115598Y-92314600D01*
X239312573Y-92314600D01*
X239096130Y-92531044D01*
X228863954Y-92531044D01*
X231359248Y-90035751D01*
X231382393Y-90270745D01*
X231456973Y-90516605D01*
X231578086Y-90743190D01*
X231741076Y-90941794D01*
X231939680Y-91104784D01*
X232166265Y-91225897D01*
X232412125Y-91300477D01*
X232603744Y-91319350D01*
X233232256Y-91319350D01*
X233423875Y-91300477D01*
X233669735Y-91225897D01*
X233896320Y-91104784D01*
X234094924Y-90941794D01*
X234257914Y-90743190D01*
X234379027Y-90516605D01*
X234453607Y-90270745D01*
X234478790Y-90015060D01*
X234453607Y-89759375D01*
X234379027Y-89513515D01*
X234257914Y-89286930D01*
X234094924Y-89088326D01*
X233896320Y-88925336D01*
X233695512Y-88818001D01*
X241536692Y-88818001D01*
X241557799Y-88820080D01*
X241578906Y-88818001D01*
X241578908Y-88818001D01*
X241642054Y-88811782D01*
X241723072Y-88787205D01*
X241797738Y-88747295D01*
X241863184Y-88693586D01*
X241876647Y-88677181D01*
X242853029Y-87700800D01*
X243917726Y-87700800D01*
X243917726Y-87760000D01*
G36*
X212803712Y-87082003D02*
G01*
X212817170Y-87098402D01*
X212849292Y-87124763D01*
X212882615Y-87152111D01*
X212947411Y-87186745D01*
X212957282Y-87192021D01*
X213038300Y-87216598D01*
X213101446Y-87222817D01*
X213101448Y-87222817D01*
X213122555Y-87224896D01*
X213143662Y-87222817D01*
X217563677Y-87222817D01*
X217584784Y-87224896D01*
X217605891Y-87222817D01*
X217605893Y-87222817D01*
X217669039Y-87216598D01*
X217750057Y-87192021D01*
X217824723Y-87152111D01*
X217890169Y-87098402D01*
X217890648Y-87097818D01*
X217944351Y-87097818D01*
X218061197Y-87074576D01*
X218171263Y-87028984D01*
X218188000Y-87017801D01*
X218188001Y-88556164D01*
X217488311Y-89255855D01*
X217471906Y-89269318D01*
X217445670Y-89301288D01*
X217393461Y-89223150D01*
X217309219Y-89138908D01*
X217210162Y-89072721D01*
X217100096Y-89027129D01*
X216983250Y-89003887D01*
X216864114Y-89003887D01*
X216747268Y-89027129D01*
X216637202Y-89072721D01*
X216538145Y-89138908D01*
X216498166Y-89178887D01*
X214373716Y-89178887D01*
X213710800Y-88515972D01*
X213710800Y-88459432D01*
X213687558Y-88342586D01*
X213641966Y-88232520D01*
X213575779Y-88133463D01*
X213491537Y-88049221D01*
X213392480Y-87983034D01*
X213282414Y-87937442D01*
X213165568Y-87914200D01*
X213046432Y-87914200D01*
X212929586Y-87937442D01*
X212819520Y-87983034D01*
X212720463Y-88049221D01*
X212636221Y-88133463D01*
X212570034Y-88232520D01*
X212524442Y-88342586D01*
X212501200Y-88459432D01*
X212501200Y-88578568D01*
X212524442Y-88695414D01*
X212570034Y-88805480D01*
X212636221Y-88904537D01*
X212720463Y-88988779D01*
X212819520Y-89054966D01*
X212929586Y-89100558D01*
X213046432Y-89123800D01*
X213102972Y-89123800D01*
X213876844Y-89897673D01*
X213890302Y-89914072D01*
X213926652Y-89943903D01*
X213955747Y-89967781D01*
X213981429Y-89981508D01*
X214030414Y-90007691D01*
X214111432Y-90032268D01*
X214174578Y-90038487D01*
X214174579Y-90038487D01*
X214195686Y-90040566D01*
X214216793Y-90038487D01*
X216498166Y-90038487D01*
X216538145Y-90078466D01*
X216637202Y-90144653D01*
X216744124Y-90188943D01*
X213011650Y-93921418D01*
X212995245Y-93934881D01*
X212959972Y-93977863D01*
X212941536Y-94000327D01*
X212919176Y-94042160D01*
X212901626Y-94074994D01*
X212877049Y-94156012D01*
X212871083Y-94216586D01*
X212868751Y-94240266D01*
X212870830Y-94261373D01*
X212870831Y-96058287D01*
X212870830Y-96058297D01*
X212870830Y-96078153D01*
X212830851Y-96118132D01*
X212764664Y-96217189D01*
X212719072Y-96327255D01*
X212699600Y-96425148D01*
X212699600Y-94617755D01*
X212722358Y-94562814D01*
X212745600Y-94445968D01*
X212745600Y-94326832D01*
X212722358Y-94209986D01*
X212699600Y-94155045D01*
X212699600Y-92458044D01*
X212702303Y-92430600D01*
X212691514Y-92321056D01*
X212659561Y-92215722D01*
X212607673Y-92118646D01*
X212537843Y-92033557D01*
X212516525Y-92016062D01*
X211124770Y-90624308D01*
X211124770Y-86332565D01*
X211147528Y-86277624D01*
X211170770Y-86160778D01*
X211170770Y-86041642D01*
X211147528Y-85924796D01*
X211101936Y-85814730D01*
X211035749Y-85715673D01*
X210951507Y-85631431D01*
X210852450Y-85565244D01*
X210742384Y-85519652D01*
X210625538Y-85496410D01*
X210506402Y-85496410D01*
X210389556Y-85519652D01*
X210279490Y-85565244D01*
X210180433Y-85631431D01*
X210096191Y-85715673D01*
X210030004Y-85814730D01*
X210007245Y-85869673D01*
X209890251Y-85986667D01*
X209890245Y-85986672D01*
X208975718Y-86901200D01*
X203956274Y-86901200D01*
X203956274Y-86860000D01*
X203950389Y-86800249D01*
X203932960Y-86742794D01*
X203904658Y-86689843D01*
X203866568Y-86643432D01*
X203820157Y-86605342D01*
X203767206Y-86577040D01*
X203709751Y-86559611D01*
X203650000Y-86553726D01*
X202750000Y-86553726D01*
X202690249Y-86559611D01*
X202632794Y-86577040D01*
X202579843Y-86605342D01*
X202533432Y-86643432D01*
X202495342Y-86689843D01*
X202489272Y-86701200D01*
X201936483Y-86701200D01*
X201936389Y-86700249D01*
X201918960Y-86642794D01*
X201890658Y-86589843D01*
X201852568Y-86543432D01*
X201841806Y-86534600D01*
X201870413Y-86525922D01*
X201976315Y-86469317D01*
X202069138Y-86393138D01*
X202145317Y-86300315D01*
X202201922Y-86194413D01*
X202236780Y-86079503D01*
X202248550Y-85960000D01*
X202245600Y-85891800D01*
X202093200Y-85739400D01*
X201365400Y-85739400D01*
X201365400Y-85759400D01*
X200806600Y-85759400D01*
X200806600Y-85739400D01*
X200078800Y-85739400D01*
X199926400Y-85891800D01*
X199923450Y-85960000D01*
X199935220Y-86079503D01*
X199970078Y-86194413D01*
X200026683Y-86300315D01*
X200102862Y-86393138D01*
X200195685Y-86469317D01*
X200301587Y-86525922D01*
X200330194Y-86534600D01*
X200319432Y-86543432D01*
X200281342Y-86589843D01*
X200253040Y-86642794D01*
X200235611Y-86700249D01*
X200229726Y-86760000D01*
X200229726Y-87760000D01*
X200235611Y-87819751D01*
X200253040Y-87877206D01*
X200281342Y-87930157D01*
X200319432Y-87976568D01*
X200365843Y-88014658D01*
X200418794Y-88042960D01*
X200476249Y-88060389D01*
X200536000Y-88066274D01*
X201636000Y-88066274D01*
X201695751Y-88060389D01*
X201753206Y-88042960D01*
X201806157Y-88014658D01*
X201852568Y-87976568D01*
X201890658Y-87930157D01*
X201918960Y-87877206D01*
X201936389Y-87819751D01*
X201936483Y-87818800D01*
X202443726Y-87818800D01*
X202443726Y-88060000D01*
X202449611Y-88119751D01*
X202467040Y-88177206D01*
X202495342Y-88230157D01*
X202533432Y-88276568D01*
X202579843Y-88314658D01*
X202632794Y-88342960D01*
X202690249Y-88360389D01*
X202750000Y-88366274D01*
X203650000Y-88366274D01*
X203709751Y-88360389D01*
X203767206Y-88342960D01*
X203820157Y-88314658D01*
X203866568Y-88276568D01*
X203904658Y-88230157D01*
X203932960Y-88177206D01*
X203950389Y-88119751D01*
X203956274Y-88060000D01*
X203956274Y-88018800D01*
X209179738Y-88018800D01*
X209207180Y-88021503D01*
X209234622Y-88018800D01*
X209234624Y-88018800D01*
X209316724Y-88010714D01*
X209422058Y-87978761D01*
X209519134Y-87926873D01*
X209604223Y-87857043D01*
X209621723Y-87835719D01*
X210007171Y-87450272D01*
X210007170Y-90828328D01*
X210004467Y-90855770D01*
X210007170Y-90883212D01*
X210007170Y-90883213D01*
X210015256Y-90965313D01*
X210047209Y-91070647D01*
X210099097Y-91167724D01*
X210168927Y-91252813D01*
X210190251Y-91270313D01*
X210791738Y-91871800D01*
X206591432Y-91871800D01*
X206605780Y-91824503D01*
X206617550Y-91705000D01*
X206614600Y-91236800D01*
X206462200Y-91084400D01*
X205384400Y-91084400D01*
X205384400Y-91104400D01*
X204825600Y-91104400D01*
X204825600Y-91084400D01*
X204805600Y-91084400D01*
X204805600Y-90525600D01*
X204825600Y-90525600D01*
X204825600Y-89447800D01*
X205384400Y-89447800D01*
X205384400Y-90525600D01*
X206462200Y-90525600D01*
X206614600Y-90373200D01*
X206617550Y-89905000D01*
X206605780Y-89785497D01*
X206570922Y-89670587D01*
X206514317Y-89564685D01*
X206438138Y-89471862D01*
X206345315Y-89395683D01*
X206239413Y-89339078D01*
X206124503Y-89304220D01*
X206005000Y-89292450D01*
X205536800Y-89295400D01*
X205384400Y-89447800D01*
X204825600Y-89447800D01*
X204673200Y-89295400D01*
X204205000Y-89292450D01*
X204085497Y-89304220D01*
X203970587Y-89339078D01*
X203864685Y-89395683D01*
X203771862Y-89471862D01*
X203695683Y-89564685D01*
X203639078Y-89670587D01*
X203604220Y-89785497D01*
X203592450Y-89905000D01*
X203594162Y-90176666D01*
X203500830Y-90036984D01*
X203333016Y-89869170D01*
X203135687Y-89737320D01*
X202916427Y-89646499D01*
X202683662Y-89600200D01*
X202446338Y-89600200D01*
X202213573Y-89646499D01*
X201994313Y-89737320D01*
X201796984Y-89869170D01*
X201629170Y-90036984D01*
X201497320Y-90234313D01*
X201406499Y-90453573D01*
X201360200Y-90686338D01*
X201360200Y-90923662D01*
X201406499Y-91156427D01*
X201497320Y-91375687D01*
X201629170Y-91573016D01*
X201796984Y-91740830D01*
X201992996Y-91871800D01*
X200597004Y-91871800D01*
X200793016Y-91740830D01*
X200960830Y-91573016D01*
X201092680Y-91375687D01*
X201183501Y-91156427D01*
X201229800Y-90923662D01*
X201229800Y-90686338D01*
X201183501Y-90453573D01*
X201092680Y-90234313D01*
X200960830Y-90036984D01*
X200793016Y-89869170D01*
X200595687Y-89737320D01*
X200376427Y-89646499D01*
X200143662Y-89600200D01*
X199906338Y-89600200D01*
X199673573Y-89646499D01*
X199454313Y-89737320D01*
X199256984Y-89869170D01*
X199089170Y-90036984D01*
X198995838Y-90176666D01*
X198997550Y-89905000D01*
X198985780Y-89785497D01*
X198950922Y-89670587D01*
X198894317Y-89564685D01*
X198818138Y-89471862D01*
X198725315Y-89395683D01*
X198619413Y-89339078D01*
X198504503Y-89304220D01*
X198385000Y-89292450D01*
X197916800Y-89295400D01*
X197764400Y-89447800D01*
X197764400Y-90525600D01*
X197784400Y-90525600D01*
X197784400Y-91084400D01*
X197764400Y-91084400D01*
X197764400Y-91805561D01*
X197719435Y-91914115D01*
X197688200Y-92071146D01*
X197688200Y-92231254D01*
X197719435Y-92388285D01*
X197780706Y-92536205D01*
X197869657Y-92669330D01*
X197982870Y-92782543D01*
X198115995Y-92871494D01*
X198263915Y-92932765D01*
X198420946Y-92964000D01*
X198581054Y-92964000D01*
X198600819Y-92960068D01*
X198670856Y-92981314D01*
X198752956Y-92989400D01*
X198752957Y-92989400D01*
X198780399Y-92992103D01*
X198807841Y-92989400D01*
X211582001Y-92989400D01*
X211582000Y-94155044D01*
X211559242Y-94209986D01*
X211536000Y-94326832D01*
X211536000Y-94445968D01*
X211559242Y-94562814D01*
X211582001Y-94617757D01*
X211582000Y-96975158D01*
X211579297Y-97002600D01*
X211582000Y-97030042D01*
X211582000Y-97030043D01*
X211590086Y-97112143D01*
X211605410Y-97162659D01*
X211605410Y-97808927D01*
X211532867Y-97881470D01*
X211443916Y-98014595D01*
X211382645Y-98162515D01*
X211351410Y-98319546D01*
X211351410Y-98479654D01*
X211382645Y-98636685D01*
X211443916Y-98784605D01*
X211519392Y-98897563D01*
X206804800Y-94182972D01*
X206804800Y-94151516D01*
X206844779Y-94111537D01*
X206910966Y-94012480D01*
X206956558Y-93902414D01*
X206979800Y-93785568D01*
X206979800Y-93666432D01*
X206956558Y-93549586D01*
X206910966Y-93439520D01*
X206844779Y-93340463D01*
X206760537Y-93256221D01*
X206661480Y-93190034D01*
X206551414Y-93144442D01*
X206434568Y-93121200D01*
X206315432Y-93121200D01*
X206198586Y-93144442D01*
X206088520Y-93190034D01*
X205989463Y-93256221D01*
X205905221Y-93340463D01*
X205839034Y-93439520D01*
X205793442Y-93549586D01*
X205770200Y-93666432D01*
X205770200Y-93785568D01*
X205793442Y-93902414D01*
X205839034Y-94012480D01*
X205905221Y-94111537D01*
X205945200Y-94151516D01*
X205945200Y-94339893D01*
X205943121Y-94361000D01*
X205945200Y-94382107D01*
X205945200Y-94382108D01*
X205951419Y-94445254D01*
X205970865Y-94509358D01*
X205975996Y-94526272D01*
X206015906Y-94600939D01*
X206020969Y-94607108D01*
X206069615Y-94666385D01*
X206086020Y-94679848D01*
X209675459Y-98269287D01*
X209641418Y-98258961D01*
X209522004Y-98247200D01*
X209522001Y-98247200D01*
X209482081Y-98243268D01*
X209442161Y-98247200D01*
X209106852Y-98247200D01*
X209100518Y-98239482D01*
X208924676Y-98095173D01*
X208724061Y-97987942D01*
X208506380Y-97921910D01*
X208336724Y-97905200D01*
X208223276Y-97905200D01*
X208053620Y-97921910D01*
X207835939Y-97987942D01*
X207635324Y-98095173D01*
X207459482Y-98239482D01*
X207315173Y-98415324D01*
X207207942Y-98615939D01*
X207141910Y-98833620D01*
X207119613Y-99060000D01*
X207141910Y-99286380D01*
X207207942Y-99504061D01*
X207315173Y-99704676D01*
X207459482Y-99880518D01*
X207635324Y-100024827D01*
X207835939Y-100132058D01*
X208053620Y-100198090D01*
X208223276Y-100214800D01*
X208336724Y-100214800D01*
X208506380Y-100198090D01*
X208724061Y-100132058D01*
X208924676Y-100024827D01*
X209100518Y-99880518D01*
X209106852Y-99872800D01*
X209145409Y-99872800D01*
X209170989Y-99898380D01*
X209170990Y-100636439D01*
X209167057Y-100676369D01*
X209177640Y-100783815D01*
X209143276Y-100787200D01*
X209100334Y-100787200D01*
X209016142Y-100703008D01*
X208827003Y-100576629D01*
X208616843Y-100489578D01*
X208393738Y-100445200D01*
X208166262Y-100445200D01*
X207943157Y-100489578D01*
X207732997Y-100576629D01*
X207543858Y-100703008D01*
X207383008Y-100863858D01*
X207256629Y-101052997D01*
X207169578Y-101263157D01*
X207125200Y-101486262D01*
X207125200Y-101713738D01*
X207169578Y-101936843D01*
X207256629Y-102147003D01*
X207383008Y-102336142D01*
X207543858Y-102496992D01*
X207732997Y-102623371D01*
X207943157Y-102710422D01*
X208166262Y-102754800D01*
X208393738Y-102754800D01*
X208616843Y-102710422D01*
X208827003Y-102623371D01*
X208964933Y-102531209D01*
X216421449Y-109987726D01*
X216377198Y-109987726D01*
X215062972Y-108673500D01*
X215037517Y-108642483D01*
X214913752Y-108540912D01*
X214772550Y-108465438D01*
X214619337Y-108418961D01*
X214499923Y-108407200D01*
X214499920Y-108407200D01*
X214460000Y-108403268D01*
X214420080Y-108407200D01*
X212150883Y-108407200D01*
X212135045Y-108391362D01*
X211960319Y-108274614D01*
X211766174Y-108194196D01*
X211560071Y-108153200D01*
X211349929Y-108153200D01*
X211143826Y-108194196D01*
X210949681Y-108274614D01*
X210774955Y-108391362D01*
X210626362Y-108539955D01*
X210509614Y-108714681D01*
X210429196Y-108908826D01*
X210388200Y-109114929D01*
X210388200Y-109325071D01*
X210429196Y-109531174D01*
X210509614Y-109725319D01*
X210626362Y-109900045D01*
X210642201Y-109915884D01*
X210642200Y-110429117D01*
X210626362Y-110444955D01*
X210509614Y-110619681D01*
X210429196Y-110813826D01*
X210388200Y-111019929D01*
X210388200Y-111230071D01*
X210429196Y-111436174D01*
X210509614Y-111630319D01*
X210626362Y-111805045D01*
X210642200Y-111820883D01*
X210642201Y-113023532D01*
X210631249Y-113024611D01*
X210573794Y-113042040D01*
X210520843Y-113070342D01*
X210474432Y-113108432D01*
X210436342Y-113154843D01*
X210408040Y-113207794D01*
X210390611Y-113265249D01*
X210384726Y-113325000D01*
X210384726Y-115325000D01*
X210390611Y-115384751D01*
X210408040Y-115442206D01*
X210436342Y-115495157D01*
X210474432Y-115541568D01*
X210520843Y-115579658D01*
X210573794Y-115607960D01*
X210628201Y-115624464D01*
X210628201Y-116301070D01*
X210624268Y-116341000D01*
X210639962Y-116500336D01*
X210686438Y-116653549D01*
X210761912Y-116794751D01*
X210761913Y-116794752D01*
X210863484Y-116918517D01*
X210894495Y-116943967D01*
X212068023Y-118117496D01*
X212093473Y-118148507D01*
X212124483Y-118173956D01*
X212217238Y-118250078D01*
X212358440Y-118325552D01*
X212511653Y-118372029D01*
X212670990Y-118387722D01*
X212710913Y-118383790D01*
X216447369Y-118383790D01*
X216463207Y-118399628D01*
X216637933Y-118516376D01*
X216832078Y-118596794D01*
X217038181Y-118637790D01*
X217248323Y-118637790D01*
X217454426Y-118596794D01*
X217648571Y-118516376D01*
X217823297Y-118399628D01*
X217971890Y-118251035D01*
X218088638Y-118076309D01*
X218169056Y-117882164D01*
X218210052Y-117676061D01*
X218210052Y-117465919D01*
X218169056Y-117259816D01*
X218088638Y-117065671D01*
X217971890Y-116890945D01*
X217823297Y-116742352D01*
X217648571Y-116625604D01*
X217454426Y-116545186D01*
X217248323Y-116504190D01*
X217038181Y-116504190D01*
X216832078Y-116545186D01*
X216637933Y-116625604D01*
X216463207Y-116742352D01*
X216447369Y-116758190D01*
X213007663Y-116758190D01*
X212253800Y-116004328D01*
X212253800Y-115624464D01*
X212308206Y-115607960D01*
X212361157Y-115579658D01*
X212407568Y-115541568D01*
X212416400Y-115530806D01*
X212425078Y-115559413D01*
X212481683Y-115665315D01*
X212557862Y-115758138D01*
X212650685Y-115834317D01*
X212756587Y-115890922D01*
X212871497Y-115925780D01*
X212991000Y-115937550D01*
X213309200Y-115934600D01*
X213461600Y-115782200D01*
X213461600Y-114604400D01*
X213441600Y-114604400D01*
X213441600Y-114045600D01*
X213461600Y-114045600D01*
X213461600Y-113134200D01*
X213547600Y-113048200D01*
X213547600Y-112420400D01*
X212769800Y-112420400D01*
X212617400Y-112572800D01*
X212614450Y-112591000D01*
X212626220Y-112710503D01*
X212657088Y-112812260D01*
X212650685Y-112815683D01*
X212557862Y-112891862D01*
X212481683Y-112984685D01*
X212425078Y-113090587D01*
X212416400Y-113119194D01*
X212407568Y-113108432D01*
X212361157Y-113070342D01*
X212308206Y-113042040D01*
X212267800Y-113029783D01*
X212267800Y-111820883D01*
X212283638Y-111805045D01*
X212400386Y-111630319D01*
X212480804Y-111436174D01*
X212521800Y-111230071D01*
X212521800Y-111194000D01*
X212571450Y-111194000D01*
X212583220Y-111313503D01*
X212618078Y-111428413D01*
X212650962Y-111489935D01*
X212626220Y-111571497D01*
X212614450Y-111691000D01*
X212617400Y-111709200D01*
X212769800Y-111861600D01*
X213547600Y-111861600D01*
X213547600Y-111233800D01*
X213504600Y-111190800D01*
X213504600Y-111023400D01*
X212726800Y-111023400D01*
X212574400Y-111175800D01*
X212571450Y-111194000D01*
X212521800Y-111194000D01*
X212521800Y-111019929D01*
X212480804Y-110813826D01*
X212400386Y-110619681D01*
X212283638Y-110444955D01*
X212267800Y-110429117D01*
X212267800Y-110032800D01*
X212632396Y-110032800D01*
X212618078Y-110059587D01*
X212583220Y-110174497D01*
X212571450Y-110294000D01*
X212574400Y-110312200D01*
X212726800Y-110464600D01*
X213504600Y-110464600D01*
X213504600Y-110444600D01*
X214063400Y-110444600D01*
X214063400Y-110464600D01*
X214083400Y-110464600D01*
X214083400Y-111023400D01*
X214063400Y-111023400D01*
X214063400Y-111651200D01*
X214106400Y-111694200D01*
X214106400Y-111861600D01*
X214884200Y-111861600D01*
X215036600Y-111709200D01*
X215039550Y-111691000D01*
X215027780Y-111571497D01*
X214992922Y-111456587D01*
X214960038Y-111395065D01*
X214984780Y-111313503D01*
X214996550Y-111194000D01*
X214993600Y-111175800D01*
X214841202Y-111023402D01*
X214993600Y-111023402D01*
X214993600Y-110903072D01*
X215077726Y-110987198D01*
X215077726Y-111194000D01*
X215083611Y-111253751D01*
X215101040Y-111311206D01*
X215129342Y-111364157D01*
X215167432Y-111410568D01*
X215213843Y-111448658D01*
X215230796Y-111457719D01*
X215210432Y-111474432D01*
X215172342Y-111520843D01*
X215144040Y-111573794D01*
X215126611Y-111631249D01*
X215120726Y-111691000D01*
X215120726Y-112591000D01*
X215126611Y-112650751D01*
X215144040Y-112708206D01*
X215172342Y-112761157D01*
X215210432Y-112807568D01*
X215256843Y-112845658D01*
X215309794Y-112873960D01*
X215367249Y-112891389D01*
X215427000Y-112897274D01*
X215468200Y-112897274D01*
X215468200Y-113018726D01*
X215291000Y-113018726D01*
X215231249Y-113024611D01*
X215173794Y-113042040D01*
X215120843Y-113070342D01*
X215074432Y-113108432D01*
X215065600Y-113119194D01*
X215056922Y-113090587D01*
X215000317Y-112984685D01*
X214944284Y-112916410D01*
X214992922Y-112825413D01*
X215027780Y-112710503D01*
X215039550Y-112591000D01*
X215036600Y-112572800D01*
X214884200Y-112420400D01*
X214106400Y-112420400D01*
X214106400Y-112781800D01*
X214020400Y-112867800D01*
X214020400Y-114045600D01*
X214040400Y-114045600D01*
X214040400Y-114604400D01*
X214020400Y-114604400D01*
X214020400Y-115782200D01*
X214172800Y-115934600D01*
X214491000Y-115937550D01*
X214610503Y-115925780D01*
X214725413Y-115890922D01*
X214831315Y-115834317D01*
X214924138Y-115758138D01*
X215000317Y-115665315D01*
X215056922Y-115559413D01*
X215065600Y-115530806D01*
X215074432Y-115541568D01*
X215120843Y-115579658D01*
X215173794Y-115607960D01*
X215231249Y-115625389D01*
X215291000Y-115631274D01*
X216671308Y-115631274D01*
X216693856Y-115638114D01*
X216775956Y-115646200D01*
X216775957Y-115646200D01*
X216803399Y-115648903D01*
X216830841Y-115646200D01*
X216913138Y-115646200D01*
X220144663Y-118877726D01*
X219280000Y-118877726D01*
X219220249Y-118883611D01*
X219162794Y-118901040D01*
X219109843Y-118929342D01*
X219063432Y-118967432D01*
X219025342Y-119013843D01*
X218997040Y-119066794D01*
X218979611Y-119124249D01*
X218973726Y-119184000D01*
X218973726Y-119207663D01*
X218945745Y-119210419D01*
X218864727Y-119234996D01*
X218816069Y-119261005D01*
X218790060Y-119274906D01*
X218760965Y-119298784D01*
X218724615Y-119328615D01*
X218711157Y-119345014D01*
X217979173Y-120076999D01*
X216498545Y-120076999D01*
X216477438Y-120074920D01*
X216456331Y-120076999D01*
X216456330Y-120076999D01*
X216393184Y-120083218D01*
X216312166Y-120107795D01*
X216250873Y-120140556D01*
X216253550Y-119625000D01*
X216241780Y-119505497D01*
X216206922Y-119390587D01*
X216150317Y-119284685D01*
X216074138Y-119191862D01*
X215981315Y-119115683D01*
X215875413Y-119059078D01*
X215760503Y-119024220D01*
X215641000Y-119012450D01*
X214172800Y-119015400D01*
X214020400Y-119167800D01*
X214020400Y-120345600D01*
X214040400Y-120345600D01*
X214040400Y-120904400D01*
X214020400Y-120904400D01*
X214020400Y-122082200D01*
X214172800Y-122234600D01*
X215012646Y-122236287D01*
X212660935Y-124587999D01*
X210618546Y-124587999D01*
X210597439Y-124585920D01*
X210576332Y-124587999D01*
X210576330Y-124587999D01*
X210513184Y-124594218D01*
X210432166Y-124618795D01*
X210357500Y-124658705D01*
X210334800Y-124677334D01*
X210334800Y-121625000D01*
X211228450Y-121625000D01*
X211240220Y-121744503D01*
X211275078Y-121859413D01*
X211331683Y-121965315D01*
X211407862Y-122058138D01*
X211500685Y-122134317D01*
X211606587Y-122190922D01*
X211721497Y-122225780D01*
X211841000Y-122237550D01*
X213309200Y-122234600D01*
X213461600Y-122082200D01*
X213461600Y-120904400D01*
X211383800Y-120904400D01*
X211231400Y-121056800D01*
X211228450Y-121625000D01*
X210334800Y-121625000D01*
X210334800Y-119625000D01*
X211228450Y-119625000D01*
X211231400Y-120193200D01*
X211383800Y-120345600D01*
X213461600Y-120345600D01*
X213461600Y-119167800D01*
X213309200Y-119015400D01*
X211841000Y-119012450D01*
X211721497Y-119024220D01*
X211606587Y-119059078D01*
X211500685Y-119115683D01*
X211407862Y-119191862D01*
X211331683Y-119284685D01*
X211275078Y-119390587D01*
X211240220Y-119505497D01*
X211228450Y-119625000D01*
X210334800Y-119625000D01*
X210334800Y-107492576D01*
X210333312Y-107477469D01*
X210333329Y-107475052D01*
X210332846Y-107470121D01*
X210324686Y-107392483D01*
X210318222Y-107360991D01*
X210312194Y-107329394D01*
X210310764Y-107324659D01*
X210310763Y-107324652D01*
X210310760Y-107324646D01*
X210287678Y-107250076D01*
X210275203Y-107220399D01*
X210263170Y-107190618D01*
X210260845Y-107186243D01*
X210223715Y-107117572D01*
X210205719Y-107090892D01*
X210188124Y-107064005D01*
X210184994Y-107060166D01*
X210135233Y-107000015D01*
X210112407Y-106977348D01*
X210089914Y-106954379D01*
X210086103Y-106951226D01*
X210086099Y-106951222D01*
X210086095Y-106951219D01*
X210025601Y-106901881D01*
X209998791Y-106884069D01*
X209972283Y-106865919D01*
X209967925Y-106863562D01*
X209898996Y-106826912D01*
X209869271Y-106814660D01*
X209839711Y-106801991D01*
X209834978Y-106800526D01*
X209834980Y-106800526D01*
X209834972Y-106800524D01*
X209760244Y-106777962D01*
X209728702Y-106771716D01*
X209697244Y-106765030D01*
X209692317Y-106764511D01*
X209614623Y-106756893D01*
X209614614Y-106756893D01*
X209597424Y-106755200D01*
X207355793Y-106755200D01*
X207419364Y-106728868D01*
X207780478Y-106487580D01*
X208087580Y-106180478D01*
X208328868Y-105819364D01*
X208495071Y-105418116D01*
X208579800Y-104992154D01*
X208579800Y-104557846D01*
X208495071Y-104131884D01*
X208328868Y-103730636D01*
X208087580Y-103369522D01*
X207780478Y-103062420D01*
X207419364Y-102821132D01*
X207018116Y-102654929D01*
X206916969Y-102634810D01*
X206936780Y-102569503D01*
X206948550Y-102450000D01*
X206945600Y-102031800D01*
X206793200Y-101879400D01*
X205765400Y-101879400D01*
X205765400Y-101899400D01*
X205206600Y-101899400D01*
X205206600Y-101879400D01*
X204178800Y-101879400D01*
X204026400Y-102031800D01*
X204023450Y-102450000D01*
X204035220Y-102569503D01*
X204070078Y-102684413D01*
X204126683Y-102790315D01*
X204202862Y-102883138D01*
X204295685Y-102959317D01*
X204401587Y-103015922D01*
X204516497Y-103050780D01*
X204636000Y-103062550D01*
X204972884Y-103060174D01*
X204969522Y-103062420D01*
X204662420Y-103369522D01*
X204421132Y-103730636D01*
X204254929Y-104131884D01*
X204170200Y-104557846D01*
X204170200Y-104992154D01*
X204254929Y-105418116D01*
X204421132Y-105819364D01*
X204662420Y-106180478D01*
X204969522Y-106487580D01*
X205330636Y-106728868D01*
X205394207Y-106755200D01*
X204076354Y-106755200D01*
X204074600Y-106476800D01*
X203922200Y-106324400D01*
X202844400Y-106324400D01*
X202844400Y-106755200D01*
X202285600Y-106755200D01*
X202285600Y-106324400D01*
X201207800Y-106324400D01*
X201055400Y-106476800D01*
X201053646Y-106755200D01*
X196397357Y-106755200D01*
X196371548Y-106752669D01*
X196363427Y-106750217D01*
X196355928Y-106746231D01*
X196349349Y-106740864D01*
X196343940Y-106734326D01*
X196339900Y-106726854D01*
X196337389Y-106718744D01*
X196334800Y-106694108D01*
X196334800Y-105145000D01*
X201052450Y-105145000D01*
X201055400Y-105613200D01*
X201207800Y-105765600D01*
X202285600Y-105765600D01*
X202285600Y-105745600D01*
X202844400Y-105745600D01*
X202844400Y-105765600D01*
X203922200Y-105765600D01*
X204074600Y-105613200D01*
X204077550Y-105145000D01*
X204065780Y-105025497D01*
X204030922Y-104910587D01*
X203974317Y-104804685D01*
X203898138Y-104711862D01*
X203805315Y-104635683D01*
X203699413Y-104579078D01*
X203584503Y-104544220D01*
X203465000Y-104532450D01*
X203193334Y-104534162D01*
X203333016Y-104440830D01*
X203500830Y-104273016D01*
X203632680Y-104075687D01*
X203723501Y-103856427D01*
X203769800Y-103623662D01*
X203769800Y-103386338D01*
X203723501Y-103153573D01*
X203632680Y-102934313D01*
X203500830Y-102736984D01*
X203333016Y-102569170D01*
X203135687Y-102437320D01*
X202916427Y-102346499D01*
X202683662Y-102300200D01*
X202446338Y-102300200D01*
X202213573Y-102346499D01*
X201994313Y-102437320D01*
X201796984Y-102569170D01*
X201629170Y-102736984D01*
X201497320Y-102934313D01*
X201406499Y-103153573D01*
X201360200Y-103386338D01*
X201360200Y-103623662D01*
X201406499Y-103856427D01*
X201497320Y-104075687D01*
X201629170Y-104273016D01*
X201796984Y-104440830D01*
X201936666Y-104534162D01*
X201665000Y-104532450D01*
X201545497Y-104544220D01*
X201430587Y-104579078D01*
X201324685Y-104635683D01*
X201231862Y-104711862D01*
X201155683Y-104804685D01*
X201099078Y-104910587D01*
X201064220Y-105025497D01*
X201052450Y-105145000D01*
X196334800Y-105145000D01*
X196334800Y-97812238D01*
X200355121Y-97812238D01*
X200357201Y-97833355D01*
X200357200Y-99165893D01*
X200355121Y-99187000D01*
X200357200Y-99208107D01*
X200357200Y-99208108D01*
X200363419Y-99271254D01*
X200376539Y-99314503D01*
X200387996Y-99352272D01*
X200427906Y-99426939D01*
X200439446Y-99441000D01*
X200481615Y-99492385D01*
X200498020Y-99505848D01*
X201464857Y-100472685D01*
X201406499Y-100613573D01*
X201360200Y-100846338D01*
X201360200Y-101083662D01*
X201406499Y-101316427D01*
X201497320Y-101535687D01*
X201629170Y-101733016D01*
X201796984Y-101900830D01*
X201994313Y-102032680D01*
X202213573Y-102123501D01*
X202446338Y-102169800D01*
X202683662Y-102169800D01*
X202916427Y-102123501D01*
X203135687Y-102032680D01*
X203333016Y-101900830D01*
X203500830Y-101733016D01*
X203632680Y-101535687D01*
X203723501Y-101316427D01*
X203769800Y-101083662D01*
X203769800Y-100846338D01*
X203750638Y-100750000D01*
X204023450Y-100750000D01*
X204026400Y-101168200D01*
X204178800Y-101320600D01*
X205206600Y-101320600D01*
X205206600Y-101300600D01*
X205765400Y-101300600D01*
X205765400Y-101320600D01*
X206793200Y-101320600D01*
X206945600Y-101168200D01*
X206948550Y-100750000D01*
X206936780Y-100630497D01*
X206901922Y-100515587D01*
X206845317Y-100409685D01*
X206769138Y-100316862D01*
X206676315Y-100240683D01*
X206570413Y-100184078D01*
X206455503Y-100149220D01*
X206336000Y-100137450D01*
X205917800Y-100140400D01*
X205765402Y-100292798D01*
X205765402Y-100182006D01*
X205930061Y-100132058D01*
X206130676Y-100024827D01*
X206306518Y-99880518D01*
X206450827Y-99704676D01*
X206558058Y-99504061D01*
X206624090Y-99286380D01*
X206646387Y-99060000D01*
X206624090Y-98833620D01*
X206558058Y-98615939D01*
X206450827Y-98415324D01*
X206306518Y-98239482D01*
X206130676Y-98095173D01*
X205930061Y-97987942D01*
X205712380Y-97921910D01*
X205542724Y-97905200D01*
X205429276Y-97905200D01*
X205259620Y-97921910D01*
X205041939Y-97987942D01*
X204841324Y-98095173D01*
X204665482Y-98239482D01*
X204521173Y-98415324D01*
X204413942Y-98615939D01*
X204347910Y-98833620D01*
X204325613Y-99060000D01*
X204347910Y-99286380D01*
X204413942Y-99504061D01*
X204521173Y-99704676D01*
X204665482Y-99880518D01*
X204841324Y-100024827D01*
X205041939Y-100132058D01*
X205206598Y-100182006D01*
X205206598Y-100292798D01*
X205054200Y-100140400D01*
X204636000Y-100137450D01*
X204516497Y-100149220D01*
X204401587Y-100184078D01*
X204295685Y-100240683D01*
X204202862Y-100316862D01*
X204126683Y-100409685D01*
X204070078Y-100515587D01*
X204035220Y-100630497D01*
X204023450Y-100750000D01*
X203750638Y-100750000D01*
X203723501Y-100613573D01*
X203632680Y-100394313D01*
X203500830Y-100196984D01*
X203333016Y-100029170D01*
X203193334Y-99935838D01*
X203465000Y-99937550D01*
X203584503Y-99925780D01*
X203699413Y-99890922D01*
X203805315Y-99834317D01*
X203898138Y-99758138D01*
X203974317Y-99665315D01*
X204030922Y-99559413D01*
X204065780Y-99444503D01*
X204077550Y-99325000D01*
X204074600Y-98856800D01*
X203922200Y-98704400D01*
X202844400Y-98704400D01*
X202844400Y-98724400D01*
X202285600Y-98724400D01*
X202285600Y-98704400D01*
X202265600Y-98704400D01*
X202265600Y-98145600D01*
X202285600Y-98145600D01*
X202285600Y-97067800D01*
X202844400Y-97067800D01*
X202844400Y-98145600D01*
X203922200Y-98145600D01*
X204074600Y-97993200D01*
X204077550Y-97525000D01*
X204065780Y-97405497D01*
X204030922Y-97290587D01*
X203974317Y-97184685D01*
X203898138Y-97091862D01*
X203805315Y-97015683D01*
X203699413Y-96959078D01*
X203584503Y-96924220D01*
X203465000Y-96912450D01*
X202996800Y-96915400D01*
X202844400Y-97067800D01*
X202285600Y-97067800D01*
X202212433Y-96994633D01*
X203146267Y-96060800D01*
X204552484Y-96060800D01*
X204592463Y-96100779D01*
X204691520Y-96166966D01*
X204801586Y-96212558D01*
X204918432Y-96235800D01*
X205037568Y-96235800D01*
X205154414Y-96212558D01*
X205264480Y-96166966D01*
X205363537Y-96100779D01*
X205447779Y-96016537D01*
X205513966Y-95917480D01*
X205559558Y-95807414D01*
X205582800Y-95690568D01*
X205582800Y-95571432D01*
X205559558Y-95454586D01*
X205513966Y-95344520D01*
X205447779Y-95245463D01*
X205363537Y-95161221D01*
X205264480Y-95095034D01*
X205154414Y-95049442D01*
X205037568Y-95026200D01*
X204918432Y-95026200D01*
X204801586Y-95049442D01*
X204691520Y-95095034D01*
X204592463Y-95161221D01*
X204552484Y-95201200D01*
X202989344Y-95201200D01*
X202968237Y-95199121D01*
X202947130Y-95201200D01*
X202947129Y-95201200D01*
X202883983Y-95207419D01*
X202802965Y-95231996D01*
X202777770Y-95245463D01*
X202728298Y-95271906D01*
X202699203Y-95295784D01*
X202662853Y-95325615D01*
X202649395Y-95342014D01*
X200498015Y-97493395D01*
X200481616Y-97506853D01*
X200457002Y-97536846D01*
X200427906Y-97572299D01*
X200387996Y-97646966D01*
X200363420Y-97727983D01*
X200355121Y-97812238D01*
X196334800Y-97812238D01*
X196334800Y-92262484D01*
X196350587Y-92270922D01*
X196465497Y-92305780D01*
X196585000Y-92317550D01*
X197053200Y-92314600D01*
X197205600Y-92162200D01*
X197205600Y-91084400D01*
X197185600Y-91084400D01*
X197185600Y-90525600D01*
X197205600Y-90525600D01*
X197205600Y-89447800D01*
X197053200Y-89295400D01*
X196585000Y-89292450D01*
X196465497Y-89304220D01*
X196350587Y-89339078D01*
X196334800Y-89347516D01*
X196334800Y-87811517D01*
X196335611Y-87819751D01*
X196353040Y-87877206D01*
X196381342Y-87930157D01*
X196419432Y-87976568D01*
X196465843Y-88014658D01*
X196518794Y-88042960D01*
X196576249Y-88060389D01*
X196636000Y-88066274D01*
X197313446Y-88066274D01*
X197642200Y-88395029D01*
X197642200Y-88451568D01*
X197665442Y-88568414D01*
X197711034Y-88678480D01*
X197777221Y-88777537D01*
X197861463Y-88861779D01*
X197960520Y-88927966D01*
X198070586Y-88973558D01*
X198187432Y-88996800D01*
X198306568Y-88996800D01*
X198423414Y-88973558D01*
X198533480Y-88927966D01*
X198632537Y-88861779D01*
X198716779Y-88777537D01*
X198782966Y-88678480D01*
X198828558Y-88568414D01*
X198851800Y-88451568D01*
X198851800Y-88332432D01*
X198828558Y-88215586D01*
X198782966Y-88105520D01*
X198716779Y-88006463D01*
X198632537Y-87922221D01*
X198533480Y-87856034D01*
X198423414Y-87810442D01*
X198306568Y-87787200D01*
X198250029Y-87787200D01*
X198042274Y-87579445D01*
X198042274Y-86760000D01*
X198036389Y-86700249D01*
X198018960Y-86642794D01*
X197990658Y-86589843D01*
X197952568Y-86543432D01*
X197906157Y-86505342D01*
X197853206Y-86477040D01*
X197795751Y-86459611D01*
X197736000Y-86453726D01*
X196636000Y-86453726D01*
X196576249Y-86459611D01*
X196518794Y-86477040D01*
X196465843Y-86505342D01*
X196419432Y-86543432D01*
X196381342Y-86589843D01*
X196353040Y-86642794D01*
X196335611Y-86700249D01*
X196334800Y-86708483D01*
X196334800Y-86011517D01*
X196335611Y-86019751D01*
X196353040Y-86077206D01*
X196381342Y-86130157D01*
X196419432Y-86176568D01*
X196465843Y-86214658D01*
X196518794Y-86242960D01*
X196576249Y-86260389D01*
X196636000Y-86266274D01*
X197736000Y-86266274D01*
X197795751Y-86260389D01*
X197853206Y-86242960D01*
X197906157Y-86214658D01*
X197952568Y-86176568D01*
X197990658Y-86130157D01*
X198018960Y-86077206D01*
X198036389Y-86019751D01*
X198042274Y-85960000D01*
X198042274Y-85267555D01*
X198234030Y-85075799D01*
X199973999Y-85075799D01*
X200078800Y-85180600D01*
X200806600Y-85180600D01*
X200806600Y-85160600D01*
X201365400Y-85160600D01*
X201365400Y-85180600D01*
X202093200Y-85180600D01*
X202198001Y-85075799D01*
X202443726Y-85075799D01*
X202443726Y-85860000D01*
X202449611Y-85919751D01*
X202467040Y-85977206D01*
X202495342Y-86030157D01*
X202533432Y-86076568D01*
X202579843Y-86114658D01*
X202632794Y-86142960D01*
X202690249Y-86160389D01*
X202750000Y-86166274D01*
X203650000Y-86166274D01*
X203709751Y-86160389D01*
X203767206Y-86142960D01*
X203820157Y-86114658D01*
X203866568Y-86076568D01*
X203904658Y-86030157D01*
X203932960Y-85977206D01*
X203950389Y-85919751D01*
X203956274Y-85860000D01*
X203956274Y-85686337D01*
X203984255Y-85683581D01*
X204065273Y-85659004D01*
X204139939Y-85619094D01*
X204205385Y-85565385D01*
X204218848Y-85548981D01*
X204723830Y-85043999D01*
X210765709Y-85043999D01*
X212803712Y-87082003D01*
X212803712Y-87082003D01*
G37*
X212803712Y-87082003D02*
X212817170Y-87098402D01*
X212849292Y-87124763D01*
X212882615Y-87152111D01*
X212947411Y-87186745D01*
X212957282Y-87192021D01*
X213038300Y-87216598D01*
X213101446Y-87222817D01*
X213101448Y-87222817D01*
X213122555Y-87224896D01*
X213143662Y-87222817D01*
X217563677Y-87222817D01*
X217584784Y-87224896D01*
X217605891Y-87222817D01*
X217605893Y-87222817D01*
X217669039Y-87216598D01*
X217750057Y-87192021D01*
X217824723Y-87152111D01*
X217890169Y-87098402D01*
X217890648Y-87097818D01*
X217944351Y-87097818D01*
X218061197Y-87074576D01*
X218171263Y-87028984D01*
X218188000Y-87017801D01*
X218188001Y-88556164D01*
X217488311Y-89255855D01*
X217471906Y-89269318D01*
X217445670Y-89301288D01*
X217393461Y-89223150D01*
X217309219Y-89138908D01*
X217210162Y-89072721D01*
X217100096Y-89027129D01*
X216983250Y-89003887D01*
X216864114Y-89003887D01*
X216747268Y-89027129D01*
X216637202Y-89072721D01*
X216538145Y-89138908D01*
X216498166Y-89178887D01*
X214373716Y-89178887D01*
X213710800Y-88515972D01*
X213710800Y-88459432D01*
X213687558Y-88342586D01*
X213641966Y-88232520D01*
X213575779Y-88133463D01*
X213491537Y-88049221D01*
X213392480Y-87983034D01*
X213282414Y-87937442D01*
X213165568Y-87914200D01*
X213046432Y-87914200D01*
X212929586Y-87937442D01*
X212819520Y-87983034D01*
X212720463Y-88049221D01*
X212636221Y-88133463D01*
X212570034Y-88232520D01*
X212524442Y-88342586D01*
X212501200Y-88459432D01*
X212501200Y-88578568D01*
X212524442Y-88695414D01*
X212570034Y-88805480D01*
X212636221Y-88904537D01*
X212720463Y-88988779D01*
X212819520Y-89054966D01*
X212929586Y-89100558D01*
X213046432Y-89123800D01*
X213102972Y-89123800D01*
X213876844Y-89897673D01*
X213890302Y-89914072D01*
X213926652Y-89943903D01*
X213955747Y-89967781D01*
X213981429Y-89981508D01*
X214030414Y-90007691D01*
X214111432Y-90032268D01*
X214174578Y-90038487D01*
X214174579Y-90038487D01*
X214195686Y-90040566D01*
X214216793Y-90038487D01*
X216498166Y-90038487D01*
X216538145Y-90078466D01*
X216637202Y-90144653D01*
X216744124Y-90188943D01*
X213011650Y-93921418D01*
X212995245Y-93934881D01*
X212959972Y-93977863D01*
X212941536Y-94000327D01*
X212919176Y-94042160D01*
X212901626Y-94074994D01*
X212877049Y-94156012D01*
X212871083Y-94216586D01*
X212868751Y-94240266D01*
X212870830Y-94261373D01*
X212870831Y-96058287D01*
X212870830Y-96058297D01*
X212870830Y-96078153D01*
X212830851Y-96118132D01*
X212764664Y-96217189D01*
X212719072Y-96327255D01*
X212699600Y-96425148D01*
X212699600Y-94617755D01*
X212722358Y-94562814D01*
X212745600Y-94445968D01*
X212745600Y-94326832D01*
X212722358Y-94209986D01*
X212699600Y-94155045D01*
X212699600Y-92458044D01*
X212702303Y-92430600D01*
X212691514Y-92321056D01*
X212659561Y-92215722D01*
X212607673Y-92118646D01*
X212537843Y-92033557D01*
X212516525Y-92016062D01*
X211124770Y-90624308D01*
X211124770Y-86332565D01*
X211147528Y-86277624D01*
X211170770Y-86160778D01*
X211170770Y-86041642D01*
X211147528Y-85924796D01*
X211101936Y-85814730D01*
X211035749Y-85715673D01*
X210951507Y-85631431D01*
X210852450Y-85565244D01*
X210742384Y-85519652D01*
X210625538Y-85496410D01*
X210506402Y-85496410D01*
X210389556Y-85519652D01*
X210279490Y-85565244D01*
X210180433Y-85631431D01*
X210096191Y-85715673D01*
X210030004Y-85814730D01*
X210007245Y-85869673D01*
X209890251Y-85986667D01*
X209890245Y-85986672D01*
X208975718Y-86901200D01*
X203956274Y-86901200D01*
X203956274Y-86860000D01*
X203950389Y-86800249D01*
X203932960Y-86742794D01*
X203904658Y-86689843D01*
X203866568Y-86643432D01*
X203820157Y-86605342D01*
X203767206Y-86577040D01*
X203709751Y-86559611D01*
X203650000Y-86553726D01*
X202750000Y-86553726D01*
X202690249Y-86559611D01*
X202632794Y-86577040D01*
X202579843Y-86605342D01*
X202533432Y-86643432D01*
X202495342Y-86689843D01*
X202489272Y-86701200D01*
X201936483Y-86701200D01*
X201936389Y-86700249D01*
X201918960Y-86642794D01*
X201890658Y-86589843D01*
X201852568Y-86543432D01*
X201841806Y-86534600D01*
X201870413Y-86525922D01*
X201976315Y-86469317D01*
X202069138Y-86393138D01*
X202145317Y-86300315D01*
X202201922Y-86194413D01*
X202236780Y-86079503D01*
X202248550Y-85960000D01*
X202245600Y-85891800D01*
X202093200Y-85739400D01*
X201365400Y-85739400D01*
X201365400Y-85759400D01*
X200806600Y-85759400D01*
X200806600Y-85739400D01*
X200078800Y-85739400D01*
X199926400Y-85891800D01*
X199923450Y-85960000D01*
X199935220Y-86079503D01*
X199970078Y-86194413D01*
X200026683Y-86300315D01*
X200102862Y-86393138D01*
X200195685Y-86469317D01*
X200301587Y-86525922D01*
X200330194Y-86534600D01*
X200319432Y-86543432D01*
X200281342Y-86589843D01*
X200253040Y-86642794D01*
X200235611Y-86700249D01*
X200229726Y-86760000D01*
X200229726Y-87760000D01*
X200235611Y-87819751D01*
X200253040Y-87877206D01*
X200281342Y-87930157D01*
X200319432Y-87976568D01*
X200365843Y-88014658D01*
X200418794Y-88042960D01*
X200476249Y-88060389D01*
X200536000Y-88066274D01*
X201636000Y-88066274D01*
X201695751Y-88060389D01*
X201753206Y-88042960D01*
X201806157Y-88014658D01*
X201852568Y-87976568D01*
X201890658Y-87930157D01*
X201918960Y-87877206D01*
X201936389Y-87819751D01*
X201936483Y-87818800D01*
X202443726Y-87818800D01*
X202443726Y-88060000D01*
X202449611Y-88119751D01*
X202467040Y-88177206D01*
X202495342Y-88230157D01*
X202533432Y-88276568D01*
X202579843Y-88314658D01*
X202632794Y-88342960D01*
X202690249Y-88360389D01*
X202750000Y-88366274D01*
X203650000Y-88366274D01*
X203709751Y-88360389D01*
X203767206Y-88342960D01*
X203820157Y-88314658D01*
X203866568Y-88276568D01*
X203904658Y-88230157D01*
X203932960Y-88177206D01*
X203950389Y-88119751D01*
X203956274Y-88060000D01*
X203956274Y-88018800D01*
X209179738Y-88018800D01*
X209207180Y-88021503D01*
X209234622Y-88018800D01*
X209234624Y-88018800D01*
X209316724Y-88010714D01*
X209422058Y-87978761D01*
X209519134Y-87926873D01*
X209604223Y-87857043D01*
X209621723Y-87835719D01*
X210007171Y-87450272D01*
X210007170Y-90828328D01*
X210004467Y-90855770D01*
X210007170Y-90883212D01*
X210007170Y-90883213D01*
X210015256Y-90965313D01*
X210047209Y-91070647D01*
X210099097Y-91167724D01*
X210168927Y-91252813D01*
X210190251Y-91270313D01*
X210791738Y-91871800D01*
X206591432Y-91871800D01*
X206605780Y-91824503D01*
X206617550Y-91705000D01*
X206614600Y-91236800D01*
X206462200Y-91084400D01*
X205384400Y-91084400D01*
X205384400Y-91104400D01*
X204825600Y-91104400D01*
X204825600Y-91084400D01*
X204805600Y-91084400D01*
X204805600Y-90525600D01*
X204825600Y-90525600D01*
X204825600Y-89447800D01*
X205384400Y-89447800D01*
X205384400Y-90525600D01*
X206462200Y-90525600D01*
X206614600Y-90373200D01*
X206617550Y-89905000D01*
X206605780Y-89785497D01*
X206570922Y-89670587D01*
X206514317Y-89564685D01*
X206438138Y-89471862D01*
X206345315Y-89395683D01*
X206239413Y-89339078D01*
X206124503Y-89304220D01*
X206005000Y-89292450D01*
X205536800Y-89295400D01*
X205384400Y-89447800D01*
X204825600Y-89447800D01*
X204673200Y-89295400D01*
X204205000Y-89292450D01*
X204085497Y-89304220D01*
X203970587Y-89339078D01*
X203864685Y-89395683D01*
X203771862Y-89471862D01*
X203695683Y-89564685D01*
X203639078Y-89670587D01*
X203604220Y-89785497D01*
X203592450Y-89905000D01*
X203594162Y-90176666D01*
X203500830Y-90036984D01*
X203333016Y-89869170D01*
X203135687Y-89737320D01*
X202916427Y-89646499D01*
X202683662Y-89600200D01*
X202446338Y-89600200D01*
X202213573Y-89646499D01*
X201994313Y-89737320D01*
X201796984Y-89869170D01*
X201629170Y-90036984D01*
X201497320Y-90234313D01*
X201406499Y-90453573D01*
X201360200Y-90686338D01*
X201360200Y-90923662D01*
X201406499Y-91156427D01*
X201497320Y-91375687D01*
X201629170Y-91573016D01*
X201796984Y-91740830D01*
X201992996Y-91871800D01*
X200597004Y-91871800D01*
X200793016Y-91740830D01*
X200960830Y-91573016D01*
X201092680Y-91375687D01*
X201183501Y-91156427D01*
X201229800Y-90923662D01*
X201229800Y-90686338D01*
X201183501Y-90453573D01*
X201092680Y-90234313D01*
X200960830Y-90036984D01*
X200793016Y-89869170D01*
X200595687Y-89737320D01*
X200376427Y-89646499D01*
X200143662Y-89600200D01*
X199906338Y-89600200D01*
X199673573Y-89646499D01*
X199454313Y-89737320D01*
X199256984Y-89869170D01*
X199089170Y-90036984D01*
X198995838Y-90176666D01*
X198997550Y-89905000D01*
X198985780Y-89785497D01*
X198950922Y-89670587D01*
X198894317Y-89564685D01*
X198818138Y-89471862D01*
X198725315Y-89395683D01*
X198619413Y-89339078D01*
X198504503Y-89304220D01*
X198385000Y-89292450D01*
X197916800Y-89295400D01*
X197764400Y-89447800D01*
X197764400Y-90525600D01*
X197784400Y-90525600D01*
X197784400Y-91084400D01*
X197764400Y-91084400D01*
X197764400Y-91805561D01*
X197719435Y-91914115D01*
X197688200Y-92071146D01*
X197688200Y-92231254D01*
X197719435Y-92388285D01*
X197780706Y-92536205D01*
X197869657Y-92669330D01*
X197982870Y-92782543D01*
X198115995Y-92871494D01*
X198263915Y-92932765D01*
X198420946Y-92964000D01*
X198581054Y-92964000D01*
X198600819Y-92960068D01*
X198670856Y-92981314D01*
X198752956Y-92989400D01*
X198752957Y-92989400D01*
X198780399Y-92992103D01*
X198807841Y-92989400D01*
X211582001Y-92989400D01*
X211582000Y-94155044D01*
X211559242Y-94209986D01*
X211536000Y-94326832D01*
X211536000Y-94445968D01*
X211559242Y-94562814D01*
X211582001Y-94617757D01*
X211582000Y-96975158D01*
X211579297Y-97002600D01*
X211582000Y-97030042D01*
X211582000Y-97030043D01*
X211590086Y-97112143D01*
X211605410Y-97162659D01*
X211605410Y-97808927D01*
X211532867Y-97881470D01*
X211443916Y-98014595D01*
X211382645Y-98162515D01*
X211351410Y-98319546D01*
X211351410Y-98479654D01*
X211382645Y-98636685D01*
X211443916Y-98784605D01*
X211519392Y-98897563D01*
X206804800Y-94182972D01*
X206804800Y-94151516D01*
X206844779Y-94111537D01*
X206910966Y-94012480D01*
X206956558Y-93902414D01*
X206979800Y-93785568D01*
X206979800Y-93666432D01*
X206956558Y-93549586D01*
X206910966Y-93439520D01*
X206844779Y-93340463D01*
X206760537Y-93256221D01*
X206661480Y-93190034D01*
X206551414Y-93144442D01*
X206434568Y-93121200D01*
X206315432Y-93121200D01*
X206198586Y-93144442D01*
X206088520Y-93190034D01*
X205989463Y-93256221D01*
X205905221Y-93340463D01*
X205839034Y-93439520D01*
X205793442Y-93549586D01*
X205770200Y-93666432D01*
X205770200Y-93785568D01*
X205793442Y-93902414D01*
X205839034Y-94012480D01*
X205905221Y-94111537D01*
X205945200Y-94151516D01*
X205945200Y-94339893D01*
X205943121Y-94361000D01*
X205945200Y-94382107D01*
X205945200Y-94382108D01*
X205951419Y-94445254D01*
X205970865Y-94509358D01*
X205975996Y-94526272D01*
X206015906Y-94600939D01*
X206020969Y-94607108D01*
X206069615Y-94666385D01*
X206086020Y-94679848D01*
X209675459Y-98269287D01*
X209641418Y-98258961D01*
X209522004Y-98247200D01*
X209522001Y-98247200D01*
X209482081Y-98243268D01*
X209442161Y-98247200D01*
X209106852Y-98247200D01*
X209100518Y-98239482D01*
X208924676Y-98095173D01*
X208724061Y-97987942D01*
X208506380Y-97921910D01*
X208336724Y-97905200D01*
X208223276Y-97905200D01*
X208053620Y-97921910D01*
X207835939Y-97987942D01*
X207635324Y-98095173D01*
X207459482Y-98239482D01*
X207315173Y-98415324D01*
X207207942Y-98615939D01*
X207141910Y-98833620D01*
X207119613Y-99060000D01*
X207141910Y-99286380D01*
X207207942Y-99504061D01*
X207315173Y-99704676D01*
X207459482Y-99880518D01*
X207635324Y-100024827D01*
X207835939Y-100132058D01*
X208053620Y-100198090D01*
X208223276Y-100214800D01*
X208336724Y-100214800D01*
X208506380Y-100198090D01*
X208724061Y-100132058D01*
X208924676Y-100024827D01*
X209100518Y-99880518D01*
X209106852Y-99872800D01*
X209145409Y-99872800D01*
X209170989Y-99898380D01*
X209170990Y-100636439D01*
X209167057Y-100676369D01*
X209177640Y-100783815D01*
X209143276Y-100787200D01*
X209100334Y-100787200D01*
X209016142Y-100703008D01*
X208827003Y-100576629D01*
X208616843Y-100489578D01*
X208393738Y-100445200D01*
X208166262Y-100445200D01*
X207943157Y-100489578D01*
X207732997Y-100576629D01*
X207543858Y-100703008D01*
X207383008Y-100863858D01*
X207256629Y-101052997D01*
X207169578Y-101263157D01*
X207125200Y-101486262D01*
X207125200Y-101713738D01*
X207169578Y-101936843D01*
X207256629Y-102147003D01*
X207383008Y-102336142D01*
X207543858Y-102496992D01*
X207732997Y-102623371D01*
X207943157Y-102710422D01*
X208166262Y-102754800D01*
X208393738Y-102754800D01*
X208616843Y-102710422D01*
X208827003Y-102623371D01*
X208964933Y-102531209D01*
X216421449Y-109987726D01*
X216377198Y-109987726D01*
X215062972Y-108673500D01*
X215037517Y-108642483D01*
X214913752Y-108540912D01*
X214772550Y-108465438D01*
X214619337Y-108418961D01*
X214499923Y-108407200D01*
X214499920Y-108407200D01*
X214460000Y-108403268D01*
X214420080Y-108407200D01*
X212150883Y-108407200D01*
X212135045Y-108391362D01*
X211960319Y-108274614D01*
X211766174Y-108194196D01*
X211560071Y-108153200D01*
X211349929Y-108153200D01*
X211143826Y-108194196D01*
X210949681Y-108274614D01*
X210774955Y-108391362D01*
X210626362Y-108539955D01*
X210509614Y-108714681D01*
X210429196Y-108908826D01*
X210388200Y-109114929D01*
X210388200Y-109325071D01*
X210429196Y-109531174D01*
X210509614Y-109725319D01*
X210626362Y-109900045D01*
X210642201Y-109915884D01*
X210642200Y-110429117D01*
X210626362Y-110444955D01*
X210509614Y-110619681D01*
X210429196Y-110813826D01*
X210388200Y-111019929D01*
X210388200Y-111230071D01*
X210429196Y-111436174D01*
X210509614Y-111630319D01*
X210626362Y-111805045D01*
X210642200Y-111820883D01*
X210642201Y-113023532D01*
X210631249Y-113024611D01*
X210573794Y-113042040D01*
X210520843Y-113070342D01*
X210474432Y-113108432D01*
X210436342Y-113154843D01*
X210408040Y-113207794D01*
X210390611Y-113265249D01*
X210384726Y-113325000D01*
X210384726Y-115325000D01*
X210390611Y-115384751D01*
X210408040Y-115442206D01*
X210436342Y-115495157D01*
X210474432Y-115541568D01*
X210520843Y-115579658D01*
X210573794Y-115607960D01*
X210628201Y-115624464D01*
X210628201Y-116301070D01*
X210624268Y-116341000D01*
X210639962Y-116500336D01*
X210686438Y-116653549D01*
X210761912Y-116794751D01*
X210761913Y-116794752D01*
X210863484Y-116918517D01*
X210894495Y-116943967D01*
X212068023Y-118117496D01*
X212093473Y-118148507D01*
X212124483Y-118173956D01*
X212217238Y-118250078D01*
X212358440Y-118325552D01*
X212511653Y-118372029D01*
X212670990Y-118387722D01*
X212710913Y-118383790D01*
X216447369Y-118383790D01*
X216463207Y-118399628D01*
X216637933Y-118516376D01*
X216832078Y-118596794D01*
X217038181Y-118637790D01*
X217248323Y-118637790D01*
X217454426Y-118596794D01*
X217648571Y-118516376D01*
X217823297Y-118399628D01*
X217971890Y-118251035D01*
X218088638Y-118076309D01*
X218169056Y-117882164D01*
X218210052Y-117676061D01*
X218210052Y-117465919D01*
X218169056Y-117259816D01*
X218088638Y-117065671D01*
X217971890Y-116890945D01*
X217823297Y-116742352D01*
X217648571Y-116625604D01*
X217454426Y-116545186D01*
X217248323Y-116504190D01*
X217038181Y-116504190D01*
X216832078Y-116545186D01*
X216637933Y-116625604D01*
X216463207Y-116742352D01*
X216447369Y-116758190D01*
X213007663Y-116758190D01*
X212253800Y-116004328D01*
X212253800Y-115624464D01*
X212308206Y-115607960D01*
X212361157Y-115579658D01*
X212407568Y-115541568D01*
X212416400Y-115530806D01*
X212425078Y-115559413D01*
X212481683Y-115665315D01*
X212557862Y-115758138D01*
X212650685Y-115834317D01*
X212756587Y-115890922D01*
X212871497Y-115925780D01*
X212991000Y-115937550D01*
X213309200Y-115934600D01*
X213461600Y-115782200D01*
X213461600Y-114604400D01*
X213441600Y-114604400D01*
X213441600Y-114045600D01*
X213461600Y-114045600D01*
X213461600Y-113134200D01*
X213547600Y-113048200D01*
X213547600Y-112420400D01*
X212769800Y-112420400D01*
X212617400Y-112572800D01*
X212614450Y-112591000D01*
X212626220Y-112710503D01*
X212657088Y-112812260D01*
X212650685Y-112815683D01*
X212557862Y-112891862D01*
X212481683Y-112984685D01*
X212425078Y-113090587D01*
X212416400Y-113119194D01*
X212407568Y-113108432D01*
X212361157Y-113070342D01*
X212308206Y-113042040D01*
X212267800Y-113029783D01*
X212267800Y-111820883D01*
X212283638Y-111805045D01*
X212400386Y-111630319D01*
X212480804Y-111436174D01*
X212521800Y-111230071D01*
X212521800Y-111194000D01*
X212571450Y-111194000D01*
X212583220Y-111313503D01*
X212618078Y-111428413D01*
X212650962Y-111489935D01*
X212626220Y-111571497D01*
X212614450Y-111691000D01*
X212617400Y-111709200D01*
X212769800Y-111861600D01*
X213547600Y-111861600D01*
X213547600Y-111233800D01*
X213504600Y-111190800D01*
X213504600Y-111023400D01*
X212726800Y-111023400D01*
X212574400Y-111175800D01*
X212571450Y-111194000D01*
X212521800Y-111194000D01*
X212521800Y-111019929D01*
X212480804Y-110813826D01*
X212400386Y-110619681D01*
X212283638Y-110444955D01*
X212267800Y-110429117D01*
X212267800Y-110032800D01*
X212632396Y-110032800D01*
X212618078Y-110059587D01*
X212583220Y-110174497D01*
X212571450Y-110294000D01*
X212574400Y-110312200D01*
X212726800Y-110464600D01*
X213504600Y-110464600D01*
X213504600Y-110444600D01*
X214063400Y-110444600D01*
X214063400Y-110464600D01*
X214083400Y-110464600D01*
X214083400Y-111023400D01*
X214063400Y-111023400D01*
X214063400Y-111651200D01*
X214106400Y-111694200D01*
X214106400Y-111861600D01*
X214884200Y-111861600D01*
X215036600Y-111709200D01*
X215039550Y-111691000D01*
X215027780Y-111571497D01*
X214992922Y-111456587D01*
X214960038Y-111395065D01*
X214984780Y-111313503D01*
X214996550Y-111194000D01*
X214993600Y-111175800D01*
X214841202Y-111023402D01*
X214993600Y-111023402D01*
X214993600Y-110903072D01*
X215077726Y-110987198D01*
X215077726Y-111194000D01*
X215083611Y-111253751D01*
X215101040Y-111311206D01*
X215129342Y-111364157D01*
X215167432Y-111410568D01*
X215213843Y-111448658D01*
X215230796Y-111457719D01*
X215210432Y-111474432D01*
X215172342Y-111520843D01*
X215144040Y-111573794D01*
X215126611Y-111631249D01*
X215120726Y-111691000D01*
X215120726Y-112591000D01*
X215126611Y-112650751D01*
X215144040Y-112708206D01*
X215172342Y-112761157D01*
X215210432Y-112807568D01*
X215256843Y-112845658D01*
X215309794Y-112873960D01*
X215367249Y-112891389D01*
X215427000Y-112897274D01*
X215468200Y-112897274D01*
X215468200Y-113018726D01*
X215291000Y-113018726D01*
X215231249Y-113024611D01*
X215173794Y-113042040D01*
X215120843Y-113070342D01*
X215074432Y-113108432D01*
X215065600Y-113119194D01*
X215056922Y-113090587D01*
X215000317Y-112984685D01*
X214944284Y-112916410D01*
X214992922Y-112825413D01*
X215027780Y-112710503D01*
X215039550Y-112591000D01*
X215036600Y-112572800D01*
X214884200Y-112420400D01*
X214106400Y-112420400D01*
X214106400Y-112781800D01*
X214020400Y-112867800D01*
X214020400Y-114045600D01*
X214040400Y-114045600D01*
X214040400Y-114604400D01*
X214020400Y-114604400D01*
X214020400Y-115782200D01*
X214172800Y-115934600D01*
X214491000Y-115937550D01*
X214610503Y-115925780D01*
X214725413Y-115890922D01*
X214831315Y-115834317D01*
X214924138Y-115758138D01*
X215000317Y-115665315D01*
X215056922Y-115559413D01*
X215065600Y-115530806D01*
X215074432Y-115541568D01*
X215120843Y-115579658D01*
X215173794Y-115607960D01*
X215231249Y-115625389D01*
X215291000Y-115631274D01*
X216671308Y-115631274D01*
X216693856Y-115638114D01*
X216775956Y-115646200D01*
X216775957Y-115646200D01*
X216803399Y-115648903D01*
X216830841Y-115646200D01*
X216913138Y-115646200D01*
X220144663Y-118877726D01*
X219280000Y-118877726D01*
X219220249Y-118883611D01*
X219162794Y-118901040D01*
X219109843Y-118929342D01*
X219063432Y-118967432D01*
X219025342Y-119013843D01*
X218997040Y-119066794D01*
X218979611Y-119124249D01*
X218973726Y-119184000D01*
X218973726Y-119207663D01*
X218945745Y-119210419D01*
X218864727Y-119234996D01*
X218816069Y-119261005D01*
X218790060Y-119274906D01*
X218760965Y-119298784D01*
X218724615Y-119328615D01*
X218711157Y-119345014D01*
X217979173Y-120076999D01*
X216498545Y-120076999D01*
X216477438Y-120074920D01*
X216456331Y-120076999D01*
X216456330Y-120076999D01*
X216393184Y-120083218D01*
X216312166Y-120107795D01*
X216250873Y-120140556D01*
X216253550Y-119625000D01*
X216241780Y-119505497D01*
X216206922Y-119390587D01*
X216150317Y-119284685D01*
X216074138Y-119191862D01*
X215981315Y-119115683D01*
X215875413Y-119059078D01*
X215760503Y-119024220D01*
X215641000Y-119012450D01*
X214172800Y-119015400D01*
X214020400Y-119167800D01*
X214020400Y-120345600D01*
X214040400Y-120345600D01*
X214040400Y-120904400D01*
X214020400Y-120904400D01*
X214020400Y-122082200D01*
X214172800Y-122234600D01*
X215012646Y-122236287D01*
X212660935Y-124587999D01*
X210618546Y-124587999D01*
X210597439Y-124585920D01*
X210576332Y-124587999D01*
X210576330Y-124587999D01*
X210513184Y-124594218D01*
X210432166Y-124618795D01*
X210357500Y-124658705D01*
X210334800Y-124677334D01*
X210334800Y-121625000D01*
X211228450Y-121625000D01*
X211240220Y-121744503D01*
X211275078Y-121859413D01*
X211331683Y-121965315D01*
X211407862Y-122058138D01*
X211500685Y-122134317D01*
X211606587Y-122190922D01*
X211721497Y-122225780D01*
X211841000Y-122237550D01*
X213309200Y-122234600D01*
X213461600Y-122082200D01*
X213461600Y-120904400D01*
X211383800Y-120904400D01*
X211231400Y-121056800D01*
X211228450Y-121625000D01*
X210334800Y-121625000D01*
X210334800Y-119625000D01*
X211228450Y-119625000D01*
X211231400Y-120193200D01*
X211383800Y-120345600D01*
X213461600Y-120345600D01*
X213461600Y-119167800D01*
X213309200Y-119015400D01*
X211841000Y-119012450D01*
X211721497Y-119024220D01*
X211606587Y-119059078D01*
X211500685Y-119115683D01*
X211407862Y-119191862D01*
X211331683Y-119284685D01*
X211275078Y-119390587D01*
X211240220Y-119505497D01*
X211228450Y-119625000D01*
X210334800Y-119625000D01*
X210334800Y-107492576D01*
X210333312Y-107477469D01*
X210333329Y-107475052D01*
X210332846Y-107470121D01*
X210324686Y-107392483D01*
X210318222Y-107360991D01*
X210312194Y-107329394D01*
X210310764Y-107324659D01*
X210310763Y-107324652D01*
X210310760Y-107324646D01*
X210287678Y-107250076D01*
X210275203Y-107220399D01*
X210263170Y-107190618D01*
X210260845Y-107186243D01*
X210223715Y-107117572D01*
X210205719Y-107090892D01*
X210188124Y-107064005D01*
X210184994Y-107060166D01*
X210135233Y-107000015D01*
X210112407Y-106977348D01*
X210089914Y-106954379D01*
X210086103Y-106951226D01*
X210086099Y-106951222D01*
X210086095Y-106951219D01*
X210025601Y-106901881D01*
X209998791Y-106884069D01*
X209972283Y-106865919D01*
X209967925Y-106863562D01*
X209898996Y-106826912D01*
X209869271Y-106814660D01*
X209839711Y-106801991D01*
X209834978Y-106800526D01*
X209834980Y-106800526D01*
X209834972Y-106800524D01*
X209760244Y-106777962D01*
X209728702Y-106771716D01*
X209697244Y-106765030D01*
X209692317Y-106764511D01*
X209614623Y-106756893D01*
X209614614Y-106756893D01*
X209597424Y-106755200D01*
X207355793Y-106755200D01*
X207419364Y-106728868D01*
X207780478Y-106487580D01*
X208087580Y-106180478D01*
X208328868Y-105819364D01*
X208495071Y-105418116D01*
X208579800Y-104992154D01*
X208579800Y-104557846D01*
X208495071Y-104131884D01*
X208328868Y-103730636D01*
X208087580Y-103369522D01*
X207780478Y-103062420D01*
X207419364Y-102821132D01*
X207018116Y-102654929D01*
X206916969Y-102634810D01*
X206936780Y-102569503D01*
X206948550Y-102450000D01*
X206945600Y-102031800D01*
X206793200Y-101879400D01*
X205765400Y-101879400D01*
X205765400Y-101899400D01*
X205206600Y-101899400D01*
X205206600Y-101879400D01*
X204178800Y-101879400D01*
X204026400Y-102031800D01*
X204023450Y-102450000D01*
X204035220Y-102569503D01*
X204070078Y-102684413D01*
X204126683Y-102790315D01*
X204202862Y-102883138D01*
X204295685Y-102959317D01*
X204401587Y-103015922D01*
X204516497Y-103050780D01*
X204636000Y-103062550D01*
X204972884Y-103060174D01*
X204969522Y-103062420D01*
X204662420Y-103369522D01*
X204421132Y-103730636D01*
X204254929Y-104131884D01*
X204170200Y-104557846D01*
X204170200Y-104992154D01*
X204254929Y-105418116D01*
X204421132Y-105819364D01*
X204662420Y-106180478D01*
X204969522Y-106487580D01*
X205330636Y-106728868D01*
X205394207Y-106755200D01*
X204076354Y-106755200D01*
X204074600Y-106476800D01*
X203922200Y-106324400D01*
X202844400Y-106324400D01*
X202844400Y-106755200D01*
X202285600Y-106755200D01*
X202285600Y-106324400D01*
X201207800Y-106324400D01*
X201055400Y-106476800D01*
X201053646Y-106755200D01*
X196397357Y-106755200D01*
X196371548Y-106752669D01*
X196363427Y-106750217D01*
X196355928Y-106746231D01*
X196349349Y-106740864D01*
X196343940Y-106734326D01*
X196339900Y-106726854D01*
X196337389Y-106718744D01*
X196334800Y-106694108D01*
X196334800Y-105145000D01*
X201052450Y-105145000D01*
X201055400Y-105613200D01*
X201207800Y-105765600D01*
X202285600Y-105765600D01*
X202285600Y-105745600D01*
X202844400Y-105745600D01*
X202844400Y-105765600D01*
X203922200Y-105765600D01*
X204074600Y-105613200D01*
X204077550Y-105145000D01*
X204065780Y-105025497D01*
X204030922Y-104910587D01*
X203974317Y-104804685D01*
X203898138Y-104711862D01*
X203805315Y-104635683D01*
X203699413Y-104579078D01*
X203584503Y-104544220D01*
X203465000Y-104532450D01*
X203193334Y-104534162D01*
X203333016Y-104440830D01*
X203500830Y-104273016D01*
X203632680Y-104075687D01*
X203723501Y-103856427D01*
X203769800Y-103623662D01*
X203769800Y-103386338D01*
X203723501Y-103153573D01*
X203632680Y-102934313D01*
X203500830Y-102736984D01*
X203333016Y-102569170D01*
X203135687Y-102437320D01*
X202916427Y-102346499D01*
X202683662Y-102300200D01*
X202446338Y-102300200D01*
X202213573Y-102346499D01*
X201994313Y-102437320D01*
X201796984Y-102569170D01*
X201629170Y-102736984D01*
X201497320Y-102934313D01*
X201406499Y-103153573D01*
X201360200Y-103386338D01*
X201360200Y-103623662D01*
X201406499Y-103856427D01*
X201497320Y-104075687D01*
X201629170Y-104273016D01*
X201796984Y-104440830D01*
X201936666Y-104534162D01*
X201665000Y-104532450D01*
X201545497Y-104544220D01*
X201430587Y-104579078D01*
X201324685Y-104635683D01*
X201231862Y-104711862D01*
X201155683Y-104804685D01*
X201099078Y-104910587D01*
X201064220Y-105025497D01*
X201052450Y-105145000D01*
X196334800Y-105145000D01*
X196334800Y-97812238D01*
X200355121Y-97812238D01*
X200357201Y-97833355D01*
X200357200Y-99165893D01*
X200355121Y-99187000D01*
X200357200Y-99208107D01*
X200357200Y-99208108D01*
X200363419Y-99271254D01*
X200376539Y-99314503D01*
X200387996Y-99352272D01*
X200427906Y-99426939D01*
X200439446Y-99441000D01*
X200481615Y-99492385D01*
X200498020Y-99505848D01*
X201464857Y-100472685D01*
X201406499Y-100613573D01*
X201360200Y-100846338D01*
X201360200Y-101083662D01*
X201406499Y-101316427D01*
X201497320Y-101535687D01*
X201629170Y-101733016D01*
X201796984Y-101900830D01*
X201994313Y-102032680D01*
X202213573Y-102123501D01*
X202446338Y-102169800D01*
X202683662Y-102169800D01*
X202916427Y-102123501D01*
X203135687Y-102032680D01*
X203333016Y-101900830D01*
X203500830Y-101733016D01*
X203632680Y-101535687D01*
X203723501Y-101316427D01*
X203769800Y-101083662D01*
X203769800Y-100846338D01*
X203750638Y-100750000D01*
X204023450Y-100750000D01*
X204026400Y-101168200D01*
X204178800Y-101320600D01*
X205206600Y-101320600D01*
X205206600Y-101300600D01*
X205765400Y-101300600D01*
X205765400Y-101320600D01*
X206793200Y-101320600D01*
X206945600Y-101168200D01*
X206948550Y-100750000D01*
X206936780Y-100630497D01*
X206901922Y-100515587D01*
X206845317Y-100409685D01*
X206769138Y-100316862D01*
X206676315Y-100240683D01*
X206570413Y-100184078D01*
X206455503Y-100149220D01*
X206336000Y-100137450D01*
X205917800Y-100140400D01*
X205765402Y-100292798D01*
X205765402Y-100182006D01*
X205930061Y-100132058D01*
X206130676Y-100024827D01*
X206306518Y-99880518D01*
X206450827Y-99704676D01*
X206558058Y-99504061D01*
X206624090Y-99286380D01*
X206646387Y-99060000D01*
X206624090Y-98833620D01*
X206558058Y-98615939D01*
X206450827Y-98415324D01*
X206306518Y-98239482D01*
X206130676Y-98095173D01*
X205930061Y-97987942D01*
X205712380Y-97921910D01*
X205542724Y-97905200D01*
X205429276Y-97905200D01*
X205259620Y-97921910D01*
X205041939Y-97987942D01*
X204841324Y-98095173D01*
X204665482Y-98239482D01*
X204521173Y-98415324D01*
X204413942Y-98615939D01*
X204347910Y-98833620D01*
X204325613Y-99060000D01*
X204347910Y-99286380D01*
X204413942Y-99504061D01*
X204521173Y-99704676D01*
X204665482Y-99880518D01*
X204841324Y-100024827D01*
X205041939Y-100132058D01*
X205206598Y-100182006D01*
X205206598Y-100292798D01*
X205054200Y-100140400D01*
X204636000Y-100137450D01*
X204516497Y-100149220D01*
X204401587Y-100184078D01*
X204295685Y-100240683D01*
X204202862Y-100316862D01*
X204126683Y-100409685D01*
X204070078Y-100515587D01*
X204035220Y-100630497D01*
X204023450Y-100750000D01*
X203750638Y-100750000D01*
X203723501Y-100613573D01*
X203632680Y-100394313D01*
X203500830Y-100196984D01*
X203333016Y-100029170D01*
X203193334Y-99935838D01*
X203465000Y-99937550D01*
X203584503Y-99925780D01*
X203699413Y-99890922D01*
X203805315Y-99834317D01*
X203898138Y-99758138D01*
X203974317Y-99665315D01*
X204030922Y-99559413D01*
X204065780Y-99444503D01*
X204077550Y-99325000D01*
X204074600Y-98856800D01*
X203922200Y-98704400D01*
X202844400Y-98704400D01*
X202844400Y-98724400D01*
X202285600Y-98724400D01*
X202285600Y-98704400D01*
X202265600Y-98704400D01*
X202265600Y-98145600D01*
X202285600Y-98145600D01*
X202285600Y-97067800D01*
X202844400Y-97067800D01*
X202844400Y-98145600D01*
X203922200Y-98145600D01*
X204074600Y-97993200D01*
X204077550Y-97525000D01*
X204065780Y-97405497D01*
X204030922Y-97290587D01*
X203974317Y-97184685D01*
X203898138Y-97091862D01*
X203805315Y-97015683D01*
X203699413Y-96959078D01*
X203584503Y-96924220D01*
X203465000Y-96912450D01*
X202996800Y-96915400D01*
X202844400Y-97067800D01*
X202285600Y-97067800D01*
X202212433Y-96994633D01*
X203146267Y-96060800D01*
X204552484Y-96060800D01*
X204592463Y-96100779D01*
X204691520Y-96166966D01*
X204801586Y-96212558D01*
X204918432Y-96235800D01*
X205037568Y-96235800D01*
X205154414Y-96212558D01*
X205264480Y-96166966D01*
X205363537Y-96100779D01*
X205447779Y-96016537D01*
X205513966Y-95917480D01*
X205559558Y-95807414D01*
X205582800Y-95690568D01*
X205582800Y-95571432D01*
X205559558Y-95454586D01*
X205513966Y-95344520D01*
X205447779Y-95245463D01*
X205363537Y-95161221D01*
X205264480Y-95095034D01*
X205154414Y-95049442D01*
X205037568Y-95026200D01*
X204918432Y-95026200D01*
X204801586Y-95049442D01*
X204691520Y-95095034D01*
X204592463Y-95161221D01*
X204552484Y-95201200D01*
X202989344Y-95201200D01*
X202968237Y-95199121D01*
X202947130Y-95201200D01*
X202947129Y-95201200D01*
X202883983Y-95207419D01*
X202802965Y-95231996D01*
X202777770Y-95245463D01*
X202728298Y-95271906D01*
X202699203Y-95295784D01*
X202662853Y-95325615D01*
X202649395Y-95342014D01*
X200498015Y-97493395D01*
X200481616Y-97506853D01*
X200457002Y-97536846D01*
X200427906Y-97572299D01*
X200387996Y-97646966D01*
X200363420Y-97727983D01*
X200355121Y-97812238D01*
X196334800Y-97812238D01*
X196334800Y-92262484D01*
X196350587Y-92270922D01*
X196465497Y-92305780D01*
X196585000Y-92317550D01*
X197053200Y-92314600D01*
X197205600Y-92162200D01*
X197205600Y-91084400D01*
X197185600Y-91084400D01*
X197185600Y-90525600D01*
X197205600Y-90525600D01*
X197205600Y-89447800D01*
X197053200Y-89295400D01*
X196585000Y-89292450D01*
X196465497Y-89304220D01*
X196350587Y-89339078D01*
X196334800Y-89347516D01*
X196334800Y-87811517D01*
X196335611Y-87819751D01*
X196353040Y-87877206D01*
X196381342Y-87930157D01*
X196419432Y-87976568D01*
X196465843Y-88014658D01*
X196518794Y-88042960D01*
X196576249Y-88060389D01*
X196636000Y-88066274D01*
X197313446Y-88066274D01*
X197642200Y-88395029D01*
X197642200Y-88451568D01*
X197665442Y-88568414D01*
X197711034Y-88678480D01*
X197777221Y-88777537D01*
X197861463Y-88861779D01*
X197960520Y-88927966D01*
X198070586Y-88973558D01*
X198187432Y-88996800D01*
X198306568Y-88996800D01*
X198423414Y-88973558D01*
X198533480Y-88927966D01*
X198632537Y-88861779D01*
X198716779Y-88777537D01*
X198782966Y-88678480D01*
X198828558Y-88568414D01*
X198851800Y-88451568D01*
X198851800Y-88332432D01*
X198828558Y-88215586D01*
X198782966Y-88105520D01*
X198716779Y-88006463D01*
X198632537Y-87922221D01*
X198533480Y-87856034D01*
X198423414Y-87810442D01*
X198306568Y-87787200D01*
X198250029Y-87787200D01*
X198042274Y-87579445D01*
X198042274Y-86760000D01*
X198036389Y-86700249D01*
X198018960Y-86642794D01*
X197990658Y-86589843D01*
X197952568Y-86543432D01*
X197906157Y-86505342D01*
X197853206Y-86477040D01*
X197795751Y-86459611D01*
X197736000Y-86453726D01*
X196636000Y-86453726D01*
X196576249Y-86459611D01*
X196518794Y-86477040D01*
X196465843Y-86505342D01*
X196419432Y-86543432D01*
X196381342Y-86589843D01*
X196353040Y-86642794D01*
X196335611Y-86700249D01*
X196334800Y-86708483D01*
X196334800Y-86011517D01*
X196335611Y-86019751D01*
X196353040Y-86077206D01*
X196381342Y-86130157D01*
X196419432Y-86176568D01*
X196465843Y-86214658D01*
X196518794Y-86242960D01*
X196576249Y-86260389D01*
X196636000Y-86266274D01*
X197736000Y-86266274D01*
X197795751Y-86260389D01*
X197853206Y-86242960D01*
X197906157Y-86214658D01*
X197952568Y-86176568D01*
X197990658Y-86130157D01*
X198018960Y-86077206D01*
X198036389Y-86019751D01*
X198042274Y-85960000D01*
X198042274Y-85267555D01*
X198234030Y-85075799D01*
X199973999Y-85075799D01*
X200078800Y-85180600D01*
X200806600Y-85180600D01*
X200806600Y-85160600D01*
X201365400Y-85160600D01*
X201365400Y-85180600D01*
X202093200Y-85180600D01*
X202198001Y-85075799D01*
X202443726Y-85075799D01*
X202443726Y-85860000D01*
X202449611Y-85919751D01*
X202467040Y-85977206D01*
X202495342Y-86030157D01*
X202533432Y-86076568D01*
X202579843Y-86114658D01*
X202632794Y-86142960D01*
X202690249Y-86160389D01*
X202750000Y-86166274D01*
X203650000Y-86166274D01*
X203709751Y-86160389D01*
X203767206Y-86142960D01*
X203820157Y-86114658D01*
X203866568Y-86076568D01*
X203904658Y-86030157D01*
X203932960Y-85977206D01*
X203950389Y-85919751D01*
X203956274Y-85860000D01*
X203956274Y-85686337D01*
X203984255Y-85683581D01*
X204065273Y-85659004D01*
X204139939Y-85619094D01*
X204205385Y-85565385D01*
X204218848Y-85548981D01*
X204723830Y-85043999D01*
X210765709Y-85043999D01*
X212803712Y-87082003D01*
G36*
X223215121Y-94953368D02*
G01*
X223217201Y-94974485D01*
X223217200Y-95829637D01*
X223128870Y-95888657D01*
X223015657Y-96001870D01*
X222926706Y-96134995D01*
X222865435Y-96282915D01*
X222834200Y-96439946D01*
X222834200Y-96600054D01*
X222865435Y-96757085D01*
X222926706Y-96905005D01*
X223015657Y-97038130D01*
X223128870Y-97151343D01*
X223261995Y-97240294D01*
X223409915Y-97301565D01*
X223566946Y-97332800D01*
X223727054Y-97332800D01*
X223884085Y-97301565D01*
X224032005Y-97240294D01*
X224165130Y-97151343D01*
X224278343Y-97038130D01*
X224367294Y-96905005D01*
X224428565Y-96757085D01*
X224459800Y-96600054D01*
X224459800Y-96439946D01*
X224428565Y-96282915D01*
X224367294Y-96134995D01*
X224278343Y-96001870D01*
X224165130Y-95888657D01*
X224076800Y-95829637D01*
X224076800Y-95192736D01*
X224129830Y-95203284D01*
X224289938Y-95203284D01*
X224446969Y-95172049D01*
X224594889Y-95110778D01*
X224728014Y-95021827D01*
X224800557Y-94949284D01*
X228017022Y-94949284D01*
X228803200Y-95735463D01*
X228803200Y-97513182D01*
X228779138Y-97483862D01*
X228686315Y-97407683D01*
X228580413Y-97351078D01*
X228465503Y-97316220D01*
X228346000Y-97304450D01*
X227761800Y-97307400D01*
X227609400Y-97459800D01*
X227609400Y-98399600D01*
X227629400Y-98399600D01*
X227629400Y-98958400D01*
X227609400Y-98958400D01*
X227609400Y-99898200D01*
X227761800Y-100050600D01*
X228346000Y-100053550D01*
X228465503Y-100041780D01*
X228580413Y-100006922D01*
X228686315Y-99950317D01*
X228779138Y-99874138D01*
X228803201Y-99844818D01*
X228803201Y-99971536D01*
X227862012Y-100912726D01*
X226314000Y-100912726D01*
X226254249Y-100918611D01*
X226196794Y-100936040D01*
X226143843Y-100964342D01*
X226097432Y-101002432D01*
X226059342Y-101048843D01*
X226031040Y-101101794D01*
X226013611Y-101159249D01*
X226007726Y-101219000D01*
X226007726Y-101222464D01*
X225546274Y-100761012D01*
X225546274Y-100195000D01*
X225540389Y-100135249D01*
X225522960Y-100077794D01*
X225494658Y-100024843D01*
X225456568Y-99978432D01*
X225410157Y-99940342D01*
X225357206Y-99912040D01*
X225299751Y-99894611D01*
X225240000Y-99888726D01*
X224340000Y-99888726D01*
X224280249Y-99894611D01*
X224222794Y-99912040D01*
X224169843Y-99940342D01*
X224123432Y-99978432D01*
X224085342Y-100024843D01*
X224057040Y-100077794D01*
X224039611Y-100135249D01*
X224033726Y-100195000D01*
X224033726Y-100365200D01*
X222992944Y-100365200D01*
X222971837Y-100363121D01*
X222950730Y-100365200D01*
X222950728Y-100365200D01*
X222887582Y-100371419D01*
X222812112Y-100394313D01*
X222806564Y-100395996D01*
X222731897Y-100435906D01*
X222698469Y-100463340D01*
X222666452Y-100489615D01*
X222652994Y-100506014D01*
X222198281Y-100960728D01*
X222196558Y-100952066D01*
X222150966Y-100842000D01*
X222084779Y-100742943D01*
X222000537Y-100658701D01*
X221901480Y-100592514D01*
X221791414Y-100546922D01*
X221674568Y-100523680D01*
X221555432Y-100523680D01*
X221438586Y-100546922D01*
X221328520Y-100592514D01*
X221229463Y-100658701D01*
X221145221Y-100742943D01*
X221079034Y-100842000D01*
X221033442Y-100952066D01*
X221010200Y-101068912D01*
X221010200Y-101124409D01*
X220999616Y-101133095D01*
X220975002Y-101163088D01*
X220945906Y-101198541D01*
X220905996Y-101273208D01*
X220881420Y-101354225D01*
X220873121Y-101438480D01*
X220875201Y-101459597D01*
X220875201Y-102285999D01*
X220778400Y-102382800D01*
X220778400Y-102792544D01*
X220773726Y-102840000D01*
X220773726Y-104590000D01*
X220778400Y-104637456D01*
X220778400Y-105047200D01*
X220930800Y-105199600D01*
X221012406Y-105188069D01*
X221126539Y-105150746D01*
X221231198Y-105091874D01*
X221322361Y-105013715D01*
X221396524Y-104919273D01*
X221408188Y-104896274D01*
X221530000Y-104896274D01*
X221589751Y-104890389D01*
X221630000Y-104878179D01*
X221670249Y-104890389D01*
X221730000Y-104896274D01*
X222180000Y-104896274D01*
X222239751Y-104890389D01*
X222280000Y-104878179D01*
X222320249Y-104890389D01*
X222380000Y-104896274D01*
X222830000Y-104896274D01*
X222889751Y-104890389D01*
X222930000Y-104878179D01*
X222970249Y-104890389D01*
X223030000Y-104896274D01*
X223480000Y-104896274D01*
X223539751Y-104890389D01*
X223580000Y-104878179D01*
X223620249Y-104890389D01*
X223680000Y-104896274D01*
X223936705Y-104896274D01*
X222152980Y-106680000D01*
X219923839Y-106680000D01*
X219893386Y-106606481D01*
X219776638Y-106431755D01*
X219628045Y-106283162D01*
X219453319Y-106166414D01*
X219259174Y-106085996D01*
X219053071Y-106045000D01*
X219030673Y-106045000D01*
X218541600Y-105555928D01*
X218541600Y-104896274D01*
X218930000Y-104896274D01*
X218989751Y-104890389D01*
X219030000Y-104878179D01*
X219070249Y-104890389D01*
X219130000Y-104896274D01*
X219580000Y-104896274D01*
X219639751Y-104890389D01*
X219680000Y-104878179D01*
X219720249Y-104890389D01*
X219780000Y-104896274D01*
X219901812Y-104896274D01*
X219913476Y-104919273D01*
X219987639Y-105013715D01*
X220078802Y-105091874D01*
X220183461Y-105150746D01*
X220297594Y-105188069D01*
X220379200Y-105199600D01*
X220531600Y-105047200D01*
X220531600Y-104637456D01*
X220536274Y-104590000D01*
X220536274Y-102840000D01*
X220531600Y-102792544D01*
X220531600Y-102382800D01*
X220434800Y-102286000D01*
X220434800Y-101888809D01*
X220436680Y-101885995D01*
X220482272Y-101775929D01*
X220505514Y-101659083D01*
X220505514Y-101539947D01*
X220482272Y-101423101D01*
X220436680Y-101313035D01*
X220370493Y-101213978D01*
X220286251Y-101129736D01*
X220187194Y-101063549D01*
X220077128Y-101017957D01*
X219960282Y-100994715D01*
X219841146Y-100994715D01*
X219724300Y-101017957D01*
X219614234Y-101063549D01*
X219515177Y-101129736D01*
X219500431Y-101144482D01*
X219486240Y-101130291D01*
X219387183Y-101064104D01*
X219277117Y-101018512D01*
X219160271Y-100995270D01*
X219041135Y-100995270D01*
X218924289Y-101018512D01*
X218870581Y-101040759D01*
X218870581Y-99872239D01*
X219547820Y-99195000D01*
X223727450Y-99195000D01*
X223739220Y-99314503D01*
X223774078Y-99429413D01*
X223830683Y-99535315D01*
X223906862Y-99628138D01*
X223999685Y-99704317D01*
X224105587Y-99760922D01*
X224220497Y-99795780D01*
X224340000Y-99807550D01*
X224358200Y-99804600D01*
X224510600Y-99652200D01*
X224510600Y-98874400D01*
X225069400Y-98874400D01*
X225069400Y-99652200D01*
X225221800Y-99804600D01*
X225240000Y-99807550D01*
X225359503Y-99795780D01*
X225474413Y-99760922D01*
X225580315Y-99704317D01*
X225673138Y-99628138D01*
X225717383Y-99574226D01*
X225748078Y-99675413D01*
X225804683Y-99781315D01*
X225880862Y-99874138D01*
X225973685Y-99950317D01*
X226079587Y-100006922D01*
X226194497Y-100041780D01*
X226314000Y-100053550D01*
X226898200Y-100050600D01*
X227050600Y-99898200D01*
X227050600Y-98958400D01*
X225856800Y-98958400D01*
X225819000Y-98996200D01*
X225697200Y-98874400D01*
X225069400Y-98874400D01*
X224510600Y-98874400D01*
X223882800Y-98874400D01*
X223730400Y-99026800D01*
X223727450Y-99195000D01*
X219547820Y-99195000D01*
X219867394Y-98875427D01*
X219923933Y-98875427D01*
X220040779Y-98852185D01*
X220150845Y-98806593D01*
X220249902Y-98740406D01*
X220334144Y-98656164D01*
X220400331Y-98557107D01*
X220445923Y-98447041D01*
X220469165Y-98330195D01*
X220469165Y-98211059D01*
X220445923Y-98094213D01*
X220404827Y-97995000D01*
X223727450Y-97995000D01*
X223730400Y-98163200D01*
X223882800Y-98315600D01*
X224510600Y-98315600D01*
X224510600Y-97537800D01*
X225069400Y-97537800D01*
X225069400Y-98315600D01*
X225697200Y-98315600D01*
X225735000Y-98277800D01*
X225856800Y-98399600D01*
X227050600Y-98399600D01*
X227050600Y-97459800D01*
X226898200Y-97307400D01*
X226314000Y-97304450D01*
X226194497Y-97316220D01*
X226079587Y-97351078D01*
X225973685Y-97407683D01*
X225880862Y-97483862D01*
X225804683Y-97576685D01*
X225756154Y-97667477D01*
X225749317Y-97654685D01*
X225673138Y-97561862D01*
X225580315Y-97485683D01*
X225474413Y-97429078D01*
X225359503Y-97394220D01*
X225240000Y-97382450D01*
X225221800Y-97385400D01*
X225069400Y-97537800D01*
X224510600Y-97537800D01*
X224358200Y-97385400D01*
X224340000Y-97382450D01*
X224220497Y-97394220D01*
X224105587Y-97429078D01*
X223999685Y-97485683D01*
X223906862Y-97561862D01*
X223830683Y-97654685D01*
X223774078Y-97760587D01*
X223739220Y-97875497D01*
X223727450Y-97995000D01*
X220404827Y-97995000D01*
X220400331Y-97984147D01*
X220334144Y-97885090D01*
X220249902Y-97800848D01*
X220150845Y-97734661D01*
X220040779Y-97689069D01*
X219923933Y-97665827D01*
X219804797Y-97665827D01*
X219687951Y-97689069D01*
X219577885Y-97734661D01*
X219478828Y-97800848D01*
X219394586Y-97885090D01*
X219328399Y-97984147D01*
X219282807Y-98094213D01*
X219259565Y-98211059D01*
X219259565Y-98267598D01*
X218221667Y-99305497D01*
X218232550Y-99195000D01*
X218229600Y-99026800D01*
X218077200Y-98874400D01*
X217449400Y-98874400D01*
X217449400Y-99652200D01*
X217601800Y-99804600D01*
X217620000Y-99807550D01*
X217739503Y-99795780D01*
X217854413Y-99760922D01*
X217960315Y-99704317D01*
X218012092Y-99661824D01*
X218008902Y-99694211D01*
X218010982Y-99715328D01*
X218010981Y-101844043D01*
X218008902Y-101865150D01*
X218010981Y-101886257D01*
X218010981Y-101886258D01*
X218017200Y-101949404D01*
X218039417Y-102022642D01*
X218041777Y-102030422D01*
X218081687Y-102105089D01*
X218091644Y-102117221D01*
X218135396Y-102170535D01*
X218151801Y-102183998D01*
X218275201Y-102307398D01*
X218275201Y-102539626D01*
X217982800Y-102539626D01*
X217982800Y-100755077D01*
X217971039Y-100635663D01*
X217926274Y-100488094D01*
X217926274Y-100195000D01*
X217920389Y-100135249D01*
X217902960Y-100077794D01*
X217874658Y-100024843D01*
X217836568Y-99978432D01*
X217790157Y-99940342D01*
X217737206Y-99912040D01*
X217679751Y-99894611D01*
X217620000Y-99888726D01*
X216720000Y-99888726D01*
X216660249Y-99894611D01*
X216602794Y-99912040D01*
X216549843Y-99940342D01*
X216503432Y-99978432D01*
X216465342Y-100024843D01*
X216437040Y-100077794D01*
X216419611Y-100135249D01*
X216413726Y-100195000D01*
X216413726Y-100488095D01*
X216368961Y-100635664D01*
X216357200Y-100755078D01*
X216357200Y-101256237D01*
X216301450Y-101226438D01*
X216148237Y-101179961D01*
X216028823Y-101168200D01*
X216028820Y-101168200D01*
X215988900Y-101164268D01*
X215948980Y-101168200D01*
X215947271Y-101168200D01*
X215946389Y-101159249D01*
X215928960Y-101101794D01*
X215900658Y-101048843D01*
X215862568Y-101002432D01*
X215816157Y-100964342D01*
X215763206Y-100936040D01*
X215705751Y-100918611D01*
X215646000Y-100912726D01*
X213614000Y-100912726D01*
X213554249Y-100918611D01*
X213496794Y-100936040D01*
X213443843Y-100964342D01*
X213397432Y-101002432D01*
X213359342Y-101048843D01*
X213331040Y-101101794D01*
X213313611Y-101159249D01*
X213307726Y-101219000D01*
X213307726Y-102743000D01*
X213313611Y-102802751D01*
X213331040Y-102860206D01*
X213347048Y-102890155D01*
X210796589Y-100339697D01*
X210796589Y-99601628D01*
X210800521Y-99561707D01*
X210794843Y-99504061D01*
X210784828Y-99402371D01*
X210774502Y-99368331D01*
X211993200Y-100587029D01*
X211993200Y-100643568D01*
X212016442Y-100760414D01*
X212062034Y-100870480D01*
X212128221Y-100969537D01*
X212212463Y-101053779D01*
X212311520Y-101119966D01*
X212421586Y-101165558D01*
X212538432Y-101188800D01*
X212657568Y-101188800D01*
X212774414Y-101165558D01*
X212884480Y-101119966D01*
X212983537Y-101053779D01*
X213067779Y-100969537D01*
X213133966Y-100870480D01*
X213179558Y-100760414D01*
X213202800Y-100643568D01*
X213202800Y-100524432D01*
X213179558Y-100407586D01*
X213133966Y-100297520D01*
X213067779Y-100198463D01*
X212983537Y-100114221D01*
X212884480Y-100048034D01*
X212774414Y-100002442D01*
X212657568Y-99979200D01*
X212601029Y-99979200D01*
X212062829Y-99441000D01*
X213001450Y-99441000D01*
X213013220Y-99560503D01*
X213048078Y-99675413D01*
X213104683Y-99781315D01*
X213180862Y-99874138D01*
X213273685Y-99950317D01*
X213379587Y-100006922D01*
X213494497Y-100041780D01*
X213614000Y-100053550D01*
X214198200Y-100050600D01*
X214350600Y-99898200D01*
X214350600Y-98958400D01*
X214909400Y-98958400D01*
X214909400Y-99898200D01*
X215061800Y-100050600D01*
X215646000Y-100053550D01*
X215765503Y-100041780D01*
X215880413Y-100006922D01*
X215986315Y-99950317D01*
X216079138Y-99874138D01*
X216155317Y-99781315D01*
X216211922Y-99675413D01*
X216242617Y-99574226D01*
X216286862Y-99628138D01*
X216379685Y-99704317D01*
X216485587Y-99760922D01*
X216600497Y-99795780D01*
X216720000Y-99807550D01*
X216738200Y-99804600D01*
X216890600Y-99652200D01*
X216890600Y-98874400D01*
X216262800Y-98874400D01*
X216141000Y-98996200D01*
X216103200Y-98958400D01*
X214909400Y-98958400D01*
X214350600Y-98958400D01*
X213156800Y-98958400D01*
X213004400Y-99110800D01*
X213001450Y-99441000D01*
X212062829Y-99441000D01*
X211666247Y-99044418D01*
X211779205Y-99119894D01*
X211927125Y-99181165D01*
X212084156Y-99212400D01*
X212244264Y-99212400D01*
X212401295Y-99181165D01*
X212549215Y-99119894D01*
X212682340Y-99030943D01*
X212795553Y-98917730D01*
X212884504Y-98784605D01*
X212945775Y-98636685D01*
X212977010Y-98479654D01*
X212977010Y-98319546D01*
X212945775Y-98162515D01*
X212884504Y-98014595D01*
X212795553Y-97881470D01*
X212733754Y-97819671D01*
X213011036Y-97819671D01*
X213001450Y-97917000D01*
X213004400Y-98247200D01*
X213156800Y-98399600D01*
X214350600Y-98399600D01*
X214350600Y-98379600D01*
X214909400Y-98379600D01*
X214909400Y-98399600D01*
X216103200Y-98399600D01*
X216225000Y-98277800D01*
X216262800Y-98315600D01*
X216890600Y-98315600D01*
X216890600Y-98295600D01*
X217449400Y-98295600D01*
X217449400Y-98315600D01*
X218077200Y-98315600D01*
X218229600Y-98163200D01*
X218232550Y-97995000D01*
X218220780Y-97875497D01*
X218185922Y-97760587D01*
X218129317Y-97654685D01*
X218053138Y-97561862D01*
X217960315Y-97485683D01*
X217854413Y-97429078D01*
X217739503Y-97394220D01*
X217620000Y-97382450D01*
X217603068Y-97385194D01*
X217926724Y-97061539D01*
X217948043Y-97044043D01*
X217994962Y-96986872D01*
X218017873Y-96958955D01*
X218069761Y-96861878D01*
X218101714Y-96756545D01*
X218112503Y-96647000D01*
X218109800Y-96619556D01*
X218109800Y-94951030D01*
X218644090Y-94951030D01*
X218671532Y-94953733D01*
X218698974Y-94951030D01*
X218698976Y-94951030D01*
X218716704Y-94949284D01*
X223215523Y-94949284D01*
X223215121Y-94953368D01*
X223215121Y-94953368D01*
G37*
X223215121Y-94953368D02*
X223217201Y-94974485D01*
X223217200Y-95829637D01*
X223128870Y-95888657D01*
X223015657Y-96001870D01*
X222926706Y-96134995D01*
X222865435Y-96282915D01*
X222834200Y-96439946D01*
X222834200Y-96600054D01*
X222865435Y-96757085D01*
X222926706Y-96905005D01*
X223015657Y-97038130D01*
X223128870Y-97151343D01*
X223261995Y-97240294D01*
X223409915Y-97301565D01*
X223566946Y-97332800D01*
X223727054Y-97332800D01*
X223884085Y-97301565D01*
X224032005Y-97240294D01*
X224165130Y-97151343D01*
X224278343Y-97038130D01*
X224367294Y-96905005D01*
X224428565Y-96757085D01*
X224459800Y-96600054D01*
X224459800Y-96439946D01*
X224428565Y-96282915D01*
X224367294Y-96134995D01*
X224278343Y-96001870D01*
X224165130Y-95888657D01*
X224076800Y-95829637D01*
X224076800Y-95192736D01*
X224129830Y-95203284D01*
X224289938Y-95203284D01*
X224446969Y-95172049D01*
X224594889Y-95110778D01*
X224728014Y-95021827D01*
X224800557Y-94949284D01*
X228017022Y-94949284D01*
X228803200Y-95735463D01*
X228803200Y-97513182D01*
X228779138Y-97483862D01*
X228686315Y-97407683D01*
X228580413Y-97351078D01*
X228465503Y-97316220D01*
X228346000Y-97304450D01*
X227761800Y-97307400D01*
X227609400Y-97459800D01*
X227609400Y-98399600D01*
X227629400Y-98399600D01*
X227629400Y-98958400D01*
X227609400Y-98958400D01*
X227609400Y-99898200D01*
X227761800Y-100050600D01*
X228346000Y-100053550D01*
X228465503Y-100041780D01*
X228580413Y-100006922D01*
X228686315Y-99950317D01*
X228779138Y-99874138D01*
X228803201Y-99844818D01*
X228803201Y-99971536D01*
X227862012Y-100912726D01*
X226314000Y-100912726D01*
X226254249Y-100918611D01*
X226196794Y-100936040D01*
X226143843Y-100964342D01*
X226097432Y-101002432D01*
X226059342Y-101048843D01*
X226031040Y-101101794D01*
X226013611Y-101159249D01*
X226007726Y-101219000D01*
X226007726Y-101222464D01*
X225546274Y-100761012D01*
X225546274Y-100195000D01*
X225540389Y-100135249D01*
X225522960Y-100077794D01*
X225494658Y-100024843D01*
X225456568Y-99978432D01*
X225410157Y-99940342D01*
X225357206Y-99912040D01*
X225299751Y-99894611D01*
X225240000Y-99888726D01*
X224340000Y-99888726D01*
X224280249Y-99894611D01*
X224222794Y-99912040D01*
X224169843Y-99940342D01*
X224123432Y-99978432D01*
X224085342Y-100024843D01*
X224057040Y-100077794D01*
X224039611Y-100135249D01*
X224033726Y-100195000D01*
X224033726Y-100365200D01*
X222992944Y-100365200D01*
X222971837Y-100363121D01*
X222950730Y-100365200D01*
X222950728Y-100365200D01*
X222887582Y-100371419D01*
X222812112Y-100394313D01*
X222806564Y-100395996D01*
X222731897Y-100435906D01*
X222698469Y-100463340D01*
X222666452Y-100489615D01*
X222652994Y-100506014D01*
X222198281Y-100960728D01*
X222196558Y-100952066D01*
X222150966Y-100842000D01*
X222084779Y-100742943D01*
X222000537Y-100658701D01*
X221901480Y-100592514D01*
X221791414Y-100546922D01*
X221674568Y-100523680D01*
X221555432Y-100523680D01*
X221438586Y-100546922D01*
X221328520Y-100592514D01*
X221229463Y-100658701D01*
X221145221Y-100742943D01*
X221079034Y-100842000D01*
X221033442Y-100952066D01*
X221010200Y-101068912D01*
X221010200Y-101124409D01*
X220999616Y-101133095D01*
X220975002Y-101163088D01*
X220945906Y-101198541D01*
X220905996Y-101273208D01*
X220881420Y-101354225D01*
X220873121Y-101438480D01*
X220875201Y-101459597D01*
X220875201Y-102285999D01*
X220778400Y-102382800D01*
X220778400Y-102792544D01*
X220773726Y-102840000D01*
X220773726Y-104590000D01*
X220778400Y-104637456D01*
X220778400Y-105047200D01*
X220930800Y-105199600D01*
X221012406Y-105188069D01*
X221126539Y-105150746D01*
X221231198Y-105091874D01*
X221322361Y-105013715D01*
X221396524Y-104919273D01*
X221408188Y-104896274D01*
X221530000Y-104896274D01*
X221589751Y-104890389D01*
X221630000Y-104878179D01*
X221670249Y-104890389D01*
X221730000Y-104896274D01*
X222180000Y-104896274D01*
X222239751Y-104890389D01*
X222280000Y-104878179D01*
X222320249Y-104890389D01*
X222380000Y-104896274D01*
X222830000Y-104896274D01*
X222889751Y-104890389D01*
X222930000Y-104878179D01*
X222970249Y-104890389D01*
X223030000Y-104896274D01*
X223480000Y-104896274D01*
X223539751Y-104890389D01*
X223580000Y-104878179D01*
X223620249Y-104890389D01*
X223680000Y-104896274D01*
X223936705Y-104896274D01*
X222152980Y-106680000D01*
X219923839Y-106680000D01*
X219893386Y-106606481D01*
X219776638Y-106431755D01*
X219628045Y-106283162D01*
X219453319Y-106166414D01*
X219259174Y-106085996D01*
X219053071Y-106045000D01*
X219030673Y-106045000D01*
X218541600Y-105555928D01*
X218541600Y-104896274D01*
X218930000Y-104896274D01*
X218989751Y-104890389D01*
X219030000Y-104878179D01*
X219070249Y-104890389D01*
X219130000Y-104896274D01*
X219580000Y-104896274D01*
X219639751Y-104890389D01*
X219680000Y-104878179D01*
X219720249Y-104890389D01*
X219780000Y-104896274D01*
X219901812Y-104896274D01*
X219913476Y-104919273D01*
X219987639Y-105013715D01*
X220078802Y-105091874D01*
X220183461Y-105150746D01*
X220297594Y-105188069D01*
X220379200Y-105199600D01*
X220531600Y-105047200D01*
X220531600Y-104637456D01*
X220536274Y-104590000D01*
X220536274Y-102840000D01*
X220531600Y-102792544D01*
X220531600Y-102382800D01*
X220434800Y-102286000D01*
X220434800Y-101888809D01*
X220436680Y-101885995D01*
X220482272Y-101775929D01*
X220505514Y-101659083D01*
X220505514Y-101539947D01*
X220482272Y-101423101D01*
X220436680Y-101313035D01*
X220370493Y-101213978D01*
X220286251Y-101129736D01*
X220187194Y-101063549D01*
X220077128Y-101017957D01*
X219960282Y-100994715D01*
X219841146Y-100994715D01*
X219724300Y-101017957D01*
X219614234Y-101063549D01*
X219515177Y-101129736D01*
X219500431Y-101144482D01*
X219486240Y-101130291D01*
X219387183Y-101064104D01*
X219277117Y-101018512D01*
X219160271Y-100995270D01*
X219041135Y-100995270D01*
X218924289Y-101018512D01*
X218870581Y-101040759D01*
X218870581Y-99872239D01*
X219547820Y-99195000D01*
X223727450Y-99195000D01*
X223739220Y-99314503D01*
X223774078Y-99429413D01*
X223830683Y-99535315D01*
X223906862Y-99628138D01*
X223999685Y-99704317D01*
X224105587Y-99760922D01*
X224220497Y-99795780D01*
X224340000Y-99807550D01*
X224358200Y-99804600D01*
X224510600Y-99652200D01*
X224510600Y-98874400D01*
X225069400Y-98874400D01*
X225069400Y-99652200D01*
X225221800Y-99804600D01*
X225240000Y-99807550D01*
X225359503Y-99795780D01*
X225474413Y-99760922D01*
X225580315Y-99704317D01*
X225673138Y-99628138D01*
X225717383Y-99574226D01*
X225748078Y-99675413D01*
X225804683Y-99781315D01*
X225880862Y-99874138D01*
X225973685Y-99950317D01*
X226079587Y-100006922D01*
X226194497Y-100041780D01*
X226314000Y-100053550D01*
X226898200Y-100050600D01*
X227050600Y-99898200D01*
X227050600Y-98958400D01*
X225856800Y-98958400D01*
X225819000Y-98996200D01*
X225697200Y-98874400D01*
X225069400Y-98874400D01*
X224510600Y-98874400D01*
X223882800Y-98874400D01*
X223730400Y-99026800D01*
X223727450Y-99195000D01*
X219547820Y-99195000D01*
X219867394Y-98875427D01*
X219923933Y-98875427D01*
X220040779Y-98852185D01*
X220150845Y-98806593D01*
X220249902Y-98740406D01*
X220334144Y-98656164D01*
X220400331Y-98557107D01*
X220445923Y-98447041D01*
X220469165Y-98330195D01*
X220469165Y-98211059D01*
X220445923Y-98094213D01*
X220404827Y-97995000D01*
X223727450Y-97995000D01*
X223730400Y-98163200D01*
X223882800Y-98315600D01*
X224510600Y-98315600D01*
X224510600Y-97537800D01*
X225069400Y-97537800D01*
X225069400Y-98315600D01*
X225697200Y-98315600D01*
X225735000Y-98277800D01*
X225856800Y-98399600D01*
X227050600Y-98399600D01*
X227050600Y-97459800D01*
X226898200Y-97307400D01*
X226314000Y-97304450D01*
X226194497Y-97316220D01*
X226079587Y-97351078D01*
X225973685Y-97407683D01*
X225880862Y-97483862D01*
X225804683Y-97576685D01*
X225756154Y-97667477D01*
X225749317Y-97654685D01*
X225673138Y-97561862D01*
X225580315Y-97485683D01*
X225474413Y-97429078D01*
X225359503Y-97394220D01*
X225240000Y-97382450D01*
X225221800Y-97385400D01*
X225069400Y-97537800D01*
X224510600Y-97537800D01*
X224358200Y-97385400D01*
X224340000Y-97382450D01*
X224220497Y-97394220D01*
X224105587Y-97429078D01*
X223999685Y-97485683D01*
X223906862Y-97561862D01*
X223830683Y-97654685D01*
X223774078Y-97760587D01*
X223739220Y-97875497D01*
X223727450Y-97995000D01*
X220404827Y-97995000D01*
X220400331Y-97984147D01*
X220334144Y-97885090D01*
X220249902Y-97800848D01*
X220150845Y-97734661D01*
X220040779Y-97689069D01*
X219923933Y-97665827D01*
X219804797Y-97665827D01*
X219687951Y-97689069D01*
X219577885Y-97734661D01*
X219478828Y-97800848D01*
X219394586Y-97885090D01*
X219328399Y-97984147D01*
X219282807Y-98094213D01*
X219259565Y-98211059D01*
X219259565Y-98267598D01*
X218221667Y-99305497D01*
X218232550Y-99195000D01*
X218229600Y-99026800D01*
X218077200Y-98874400D01*
X217449400Y-98874400D01*
X217449400Y-99652200D01*
X217601800Y-99804600D01*
X217620000Y-99807550D01*
X217739503Y-99795780D01*
X217854413Y-99760922D01*
X217960315Y-99704317D01*
X218012092Y-99661824D01*
X218008902Y-99694211D01*
X218010982Y-99715328D01*
X218010981Y-101844043D01*
X218008902Y-101865150D01*
X218010981Y-101886257D01*
X218010981Y-101886258D01*
X218017200Y-101949404D01*
X218039417Y-102022642D01*
X218041777Y-102030422D01*
X218081687Y-102105089D01*
X218091644Y-102117221D01*
X218135396Y-102170535D01*
X218151801Y-102183998D01*
X218275201Y-102307398D01*
X218275201Y-102539626D01*
X217982800Y-102539626D01*
X217982800Y-100755077D01*
X217971039Y-100635663D01*
X217926274Y-100488094D01*
X217926274Y-100195000D01*
X217920389Y-100135249D01*
X217902960Y-100077794D01*
X217874658Y-100024843D01*
X217836568Y-99978432D01*
X217790157Y-99940342D01*
X217737206Y-99912040D01*
X217679751Y-99894611D01*
X217620000Y-99888726D01*
X216720000Y-99888726D01*
X216660249Y-99894611D01*
X216602794Y-99912040D01*
X216549843Y-99940342D01*
X216503432Y-99978432D01*
X216465342Y-100024843D01*
X216437040Y-100077794D01*
X216419611Y-100135249D01*
X216413726Y-100195000D01*
X216413726Y-100488095D01*
X216368961Y-100635664D01*
X216357200Y-100755078D01*
X216357200Y-101256237D01*
X216301450Y-101226438D01*
X216148237Y-101179961D01*
X216028823Y-101168200D01*
X216028820Y-101168200D01*
X215988900Y-101164268D01*
X215948980Y-101168200D01*
X215947271Y-101168200D01*
X215946389Y-101159249D01*
X215928960Y-101101794D01*
X215900658Y-101048843D01*
X215862568Y-101002432D01*
X215816157Y-100964342D01*
X215763206Y-100936040D01*
X215705751Y-100918611D01*
X215646000Y-100912726D01*
X213614000Y-100912726D01*
X213554249Y-100918611D01*
X213496794Y-100936040D01*
X213443843Y-100964342D01*
X213397432Y-101002432D01*
X213359342Y-101048843D01*
X213331040Y-101101794D01*
X213313611Y-101159249D01*
X213307726Y-101219000D01*
X213307726Y-102743000D01*
X213313611Y-102802751D01*
X213331040Y-102860206D01*
X213347048Y-102890155D01*
X210796589Y-100339697D01*
X210796589Y-99601628D01*
X210800521Y-99561707D01*
X210794843Y-99504061D01*
X210784828Y-99402371D01*
X210774502Y-99368331D01*
X211993200Y-100587029D01*
X211993200Y-100643568D01*
X212016442Y-100760414D01*
X212062034Y-100870480D01*
X212128221Y-100969537D01*
X212212463Y-101053779D01*
X212311520Y-101119966D01*
X212421586Y-101165558D01*
X212538432Y-101188800D01*
X212657568Y-101188800D01*
X212774414Y-101165558D01*
X212884480Y-101119966D01*
X212983537Y-101053779D01*
X213067779Y-100969537D01*
X213133966Y-100870480D01*
X213179558Y-100760414D01*
X213202800Y-100643568D01*
X213202800Y-100524432D01*
X213179558Y-100407586D01*
X213133966Y-100297520D01*
X213067779Y-100198463D01*
X212983537Y-100114221D01*
X212884480Y-100048034D01*
X212774414Y-100002442D01*
X212657568Y-99979200D01*
X212601029Y-99979200D01*
X212062829Y-99441000D01*
X213001450Y-99441000D01*
X213013220Y-99560503D01*
X213048078Y-99675413D01*
X213104683Y-99781315D01*
X213180862Y-99874138D01*
X213273685Y-99950317D01*
X213379587Y-100006922D01*
X213494497Y-100041780D01*
X213614000Y-100053550D01*
X214198200Y-100050600D01*
X214350600Y-99898200D01*
X214350600Y-98958400D01*
X214909400Y-98958400D01*
X214909400Y-99898200D01*
X215061800Y-100050600D01*
X215646000Y-100053550D01*
X215765503Y-100041780D01*
X215880413Y-100006922D01*
X215986315Y-99950317D01*
X216079138Y-99874138D01*
X216155317Y-99781315D01*
X216211922Y-99675413D01*
X216242617Y-99574226D01*
X216286862Y-99628138D01*
X216379685Y-99704317D01*
X216485587Y-99760922D01*
X216600497Y-99795780D01*
X216720000Y-99807550D01*
X216738200Y-99804600D01*
X216890600Y-99652200D01*
X216890600Y-98874400D01*
X216262800Y-98874400D01*
X216141000Y-98996200D01*
X216103200Y-98958400D01*
X214909400Y-98958400D01*
X214350600Y-98958400D01*
X213156800Y-98958400D01*
X213004400Y-99110800D01*
X213001450Y-99441000D01*
X212062829Y-99441000D01*
X211666247Y-99044418D01*
X211779205Y-99119894D01*
X211927125Y-99181165D01*
X212084156Y-99212400D01*
X212244264Y-99212400D01*
X212401295Y-99181165D01*
X212549215Y-99119894D01*
X212682340Y-99030943D01*
X212795553Y-98917730D01*
X212884504Y-98784605D01*
X212945775Y-98636685D01*
X212977010Y-98479654D01*
X212977010Y-98319546D01*
X212945775Y-98162515D01*
X212884504Y-98014595D01*
X212795553Y-97881470D01*
X212733754Y-97819671D01*
X213011036Y-97819671D01*
X213001450Y-97917000D01*
X213004400Y-98247200D01*
X213156800Y-98399600D01*
X214350600Y-98399600D01*
X214350600Y-98379600D01*
X214909400Y-98379600D01*
X214909400Y-98399600D01*
X216103200Y-98399600D01*
X216225000Y-98277800D01*
X216262800Y-98315600D01*
X216890600Y-98315600D01*
X216890600Y-98295600D01*
X217449400Y-98295600D01*
X217449400Y-98315600D01*
X218077200Y-98315600D01*
X218229600Y-98163200D01*
X218232550Y-97995000D01*
X218220780Y-97875497D01*
X218185922Y-97760587D01*
X218129317Y-97654685D01*
X218053138Y-97561862D01*
X217960315Y-97485683D01*
X217854413Y-97429078D01*
X217739503Y-97394220D01*
X217620000Y-97382450D01*
X217603068Y-97385194D01*
X217926724Y-97061539D01*
X217948043Y-97044043D01*
X217994962Y-96986872D01*
X218017873Y-96958955D01*
X218069761Y-96861878D01*
X218101714Y-96756545D01*
X218112503Y-96647000D01*
X218109800Y-96619556D01*
X218109800Y-94951030D01*
X218644090Y-94951030D01*
X218671532Y-94953733D01*
X218698974Y-94951030D01*
X218698976Y-94951030D01*
X218716704Y-94949284D01*
X223215523Y-94949284D01*
X223215121Y-94953368D01*
G36*
X237801342Y-84489843D02*
G01*
X237773040Y-84542794D01*
X237755611Y-84600249D01*
X237749726Y-84660000D01*
X237749726Y-84701200D01*
X234731241Y-84701200D01*
X234703799Y-84698497D01*
X234676357Y-84701200D01*
X234676356Y-84701200D01*
X234594256Y-84709286D01*
X234488922Y-84741239D01*
X234391846Y-84793127D01*
X234306757Y-84862957D01*
X234289257Y-84884281D01*
X227806916Y-91366622D01*
X224456012Y-91366622D01*
X224456012Y-90258021D01*
X224528555Y-90185478D01*
X224617506Y-90052353D01*
X224678777Y-89904433D01*
X224710012Y-89747402D01*
X224710012Y-89587294D01*
X224678777Y-89430263D01*
X224617506Y-89282343D01*
X224528555Y-89149218D01*
X224415342Y-89036005D01*
X224282217Y-88947054D01*
X224134297Y-88885783D01*
X224063174Y-88871636D01*
X226311012Y-86623799D01*
X226458894Y-86623799D01*
X226480001Y-86625878D01*
X226501108Y-86623799D01*
X226501110Y-86623799D01*
X226564256Y-86617580D01*
X226645274Y-86593003D01*
X226719940Y-86553093D01*
X226785386Y-86499384D01*
X226798849Y-86482979D01*
X226872795Y-86409033D01*
X226885939Y-86416058D01*
X227103620Y-86482090D01*
X227273276Y-86498800D01*
X227386724Y-86498800D01*
X227556380Y-86482090D01*
X227774061Y-86416058D01*
X227974676Y-86308827D01*
X228150518Y-86164518D01*
X228294827Y-85988676D01*
X228402058Y-85788061D01*
X228468090Y-85570380D01*
X228490387Y-85344000D01*
X228468090Y-85117620D01*
X228402058Y-84899939D01*
X228294827Y-84699324D01*
X228150518Y-84523482D01*
X228079013Y-84464800D01*
X237821895Y-84464800D01*
X237801342Y-84489843D01*
X237801342Y-84489843D01*
G37*
X237801342Y-84489843D02*
X237773040Y-84542794D01*
X237755611Y-84600249D01*
X237749726Y-84660000D01*
X237749726Y-84701200D01*
X234731241Y-84701200D01*
X234703799Y-84698497D01*
X234676357Y-84701200D01*
X234676356Y-84701200D01*
X234594256Y-84709286D01*
X234488922Y-84741239D01*
X234391846Y-84793127D01*
X234306757Y-84862957D01*
X234289257Y-84884281D01*
X227806916Y-91366622D01*
X224456012Y-91366622D01*
X224456012Y-90258021D01*
X224528555Y-90185478D01*
X224617506Y-90052353D01*
X224678777Y-89904433D01*
X224710012Y-89747402D01*
X224710012Y-89587294D01*
X224678777Y-89430263D01*
X224617506Y-89282343D01*
X224528555Y-89149218D01*
X224415342Y-89036005D01*
X224282217Y-88947054D01*
X224134297Y-88885783D01*
X224063174Y-88871636D01*
X226311012Y-86623799D01*
X226458894Y-86623799D01*
X226480001Y-86625878D01*
X226501108Y-86623799D01*
X226501110Y-86623799D01*
X226564256Y-86617580D01*
X226645274Y-86593003D01*
X226719940Y-86553093D01*
X226785386Y-86499384D01*
X226798849Y-86482979D01*
X226872795Y-86409033D01*
X226885939Y-86416058D01*
X227103620Y-86482090D01*
X227273276Y-86498800D01*
X227386724Y-86498800D01*
X227556380Y-86482090D01*
X227774061Y-86416058D01*
X227974676Y-86308827D01*
X228150518Y-86164518D01*
X228294827Y-85988676D01*
X228402058Y-85788061D01*
X228468090Y-85570380D01*
X228490387Y-85344000D01*
X228468090Y-85117620D01*
X228402058Y-84899939D01*
X228294827Y-84699324D01*
X228150518Y-84523482D01*
X228079013Y-84464800D01*
X237821895Y-84464800D01*
X237801342Y-84489843D01*
G36*
X243790862Y-84526862D02*
G01*
X243714683Y-84619685D01*
X243658078Y-84725587D01*
X243623220Y-84840497D01*
X243611450Y-84960000D01*
X243614400Y-85028200D01*
X243766800Y-85180600D01*
X244494600Y-85180600D01*
X244494600Y-85160600D01*
X245053400Y-85160600D01*
X245053400Y-85180600D01*
X245073400Y-85180600D01*
X245073400Y-85739400D01*
X245053400Y-85739400D01*
X245053400Y-85759400D01*
X244494600Y-85759400D01*
X244494600Y-85739400D01*
X243766800Y-85739400D01*
X243614400Y-85891800D01*
X243611450Y-85960000D01*
X243623220Y-86079503D01*
X243658078Y-86194413D01*
X243714683Y-86300315D01*
X243790862Y-86393138D01*
X243883685Y-86469317D01*
X243989587Y-86525922D01*
X244018194Y-86534600D01*
X244007432Y-86543432D01*
X243969342Y-86589843D01*
X243941040Y-86642794D01*
X243923611Y-86700249D01*
X243917726Y-86760000D01*
X243917726Y-86833663D01*
X243889745Y-86836419D01*
X243873984Y-86841200D01*
X242696107Y-86841200D01*
X242675000Y-86839121D01*
X242653893Y-86841200D01*
X242653891Y-86841200D01*
X242590745Y-86847419D01*
X242529549Y-86865983D01*
X242509727Y-86871996D01*
X242435060Y-86911906D01*
X242422131Y-86922517D01*
X242369615Y-86965615D01*
X242356159Y-86982012D01*
X241798772Y-87539400D01*
X241153400Y-87539400D01*
X241153400Y-87559400D01*
X240594600Y-87559400D01*
X240594600Y-87539400D01*
X239866800Y-87539400D01*
X239714400Y-87691800D01*
X239711450Y-87760000D01*
X239723220Y-87879503D01*
X239747154Y-87958401D01*
X239262274Y-87958401D01*
X239262274Y-87161554D01*
X239716653Y-86707176D01*
X239711450Y-86760000D01*
X239714400Y-86828200D01*
X239866800Y-86980600D01*
X240594600Y-86980600D01*
X240594600Y-86960600D01*
X241153400Y-86960600D01*
X241153400Y-86980600D01*
X241881200Y-86980600D01*
X242033600Y-86828200D01*
X242036550Y-86760000D01*
X242024780Y-86640497D01*
X241989922Y-86525587D01*
X241933317Y-86419685D01*
X241857138Y-86326862D01*
X241764315Y-86250683D01*
X241658413Y-86194078D01*
X241629806Y-86185400D01*
X241640568Y-86176568D01*
X241678658Y-86130157D01*
X241706960Y-86077206D01*
X241724389Y-86019751D01*
X241730274Y-85960000D01*
X241730274Y-84960000D01*
X241724389Y-84900249D01*
X241706960Y-84842794D01*
X241678658Y-84789843D01*
X241640568Y-84743432D01*
X241594157Y-84705342D01*
X241541206Y-84677040D01*
X241483751Y-84659611D01*
X241424000Y-84653726D01*
X240324000Y-84653726D01*
X240264249Y-84659611D01*
X240206794Y-84677040D01*
X240153843Y-84705342D01*
X240107432Y-84743432D01*
X240069342Y-84789843D01*
X240041040Y-84842794D01*
X240023611Y-84900249D01*
X240017726Y-84960000D01*
X240017726Y-85190445D01*
X239242441Y-85965730D01*
X239256389Y-85919751D01*
X239262274Y-85860000D01*
X239262274Y-84660000D01*
X239256389Y-84600249D01*
X239238960Y-84542794D01*
X239210658Y-84489843D01*
X239190105Y-84464800D01*
X243866484Y-84464800D01*
X243790862Y-84526862D01*
X243790862Y-84526862D01*
G37*
X243790862Y-84526862D02*
X243714683Y-84619685D01*
X243658078Y-84725587D01*
X243623220Y-84840497D01*
X243611450Y-84960000D01*
X243614400Y-85028200D01*
X243766800Y-85180600D01*
X244494600Y-85180600D01*
X244494600Y-85160600D01*
X245053400Y-85160600D01*
X245053400Y-85180600D01*
X245073400Y-85180600D01*
X245073400Y-85739400D01*
X245053400Y-85739400D01*
X245053400Y-85759400D01*
X244494600Y-85759400D01*
X244494600Y-85739400D01*
X243766800Y-85739400D01*
X243614400Y-85891800D01*
X243611450Y-85960000D01*
X243623220Y-86079503D01*
X243658078Y-86194413D01*
X243714683Y-86300315D01*
X243790862Y-86393138D01*
X243883685Y-86469317D01*
X243989587Y-86525922D01*
X244018194Y-86534600D01*
X244007432Y-86543432D01*
X243969342Y-86589843D01*
X243941040Y-86642794D01*
X243923611Y-86700249D01*
X243917726Y-86760000D01*
X243917726Y-86833663D01*
X243889745Y-86836419D01*
X243873984Y-86841200D01*
X242696107Y-86841200D01*
X242675000Y-86839121D01*
X242653893Y-86841200D01*
X242653891Y-86841200D01*
X242590745Y-86847419D01*
X242529549Y-86865983D01*
X242509727Y-86871996D01*
X242435060Y-86911906D01*
X242422131Y-86922517D01*
X242369615Y-86965615D01*
X242356159Y-86982012D01*
X241798772Y-87539400D01*
X241153400Y-87539400D01*
X241153400Y-87559400D01*
X240594600Y-87559400D01*
X240594600Y-87539400D01*
X239866800Y-87539400D01*
X239714400Y-87691800D01*
X239711450Y-87760000D01*
X239723220Y-87879503D01*
X239747154Y-87958401D01*
X239262274Y-87958401D01*
X239262274Y-87161554D01*
X239716653Y-86707176D01*
X239711450Y-86760000D01*
X239714400Y-86828200D01*
X239866800Y-86980600D01*
X240594600Y-86980600D01*
X240594600Y-86960600D01*
X241153400Y-86960600D01*
X241153400Y-86980600D01*
X241881200Y-86980600D01*
X242033600Y-86828200D01*
X242036550Y-86760000D01*
X242024780Y-86640497D01*
X241989922Y-86525587D01*
X241933317Y-86419685D01*
X241857138Y-86326862D01*
X241764315Y-86250683D01*
X241658413Y-86194078D01*
X241629806Y-86185400D01*
X241640568Y-86176568D01*
X241678658Y-86130157D01*
X241706960Y-86077206D01*
X241724389Y-86019751D01*
X241730274Y-85960000D01*
X241730274Y-84960000D01*
X241724389Y-84900249D01*
X241706960Y-84842794D01*
X241678658Y-84789843D01*
X241640568Y-84743432D01*
X241594157Y-84705342D01*
X241541206Y-84677040D01*
X241483751Y-84659611D01*
X241424000Y-84653726D01*
X240324000Y-84653726D01*
X240264249Y-84659611D01*
X240206794Y-84677040D01*
X240153843Y-84705342D01*
X240107432Y-84743432D01*
X240069342Y-84789843D01*
X240041040Y-84842794D01*
X240023611Y-84900249D01*
X240017726Y-84960000D01*
X240017726Y-85190445D01*
X239242441Y-85965730D01*
X239256389Y-85919751D01*
X239262274Y-85860000D01*
X239262274Y-84660000D01*
X239256389Y-84600249D01*
X239238960Y-84542794D01*
X239210658Y-84489843D01*
X239190105Y-84464800D01*
X243866484Y-84464800D01*
X243790862Y-84526862D01*
G36*
X213167450Y-84494000D02*
G01*
X213170400Y-84912200D01*
X213322800Y-85064600D01*
X214350600Y-85064600D01*
X214350600Y-85044600D01*
X214909400Y-85044600D01*
X214909400Y-85064600D01*
X214929400Y-85064600D01*
X214929400Y-85623400D01*
X214909400Y-85623400D01*
X214909400Y-85643400D01*
X214350600Y-85643400D01*
X214350600Y-85623400D01*
X213322800Y-85623400D01*
X213170400Y-85775800D01*
X213167450Y-86194000D01*
X213171392Y-86234025D01*
X211402166Y-84464800D01*
X213170326Y-84464800D01*
X213167450Y-84494000D01*
X213167450Y-84494000D01*
G37*
X213167450Y-84494000D02*
X213170400Y-84912200D01*
X213322800Y-85064600D01*
X214350600Y-85064600D01*
X214350600Y-85044600D01*
X214909400Y-85044600D01*
X214909400Y-85064600D01*
X214929400Y-85064600D01*
X214929400Y-85623400D01*
X214909400Y-85623400D01*
X214909400Y-85643400D01*
X214350600Y-85643400D01*
X214350600Y-85623400D01*
X213322800Y-85623400D01*
X213170400Y-85775800D01*
X213167450Y-86194000D01*
X213171392Y-86234025D01*
X211402166Y-84464800D01*
X213170326Y-84464800D01*
X213167450Y-84494000D01*
M02*
