G04 #@! TF.GenerationSoftware,KiCad,Pcbnew,5.1.4-e60b266~84~ubuntu18.04.1*
G04 #@! TF.CreationDate,2019-08-11T22:19:42+02:00*
G04 #@! TF.ProjectId,rat_board,7261745f-626f-4617-9264-2e6b69636164,rev?*
G04 #@! TF.SameCoordinates,Original*
G04 #@! TF.FileFunction,Soldermask,Bot*
G04 #@! TF.FilePolarity,Negative*
%FSLAX46Y46*%
G04 Gerber Fmt 4.6, Leading zero omitted, Abs format (unit mm)*
G04 Created by KiCad (PCBNEW 5.1.4-e60b266~84~ubuntu18.04.1) date 2019-08-11 22:19:42*
%MOMM*%
%LPD*%
G04 APERTURE LIST*
%ADD10O,2.100000X2.100000*%
%ADD11R,2.100000X2.100000*%
%ADD12C,2.100000*%
%ADD13R,1.500000X1.400000*%
%ADD14R,2.432000X1.924000*%
%ADD15C,4.200000*%
%ADD16R,1.300000X1.600000*%
%ADD17R,2.200000X2.200000*%
%ADD18C,2.200000*%
%ADD19O,2.899360X2.398980*%
%ADD20R,1.600000X1.300000*%
%ADD21R,0.850000X2.150000*%
%ADD22R,1.500000X2.150000*%
%ADD23R,1.900000X2.400000*%
%ADD24R,4.200000X2.400000*%
G04 APERTURE END LIST*
D10*
X227330000Y-85344000D03*
X224790000Y-85344000D03*
X222250000Y-85344000D03*
X219710000Y-85344000D03*
X217170000Y-85344000D03*
D11*
X214630000Y-85344000D03*
D10*
X218440000Y-128016000D03*
D11*
X220980000Y-128016000D03*
D12*
X223520000Y-128016000D03*
D13*
X201086000Y-85460000D03*
X197186000Y-85460000D03*
X197186000Y-87260000D03*
X201086000Y-87260000D03*
D10*
X205486000Y-99060000D03*
D11*
X205486000Y-101600000D03*
D14*
X214630000Y-101981000D03*
X214630000Y-98679000D03*
D12*
X208280000Y-101600000D03*
D10*
X208280000Y-99060000D03*
D12*
X233680000Y-101600000D03*
X233680000Y-99060000D03*
D15*
X235585000Y-104775000D03*
X206375000Y-104775000D03*
X220980000Y-124460000D03*
X220980000Y-114300000D03*
D16*
X224790000Y-100795000D03*
X224790000Y-98595000D03*
X217170000Y-100795000D03*
X217170000Y-98595000D03*
D17*
X205105000Y-90805000D03*
D18*
X202565000Y-90805000D03*
D19*
X232918000Y-94896940D03*
X232918000Y-90015060D03*
D20*
X219540000Y-121285000D03*
X217340000Y-121285000D03*
X222250000Y-121285000D03*
X224450000Y-121285000D03*
D16*
X238506000Y-85260000D03*
X238506000Y-87460000D03*
X203200000Y-87460000D03*
X203200000Y-85260000D03*
D13*
X215310000Y-125846000D03*
X211410000Y-125846000D03*
X211410000Y-127646000D03*
X215310000Y-127646000D03*
X244774000Y-85460000D03*
X240874000Y-85460000D03*
X240874000Y-87260000D03*
X244774000Y-87260000D03*
X230550000Y-125846000D03*
X226650000Y-125846000D03*
X226650000Y-127646000D03*
X230550000Y-127646000D03*
D18*
X239395000Y-106045000D03*
D17*
X239395000Y-103505000D03*
D18*
X200025000Y-90805000D03*
D17*
X197485000Y-90805000D03*
D18*
X244475000Y-90805000D03*
D17*
X241935000Y-90805000D03*
D18*
X202565000Y-103505000D03*
D17*
X202565000Y-106045000D03*
X239395000Y-100965000D03*
D18*
X239395000Y-98425000D03*
D17*
X239395000Y-90805000D03*
D18*
X236855000Y-90805000D03*
D17*
X202565000Y-98425000D03*
D18*
X202565000Y-100965000D03*
D14*
X227330000Y-101981000D03*
X227330000Y-98679000D03*
D20*
X219880000Y-119634000D03*
X222080000Y-119634000D03*
D21*
X222604760Y-110925160D03*
X218704760Y-110925160D03*
D22*
X224231200Y-110916720D03*
X221630240Y-110916720D03*
X220334840Y-110916720D03*
X217728800Y-110921800D03*
D21*
X224555000Y-110915000D03*
X223255000Y-110915000D03*
X221955000Y-110915000D03*
X220655000Y-110915000D03*
X219355000Y-110915000D03*
X218055000Y-110915000D03*
X217405000Y-103715000D03*
X218705000Y-103715000D03*
X219355000Y-103715000D03*
X220005000Y-103715000D03*
X220655000Y-103715000D03*
X221305000Y-103715000D03*
X221955000Y-103715000D03*
X222605000Y-103715000D03*
X223255000Y-103715000D03*
X223905000Y-103715000D03*
X224555000Y-103715000D03*
D22*
X217728800Y-103720900D03*
D23*
X211441000Y-114325000D03*
X216041000Y-114325000D03*
X213741000Y-114325000D03*
D24*
X213741000Y-120625000D03*
D20*
X215984000Y-110744000D03*
X213784000Y-110744000D03*
X213827000Y-112141000D03*
X216027000Y-112141000D03*
M02*
